<?xml version="1.0" encoding="utf-8"?>
<!-- Generator: Adobe Illustrator 16.0.0, SVG Export Plug-In . SVG Version: 6.00 Build 0)  -->
<!DOCTYPE svg PUBLIC "-//W3C//DTD SVG 1.1//EN" "http://www.w3.org/Graphics/SVG/1.1/DTD/svg11.dtd">
<svg version="1.1" id="Layer_1" xmlns="http://www.w3.org/2000/svg" xmlns:xlink="http://www.w3.org/1999/xlink" x="0px" y="0px"
	 width="210px" height="200px" viewBox="0 0 210 200" enable-background="new 0 0 210 200" xml:space="preserve">
<g id="Layer_2">
	<path fill="#84ADD9" d="M205.895,149.904c-0.824-0.748-2.265-1.641-4.444-1.641c-0.239,0-0.536,0.012-0.888,0.032
		c-0.217,0.013-0.48,0.028-0.791,0.028c-0.517,0-2.08,0-4.51-1.395c-3.595-2.062-7.646-5.998-14.171-29.021
		c-3.862-13.638-11.269-21.117-17.748-25.19c-0.185-0.489-0.433-0.959-0.739-1.397c-2.595-3.68-11.447-5.958-18.164-5.958
		c-4.776,0-9.383,0.945-13.689,2.81c-4.658,2.016-7.982,4.425-10.311,6.621c-4.896-3.452-9.42-5.264-12.928-6.212
		c-0.363-7.854-2.652-17.08-11.262-17.88c-2.777-0.259-5.106,0.669-6.934,2.104c-1.833-1.56-4-2.301-6.377-2.104
		c-4.623,0.391-9.548,5.065-10.746,16.699c-1.251,0.181-2.465,0.375-3.645,0.585c1.114-1.251,1.685-2.946,1.48-4.692
		c-0.313-2.677-2.375-4.816-5.038-5.23c-0.229-0.036-1.073-0.152-2.291-0.152c-3.208,0-13.78,0.962-18.279,13.037
		c-2.137-0.608-4.634-0.998-7.526-0.998c-1.199,0-2.447,0.068-3.708,0.201c-14.9,1.58-18.426,8.009-19.152,9.941
		c-0.347,0.925-0.454,1.899-0.338,2.84C2.509,111.901,2.144,125.57,2.133,126.206c-0.031,1.848,0.786,3.552,2.132,4.688
		c-3.138,15.256,1.937,21.971,2.992,23.166c0.135,0.153,0.277,0.299,0.425,0.438c2.375,5.438,5.462,7.875,6.195,8.396
		c1.022,0.729,2.209,1.1,3.397,1.114c1.254,3.104,2.762,5.869,4.534,8.316c-1.259,2.545-1.411,4.938-0.448,7.147
		c0.799,1.834,3.032,4.909,9.005,4.909c2.101,0,4.317-0.366,6.143-0.819c5.244,2.006,11.338,2.948,18.948,2.948
		c0.964,0,1.938-0.017,2.92-0.044c20.55-0.592,42.918-5.59,58.375-13.043c9.86-4.754,16.595-11.668,19.629-15.225
		c5.205-0.711,8.017-2.91,9.496-4.778c1.705-2.149,2.416-4.808,1.974-7.326c9.909,16.075,24.254,24.62,29.414,24.62
		c1.85,0,3.528-0.73,4.717-2.027c8.666-0.049,13.274-2.711,15.668-5.1c4.389-1.208,8.893-3.986,9.944-7.346
		C208.296,154.014,207.626,151.479,205.895,149.904z M142.971,140.45c0.055-1.267,0.061-2.537,0.016-3.812
		c0.775,1.85,1.617,3.627,2.514,5.334C144.802,141.378,143.96,140.87,142.971,140.45z"/>
</g>
<g id="Vector_1_">
	<polygon fill="#B49FC2" points="140.132,146.618 135.818,145.682 136.193,141.557 135.632,130.807 132.507,119.538 
		126.861,110.056 118.068,101.473 108.902,96.457 102.319,94.639 100.498,94.549 100.819,88.723 99.991,81.723 97.819,78.556 
		94.652,77.973 91.069,81.056 88.986,87.223 87.819,83.306 84.819,77.973 81.902,79.223 79.444,87.056 79.444,93.695 69.873,95.057 
		60.007,97.223 53.212,99.359 36.694,116.854 19.652,147.348 20.819,153.294 23.819,161.473 29.402,171.305 30.486,172.154 
		27.819,176.182 31.694,177.523 36.617,176.417 46.069,179.307 67.652,179.307 91.152,175.223 104.569,171.139 116.486,165.993 
		124.477,160.389 132.693,152.307 135.443,151.557 139.632,150.243 141.132,148.432 	"/>
	<polygon fill="#D2BC8B" points="56.914,108.399 61.444,107.056 69.1,106.494 73.381,107.306 77.916,109.181 81.85,113.494 
		85.381,118.932 86.507,122.462 88.694,126.682 89.475,130.432 89.257,133.307 87.507,130.837 87.85,132.618 88.757,135.712 
		88.757,138.057 87.944,140.932 86.381,142.837 84.444,144.557 81.069,145.557 77.644,145.557 75.789,146.618 73.975,146.993 
		75.152,143.993 76.173,140.452 76.507,136.766 76.399,134.087 76.069,131.773 75.522,129.665 74.914,127.915 74.85,129.148 
		75.236,132.202 74.402,136.139 73.194,138.993 72.902,138.202 73.007,131.848 71.902,125.98 70.736,123.337 71.1,120.087 
		70.381,118.057 67.694,118.773 65.975,120.618 65.126,121.023 63.414,124.712 61.444,126.398 62.039,124.462 62.366,121.807 
		62.21,120.273 61.46,122.415 58.319,129.993 52.664,137.368 48.423,141.452 45.09,143.993 40.965,146.473 42.986,143.493 
		46.694,136.557 47.507,133.023 41.289,141.109 37.815,146.827 36.268,143.993 37.6,135.398 39.902,128.598 41.736,124.889 
		36.736,127.932 30.069,133.757 24.269,141.109 20.054,148.577 18.048,153.034 17.131,155.307 16.59,152.682 16.402,146.389 
		16.539,142.493 16.319,142.915 15.819,146.273 15.673,151.577 16.423,156.618 14.694,154.534 12.257,148.884 11.694,147.04 
		11.21,149.057 9.631,143.057 10.111,133.932 12.111,127.389 15.236,122.807 18.527,119.538 22.539,116.837 23.444,116.056 
		20.414,116.712 13.789,119.743 8.694,124.057 10.039,118.648 12.277,113.931 15.944,109.39 18.944,106.849 25.486,103.765 
		32.664,102.368 36.757,102.648 39.039,103.118 38.414,102.447 34.236,100.618 29.527,99.807 24.777,100.182 21.048,101.077 
		23.539,99.057 29.397,97.212 34.257,96.375 39.694,96.375 44.381,97.712 47.475,99.337 50.362,101.863 49.569,98.523 
		49.914,94.023 51.319,90.806 53.757,87.556 57.507,85.212 60.539,84.431 62.789,84.149 61.881,84.899 58.414,87.618 56.131,90.399 
		54.866,93.118 54.131,96.148 53.991,99.398 54.381,103.556 55.381,106.649 56.397,108.071 	"/>
	<polygon fill="#D2BC8B" points="121.257,104.056 126.861,110.274 128.727,109.399 132.882,110.274 135.757,111.806 
		140.288,116.587 143.902,122.139 147.361,130.098 152.443,141.118 160.193,151.807 169.361,160.118 176.443,164.368 
		176.757,163.712 172.068,159.368 168.568,153.962 169.632,154.557 173.818,159.368 178.477,162.057 185.788,162.212 
		190.727,160.932 194.413,157.932 199.102,156.432 201.257,154.682 195.227,154.266 187.852,149.898 182.757,141.868 
		175.443,122.243 172.632,113.431 166.757,104.056 160.639,98.744 153.507,95.244 149.632,93.962 152.193,92.962 145.693,91.868 
		138.068,92.494 131.538,94.807 127.007,97.494 123.068,101.148 	"/>
	<path fill="#3F3645" d="M22.819,142.645c2.375-2.886,4.269-3.791,9.188-2.041c3.5,1.244,7.063,5.162,6.896,10.369
		c-0.167,5.209-2.417,8.562-7.104,7.791c-4.955-0.814-6.896-2.332-8.979-6.541S21.291,144.499,22.819,142.645z"/>
	
		<linearGradient id="SVGID_1_" gradientUnits="userSpaceOnUse" x1="369.0488" y1="974.5244" x2="383.9998" y2="976.1995" gradientTransform="matrix(1 0 0 1 -346 -822)">
		<stop  offset="0" style="stop-color:#C5155E"/>
		<stop  offset="0.4624" style="stop-color:#E34D8A"/>
		<stop  offset="0.6072" style="stop-color:#E04886"/>
		<stop  offset="0.7871" style="stop-color:#D8387A"/>
		<stop  offset="0.9849" style="stop-color:#CA1F67"/>
		<stop  offset="1" style="stop-color:#C91D65"/>
		<stop  offset="1" style="stop-color:#C5165F"/>
		<stop  offset="1" style="stop-color:#C00C56"/>
	</linearGradient>
	<path fill="url(#SVGID_1_)" d="M23.819,148.577c3.729,4.541,5.75,5.041,8.25,4.375s3.063-2.375,3.083-3.104
		c0,0,0.583,1.604-0.792,3.188c0,0,1.071-0.744,1.443-1.871c0.372-1.125,0.97-1.547,0.97-1.547s0.441,2.25-0.121,3.569
		c0,0,1.059-1.877,1.104-2.968c0,0,0.278,3.099-0.375,4.75c-0.802,2.03-2.562,3.708-6.812,2.771
		c-4.05-0.895-6.094-3.719-7.594-6.844c0,0-0.031-0.312,0-0.438c0,0,0.094,0.188,0.188,0.299c0,0-0.078-0.312-0.016-0.471
		c0,0,0.266,0.471,0.719,0.78c0,0-0.484-0.858-0.609-1.405c0,0,0.281,0.429,0.652,0.562c0,0,0.129-0.213,0.066-0.766
		C23.917,148.936,23.819,148.577,23.819,148.577z"/>
	<path fill="#3F3645" d="M64.361,133.766c7.25,0.248,10.333,4.959,10.167,10.625s-4.042,10.459-11.542,9.959
		s-8.927-5.988-8.667-11.084C54.507,139.575,56.381,133.493,64.361,133.766z"/>
	<polygon fill="#E48097" points="51.944,162.307 48.257,167.014 49.59,168.639 51.736,169.682 52.902,168.639 52.715,165.284 	"/>
	<path fill="#B4304E" d="M48.819,167.764c1.979-1.625,0.104-2.582,3.292-4.707l-0.686-3.109l-1.981,0.215l-3.562-1.021l-1.583,2.396
		L48.819,167.764z"/>
	<path fill="#3F3645" d="M80.257,163.493c-0.562-1.25-9.383,3.25-9,5.875c0.438,3,10.71,3.088,10.875,2.125
		c0.188-1.095-8.301-1.104-8.396-2.521C73.659,167.829,80.613,164.284,80.257,163.493z"/>
	<path fill="#3F3645" d="M41.257,158.223c-0.598,0.2,1.5,4.293,2.958,3.584s0.771-2.021,1.833-2.229
		c1.062-0.207,2.896,1.375,4.896,0.875s2.708-4.062,2-4.062s-0.5,3.438-2.708,3.418c-2.208-0.021-3.838-1.558-4.927-0.755
		c-0.74,0.546-0.567,1.781-1.49,2.066C43.007,161.368,41.881,158.014,41.257,158.223z"/>
	<path fill="#3F3645" d="M44.007,161.723c0,0,5.512,9.569,8.646,8.146c1.833-0.832-0.833-10.146-0.833-10.146l-0.688,0.438
		c0,0,2.371,8.187,1,9c-2,1.188-7.5-7.812-7.5-7.812"/>
	<path fill="#3F3645" d="M36.61,175.945c-2.704,0.227-7.275,1.227-7.625,0.216c-0.191-0.554,1.104-2.187,2.556-3.787l-1.519-1.067
		c-1.972,1.961-3.735,4.453-3.161,5.771c1.074,2.465,8.655,0.896,10.965-0.271L36.61,175.945z"/>
	<path fill="#3F3645" d="M89.402,142.307c7-0.084,10.75-7.168,10.583-11c-0.167-3.834-1.917-7.084-6.083-4.25
		c0,0,2.583-4.584,2.417-12.251c-0.167-7.666-5-6.166-6.917-4.332s-4.021,8.249-4.021,8.249l0.875,2.188
		c0,0,2.312-7.021,3.979-8.521s4.251-2.834,4.126,2.666c-0.125,5.501-0.646,8.972-4.042,16.251c-0.292,0.625-0.083,1.707,0.417,1.25
		c0.5-0.459,5.926-7.369,7.45-3.168c1.524,4.202-3.526,9.959-5.321,11.125C91.07,141.682,89.402,142.307,89.402,142.307z"/>
	<path fill="#3F3645" d="M97.319,137.398c5-0.312,9.97-7.188,10.844-10.28c0.875-3.093-0.552-6.207-2.552-5.396
		c0,0,4.521-5.729,5.521-11.604s0.812-11.188-3-13.375c-3.812-2.187-8.318,4.405-9.688,7.469c-1.367,3.062-2.375,7.875-1.938,8.188
		c0.437,0.313,4.324-10.232,7.508-12.593c2.992-2.22,4.485,0.303,4.96,2.688c0.646,3.231,0.406,7.812-2.156,13
		c-2.562,5.188-6.827,10.688-6,11.5c1.121,1.1,4.07-4.78,5.688-3.271c2.062,1.928-3.415,10.41-8.006,11.691L97.319,137.398z"/>
	<path fill="#3F3645" d="M99.257,103.431c2-14.375,0.312-25-3.688-24.875c-3.998,0.125-5.819,8.938-5.969,13.469
		c-0.124,3.756,0.552,15.031-0.281,15.031s-1.954-7.487-1.562-15.312c0.312-6.25-2.411-14.953-5.021-11.854
		c-2.667,3.166-4.821,23.625,4.25,42.167c0,0-7.917-9.251-8.917-24.5c-1-15.25,3.119-20.685,5.375-20.875
		c4.586-0.389,6.424,12.649,5.442,8c0,0,2.327-8.422,6.808-8.005c5.438,0.505,7.125,10.443,5,25.256L99.257,103.431z"/>
	<path fill="#3F3645" d="M66.039,126.368c-0.627,0.19-2.135-6.359,1.031-7.972c3.75-1.907,4.297-0.812,4.469,0.972
		c0.469,4.875-2,8.219-2.906,7.844c-1.135-0.471,1.92-2.827,1.812-6.405c-0.067-2.24-0.781-2.312-3.031-1
		C65.577,120.876,66.85,126.118,66.039,126.368z"/>
	<path fill="#FFDE96" d="M119.902,114.181c0,0,0.353,6.597,0.854,10.938c0,0,1.5-1.312,4-2c0,0-0.006,8.265-1.69,17.199
		c0,0,0.174-9.789-0.236-13.451c0,0-1.941,1.189-3.816,2.877C119.007,129.743,118.777,122.057,119.902,114.181z"/>
	<path fill="#FFFFFF" d="M60.007,142.604c-1.156,0.438-2.24-2.789-1.625-3C59.428,139.243,60.007,142.604,60.007,142.604z"/>
	
		<linearGradient id="SVGID_2_" gradientUnits="userSpaceOnUse" x1="402.0391" y1="970.9082" x2="419.3809" y2="970.9082" gradientTransform="matrix(1 0 0 1 -346 -822)">
		<stop  offset="0" style="stop-color:#C5155E"/>
		<stop  offset="0.1219" style="stop-color:#CF276D"/>
		<stop  offset="0.3367" style="stop-color:#DE4382"/>
		<stop  offset="0.4624" style="stop-color:#E34D8A"/>
		<stop  offset="0.5832" style="stop-color:#E04886"/>
		<stop  offset="0.7334" style="stop-color:#D8387A"/>
		<stop  offset="0.8985" style="stop-color:#CA1F65"/>
		<stop  offset="1" style="stop-color:#C00C56"/>
	</linearGradient>
	<path fill="url(#SVGID_2_)" d="M72.818,143.993c-3.874,4-5.749,4.28-7.468,4.597c-1.719,0.312-3.531,0.178-5.344-1.238
		c0,0,1.583,1.729,4,2c0,0-3.875,0.146-6.719-4.695c0,0,0.5,1.654,1.281,2.527c0,0-0.812-0.855-0.984-0.688
		c-0.172,0.172,0.016,0.959-0.297,0.854c-0.313-0.104-1.031-1.291-1.094-1.945c0,0-1.3,5.647,3.648,7.57
		c5.602,2.18,12.477,0.239,13.54-6.664c0,0-0.156,0.403-0.844,0.748c0,0,0.547-1.125,0.531-1.779
		C73.052,144.62,72.818,143.993,72.818,143.993z"/>
	<path fill="#FFFFFF" d="M66.926,146.559c0.241,1.213,3.585,0.748,4.293,0.432c0.708-0.313,1.599-0.453,1.599-0.453
		s-1.067,0.021-1.701-0.129C69.847,146.115,66.926,146.559,66.926,146.559z"/>
	<path fill="#FFFFFF" d="M63.361,134.514c3.646,0.01,6.771,0.584,8.633,3.655c1.536,2.533,1.78,3.149-0.154,4.763
		c-1.375,1.146-4.208,2-7.655,0.271c-2.68-1.347-4.553-3.043-4.324-6.521C60.011,134.409,62.631,134.512,63.361,134.514z"/>
	<path fill="#FFFFFF" d="M28.569,148.577c-0.562-0.396-0.958,0.084-1.917-1.146c-0.959-1.23-0.729-1.834-0.396-2
		c0.333-0.168,1.354,1.332,1.667,1.832S28.569,148.577,28.569,148.577z"/>
	<path fill="#FFFFFF" d="M36.616,150.759c0.625,1.298-0.781,1.392-1.203,1.281s-1.448-0.636-1.203-1.062
		c0.188-0.328,0.933,0.137,1.594,0.188C36.766,151.24,36.616,150.759,36.616,150.759z"/>
	<path fill="#FFFFFF" d="M27.928,140.712c1-0.479,4.182,0.406,6.382,1.929c2.132,1.475,3.769,4.998,3.633,6.088
		c-0.169,1.363-3.104,2.285-6.958-0.15C27.131,146.141,26.716,141.294,27.928,140.712z"/>
	<path fill="#3F3645" d="M121.068,103.618c0,0,2.543-5.818,12.062-9.938c12.778-5.531,24.875,0.484,24.605,1.234
		c-0.219,0.62-2.594-1.469-7.312-1c0,0,18.267,2.248,24.892,25.632s11.291,29.342,16.959,32.592c5.666,3.25,9.125,1.794,9.584,2.21
		c0.457,0.415-7.541,7.54-17.209,1.54c0,0,8.875,4.501,16.088-0.94c0,0-4.689,1.264-11.047-3.268
		c-6.373-4.542-10.791-16.207-15.209-31.447c-4.377-15.097-14.248-24.094-25.854-25.688c-1.926-0.265-5.25,0.793-5.438,0.418
		c-0.157-0.313,4.969-1.892,7.625-2.03c0,0-10.188-2.282-19.334,2.312c-8.051,4.044-9.875,8.521-9.875,8.521L121.068,103.618z"/>
	<path fill="#3F3645" d="M163.882,101.307c0,0,10.021,9.833,11.028,31.688c0.943,20.414,0.738,23.896,3.988,28.812l0.729,0.197
		c-4.246-5.197-3.521-17.482-4.228-29.386c-0.834-14.062-6.416-25.521-7.418-26.854L163.882,101.307z"/>
	<path fill="#3F3645" d="M126.861,109.39c0,0,1.123-0.625,3.541-0.543c2.416,0.084,10.666,3.271,16.979,20.396
		s19.125,30.118,29,34.577c0,0-4.521-3.435-6.938-7.685c-2.418-4.25-2.209-4.75-1.668-4.75c0.543,0,5.377,10.522,13.959,10.666
		c9.582,0.155,12.084-4.124,12.084-4.124l0.594-0.001c0,0-1.62,4.872-13.062,4.759c-7.129-0.067-12.093-7.942-12.093-7.942
		c3.125,5.938,9.129,8.735,8.312,9.875c-0.875,1.219-21.271-8.826-30.082-32.938c-7.418-20.292-15.584-22.841-19.75-21.374
		L126.861,109.39z"/>
	<path fill="#3F3645" d="M124.477,106.494c0,0,2.385-6.021,8.844-7.875c6.966-1.999,18.166,4.021,22.416,18.854
		c4.25,14.834,9.092,28.08,13.625,36.793l-1.332-1.625c-5.4-11.084-9.293-23.252-13.021-35.787
		c-2.793-9.387-11.844-19.642-21.15-17.879c-6.241,1.182-9.1,7.665-9.1,7.665L124.477,106.494z"/>
	<path fill="#3F3645" d="M100.725,94.962c0,0,10.921,0.677,22.761,12.678c8.74,8.858,13.832,25.583,11.207,38.667
		c0,0,5.562,0.123,5.75,1.498c0.238,1.758-3.125,3.312-7.75,3.168c0,0-6.541,8.957-18.207,15.021
		c-11.667,6.062-31.792,12.056-54.479,12.729c-22.688,0.672-34.854-4.25-39.521-31.375l-0.833,2.375
		c4.229,26.771,19.713,31.291,38.551,30.75c19.74-0.568,41.353-5.416,55.94-12.451c12.271-5.916,19.174-15.59,19.174-15.59
		c7.345-0.175,8.99-3.533,8.605-5.375c-0.312-1.5-5.449-2-5.449-2c2.188-13.234-2.283-28.115-11.844-38.562
		c-12.125-13.25-23.938-12.938-23.938-12.938L100.725,94.962z"/>
	<g id="Hair_1_">
		<path fill="#3F3645" d="M57.319,108.618c0,0-3.562-2.125-3-11.5s9.75-13.125,9.75-13.125s-10.578-1.644-14.322,9.901
			c-3.053,9.411,6.697,14.942,6.697,14.942h0.25c0,0-9.333-6.323-6.277-15.282C53.456,84.649,62.1,84.43,62.1,84.43
			s-7.557,3.562-8.239,12.626c-0.729,9.688,3.099,11.655,3.099,11.655L57.319,108.618z"/>
		<path fill="#3F3645" d="M57.007,108.54c0,0,9.587-3.176,17.521-0.484c7,2.375,10.995,12.392,10.995,12.392
			s-3.047-3.049-7.266-4.953c0,0,11.781,6.188,10.734,16.719c0,0-2.734-4.828-8.411-7.929c0,0,9.584,6.979,7.739,14.479
			c-1.917,7.791-10.404,6.57-10.404,6.57l-0.487,0.393c0,0,9.641,1.619,11.52-6.798c0.796-3.562-1.067-7.25-1.067-7.25
			s1.156,1.095,1.469,3.28c0,0,1.719-6.75-2.594-13.28c0,0-0.326-0.334-0.062-0.958c0,0-3.896-10.604-11.875-13.386
			c-9.292-3.239-18.109,0.953-18.109,0.953L57.007,108.54z"/>
		<path fill="#3F3645" d="M78.986,92.609c-9.084,0.916-17.667,2.549-24.995,5.819v1.712c7.446-3.228,16.287-5.119,24.995-5.869
			V92.609z"/>
		<path fill="#3F3645" d="M70.736,124.098c0,0,2.833,5.166,1.833,14.041l0.649,1.211c0,0,3.18-3.668,1.821-10.734
			c0,0,3.488,8.15-1.072,17.504l-0.273,1.229c0,0,9.292-0.795,8.292-12.834c0,0,0.75,10.084-7.646,12.313
			c0,0,5.521-9.793-0.208-20.849c0,0,2.072,7.775-0.913,12.168c0,0,1.162-9.028-2.244-15.094L70.736,124.098z"/>
		<path fill="#3F3645" d="M57.007,108.399c0,0,9.901,1.877,11.594,9.655h-0.234c0,0-0.641-6.749-11.359-9.516L57.007,108.399
			L57.007,108.399z"/>
		<path fill="#3F3645" d="M65.757,115.556c0,0,1.062,8.688-4.875,11.562c0,0,1.562-3.688,1.188-6.062c0,0-1.987,15.332-23.16,27.082
			c0,0,6.16-6.832,8.254-14.382c0,0-5,6.144-9.062,13.24l-0.286-0.66c0,0,2.942-6.188,10.39-14.844c0,0-0.261,6.375-6.667,14.356
			c0,0,17.844-9.731,20.656-27.797c0,0,1.188,4.852-0.5,7.926C61.694,125.98,64.945,124.557,65.757,115.556z"/>
		<path fill="#3F3645" d="M57.007,110.224c0,0,7.531,3.707,5.406,11.488l-0.094-0.239C62.319,121.473,64.6,114.899,57.007,110.224z"
			/>
		<path fill="#3F3645" d="M56.694,108.837c0,0,1.125,6.693-6.042,17.144c0,0,6.333-10.3,5.667-16.8c0,0-9.542-0.375-26.25,14.126
			c0,0,13.625-13.251,26.375-14.47H56.694z"/>
	</g>
	<path fill="#3F3645" d="M54.35,107.071c0,0-3.781-3.077-13.719-2.141c0,0,8.469-0.438,12.406,1.812c0,0-12.031-3.438-29.281,13.562
		c0,0,16.646-16.667,31.109-12.75L54.35,107.071z"/>
	<path fill="#3F3645" d="M35.923,143.557c0,0,0.843-10.553,5.177-17.97c0,0-15.031,6.556-24.114,30.804
		c0,0-1.396-6.299-0.583-13.418c0,0-1.875,9.616,0.958,15.037c0,0-3.792-2.703-5.604-10.203c0,0-0.188,1.196,0,2.285
		c0,0-4.366-4.951-1.562-18.244c2.218-10.519,12.625-15.479,12.625-15.479s-10.125,1.938-14.688,9.938
		c0,0,0.229-13.776,12.396-20.79c10.079-5.811,18.166-2.586,18.166-2.586s-7.771-5.769-19.042-0.728c0,0,1.792-4.771,14.167-6.084
		s16.438,5.5,16.438,5.5l0.406,0.938c0,0-5.031-7-15.844-5.875s-13.031,4-13.031,4s11.671-3.844,18.406,3.126
		c0,0-7.491-3.696-19.25,2.303c-10.188,5.197-11.812,17.26-11.812,17.26s6.416-7.814,16.77-7.814c0,0-11.333,4.751-14.146,13.812
		c-3.465,11.164-0.625,18.5-0.625,18.5s-0.042-2.896,0.458-4.854c0,0,0.448,8.166,4.665,13.297c0,0-2.311-7.732,0.606-15.463
		c0,0-0.668,9.975,0.292,13.916c0,0,5.104-19.562,25.833-31.291c0,0-5.171,7.612-6.292,21.062L35.923,143.557z"/>
</g>
</svg>
