<?xml version="1.0" encoding="utf-8"?>
<!-- Generator: Adobe Illustrator 16.0.0, SVG Export Plug-In . SVG Version: 6.00 Build 0)  -->
<!DOCTYPE svg PUBLIC "-//W3C//DTD SVG 1.1//EN" "http://www.w3.org/Graphics/SVG/1.1/DTD/svg11.dtd">
<svg version="1.1" id="Layer_1" xmlns="http://www.w3.org/2000/svg" xmlns:xlink="http://www.w3.org/1999/xlink" x="0px" y="0px"
	 width="730px" height="310px" viewBox="0 0 730 310" enable-background="new 0 0 730 310" xml:space="preserve">
<g>
	<g>
		<g>
			<g>
				<g>
					<g>
						<path fill="#FFFFFF" d="M70.329,135.696c-8.681,0-14.624-11.747-24.181-48.127c-1.52-0.023-2.671-0.099-3.548-0.318
							c-0.105-0.025-0.207-0.058-0.308-0.097c-8.144,18.118-12.718,31.544-15.617,45.692c-0.142,0.688-0.552,1.287-1.139,1.669
							c-0.427,0.275-0.922,0.42-1.423,0.42c-0.188,0-0.377-0.021-0.566-0.062c-6.391-1.418-11.056-5.242-15.125-12.4
							c-0.436-0.766-0.456-1.701-0.053-2.485c2.225-4.335,3.241-6.315,21.062-48.442c4.344-10.245,6.588-15.669,8.766-23.666
							c-5.875,2.355-10.632,4.977-13.657,7.553c-0.486,0.415-1.089,0.625-1.694,0.625c-0.521,0-1.042-0.155-1.492-0.469
							c-3.597-2.499-7.876-10.047-8.323-14.682c-0.092-0.949,0.34-1.871,1.126-2.409c11.199-7.654,32.785-12.229,47.183-12.229
							c21.293,0,34.521,9.975,34.521,26.033c0,16.27-14.403,30.289-34.683,34.227c5.618,15.166,14.642,30.503,22.055,37.283
							c0.839,0.768,1.085,1.989,0.608,3.021C81.99,130.847,75.551,135.696,70.329,135.696z M64.958,41.462
							c0.049,0.621-0.125,1.256-0.516,1.778c-1.841,2.45-9.02,16.077-15.529,29.78c21.551-0.988,36.781-9.662,36.781-21.35
							c0-2.58,0-10.427-16.002-10.427C68.257,41.244,66.726,41.313,64.958,41.462z"/>
					</g>
					<g>
						<path fill="#0B0B57" d="M61.339,28.882c20.128,0,31.907,8.986,31.907,23.42c0,16.08-15.447,29.374-35.579,32.16
							c5.191,15.194,14.938,33.174,23.8,41.277c-1.518,3.293-7.214,7.344-11.138,7.344c-7.345,0-13.171-13.547-22.159-48.115
							c-1.897,0-3.927,0-4.938-0.252c-0.635-0.379-1.267-1.012-1.897-1.772c-8.992,19.624-14.056,33.933-17.221,49.379
							c-5.699-1.265-9.749-4.683-13.42-11.14c2.276-4.434,3.418-6.712,21.145-48.62c5.315-12.536,7.467-17.851,10.127-28.868
							c-7.725,2.658-14.812,6.079-19.12,9.75c-2.913-2.025-6.835-8.863-7.214-12.789C25.633,33.819,46.399,28.882,61.339,28.882
							 M44.753,75.729c25.321,0,43.556-10.005,43.556-24.059c0-8.355-6.079-13.04-18.616-13.04c-2.785,0-5.694,0.252-8.86,0.632
							l1.521,2.407C60.072,44.707,51.464,61.294,44.753,75.729 M61.339,23.655c-14.796,0-37.04,4.745-48.658,12.686
							c-1.571,1.075-2.436,2.922-2.252,4.818c0.523,5.421,5.196,13.632,9.435,16.577c0.899,0.624,1.942,0.935,2.982,0.935
							c1.21,0,2.417-0.421,3.389-1.248c1.875-1.598,4.577-3.262,7.854-4.863c-1.682,5.18-3.704,10.045-7.062,17.963
							C9.242,112.567,8.24,114.519,6.044,118.796c-0.805,1.568-0.766,3.438,0.107,4.97c4.466,7.855,9.657,12.068,16.832,13.659
							c0.374,0.084,0.754,0.124,1.131,0.124c1.001,0,1.991-0.287,2.844-0.841c1.176-0.762,1.996-1.965,2.276-3.336
							c2.76-13.463,7.071-26.291,14.613-43.291c0.087,0.008,0.176,0.016,0.264,0.021c8.806,33.293,14.927,48.207,26.218,48.207
							c6.251,0,13.671-5.58,15.885-10.383c0.953-2.064,0.459-4.51-1.22-6.045c-6.692-6.119-14.787-19.6-20.292-33.459
							c19.905-4.949,33.771-19.418,33.771-36.121C98.473,34.631,84.243,23.655,61.339,23.655L61.339,23.655z M67.065,43.935
							c0.932-0.053,1.798-0.076,2.628-0.076c13.389,0,13.389,5.475,13.389,7.812c0,9.297-12.355,16.614-29.858,18.408
							c6.092-12.57,11.903-23.398,13.309-25.27C66.741,44.532,66.918,44.239,67.065,43.935L67.065,43.935z"/>
					</g>
				</g>
				<g>
					<g>
						<path fill="#FFFFFF" d="M103.361,129.099c-10.863-1.146-18.162-10.434-18.162-23.113c0-14.363,9.126-31.49,21.701-40.722
							c4.964-3.723,10.015-5.698,14.589-5.698c0.422,0,0.839,0.102,1.213,0.298c2.792,1.464,5.606,4.421,8.194,8.599
							c0.284-0.019,0.566-0.032,0.851-0.032c6.187,0,9.322,4.884,9.322,14.514c0,22.177-15.516,41.569-36.891,46.11
							c-0.179,0.039-0.361,0.059-0.543,0.059C103.543,129.112,103.453,129.106,103.361,129.099z M126.131,76.839
							c-6.214,2.516-10.966,7.461-13.967,11.369c-5.35,7.096-9.712,17.919-9.712,24.109c0,2.693,0.807,5.051,1.402,6.119
							c13.256-3.682,22.744-18.721,22.744-36.38C126.599,79.785,126.453,78.106,126.131,76.839z"/>
					</g>
					<g>
						<path fill="#0B0B57" d="M121.489,62.179c2.661,1.394,5.446,4.559,7.976,8.99c0.763,0,1.52-0.125,2.282-0.125
							c4.558,0,6.708,3.797,6.708,11.899c0,21.144-14.559,39.25-34.819,43.555c-9.622-1.014-15.823-9.116-15.823-20.513
							c0-13.545,8.735-29.879,20.635-38.615C113.005,63.952,117.565,62.179,121.489,62.179 M103.13,121.309
							c15.065-3.292,26.082-19.498,26.082-39.252c0-4.303-0.505-6.708-1.646-8.483c-7.34,2.156-13.293,7.599-17.474,13.043
							c-5.82,7.722-10.253,18.992-10.253,25.701C99.839,116.371,101.485,120.802,103.13,121.309 M121.489,56.952
							c-5.144,0-10.736,2.156-16.178,6.236c-13.15,9.654-22.726,27.666-22.726,42.797c0,14.086,8.24,24.42,20.502,25.711
							c0.182,0.019,0.366,0.029,0.548,0.029c0.364,0,0.729-0.038,1.086-0.115c22.576-4.796,38.961-25.264,38.961-48.667
							c0-6.278-1.494-16.731-11.371-17.116c-2.632-3.955-5.448-6.734-8.398-8.277C123.164,57.156,122.332,56.952,121.489,56.952
							L121.489,56.952z M105.42,115.153c-0.203-0.841-0.354-1.834-0.354-2.836c0-5,3.697-15.254,9.2-22.555
							c2.235-2.911,5.533-6.466,9.703-8.938c0.012,0.388,0.017,0.798,0.017,1.231C123.986,97.503,116.36,110.767,105.42,115.153
							L105.42,115.153z"/>
					</g>
				</g>
				<g>
					<g>
						<path fill="#FFFFFF" d="M154.891,133.908c-3.22-0.356-5.884-1.904-6.789-3.946c-0.257-0.473-1.672-2.014-2.485-2.559
							c-3.633-2.421-3.816-11.621-3.816-13.439c0-7.599,3.652-21.811,10.285-40.018c10.695-29.207,19.805-47.834,28.673-58.627
							c0.502-0.61,1.245-0.954,2.02-0.954c0.159,0,0.321,0.015,0.483,0.044c4.316,0.812,13.892,6.039,15.893,9.121
							c0.626,0.967,0.546,2.23-0.197,3.111c-12.912,15.265-22.337,32.24-30.562,55.037c-6.919,19.275-10.73,35.6-10.73,45.961
							c0,2.78,0.005,2.801,0.075,3.16c0.163,0.816-0.074,1.662-0.637,2.276c-0.499,0.542-1.198,0.847-1.926,0.847
							C155.081,133.923,154.986,133.918,154.891,133.908z"/>
					</g>
					<g>
						<path fill="#0B0B57" d="M182.778,16.979c4.049,0.761,12.788,5.824,14.183,7.975c-13.172,15.575-22.664,32.667-31.023,55.839
							c-7.09,19.751-10.886,36.211-10.886,46.848c0,2.912,0,3.037,0.126,3.67c-2.282-0.252-4.181-1.266-4.687-2.405
							c-0.377-0.885-2.281-2.909-3.418-3.672c-1.52-1.013-2.659-5.824-2.659-11.269c0-7.342,3.67-21.397,10.127-39.123
							C164.926,46.479,174.038,27.614,182.778,16.979 M182.778,11.752c-1.549,0-3.036,0.687-4.04,1.909
							c-9.058,11.026-18.307,29.896-29.105,59.383c-4.767,13.086-10.445,30.8-10.445,40.92c0,4.592,0.648,12.727,4.988,15.617
							c0.383,0.27,1.325,1.232,1.66,1.698c1.42,2.813,4.73,4.781,8.768,5.227c0.192,0.021,0.383,0.03,0.574,0.03
							c1.456,0,2.856-0.608,3.852-1.693c1.127-1.228,1.6-2.918,1.274-4.554l-0.017-0.091c-0.009-0.15-0.009-1.16-0.009-2.559
							c0-10.067,3.757-26.078,10.578-45.081c8.112-22.484,17.394-39.212,30.097-54.229c1.486-1.76,1.646-4.288,0.393-6.221
							c-2.384-3.676-12.683-9.343-17.603-10.267C183.42,11.78,183.097,11.752,182.778,11.752L182.778,11.752z"/>
					</g>
				</g>
				<g>
					<g>
						<path fill="#FFFFFF" d="M190.856,129.602c-12.453-1.351-20.818-10.18-20.818-21.969c0-22.343,20.412-47.813,38.317-47.813
							c0.116,0,0.231,0.008,0.346,0.021c4.524,0.604,8.759,3.357,12.591,8.184c0.401,0.506,0.601,1.141,0.562,1.785
							c-1.319,21.607-12.919,30.653-33.871,39.233c-0.027,0.492-0.056,0.997-0.056,1.503c0,1.762,0.231,7.517,3.212,7.517
							c8.211,0,16.698-9.098,21.258-13.985c0.514-0.55,1.212-0.83,1.911-0.83c0.607,0,1.215,0.209,1.708,0.634
							c1.009,0.873,1.742,1.608,2.453,2.46c0.777,0.937,0.809,2.283,0.072,3.254c-7.889,10.387-18.17,18.037-26.836,19.959
							c-0.187,0.043-0.376,0.063-0.566,0.063C191.044,129.617,190.949,129.612,190.856,129.602z M207.293,77.49
							c-5.829,2.625-12.31,9.57-16.263,19.369C199.692,91.345,205.454,84.488,207.293,77.49z"/>
					</g>
					<g>
						<path fill="#0B0B57" d="M208.355,62.433c3.801,0.507,7.471,2.911,10.89,7.217c-1.268,20.767-12.283,28.996-33.806,37.604
							c0,1.015-0.126,2.152-0.126,3.293c0,4.307,1.014,10.13,5.825,10.13c9.113,0,17.852-9.116,23.169-14.815
							c0.883,0.762,1.519,1.393,2.152,2.153c-7.596,10.003-17.345,17.219-25.321,18.989c-11.651-1.264-18.487-9.24-18.487-19.37
							C172.651,86.868,191.642,62.433,208.355,62.433 M210.511,73.829c-9.246,1.264-20.009,12.914-24.059,28.612
							C199.873,95.733,209.874,85.349,210.511,73.829 M208.355,57.206c-19.509,0-40.932,26.393-40.932,50.427
							c0,13.19,9.304,23.064,23.152,24.567c0.187,0.02,0.376,0.03,0.562,0.03c0.381,0,0.761-0.041,1.134-0.124
							c9.242-2.053,20.105-10.072,28.351-20.932c1.47-1.938,1.41-4.635-0.146-6.504c-0.807-0.971-1.63-1.797-2.754-2.769
							c-0.985-0.851-2.202-1.27-3.414-1.27c-1.401,0-2.797,0.56-3.822,1.661c-3.942,4.227-12.103,12.973-19.13,13.152
							c-0.292-0.524-0.784-1.959-0.814-4.635c20.946-8.795,32.552-18.417,33.92-40.844c0.078-1.286-0.322-2.557-1.123-3.568
							c-4.266-5.374-9.074-8.452-14.292-9.148C208.818,57.221,208.586,57.206,208.355,57.206L208.355,57.206z"/>
					</g>
				</g>
				<g>
					<g>
						<path fill="#FFFFFF" d="M220.771,171.021c-0.123,0-0.247-0.009-0.371-0.025c-1.732-0.249-3.097-1.253-4.164-3.071l-0.42-0.459
							c-0.626-0.691-0.881-0.963-1.05-1.09c-1.933-0.719-3.289-2.9-3.548-5.736c-0.615-2.269-0.915-5.406-0.915-9.578
							c0-7.773,5.244-26.705,12.467-45.02c7.686-19.367,12.332-31.746,14.627-38.958c1.375-4.253,6.347-13.27,9.887-16.368
							c0.48-0.42,1.095-0.646,1.723-0.646c0.131,0,0.262,0.011,0.393,0.031c4.759,0.723,13.052,3.195,15.051,6.744
							c0.596,1.057,0.387,2.384-0.507,3.205c-2.1,1.936-5.101,6.653-7.869,11.98c4.65-4.584,10.884-9.426,16.48-9.426
							c7.897,0,13.63,5.092,13.63,12.109c0,12.652-4.492,25.696-12.323,35.787c-6.478,8.311-17.627,15.066-24.854,15.066
							c-4.06,0-7.58-1.984-8.76-4.936c-0.476-1.194-0.012-2.561,1.096-3.218c11.257-6.666,22.381-24.55,27.224-43.108
							c-3.59,2.366-6.945,5.282-10.432,9.64l-0.524,0.651c-11.406,14.17-12.599,15.65-15.825,23.181
							c-4.743,10.614-12.505,36.353-18.474,61.239C223.025,170.206,221.961,171.021,220.771,171.021z"/>
					</g>
					<g>
						<path fill="#0B0B57" d="M249.006,52.683c5.822,0.887,12.025,3.419,13.167,5.445c-4.812,4.43-12.662,19.878-15.066,28.74
							c1.646-2.783,3.924-5.824,9.492-11.649c6.205-6.457,11.905-10.001,15.955-10.001c6.457,0,11.017,3.925,11.017,9.496
							c0,12.154-4.307,24.562-11.774,34.185c-5.825,7.473-16.334,14.056-22.79,14.056c-3.039,0-5.574-1.394-6.331-3.291
							c13.041-7.725,25.703-28.996,29.753-50.646c-6.457,3.418-11.269,6.965-16.334,13.295
							c-12.026,14.941-13.294,16.46-16.712,24.437c-4.81,10.762-12.662,36.843-18.613,61.66c-0.883-0.126-1.646-0.634-2.404-2.026
							c-1.394-1.518-1.772-2.027-2.533-2.406c-1.011-0.252-1.899-1.771-2.026-3.796c-0.63-2.153-0.889-5.318-0.889-9.118
							c0-7.215,4.943-25.448,12.284-44.061c9.244-23.297,12.914-33.554,14.688-39.124C241.156,63.952,245.967,55.343,249.006,52.683
							 M249.006,47.456c-1.258,0-2.482,0.455-3.442,1.293c-3.971,3.475-9.198,13.025-10.649,17.521
							c-2.253,7.076-7.017,19.763-14.571,38.803c-7.452,18.89-12.653,37.798-12.653,45.988c0,4.275,0.312,7.572,0.949,10.045
							c0.383,3.502,2.136,6.281,4.667,7.488c0.158,0.169,0.376,0.407,0.575,0.627l0.25,0.275c1.465,2.361,3.445,3.736,5.899,4.085
							c0.25,0.036,0.498,0.053,0.743,0.053c2.382,0,4.507-1.63,5.077-4.009c3.998-16.669,8.797-33.701,12.93-46.238
							c2.045,2.965,5.848,4.793,10.226,4.793c9.004,0,20.755-8.17,26.913-16.068c8.188-10.549,12.878-24.178,12.878-37.398
							c0-8.531-6.831-14.723-16.243-14.723c-2.105,0-4.252,0.558-6.362,1.48c1.372-1.649,1.611-4,0.534-5.91
							c-3.331-5.912-16.379-7.961-16.934-8.046C249.53,47.477,249.268,47.456,249.006,47.456L249.006,47.456z M242.167,113.743
							c0.708-1.857,1.373-3.49,1.987-4.861c3.117-7.275,4.052-8.436,15.49-22.646l0.521-0.646c1.125-1.405,2.226-2.647,3.323-3.762
							C258.532,95.448,250.497,107.688,242.167,113.743L242.167,113.743z"/>
					</g>
				</g>
				<g>
					<g>
						<path fill="#FFFFFF" d="M298.486,133.908c-3.22-0.356-5.884-1.904-6.789-3.946c-0.257-0.471-1.674-2.014-2.486-2.559
							c-3.634-2.423-3.817-11.621-3.817-13.439c0-7.599,3.654-21.811,10.29-40.018c10.686-29.191,19.795-47.82,28.669-58.627
							c0.502-0.61,1.246-0.954,2.02-0.954c0.16,0,0.322,0.015,0.483,0.044c4.318,0.812,13.895,6.039,15.892,9.123
							c0.626,0.967,0.546,2.229-0.197,3.109c-12.916,15.275-22.338,32.25-30.557,55.037c-6.923,19.275-10.735,35.6-10.735,45.961
							c0,2.777,0.005,2.797,0.076,3.152c0.165,0.818-0.071,1.666-0.635,2.282c-0.496,0.544-1.197,0.849-1.928,0.849
							C298.676,133.923,298.58,133.918,298.486,133.908z"/>
					</g>
					<g>
						<path fill="#0B0B57" d="M326.371,16.979c4.05,0.761,12.788,5.824,14.182,7.975c-13.167,15.575-22.663,32.667-31.019,55.839
							c-7.094,19.751-10.891,36.211-10.891,46.848c0,2.912,0,3.037,0.127,3.67c-2.281-0.252-4.18-1.266-4.686-2.405
							c-0.379-0.885-2.281-2.909-3.418-3.672c-1.52-1.013-2.661-5.824-2.661-11.269c0-7.342,3.672-21.397,10.132-39.123
							C308.519,46.479,317.636,27.614,326.371,16.979 M326.371,11.752c-1.548,0-3.035,0.687-4.039,1.909
							c-9.066,11.04-18.315,29.91-29.103,59.383c-4.77,13.084-10.45,30.798-10.45,40.92c0,4.592,0.647,12.725,4.99,15.617
							c0.383,0.27,1.323,1.23,1.66,1.698c1.414,2.811,4.727,4.779,8.768,5.227c0.192,0.021,0.383,0.03,0.573,0.03
							c1.458,0,2.862-0.61,3.857-1.699c1.125-1.23,1.596-2.925,1.266-4.56l-0.008-0.044c-0.016-0.302-0.016-1.275-0.016-2.594
							c0-10.067,3.758-26.078,10.583-45.081c8.105-22.474,17.387-39.202,30.091-54.231c1.487-1.758,1.647-4.283,0.396-6.215
							c-2.382-3.678-12.681-9.347-17.604-10.271C327.015,11.78,326.692,11.752,326.371,11.752L326.371,11.752z"/>
					</g>
				</g>
				<g>
					<g>
						<path fill="#FFFFFF" d="M326.144,127.465c-7.667-0.312-13.02-7.686-13.02-17.932c0-20.274,19.277-47.226,34.378-48.063
							c0.047-0.002,0.097-0.004,0.145-0.004c0.221,0,0.44,0.027,0.655,0.084c3.212,0.832,7.967,4.977,10.211,8.904
							c0.111-0.226,0.22-0.45,0.327-0.675c0.438-0.901,1.351-1.476,2.354-1.476c3.515,0,8.771,2.086,10.813,4.291
							c1.059,1.144,1.217,2.236,1.162,2.952c-0.025,0.325-0.11,0.644-0.251,0.937c-6.844,14.191-11.264,28.557-11.264,36.596
							c0,3.732,0.711,6.268,1.949,6.959c0.809,0.449,1.319,1.293,1.343,2.219c0.022,0.924-0.444,1.791-1.23,2.281
							c-2.443,1.526-6.576,2.676-9.612,2.676c-3.529,0-9.45-1.557-9.45-11.984c0-0.626,0.027-1.286,0.08-1.975
							c-5.967,7.912-12.577,13.291-18.067,14.178c-0.138,0.021-0.277,0.033-0.417,0.033
							C326.213,127.466,326.178,127.466,326.144,127.465z M355.076,77.294c-11.794,4.077-25.448,23.329-25.455,36.912
							c5.187-2.572,12.121-13.375,17.052-21.59C349.087,88.562,352.193,82.884,355.076,77.294z"/>
					</g>
					<g>
						<path fill="#0B0B57" d="M347.647,64.079c3.418,0.885,9.118,6.838,9.497,10.003c-13.552,2.152-30.136,24.563-30.136,40.136
							c0,1.772,0.635,2.658,1.771,3.037c4.938-1.01,11.017-8.103,20.135-23.295c3.544-5.951,8.607-15.447,12.279-23.043
							c3.544,0,9.495,2.784,9.369,4.432c-6.836,14.18-11.521,29.119-11.521,37.73c0,4.684,1.016,7.975,3.292,9.242
							c-2.024,1.264-5.7,2.279-8.229,2.279c-4.559,0-6.837-3.04-6.837-9.371c0-4.684,1.647-11.521,4.812-19.75
							c-6.84,15.447-17.979,28.105-25.829,29.373c-6.203-0.252-10.512-6.582-10.512-15.319
							C315.738,90.667,333.97,64.839,347.647,64.079 M347.647,58.853c-0.098,0-0.192,0.004-0.29,0.008
							c-8.136,0.451-17.272,7.066-25.068,18.148c-7.374,10.484-11.777,22.643-11.777,32.524c0,11.725,6.384,20.171,15.525,20.542
							c0.071,0.003,0.143,0.004,0.213,0.004c0.279,0,0.558-0.021,0.834-0.066c5.229-0.844,10.586-4.714,15.466-10.037
							c0.977,4.445,3.767,9.853,11.555,9.853c3.52,0,8.146-1.294,10.998-3.073c1.568-0.98,2.503-2.715,2.456-4.564
							c-0.044-1.79-1.002-3.429-2.529-4.348c-0.155-0.254-0.761-1.463-0.761-4.764c0-7.56,4.422-21.811,11.003-35.461
							c0.282-0.588,0.454-1.223,0.504-1.872c0.096-1.235-0.149-3.091-1.852-4.927c-2.529-2.732-8.479-5.129-12.729-5.129
							c-0.851,0-1.669,0.206-2.396,0.582c-2.818-3.486-6.764-6.457-9.842-7.253C348.528,58.909,348.089,58.853,347.647,58.853
							L347.647,58.853z M333.296,107.546c2.388-8.182,8.477-17.346,14.963-23.002c-1.37,2.494-2.684,4.805-3.835,6.741
							C339.517,99.459,335.917,104.483,333.296,107.546L333.296,107.546z"/>
					</g>
				</g>
				<g>
					<g>
						<path fill="#FFFFFF" d="M372.217,170.389c-9.215,0-19.165-4.534-22.18-10.106c-0.206-0.383-0.315-0.811-0.315-1.244
							c0-1.877,1.123-3.701,3.007-4.875c0.425-0.266,0.905-0.396,1.383-0.396c0.632,0,1.26,0.229,1.753,0.674
							c3.638,3.287,4.3,3.504,7.234,3.504c14.927,0,29.581-15.93,39.337-41.758c-4.161,5.145-8.58,9.349-12.885,10.877
							c-0.28,0.1-0.577,0.15-0.874,0.15c-0.041,0-0.084-0.001-0.125-0.003c-6.744-0.321-14.703-4.857-16.351-11.892
							c-0.044-0.195-0.068-0.395-0.068-0.596c0-5.002,0.286-7.664,1.221-11.397c3.04-12.282,12.149-34.931,23.649-43.382
							c0.449-0.33,0.992-0.506,1.549-0.506c3.487,0,9.926,1.25,13.369,4.693c0.515,0.512,0.79,1.217,0.765,1.941
							s-0.353,1.407-0.9,1.882c-0.988,0.856-7.706,9.22-15.764,28.29c-1.559,3.893-4.415,12.889-5.004,17.354
							c2.375-1.597,6.061-5.143,10.685-11.985c4.389-6.618,7.924-13.167,11.667-20.101c2.954-5.471,6.006-11.126,9.663-17.145
							c0.475-0.78,1.32-1.257,2.233-1.257c4.763,0,12.057,2.198,14.323,5.031c0.624,0.779,0.748,1.845,0.322,2.747
							c-4.727,10.032-9.609,20.896-13.295,32.352c-8.003,26.008-15.877,41.104-28.078,53.812
							C390.223,165.774,381.118,170.389,372.217,170.389z"/>
					</g>
					<g>
						<path fill="#0B0B57" d="M398.552,62.052c2.787,0,8.609,1.016,11.521,3.928c-1.898,1.646-8.86,11.266-16.459,29.248
							c-1.52,3.796-5.317,15.318-5.317,19.75c0,1.268,0.631,2.025,0.885,2.277c3.039-0.506,8.355-4.811,14.687-14.179
							c7.977-12.029,13.168-23.803,21.397-37.352c4.433,0,10.764,2.152,12.282,4.052c-5.19,11.016-9.875,21.648-13.419,32.665
							c-7.599,24.691-15.197,40.011-27.477,52.801c-7.725,8.103-16.206,12.532-24.436,12.532c-8.356,0-17.347-4.051-19.882-8.736
							c0-1.012,0.763-2.024,1.776-2.658c3.924,3.545,5.191,4.178,8.987,4.178c19.246,0,37.478-23.424,46.975-59.887
							c-4.306,6.836-13.547,21.143-21.396,23.93c-5.317-0.253-12.537-3.925-13.93-9.877c0-4.809,0.253-7.217,1.142-10.763
							C379.053,91.173,388.04,69.776,398.552,62.052 M398.552,56.824c-1.113,0-2.198,0.356-3.096,1.015
							C390,61.849,384.73,68.892,379.79,78.77c-3.784,7.569-7.14,16.518-8.976,23.937c-0.992,3.957-1.295,6.77-1.295,12.018
							c0,0.402,0.046,0.803,0.138,1.191c1.928,8.236,11.059,13.539,18.771,13.908c0.082,0.003,0.165,0.005,0.249,0.005
							c0.595,0,1.186-0.103,1.749-0.302c1.461-0.519,2.921-1.299,4.372-2.289c-8.866,17.643-20.245,28.094-31.699,28.094
							c-2.219,0-2.352,0-5.483-2.83c-0.987-0.89-2.241-1.348-3.505-1.348c-0.955,0-1.914,0.261-2.767,0.793
							c-2.651,1.656-4.235,4.307-4.235,7.092c0,0.869,0.216,1.724,0.63,2.488c3.886,7.183,15.498,11.476,24.479,11.476
							c9.634,0,19.392-4.894,28.218-14.153c12.499-13.018,20.545-28.404,28.689-54.869c3.621-11.252,8.462-22.023,13.152-31.977
							c0.851-1.804,0.6-3.936-0.646-5.492c-3.098-3.873-11.643-6.013-16.364-6.013c-1.825,0-3.519,0.952-4.468,2.513
							c-3.69,6.076-6.76,11.762-9.728,17.26c-3.714,6.881-7.223,13.38-11.558,19.916c-1.378,2.041-2.661,3.758-3.832,5.193
							c0.907-3.039,1.941-6.094,2.769-8.165c7.616-18.015,14.112-26.405,15.075-27.31c1.097-0.951,1.735-2.301,1.786-3.752
							c0.053-1.449-0.516-2.843-1.542-3.869C409.451,57.966,401.927,56.824,398.552,56.824L398.552,56.824z"/>
					</g>
				</g>
				<g>
					<g>
						<path fill="#FFFFFF" d="M447.812,126.961c-2.432,0-11.857-4.147-11.857-13.376c0-3.297,1.142-9.736,4.366-24.61
							c0.675-2.925,4.457-17.563,13.41-22.042c0.366-0.182,0.766-0.275,1.169-0.275c0.192,0,0.387,0.021,0.577,0.064
							c3.349,0.759,9.674,3.901,13.376,9.455c0.662,0.992,0.568,2.307-0.229,3.195c-5.983,6.67-8.589,13.783-11.606,22.02
							c-0.699,1.908-1.421,3.878-2.209,5.918c-1.623,4.291-3.51,9.657-3.624,12.949
							C451.186,123.662,451.186,126.961,447.812,126.961z M466.553,64.665c-0.16,0-0.32-0.014-0.479-0.045
							c-3.273-0.609-5.937-3.295-5.937-5.987c0-0.479,0.06-1.03,0.187-1.692c-0.872-1.479-1.323-3.354-1.323-4.764
							c0-3.24,1.833-11.79,4.105-17.546c0.395-0.999,1.359-1.653,2.432-1.653c4.846,0,14.493,5.525,17.496,10.023
							c0.711,1.064,0.546,2.486-0.39,3.361c-3.939,3.676-12.717,14.574-13.712,16.77C468.501,64.077,467.562,64.665,466.553,64.665z
							"/>
					</g>
					<g>
						<path fill="#0B0B57" d="M465.537,35.591c3.923,0,12.788,5.064,15.323,8.861c-3.801,3.547-13.045,14.815-14.31,17.6
							c-2.028-0.379-3.801-2.025-3.801-3.419c0-0.505,0.126-1.266,0.383-2.276c-0.888-0.889-1.52-2.787-1.52-4.18
							C461.614,49.263,463.387,41.033,465.537,35.591 M454.9,69.271c2.787,0.631,8.487,3.418,11.779,8.355
							c-7.725,8.609-10.003,17.602-14.31,28.74c-1.772,4.687-3.67,10.131-3.797,13.803c0,3.039,0,4.179-0.761,4.179
							c-1.268,0-9.244-3.294-9.244-10.763c0-2.914,1.014-8.863,4.307-24.057C443.635,86.235,447.306,73.067,454.9,69.271
							 M465.537,30.364c-2.146,0-4.073,1.31-4.861,3.305c-2.205,5.582-4.289,14.575-4.289,18.508c0,1.537,0.386,3.474,1.22,5.219
							c-0.056,0.445-0.083,0.854-0.083,1.237c0,4.415,4.104,7.818,8.071,8.557c0.32,0.06,0.642,0.089,0.958,0.089
							c2.02,0,3.897-1.174,4.757-3.066c1.05-2.115,9.604-12.66,13.117-15.939c1.873-1.747,2.203-4.594,0.78-6.724
							C481.716,36.322,471.239,30.364,465.537,30.364L465.537,30.364z M454.9,64.044c-0.807,0-1.607,0.188-2.338,0.553
							c-9.749,4.875-13.778,19.415-14.78,23.756c-3.736,17.234-4.44,22.156-4.44,25.232c0,10.387,10.271,15.989,14.471,15.989
							c2.52,0,5.303-1.681,5.839-5.437c0.145-1.014,0.148-2.155,0.148-3.867c0.149-3.307,2.551-9.653,3.459-12.055
							c0.781-2.02,1.509-4.003,2.212-5.926c3.046-8.312,5.451-14.877,11.1-21.172c1.593-1.777,1.782-4.407,0.458-6.391
							c-4.449-6.674-11.739-9.822-14.973-10.555C455.674,64.086,455.286,64.044,454.9,64.044L454.9,64.044z"/>
					</g>
				</g>
				<g>
					<g>
						<path fill="#FFFFFF" d="M471.363,131.011c-0.447,0-0.895-0.114-1.296-0.344c-3.621-2.069-5.94-5.875-7.087-11.635
							c-0.034-0.168-0.051-0.338-0.051-0.51c0-7.048,4.174-21.924,9.708-34.602c5.017-11.503,12.043-24.24,15.116-25.641
							c0.344-0.156,0.713-0.234,1.084-0.234c0.264,0,0.527,0.039,0.782,0.121c5.107,1.603,10.13,7.303,12.215,13.857
							c0.186,0.586,0.159,1.217-0.073,1.785c-1.632,3.97-4.79,9.237-8.133,14.812c-0.538,0.896-1.086,1.811-1.632,2.729
							c1.771-2.078,3.25-3.781,4.199-4.771c9.208-9.752,19.775-20.176,28.472-20.176c4.465,0,8.588,3.007,11.312,8.247
							c0.193,0.372,0.293,0.784,0.293,1.204c0,1.62-1.24,2.357-1.77,2.672c-0.498,0.298-1.332,0.793-2.535,2.195
							c-4.195,5.484-12.537,21.66-12.537,31.344c0,1.395,0.146,2.045,0.236,2.312c0.074,0.007,0.178,0.013,0.316,0.013
							c0.561,0,1.578-0.336,2.393-0.606c1.072-0.355,1.996-0.661,2.924-0.661c0.475,0,0.939,0.129,1.346,0.372
							c1.662,0.997,2.408,3.393,2.408,4.776c0,0.74-0.314,1.447-0.865,1.942c-2.662,2.396-8.693,5.86-12.638,5.86
							c-9.716,0-14.641-5.395-14.641-16.033c0-3.658,0.738-7.797,4.042-16.264c-0.932,0.746-1.91,1.6-2.897,2.561
							c-7.629,7.383-13.448,14.143-20.092,23.338c-4.313,6.1-6.883,9.631-9.319,11C472.246,130.897,471.804,131.011,471.363,131.011
							z"/>
					</g>
					<g>
						<path fill="#0B0B57" d="M488.837,60.659c4.432,1.393,8.734,6.585,10.506,12.157c-3.796,9.24-17.089,27.222-18.105,34.944
							c5.322-5.699,13.93-16.336,16.843-19.371c6.457-6.84,18.358-19.373,26.587-19.373c4.307,0,7.348,3.672,8.992,6.838
							c0,0.38-1.393,0.506-3.676,3.165c-4.555,5.948-13.167,22.665-13.167,33.046c0,4.18,1.142,4.938,3.167,4.938
							c1.771,0,4.18-1.268,5.316-1.268c0.635,0.381,1.141,1.774,1.141,2.535c-2.529,2.275-7.977,5.189-10.89,5.189
							c-9.749,0-12.027-5.95-12.027-13.42c0-4.18,1.142-9.369,6.962-22.791c-0.378,0-5.316,2.404-10.254,7.217
							c-7.851,7.596-13.799,14.561-20.387,23.678c-3.67,5.189-6.457,9.115-8.482,10.254c-3.544-2.025-5.063-6.076-5.82-9.875
							c0-6.332,3.796-20.512,9.49-33.555C481.491,70.155,487.444,61.294,488.837,60.659 M488.837,55.433
							c-0.742,0-1.48,0.158-2.166,0.47c-5.758,2.622-15.996,25.984-16.43,26.976c-5.751,13.174-9.926,28.164-9.926,35.645
							c0,0.344,0.034,0.686,0.101,1.021c1.286,6.455,4.097,10.96,8.354,13.392c0.804,0.459,1.698,0.689,2.593,0.689
							c0.884,0,1.767-0.223,2.561-0.67c2.934-1.649,5.512-5.178,10.188-11.791c5.103-7.062,9.724-12.676,15.09-18.268
							c-0.694,2.888-0.905,5.078-0.905,7.145c0,15.412,9.384,18.646,17.255,18.646c4.862,0,11.458-3.896,14.386-6.53
							c1.102-0.992,1.73-2.404,1.73-3.886c0-1.934-0.979-5.397-3.676-7.018c-0.812-0.486-1.744-0.744-2.691-0.744
							c-1.15,0-2.209,0.294-3.229,0.624c0.506-8.806,7.84-23.349,11.973-28.817c0.867-0.99,1.402-1.309,1.795-1.543
							c2.518-1.498,3.047-3.5,3.047-4.918c0-0.838-0.201-1.665-0.588-2.41c-3.189-6.136-8.156-9.654-13.631-9.654
							c-6.539,0-13.673,4.894-20.562,11.186c0.025-0.059,0.049-0.115,0.073-0.174c0.466-1.135,0.517-2.398,0.146-3.569
							c-2.363-7.434-7.957-13.687-13.923-15.56C489.892,55.513,489.365,55.433,488.837,55.433L488.837,55.433z"/>
					</g>
				</g>
				<g>
					<g>
						<path fill="#FFFFFF" d="M530.882,171.149c-9.301,0-19.203-4.557-22.077-10.158c-0.189-0.369-0.288-0.777-0.288-1.192
							c0-2.458,1.928-4.105,2.561-4.646c0.488-0.417,1.095-0.626,1.698-0.626c0.603,0,1.203,0.207,1.691,0.621
							c3.958,3.359,4.544,3.557,7.296,3.557c14.412,0,27.256-14.752,35.859-40.832c-3.854,2.828-8.131,5.441-11.084,6.62
							c-0.311,0.124-0.641,0.187-0.971,0.187c-0.152,0-0.307-0.013-0.457-0.04c-7.002-1.243-12.283-9.263-12.283-18.653
							c0-21.22,24.199-47.305,43.887-47.305c7.1,0,10.934,3.138,12.432,10.173c0.213,1.009-0.182,2.049-1.016,2.656
							c-0.457,0.333-0.998,0.501-1.541,0.501c-0.447,0-0.895-0.113-1.299-0.345c-0.361-0.208-1.248-0.417-2.244-0.417
							c-0.539,0-1.119,0.082-1.738,0.24c4.674,0.308,9.244,1.846,11.182,3.779c0.76,0.758,0.979,1.903,0.555,2.889
							c-5.859,13.531-9.031,22.102-11.344,28.357c-8.998,24.326-15.361,40.093-27.863,53.898
							C547.185,167.788,537.273,171.149,530.882,171.149z M578.9,72.396c-10.801,5.182-28.424,26.752-30.514,40.43
							c3.074-2.038,8.355-6.529,13.463-12.25c6.668-7.484,13.031-17.992,16.604-27.418C578.56,72.872,578.71,72.617,578.9,72.396z"
							/>
					</g>
					<g>
						<path fill="#0B0B57" d="M576.714,61.294c5.826,0,8.607,2.15,9.875,8.104c-0.885-0.506-2.275-0.762-3.543-0.762
							c-12.158,0-37.479,31.148-37.479,46.722c0,1.14,0.254,1.266,0.506,1.266c2.912,0,11.395-7.218,17.725-14.308
							c7.221-8.104,13.547-18.865,17.098-28.233c4.555,0.253,8.48,1.772,9.748,3.037c-5.699,13.169-8.865,21.652-11.396,28.489
							c-8.99,24.31-15.195,39.629-27.348,53.051c-5.826,6.458-14.943,9.877-21.018,9.877c-8.23,0-17.35-4.053-19.752-8.737
							c0-1.013,0.758-1.9,1.646-2.659c4.176,3.544,5.317,4.179,8.987,4.179c17.475,0,32.16-18.991,40.896-51.152
							c-3.924,4.179-12.658,10.129-17.092,11.899c-5.699-1.012-10.127-8.102-10.127-16.08
							C535.441,86.361,558.736,61.294,576.714,61.294 M576.714,56.067c-20.859,0-46.5,27.525-46.5,49.918
							c0,10.64,6.207,19.764,14.439,21.228c0.303,0.053,0.609,0.08,0.914,0.08c0.662,0,1.32-0.126,1.939-0.372
							c1.434-0.574,3.16-1.464,5.002-2.548c-8.029,20.358-18.877,31.718-30.746,31.718c-2.064,0-2.145,0-5.604-2.936
							c-0.976-0.829-2.18-1.242-3.383-1.242c-1.21,0-2.417,0.416-3.395,1.252c-2.307,1.972-3.478,4.204-3.478,6.634
							c0,0.83,0.197,1.647,0.577,2.386c3.716,7.248,15.325,11.578,24.401,11.578c6.951,0,17.707-3.631,24.898-11.603
							c12.811-14.149,19.266-30.118,28.369-54.738c2.305-6.229,5.461-14.761,11.291-28.228c0.852-1.97,0.414-4.26-1.105-5.775
							c-0.736-0.734-1.734-1.414-2.92-2.014c0.4-0.959,0.512-2.036,0.287-3.096C589.948,60.072,585.044,56.067,576.714,56.067
							L576.714,56.067z M553.788,105.062c2.291-4.862,5.779-10.356,10.027-15.624c2.98-3.695,5.918-6.769,8.604-9.181
							c-3.439,6.723-7.906,13.398-12.523,18.583C557.849,101.132,555.745,103.245,553.788,105.062L553.788,105.062z"/>
					</g>
				</g>
			</g>
			<g>
				<g>
					<g>
						<path fill="#FFFFFF" d="M300.102,266.809c-5.913-0.468-12.606-5.953-14.325-11.739c-0.072-0.242-0.108-0.492-0.108-0.744
							c0-13.508,11.221-25.023,25.978-27.154c-0.284-3.33-1.113-6.532-1.921-9.649c-0.979-3.778-1.904-7.351-1.904-11.056
							c0-10.211,8.778-21.049,18.784-23.194c0.181-0.039,0.364-0.058,0.548-0.058c0.227,0,0.454,0.029,0.676,0.088
							c4.738,1.267,15.17,11.871,16.413,16.687c0.068,0.263,0.096,0.534,0.078,0.807c-0.336,5.776-3.976,17.021-9.442,17.021
							c-0.108,0-0.218-0.006-0.325-0.02c-2.194-0.275-3.66-1.848-3.92-4.208c-0.01-0.095-0.016-0.19-0.016-0.286
							c0-0.867,0.32-1.732,0.931-3.311c0.409-1.059,1.095-2.828,1.095-3.525c0-0.996-0.344-1.504-0.47-1.577
							c-4.683,0.014-7.557,7.89-7.718,21.155c2.32-0.088,4.349-0.162,6.366-0.162c0.996,0,1.904,0.565,2.345,1.457
							c0.395,0.803,0.395,1.405,0.395,2.17c0,1.104-0.391,2.609-1.262,3.487c-0.351,0.354-0.795,0.599-1.279,0.708
							c-2.396,0.541-5.301,1.195-6.443,1.641c0.006,0.436,0.026,0.879,0.047,1.363c0.036,0.822,0.077,1.754,0.077,2.931
							c0,15.226-9.244,25.636-24.125,27.165c-0.089,0.008-0.179,0.014-0.267,0.014C300.24,266.817,300.169,266.813,300.102,266.809z
							 M311.779,239.969c-5.416,3.032-11.771,10.452-11.771,13.85c0,0.417,0.062,0.915,0.413,1.44
							C305.74,252.396,310.327,246.103,311.779,239.969z"/>
					</g>
					<g>
						<path fill="#0B0B57" d="M327.153,185.827c3.794,1.014,13.545,10.889,14.56,14.814c-0.378,6.459-4.181,14.561-6.835,14.561
							c-1.018-0.127-1.521-0.758-1.647-1.9c0-1.012,2.025-4.812,2.025-6.836c0-2.406-1.27-4.178-3.039-4.178
							c-6.711,0-10.382,8.737-10.382,24.943c0,1.013,0,1.265,0.126,1.52c3.545-0.126,6.199-0.255,8.86-0.255
							c0.126,0.255,0.126,0.381,0.126,1.013c0,0.635-0.252,1.393-0.503,1.646c-7.851,1.771-8.483,2.026-8.483,3.927
							c0,1.267,0.125,2.53,0.125,4.557c0,14.054-8.228,23.172-21.777,24.565c-4.812-0.381-10.635-5.193-12.026-9.879
							c0-12.914,11.393-23.801,26.08-24.816c0-8.607-3.927-15.953-3.927-23.043C310.435,197.478,318.284,187.728,327.153,185.827
							 M314.868,236.093c-6.585,0.889-17.474,11.904-17.474,17.726c0,1.9,0.888,3.418,2.535,4.56
							C308.031,255.086,314.868,244.831,314.868,236.093 M327.153,180.601c-0.367,0-0.733,0.039-1.096,0.115
							c-11.301,2.424-20.85,14.215-20.85,25.75c0,4.039,1.011,7.94,1.987,11.713c0.584,2.246,1.178,4.541,1.552,6.861
							c-14.765,3.209-25.691,15.264-25.691,29.285c0,0.504,0.073,1.006,0.216,1.488c2.026,6.82,9.639,13.047,16.623,13.6
							c0.138,0.013,0.275,0.018,0.414,0.018c0.178,0,0.356-0.008,0.534-0.027c16.328-1.68,26.471-13.084,26.471-29.765
							c0-0.917-0.024-1.7-0.052-2.368c1.311-0.336,3.023-0.722,4.332-1.016c0.971-0.22,1.858-0.711,2.558-1.416
							c1.492-1.5,2.022-3.738,2.022-5.33c0-0.881,0-1.978-0.665-3.325c-0.879-1.784-2.698-2.915-4.688-2.915
							c-1.209,0-2.416,0.025-3.678,0.065c0.152-3.568,0.519-6.443,1.005-8.712c0.625,3.186,2.897,5.368,6.079,5.767
							c0.217,0.027,0.433,0.04,0.65,0.04c7.617,0,11.668-12.901,12.053-19.482c0.03-0.541-0.022-1.086-0.158-1.611
							c-1.488-5.766-12.587-17.038-18.27-18.558C328.061,180.66,327.607,180.601,327.153,180.601L327.153,180.601z"/>
					</g>
				</g>
				<g>
					<g>
						<path fill="#FFFFFF" d="M277.517,255.927c-2.432,0-11.855-4.146-11.855-13.373c0-3.297,1.142-9.736,4.364-24.611
							c0.673-2.924,4.449-17.561,13.41-22.043c0.366-0.182,0.766-0.275,1.169-0.275c0.194,0,0.388,0.022,0.578,0.064
							c3.351,0.761,9.675,3.906,13.37,9.455c0.662,0.994,0.566,2.307-0.229,3.195c-5.984,6.67-8.589,13.783-11.605,22.02
							c-0.697,1.908-1.419,3.877-2.207,5.916c-1.625,4.293-3.512,9.663-3.624,12.951
							C280.889,252.628,280.889,255.927,277.517,255.927z M296.254,193.634c-0.159,0-0.321-0.014-0.482-0.045
							c-3.271-0.612-5.93-3.299-5.93-5.986c0-0.471,0.062-1.023,0.187-1.693c-0.874-1.479-1.326-3.355-1.326-4.764
							c0-3.244,1.834-11.795,4.11-17.547c0.395-0.998,1.357-1.652,2.43-1.652c4.846,0,14.491,5.525,17.492,10.023
							c0.711,1.064,0.546,2.488-0.39,3.361c-3.932,3.67-12.711,14.571-13.714,16.773
							C298.201,193.048,297.262,193.634,296.254,193.634z"/>
					</g>
					<g>
						<path fill="#0B0B57" d="M295.242,164.56c3.923,0,12.784,5.063,15.319,8.861c-3.798,3.543-13.04,14.812-14.309,17.6
							c-2.025-0.38-3.798-2.025-3.798-3.418c0-0.508,0.129-1.268,0.381-2.281c-0.885-0.886-1.521-2.785-1.521-4.176
							C291.316,178.231,293.088,170.003,295.242,164.56 M284.605,198.237c2.787,0.633,8.483,3.417,11.774,8.355
							c-7.725,8.609-10.001,17.6-14.306,28.739c-1.773,4.687-3.672,10.13-3.798,13.804c0,3.039,0,4.178-0.759,4.178
							c-1.266,0-9.242-3.291-9.242-10.76c0-2.915,1.014-8.867,4.305-24.059C273.338,215.202,277.01,202.035,284.605,198.237
							 M295.242,159.333c-2.144,0-4.071,1.31-4.859,3.304c-2.209,5.575-4.295,14.571-4.295,18.509c0,1.537,0.389,3.473,1.222,5.219
							c-0.055,0.446-0.081,0.854-0.081,1.238c0,4.41,4.099,7.812,8.062,8.556c0.323,0.06,0.646,0.089,0.964,0.089
							c2.019,0,3.896-1.171,4.756-3.061c1.052-2.119,9.606-12.668,13.118-15.945c1.871-1.746,2.203-4.594,0.781-6.724
							C311.419,165.291,300.944,159.333,295.242,159.333L295.242,159.333z M284.605,193.011c-0.807,0-1.606,0.188-2.338,0.551
							c-10.01,5.006-14.069,20.67-14.782,23.76c-3.732,17.233-4.437,22.156-4.437,25.232c0,10.383,10.27,15.986,14.469,15.986
							c2.52,0,5.302-1.682,5.838-5.438c0.145-1.012,0.147-2.154,0.147-3.864c0.148-3.303,2.551-9.654,3.459-12.057
							c0.781-2.02,1.508-4.003,2.21-5.925c3.046-8.311,5.45-14.877,11.099-21.174c1.593-1.774,1.781-4.403,0.46-6.387
							c-4.444-6.67-11.733-9.821-14.968-10.557C285.38,193.054,284.991,193.011,284.605,193.011L284.605,193.011z"/>
					</g>
				</g>
			</g>
			<g>
				<g>
					<g>
						<path fill="#FFFFFF" d="M379.3,263.246c-0.25,0-0.5-0.036-0.744-0.108c-8.001-2.376-12.635-4.831-12.635-10.355
							c0-6.219,6.714-21.512,19.957-45.451c14.378-26.07,26.445-44.853,38.595-51.777c0.395-0.227,0.841-0.344,1.295-0.344
							c4.245,0,19.388,5.305,20.623,9.765c0.17,0.614,0.11,1.268-0.168,1.841c-3.392,6.969-9.354,25.84-13.551,45.241
							c12.66-24.169,30.097-49.434,39.676-56.352c0.444-0.321,0.98-0.495,1.53-0.495c4.241,0,19.382,5.302,20.626,9.76
							c0.188,0.665,0.103,1.376-0.235,1.979c-9.963,17.814-16.131,55.797-16.131,80.771c0,3.949,0,8.03,0.252,12.516
							c0.039,0.718-0.218,1.419-0.711,1.941c-0.494,0.522-1.182,0.818-1.899,0.818c-4.871,0-15.459-2.517-18.142-6.63
							c-0.251-0.387-0.396-0.831-0.421-1.292c-0.129-2.474-0.129-5.019-0.129-7.479c0-19.92,2.969-40.765,9.075-63.727
							c0.279-1.061,0.612-2.522,0.975-4.205c-13.671,13.49-34.938,53.89-36.865,80.905c-0.074,1.057-0.778,1.962-1.782,2.295
							c-0.781,0.259-1.239,0.259-2.343,0.259c-4.572,0-15.259-3.326-16.852-7.188c-0.112-0.273-0.179-0.564-0.193-0.86
							c-0.13-2.474-0.13-5.019-0.13-7.479c0-19.912,2.969-40.756,9.079-63.727c0.112-0.407,0.229-0.858,0.352-1.345
							c-13.322,16.279-34.195,54.038-36.502,78.358c-0.073,0.777-0.492,1.481-1.141,1.918
							C380.325,263.093,379.816,263.246,379.3,263.246z"/>
					</g>
					<g>
						<path fill="#0B0B57" d="M473.878,157.823c4.686,0,17.474,5.57,18.109,7.849c-10.763,19.245-16.463,58.368-16.463,82.047
							c0,3.925,0,8.104,0.255,12.662c-4.684,0-14.054-2.534-15.952-5.444c-0.126-2.406-0.126-4.938-0.126-7.344
							c0-18.741,2.655-39.248,8.987-63.055c0.634-2.404,1.519-6.709,2.407-11.142c-14.31,6.964-41.278,56.849-43.43,86.984
							c-0.379,0.126-0.505,0.126-1.519,0.126c-4.687,0-13.547-3.418-14.436-5.57c-0.126-2.406-0.126-4.938-0.126-7.344
							c0-18.741,2.659-39.248,8.99-63.055c0.632-2.279,1.517-6.204,2.278-10.383c-12.025,9.498-40.77,57.104-43.555,86.478
							c-8.104-2.406-10.766-4.433-10.766-7.851c0-6.078,7.725-22.663,19.63-44.187c13.547-24.562,25.826-44.06,37.604-50.772
							c4.686,0,17.474,5.57,18.104,7.849c-4.558,9.37-13.803,40.263-17.22,65.08C438.43,202.896,462.484,166.054,473.878,157.823
							 M473.878,152.597c-1.1,0-2.17,0.346-3.062,0.99c-7.573,5.471-19.883,21.996-31.017,40.515
							c3.198-11.674,6.541-21.558,8.772-26.143c0.558-1.146,0.677-2.456,0.337-3.683c-0.593-2.139-2.273-4.608-10.486-8.177
							c-2.425-1.053-8.511-3.503-12.655-3.503c-0.907,0-1.8,0.236-2.588,0.686c-12.681,7.228-24.999,26.33-39.593,52.789
							c-20.279,36.664-20.279,44.227-20.279,46.711c0,8.555,9.079,11.25,14.505,12.861c0.488,0.145,0.988,0.216,1.487,0.216
							c1.031,0,2.052-0.305,2.925-0.896c1.295-0.874,2.132-2.283,2.278-3.838c1.855-19.564,16.082-47.732,28.082-65.971
							c-4.186,18.577-6.226,35.821-6.226,52.438c0,2.494,0,5.074,0.133,7.615c0.03,0.593,0.163,1.174,0.388,1.723
							c2.262,5.477,14.491,8.803,19.268,8.803c1.194,0,1.983,0,3.164-0.391c2.01-0.668,3.418-2.479,3.568-4.59
							c1.553-21.763,16.562-53.535,29.049-70.854c-5.012,20.562-7.454,39.502-7.454,57.693c0,2.494,0,5.074,0.132,7.615
							c0.05,0.921,0.339,1.812,0.843,2.583c3.631,5.567,15.847,7.816,20.33,7.816c1.438,0,2.812-0.592,3.798-1.635
							c0.987-1.045,1.501-2.448,1.421-3.884c-0.247-4.412-0.247-8.459-0.247-12.37c0-24.647,6.04-62.048,15.798-79.495
							c0.674-1.205,0.844-2.628,0.474-3.957c-0.598-2.135-2.28-4.603-10.49-8.167C484.109,155.047,478.021,152.597,473.878,152.597
							L473.878,152.597z"/>
					</g>
				</g>
				<g>
					<g>
						<path fill="#FFFFFF" d="M499.616,256.407c-7.664-0.312-13.018-7.687-13.018-17.933c0-20.271,19.277-47.222,34.379-48.063
							c0.047-0.002,0.096-0.004,0.145-0.004c0.221,0,0.441,0.029,0.656,0.084c3.215,0.835,7.965,4.98,10.209,8.905
							c0.109-0.227,0.219-0.451,0.326-0.674c0.436-0.903,1.352-1.478,2.354-1.478c3.516,0,8.771,2.086,10.816,4.293
							c1.059,1.144,1.217,2.236,1.162,2.951c-0.025,0.324-0.111,0.643-0.252,0.936c-6.844,14.193-11.264,28.559-11.264,36.596
							c0,3.734,0.709,6.27,1.945,6.957c0.811,0.449,1.32,1.291,1.346,2.215c0.025,0.926-0.441,1.794-1.227,2.285
							c-2.438,1.527-6.572,2.679-9.615,2.679c-3.529,0-9.451-1.558-9.451-11.981c0-0.628,0.027-1.288,0.08-1.979
							c-5.969,7.916-12.576,13.295-18.067,14.18c-0.138,0.021-0.277,0.033-0.417,0.033
							C499.689,256.409,499.653,256.409,499.616,256.407z M528.552,206.237c-11.797,4.077-25.452,23.33-25.457,36.913
							c5.189-2.574,12.122-13.377,17.053-21.591C522.564,217.505,525.667,211.827,528.552,206.237z"/>
					</g>
					<g>
						<path fill="#0B0B57" d="M521.122,193.021c3.418,0.889,9.117,6.838,9.496,10.005c-13.552,2.152-30.137,24.562-30.137,40.134
							c0,1.772,0.636,2.66,1.772,3.04c4.938-1.013,11.017-8.104,20.136-23.296c3.543-5.951,8.607-15.449,12.277-23.045
							c3.545,0,9.498,2.786,9.371,4.432c-6.836,14.182-11.521,29.121-11.521,37.73c0,4.684,1.014,7.979,3.291,9.242
							c-2.023,1.268-5.699,2.28-8.229,2.28c-4.559,0-6.838-3.037-6.838-9.368c0-4.686,1.648-11.522,4.812-19.754
							c-6.84,15.447-17.979,28.109-25.83,29.375c-6.205-0.253-10.512-6.582-10.512-15.321
							C489.212,219.609,507.444,193.783,521.122,193.021 M521.122,187.794c-0.098,0-0.195,0.004-0.291,0.009
							c-8.137,0.452-17.273,7.067-25.068,18.149c-7.374,10.484-11.777,22.641-11.777,32.522c0,11.724,6.384,20.171,15.525,20.545
							c0.07,0.002,0.142,0.003,0.213,0.003c0.279,0,0.557-0.021,0.832-0.066c5.229-0.844,10.587-4.713,15.468-10.036
							c0.977,4.442,3.769,9.85,11.556,9.85c3.527,0,8.156-1.295,11.002-3.076c1.57-0.981,2.502-2.719,2.453-4.568
							c-0.049-1.792-1.01-3.431-2.541-4.347c-0.244-0.375-0.75-1.773-0.75-4.758c0-7.558,4.422-21.809,11.004-35.461
							c0.281-0.588,0.453-1.222,0.502-1.872c0.096-1.233-0.148-3.091-1.85-4.925c-2.531-2.733-8.48-5.131-12.732-5.131
							c-0.852,0-1.67,0.206-2.398,0.582c-2.812-3.482-6.756-6.451-9.832-7.252C522.007,187.851,521.564,187.794,521.122,187.794
							L521.122,187.794z M506.77,236.493c2.386-8.185,8.479-17.354,14.964-23.008c-1.369,2.494-2.682,4.805-3.834,6.743
							C512.991,228.405,509.39,233.429,506.77,236.493L506.77,236.493z"/>
					</g>
				</g>
				<g>
					<g>
						<path fill="#FFFFFF" d="M543.915,300.093c-9.295,0-19.197-4.557-22.074-10.158c-0.189-0.369-0.289-0.779-0.289-1.194
							c0-2.452,1.926-4.101,2.559-4.642c0.49-0.418,1.094-0.627,1.701-0.627c0.6,0,1.201,0.205,1.689,0.619
							c4.039,3.424,4.545,3.556,7.303,3.556c14.404,0,27.25-14.755,35.857-40.833c-3.855,2.828-8.137,5.443-11.088,6.623
							c-0.311,0.125-0.639,0.188-0.971,0.188c-0.152,0-0.307-0.014-0.457-0.041c-7.004-1.243-12.285-9.262-12.285-18.652
							c0-21.223,24.203-47.309,43.893-47.309c7.1,0,10.936,3.138,12.43,10.174c0.215,1.006-0.182,2.046-1.014,2.653
							c-0.457,0.335-0.998,0.504-1.541,0.504c-0.445,0-0.895-0.114-1.295-0.344c-0.365-0.208-1.254-0.417-2.254-0.417
							c-0.539,0-1.119,0.082-1.736,0.24c4.676,0.307,9.244,1.844,11.18,3.779c0.76,0.758,0.979,1.901,0.553,2.887
							c-5.834,13.494-9.018,22.086-11.342,28.361c-8.992,24.32-15.354,40.084-27.863,53.896
							C560.22,296.731,550.31,300.093,543.915,300.093z M591.931,201.339c-10.801,5.185-28.424,26.758-30.51,40.434
							c3.074-2.039,8.357-6.532,13.467-12.254c6.674-7.493,13.033-18.002,16.596-27.417
							C591.591,201.817,591.743,201.562,591.931,201.339z"/>
					</g>
					<g>
						<path fill="#0B0B57" d="M589.753,190.235c5.822,0,8.609,2.154,9.875,8.104c-0.889-0.507-2.281-0.761-3.549-0.761
							c-12.152,0-37.477,31.146-37.477,46.722c0,1.138,0.252,1.268,0.508,1.268c2.91,0,11.396-7.22,17.729-14.31
							c7.213-8.102,13.545-18.865,17.088-28.233c4.561,0.252,8.484,1.771,9.75,3.035c-5.695,13.171-8.861,21.653-11.395,28.491
							c-8.986,24.31-15.191,39.628-27.35,53.051c-5.822,6.457-14.939,9.877-21.018,9.877c-8.229,0-17.342-4.053-19.75-8.739
							c0-1.011,0.762-1.899,1.646-2.655c4.18,3.543,5.316,4.175,8.992,4.175c17.467,0,32.154-18.991,40.893-51.15
							c-3.926,4.177-12.662,10.129-17.094,11.901c-5.697-1.012-10.129-8.104-10.129-16.08
							C548.474,215.306,571.771,190.235,589.753,190.235 M589.753,185.009c-20.863,0-46.506,27.527-46.506,49.922
							c0,10.638,6.209,19.764,14.441,21.227c0.303,0.053,0.609,0.08,0.914,0.08c0.662,0,1.322-0.125,1.941-0.374
							c1.432-0.571,3.158-1.463,5-2.548c-8.031,20.357-18.875,31.717-30.74,31.717c-2.07,0-2.15,0-5.611-2.934
							c-0.977-0.828-2.18-1.241-3.381-1.241c-1.211,0-2.422,0.419-3.398,1.256c-2.305,1.972-3.475,4.202-3.475,6.627
							c0,0.831,0.197,1.65,0.578,2.389c3.723,7.247,15.328,11.577,24.398,11.577c6.955,0,17.711-3.631,24.9-11.604
							c12.818-14.153,19.27-30.123,28.369-54.739c2.314-6.243,5.484-14.798,11.291-28.229c0.85-1.969,0.412-4.257-1.105-5.772
							c-0.734-0.734-1.732-1.414-2.918-2.014c0.4-0.959,0.514-2.036,0.289-3.096C602.988,189.015,598.085,185.009,589.753,185.009
							L589.753,185.009z M566.82,234.012c2.293-4.864,5.781-10.36,10.033-15.631c2.98-3.695,5.918-6.771,8.602-9.183
							c-3.434,6.719-7.898,13.396-12.52,18.585C570.886,230.078,568.781,232.193,566.82,234.012L566.82,234.012z"/>
					</g>
				</g>
				<g>
					<g>
						<path fill="#FFFFFF" d="M657.265,257.284c-12.412-1.127-22.512-13.938-22.512-28.559c0-20.737,18.254-40.343,37.561-40.343
							c10.197,0,16.285,5.71,16.285,15.275c0,9.217-5.945,17.932-12.236,17.932c-2.867,0-5.947-1.786-7.85-4.552
							c-0.738-1.075-0.57-2.531,0.395-3.411c5.062-4.612,7.629-8.692,7.629-12.122c0-0.629-0.1-0.938-0.15-1.057
							c-0.004,0.001-0.092-0.002-0.148-0.002c-2.225,0-7.342,3.01-11.734,7.874c-6.844,7.684-10.469,17.108-10.469,27.243
							c0,4.924,0.867,8.262,2.459,9.545c4.203-0.874,12.18-4.574,19.832-10.251c0.463-0.344,1.01-0.516,1.557-0.516
							c0.578,0,1.154,0.19,1.631,0.571c1.262,1.01,2.25,3.02,2.25,4.576c0,0.594-0.203,1.168-0.572,1.631
							c-5.965,7.458-16.822,14.995-23.234,16.133c-0.15,0.027-0.303,0.041-0.455,0.041
							C657.423,257.294,657.343,257.291,657.265,257.284z"/>
					</g>
					<g>
						<path fill="#0B0B57" d="M672.314,190.996c8.734,0,13.672,4.558,13.672,12.662c0,7.722-4.811,15.318-9.623,15.318
							c-2.025,0-4.301-1.392-5.695-3.419c5.695-5.189,8.482-9.875,8.482-14.053c0-2.406-1.014-3.672-2.912-3.672
							c-3.293,0-8.988,3.545-13.674,8.736c-7.219,8.103-11.143,18.232-11.143,28.994c0,6.838,1.52,10.888,4.561,12.281
							c4.938-0.631,14.049-5.063,21.9-10.889c0.637,0.508,1.268,1.773,1.268,2.533c-5.568,6.962-15.955,14.182-21.648,15.191
							c-11.143-1.01-20.135-12.66-20.135-25.955C637.366,209.608,654.587,190.996,672.314,190.996 M672.314,185.77
							c-20.65,0-40.176,20.876-40.176,42.956c0,15.938,11.166,29.916,24.891,31.162c0.156,0.014,0.314,0.02,0.473,0.02
							c0.305,0,0.609-0.027,0.912-0.08c7.781-1.381,19.115-9.942,24.818-17.073c0.742-0.927,1.145-2.079,1.145-3.265
							c0-2.338-1.359-5.12-3.23-6.617c-0.953-0.761-2.109-1.144-3.264-1.144c-1.094,0-2.188,0.343-3.115,1.029
							c-6.273,4.657-13.037,8.087-17.227,9.384c-0.428-1.036-0.893-3.032-0.893-6.578c0-9.483,3.395-18.307,9.818-25.516
							c2.402-2.66,4.807-4.518,6.67-5.645c-0.857,1.776-2.588,4.192-5.988,7.291c-1.932,1.76-2.266,4.674-0.787,6.826
							c2.412,3.505,6.244,5.683,10.002,5.683c7.023,0,14.85-8.438,14.85-20.545C691.212,192.624,683.972,185.77,672.314,185.77
							L672.314,185.77z"/>
					</g>
				</g>
				<g>
					<g>
						<path fill="#FFFFFF" d="M616.097,255.903c-2.432,0-11.857-4.148-11.857-13.377c0-3.296,1.143-9.736,4.367-24.608
							c0.668-2.919,4.43-17.556,13.41-22.044c0.365-0.182,0.766-0.275,1.17-0.275c0.193,0,0.387,0.021,0.578,0.064
							c3.344,0.761,9.666,3.904,13.369,9.457c0.662,0.992,0.568,2.307-0.23,3.195c-5.98,6.668-8.586,13.777-11.604,22.013
							c-0.699,1.909-1.422,3.882-2.211,5.925c-1.625,4.293-3.512,9.662-3.625,12.947
							C619.466,252.604,619.466,255.903,616.097,255.903z M639.716,204.726c-2.02,0-3.486-1.356-3.57-3.296
							c-0.008-1.872-0.08-3.771-0.223-5.696c-0.277,0.388-0.566,0.785-0.867,1.192c-0.201,0.274-0.457,0.507-0.748,0.685
							c-0.619,0.375-1.324,0.574-2.039,0.574c-0.707,0-1.41-0.188-2.09-0.557c-1.18-0.58-1.666-1.484-1.85-2.135
							c-0.246-0.864-0.107-1.781,0.391-2.581c0.455-0.642,0.9-1.3,1.338-1.974c-3.225,1.063-6.475,1.971-9.811,2.74
							c-0.191,0.045-0.389,0.066-0.586,0.066c-0.146,0-0.295-0.012-0.439-0.037c-2.441-0.416-3.67-3.29-3.801-3.615
							c-0.479-1.206-0.484-2.287-0.025-3.23c0.41-0.85,1.166-1.475,2.127-1.76c1.467-0.369,2.945-0.784,4.434-1.249
							c-0.52-0.661-0.73-1.519-0.578-2.368c0.178-1.041,0.713-2.059,1.586-2.998c0.891-0.961,2.625-1.943,4.209-1.943
							c0.336,0,0.662,0.043,0.973,0.123c0.51,0.124,3.053,0.388,4.273,0.514c0.129,0.014,0.256,0.027,0.379,0.039
							c-1.344-5.484-2.896-10.687-4.631-15.512c-0.086-0.242-0.137-0.496-0.148-0.754c-0.119-2.372,1.357-4.115,3.588-4.24
							c0.109-0.005,0.219-0.008,0.328-0.008c1.205,0,2.436,0.357,3.664,1.06c1.037,0.578,2.127,1.384,3.311,2.446
							c1.43,1.293,2.32,2.785,2.65,4.439c0.178,0.812,0.346,1.648,0.508,2.512c0.512-0.668,1.264-1.229,2.4-1.229
							c0.562,0,1.117,0.164,1.605,0.477c0.879,0.544,1.619,1.426,2.166,2.598c0.258,0.531,0.49,1.342,0.553,2.23
							c1.883-1.133,3.686-2.271,5.391-3.408c0.217-0.143,0.451-0.255,0.699-0.328c0.482-0.146,0.955-0.22,1.404-0.22
							c1.691,0,3.059,1.031,3.568,2.69c0.385,1.242,0.365,2.63-0.059,4.119c-0.393,1.449-1.361,3.017-2.646,4.271
							c-0.863,0.823-1.916,1.477-2.861,1.98c0.156,0.075,0.307,0.165,0.443,0.269c1.154,0.867,1.711,2.201,1.57,3.756
							c-0.188,2.225-1.758,3.227-3.227,3.227l0,0c-0.16,0-0.473-0.028-0.629-0.058c-2.656-0.622-5.398-1.068-8.236-1.346
							c0.242,4.696,0.326,9.649,0.25,14.762c-0.004,0.344-0.078,0.685-0.215,1.001c-0.656,1.512-2,2.477-3.785,2.717
							C640.2,204.708,639.948,204.726,639.716,204.726z"/>
					</g>
					<g>
						<path fill="#0B0B57" d="M631.935,159.319c0.734,0,1.529,0.234,2.365,0.715c0.904,0.505,1.854,1.216,2.861,2.121
							c1.004,0.906,1.617,1.909,1.834,3.005c0.721,3.311,1.283,6.882,1.736,10.679c0.986-1.902,1.918-3.623,2.879-6.012
							c0.219-0.551,0.479-1.279,0.857-1.279c0.062,0,0.127,0.02,0.197,0.064c0.49,0.303,0.887,0.818,1.205,1.499
							c0.332,0.688,0.51,2.149,0.016,2.808c-0.432,0.585-1.637,2.854-2.449,4.377c4.311-2.33,8.385-4.75,12.195-7.29
							c0.242-0.073,0.459-0.108,0.654-0.108c0.541,0,0.898,0.283,1.07,0.845c0.232,0.749,0.209,1.642-0.074,2.636
							c-0.275,1.014-0.99,2.171-1.957,3.113c-1.078,1.029-2.723,1.793-3.738,2.27c-1.686,0.82-3.377,1.659-5.098,2.496
							c1.812,0.305,3.939,0.749,6.672,1.445c0.418,0.314,0.596,0.791,0.537,1.431c-0.047,0.565-0.258,0.849-0.623,0.849
							c-0.049,0-0.102-0.005-0.156-0.016c-3.412-0.801-7.062-1.33-10.943-1.576c-0.176,0.081-0.357,0.166-0.533,0.248
							c0.354,5.353,0.496,11.094,0.404,17.276c-0.281,0.651-0.863,1.05-1.734,1.167c-0.145,0.021-0.275,0.031-0.396,0.031
							c-0.615,0-0.938-0.264-0.959-0.795c-0.014-4.189-0.367-8.552-1.055-13.079c-1.092,1.9-2.521,4.11-4.75,7.138
							c-0.213,0.129-0.443,0.195-0.684,0.195c-0.266,0-0.549-0.08-0.844-0.24c-0.58-0.285-0.736-0.638-0.488-1.035
							c1.777-2.498,3.42-5.275,4.945-8.273c-4.758,1.914-10.031,3.683-16.221,5.109c-0.699-0.119-1.492-1.211-1.818-2.02
							c-0.326-0.824-0.189-1.322,0.426-1.506c4.498-1.126,9.115-2.713,13.832-4.741c-2.031-0.197-3.902-0.39-6.318-0.39
							c-0.102,0-0.205,0.002-0.307,0.002c-0.037,0-0.076,0-0.115,0c-0.055,0-0.113,0-0.168,0c-0.639,0-1.332-0.021-1.24-0.529
							c0.094-0.563,0.414-1.132,0.924-1.68c0.459-0.495,1.514-1.111,2.299-1.111c0.107,0,0.209,0.012,0.305,0.038
							c0.963,0.245,5.332,0.634,6.385,0.772c0.836,0.107,1.6,0.188,2.32,0.258c-1.541-6.896-3.389-13.367-5.557-19.4
							c-0.049-0.957,0.322-1.457,1.123-1.501C631.812,159.321,631.872,159.319,631.935,159.319 M623.187,198.212
							c2.785,0.633,8.479,3.42,11.773,8.357c-7.725,8.609-10.002,17.6-14.309,28.74c-1.773,4.687-3.672,10.129-3.799,13.801
							c0,3.039,0,4.179-0.756,4.179c-1.268,0-9.244-3.29-9.244-10.763c0-2.912,1.014-8.861,4.307-24.055
							C611.915,215.179,615.587,202.01,623.187,198.212 M631.935,154.093L631.935,154.093c-0.156,0-0.312,0.004-0.467,0.013
							c-3.705,0.204-6.252,3.14-6.061,6.979c0.025,0.514,0.129,1.022,0.301,1.508c1.316,3.661,2.525,7.547,3.617,11.613
							c-0.264-0.033-0.477-0.066-0.615-0.092c-0.469-0.119-0.998-0.184-1.535-0.184c-2.457,0-4.852,1.402-6.137,2.791
							c-1.215,1.303-1.973,2.773-2.24,4.354c-0.061,0.335-0.088,0.674-0.086,1.011c-0.574,0.158-1.146,0.308-1.713,0.45
							c-0.074,0.02-0.15,0.039-0.225,0.062c-1.67,0.498-2.994,1.607-3.73,3.121c-0.543,1.121-0.996,2.954-0.061,5.317
							c0.277,0.686,1.6,3.631,4.385,4.829c-7.508,6.396-10.684,18.732-11.303,21.436c-3.734,17.228-4.439,22.148-4.439,25.225
							c0,10.387,10.271,15.99,14.471,15.99c2.521,0,5.303-1.684,5.836-5.441c0.145-1.012,0.146-2.152,0.146-3.863
							c0.148-3.299,2.551-9.65,3.459-12.053c0.783-2.022,1.512-4.008,2.217-5.933c3.043-8.31,5.449-14.872,11.096-21.165
							c0.707-0.789,1.135-1.743,1.281-2.734c0.232-0.014,0.467-0.036,0.705-0.07c2.66-0.359,4.787-1.914,5.807-4.264
							c0.273-0.633,0.42-1.312,0.43-2.001c0.061-4.06,0.021-8.021-0.117-11.837c1.645,0.24,3.238,0.539,4.77,0.9
							c0.082,0.019,0.164,0.035,0.248,0.051c0.365,0.068,0.734,0.102,1.102,0.102c2.658,0,5.518-1.934,5.832-5.633
							c0.121-1.33-0.111-2.597-0.652-3.703c0.232-0.189,0.459-0.389,0.68-0.598c1.672-1.634,2.863-3.58,3.391-5.525
							c0.549-1.926,0.562-3.812,0.025-5.55c-0.848-2.749-3.227-4.529-6.064-4.529c-0.701,0-1.428,0.11-2.156,0.329
							c-0.496,0.148-0.967,0.37-1.396,0.658c-0.797,0.53-1.615,1.061-2.455,1.594c-0.713-1.302-1.682-2.354-2.865-3.084
							c-0.84-0.538-1.883-0.846-2.945-0.846c-0.174,0-0.355,0.006-0.539,0.023c-0.541-1.896-1.637-3.598-3.264-5.068
							c-1.34-1.203-2.586-2.119-3.818-2.807C635.271,154.565,633.601,154.093,631.935,154.093L631.935,154.093z"/>
					</g>
				</g>
			</g>
		</g>
		<g>
			<g>
				<g>
					<g>
						<path fill="#F0FBFF" d="M230.584,273.859c0.14,2.87-2.097,5.334-4.968,5.472l-74.83,3.621
							c-2.87,0.138-5.334-2.098-5.472-4.969l-3.45-71.352c-0.14-2.869,2.096-5.334,4.969-5.471l74.828-3.621
							c2.871-0.138,5.334,2.098,5.473,4.969L230.584,273.859z"/>
					</g>
					<g>
						<path fill="#292978" d="M150.535,284.7c-3.725,0-6.782-2.914-6.961-6.633l-3.45-71.351c-0.091-1.853,0.551-3.634,1.805-5.017
							c1.254-1.381,2.966-2.191,4.82-2.28l75.164-3.628c3.725,0,6.782,2.914,6.961,6.633l3.45,71.351
							c0.091,1.853-0.551,3.634-1.805,5.016s-2.966,2.191-4.82,2.28L150.535,284.7z M221.913,199.276l-74.997,3.625
							c-0.924,0.044-1.778,0.449-2.407,1.142c-0.628,0.691-0.95,1.581-0.904,2.505l3.451,71.352
							c0.087,1.829,1.648,3.316,3.479,3.316l0.168-0.004l74.829-3.621c0.924-0.045,1.778-0.45,2.408-1.142
							c0.627-0.692,0.949-1.581,0.903-2.505l-3.451-71.352C225.306,200.763,223.744,199.276,221.913,199.276z"/>
					</g>
				</g>
				<g>
					<g>
						<path fill="#CEE5ED" d="M198.184,218.372c3.932-10.87,16.184,0.674,12.997,5.561
							C206.935,230.429,195.163,226.716,198.184,218.372z"/>
						<path fill="#292978" d="M204.872,228.548c-2.938,0-5.703-1.34-7.216-3.496c-1.396-1.988-1.644-4.519-0.701-7.125
							c1.693-4.68,4.737-5.377,6.401-5.377c3.57,0,7.045,2.963,8.631,5.891c1.25,2.309,1.354,4.57,0.287,6.206
							C210.654,227.126,207.956,228.548,204.872,228.548z M203.357,215.163c-1.741,0-3.066,1.229-3.944,3.653
							c-0.653,1.808-0.522,3.445,0.383,4.734c1.031,1.47,2.978,2.384,5.077,2.384c2.187,0,4.087-0.99,5.215-2.717
							c0.525-0.807,0.381-2.094-0.398-3.533C208.486,217.462,205.787,215.163,203.357,215.163z"/>
					</g>
					<g>
						<path fill="#CEE5ED" d="M181.045,237.606c3.931-10.866,16.188,0.674,12.997,5.559
							C189.797,249.665,178.025,245.951,181.045,237.606z"/>
						<path fill="#292978" d="M187.734,247.782c-2.938,0-5.703-1.339-7.216-3.495c-1.396-1.989-1.644-4.519-0.701-7.125
							c1.691-4.679,4.737-5.376,6.401-5.376c3.574,0,7.049,2.965,8.635,5.893c1.248,2.307,1.351,4.566,0.283,6.201
							C193.517,246.36,190.819,247.782,187.734,247.782z M186.218,234.399c-1.741,0-3.068,1.229-3.944,3.652
							c-0.653,1.807-0.521,3.443,0.383,4.733c1.032,1.472,2.978,2.384,5.077,2.384c2.187,0,4.087-0.99,5.215-2.718
							c0.525-0.807,0.383-2.092-0.395-3.528C191.351,236.699,188.651,234.399,186.218,234.399z"/>
					</g>
					<g>
						<path fill="#CEE5ED" d="M163.908,257.199c3.931-10.868,16.188,0.674,12.999,5.556
							C172.657,269.255,160.887,265.543,163.908,257.199z"/>
						<path fill="#292978" d="M170.593,267.373c-2.938,0-5.701-1.339-7.214-3.495c-1.396-1.988-1.644-4.518-0.699-7.123
							c1.691-4.68,4.737-5.378,6.4-5.378c3.575,0,7.051,2.966,8.637,5.895c1.247,2.306,1.351,4.563,0.284,6.197
							C176.38,265.95,173.68,267.373,170.593,267.373z M169.08,253.99c-1.74,0-3.067,1.229-3.943,3.653
							c-0.655,1.809-0.522,3.445,0.381,4.734c1.031,1.469,2.976,2.381,5.075,2.381c2.188,0,4.091-0.99,5.221-2.719
							c0.525-0.805,0.383-2.09-0.396-3.525C174.214,256.29,171.516,253.99,169.08,253.99z"/>
					</g>
				</g>
			</g>
			<g>
				<g>
					<g>
						<path fill="#F0FBFF" d="M166.79,260.273c-0.796,2.762-3.709,4.368-6.472,3.569L88.348,243.05
							c-2.762-0.798-4.37-3.711-3.57-6.473l19.829-68.627c0.796-2.762,3.709-4.367,6.472-3.569l71.972,20.793
							c2.761,0.798,4.369,3.711,3.569,6.472L166.79,260.273z"/>
					</g>
					<g>
						<path fill="#292978" d="M161.761,265.79c-0.649,0-1.298-0.092-1.926-0.272l-71.971-20.794
							c-1.783-0.516-3.262-1.698-4.162-3.332c-0.901-1.634-1.114-3.516-0.599-5.299l19.829-68.625
							c0.854-2.964,3.611-5.034,6.703-5.034c0.65,0,1.298,0.092,1.926,0.272l71.971,20.793c1.783,0.516,3.262,1.699,4.162,3.333
							c0.901,1.634,1.114,3.517,0.599,5.299l-19.828,68.626C167.611,263.72,164.853,265.79,161.761,265.79z M109.636,165.918
							c-1.549,0-2.928,1.034-3.355,2.515l-19.828,68.629c-0.259,0.889-0.151,1.828,0.301,2.646c0.451,0.818,1.189,1.412,2.078,1.668
							l71.971,20.793c1.812,0.525,3.799-0.588,4.314-2.378l19.828-68.628c0.259-0.889,0.151-1.829-0.301-2.647
							c-0.451-0.818-1.189-1.411-2.077-1.667l-71.971-20.794C110.282,165.964,109.959,165.918,109.636,165.918z"/>
					</g>
				</g>
				<g>
					<g>
						<path fill="#CEE5ED" d="M117.672,189.834c7.239-9.013,15.099,5.879,10.496,9.464
							C122.05,204.075,112.115,196.752,117.672,189.834z"/>
						<path fill="#292978" d="M123.717,202.134c-3.454,0-6.856-2.064-8.274-5.021c-1.257-2.622-0.816-5.573,1.21-8.097
							c2.221-2.763,4.421-3.343,5.875-3.343c3.701,0,6.54,3.443,7.713,6.855c1.138,3.314,0.651,6.303-1.27,7.801
							C127.458,201.509,125.642,202.134,123.717,202.134z M122.528,188.286c-1.284,0-2.576,0.797-3.837,2.366
							c-1.784,2.222-1.47,4.124-0.892,5.331c0.999,2.082,3.433,3.537,5.918,3.537c1.336,0,2.597-0.434,3.646-1.253
							c0.985-0.767,1.146-2.731,0.404-4.89C126.899,190.847,124.822,188.286,122.528,188.286z"/>
					</g>
					<g>
						<path fill="#CEE5ED" d="M151.079,197.944c7.238-9.014,15.096,5.875,10.498,9.467
							C155.457,212.185,145.521,204.861,151.079,197.944z"/>
						<path fill="#292978" d="M157.128,210.245c-3.457,0-6.862-2.066-8.279-5.023c-1.256-2.623-0.814-5.574,1.212-8.096
							c2.218-2.763,4.42-3.343,5.875-3.343c3.697,0,6.535,3.438,7.709,6.848c1.142,3.317,0.658,6.31-1.263,7.81
							C160.868,209.622,159.052,210.245,157.128,210.245z M155.936,196.396c-1.285,0-2.576,0.796-3.837,2.366
							c-1.785,2.221-1.471,4.123-0.894,5.328c1.001,2.086,3.436,3.541,5.923,3.541c1.336,0,2.597-0.432,3.646-1.25
							c0.981-0.769,1.143-2.738,0.397-4.9C160.303,198.954,158.224,196.396,155.936,196.396z"/>
					</g>
					<g>
						<path fill="#CEE5ED" d="M109.806,223.921c7.236-9.013,15.096,5.877,10.502,9.463
							C114.182,238.16,104.245,230.837,109.806,223.921z"/>
						<path fill="#292978" d="M115.853,236.22c-3.457,0-6.861-2.066-8.277-5.023c-1.258-2.622-0.814-5.572,1.212-8.094
							c2.218-2.764,4.418-3.343,5.875-3.343c3.697,0,6.536,3.441,7.711,6.852c1.14,3.315,0.656,6.305-1.261,7.804
							C119.596,235.595,117.779,236.22,115.853,236.22z M114.662,222.373c-1.286,0-2.576,0.796-3.837,2.366
							c-1.785,2.219-1.472,4.123-0.894,5.328c0.999,2.083,3.434,3.539,5.921,3.539c1.338,0,2.6-0.434,3.651-1.252
							c0.98-0.768,1.14-2.732,0.398-4.893C119.031,224.933,116.952,222.373,114.662,222.373z"/>
					</g>
					<g>
						<path fill="#CEE5ED" d="M141.468,232.028c7.238-9.012,15.099,5.879,10.5,9.467
							C145.846,246.271,135.909,238.946,141.468,232.028z"/>
						<path fill="#292978" d="M147.517,244.33c-3.457,0-6.86-2.065-8.279-5.023c-1.256-2.624-0.814-5.575,1.211-8.097
							c2.219-2.763,4.419-3.342,5.875-3.342c3.699,0,6.539,3.441,7.713,6.854c1.141,3.314,0.655,6.305-1.266,7.803
							C151.258,243.706,149.441,244.33,147.517,244.33z M146.323,230.481c-1.286,0-2.575,0.795-3.836,2.365
							c-1.785,2.221-1.471,4.124-0.892,5.33c0.999,2.084,3.434,3.54,5.921,3.54c1.336,0,2.597-0.433,3.647-1.252
							c0.982-0.768,1.144-2.733,0.4-4.894C150.695,233.042,148.615,230.481,146.323,230.481z"/>
					</g>
				</g>
			</g>
		</g>
		<g>
			<g>
				<g>
					<path fill="#F0FBFF" d="M669.503,141.597c-0.699,0-1.34-0.094-1.898-0.279c-0.469-0.156-0.809-0.564-0.881-1.055
						c-0.012-0.092-1.33-9.201-3.234-13.644c-0.928-2.169-1.707-4.832-1.828-7.236c-1.127,3.706-4.08,7.422-8.814,11.081
						c-3.215,2.484-6.721,3.744-10.424,3.744c-11.539,0-20.963-12.118-21.359-12.634c-0.369-0.481-0.357-1.155,0.031-1.625
						c0.256-0.31,0.627-0.476,1.008-0.476c0.197,0,0.396,0.043,0.582,0.137c0.037,0.02,3.793,1.858,8.066,1.858
						c5.559,0,9.396-3.058,11.408-9.089c3.723-11.17,11.318-12.84,15.516-12.84c1.076,0,2.031,0.104,2.801,0.234
						c1.617-2.932,4.842-5.432,9.604-7.444c0.611-0.385,4.893-3.17,6.477-6.682c-0.451-0.041-0.926-0.062-1.42-0.062
						c-2.971,0-13.588,0.926-25.49,12.828c-5.736,5.734-13.766,8.643-23.861,8.643c-8.764,0-15.77-2.239-16.064-2.334
						c-0.424-0.14-0.75-0.485-0.861-0.919c-0.113-0.433,0.006-0.894,0.312-1.218l19.963-21.291c0.254-0.27,0.602-0.413,0.953-0.413
						c0.182,0,0.365,0.037,0.539,0.117c0.939,0.425,1.758,0.831,2.502,1.196c2.051,1.014,3.406,1.685,5.031,1.685
						c2.299,0,5.531-1.309,11.928-4.825c3.916-2.154,8.514-3.245,13.672-3.245c1.908,0,3.881,0.148,5.9,0.442
						c-5.053-4.348-10.646-10.474-11.973-17.094c-2.566,2.41-7.166,6.127-11.145,6.127c-0.51,0-1.002-0.061-1.467-0.176
						c-3.643-0.908-6.34-3.467-6.561-6.223c-0.162-2,0.812-4.886,6.363-7.266c0.162-0.07,0.338-0.105,0.516-0.105h3.666
						c-2.078-2.463-4.857-6.479-4.461-9.954c0.197-1.726,1.16-3.153,2.785-4.128c1.465-0.877,2.873-1.325,4.186-1.325
						c2.223,0,3.74,1.203,4.742,2.523c0.812-2.745,2.248-6.81,4.57-11.071c5.416-9.95,13.094-16.111,22.199-17.819
						c4.045-0.757,7.16-1.142,9.264-1.142c1.033,0,3.779,0,4.305,1.894c0.217,0.792-0.082,1.604-0.676,2.391
						c1.771-0.216,3.885-0.388,6.109-0.388c3.451,0,6.455,0.418,8.938,1.245c3.982,1.329,4.002,4.013,3.824,5.103
						c-0.598,3.69-6.098,7.89-13.023,9.084c2.943,2.309,6.873,6.491,7.4,12.629c1.209-0.634,2.809-1.25,4.48-1.25
						c1.859,0,4.426,0.765,6.08,4.404c0.062,0.134,0.1,0.277,0.113,0.422c0.018,0.209,0.428,5.139-2.762,8.627
						c-1.986,2.177-4.877,3.281-8.586,3.281c-1.611,0-3.396-0.213-5.328-0.637c0.922,2.613,2.592,6.262,4.785,7.723
						c0.316,0.211,0.527,0.549,0.572,0.926c0.033,0.259,0.127,1.627-1.146,3.218c-1.83,2.281-5.498,3.829-10.918,4.612
						c1.48,1.92,3.678,5.148,5.207,9.082c4.133-3.198,12.918-9.405,18.869-9.405c0.723,0,1.307,0.585,1.307,1.307
						c0,5.251,0.426,11.553,1.111,12.582c0.273,0.41,0.293,0.939,0.051,1.368c-0.234,0.412-0.67,0.664-1.137,0.664
						c-0.021,0-0.041,0-0.062-0.002c-0.018,0-0.451-0.021-1.195-0.021c-2.604,0-11.352,0.275-17.268,3.718
						c-0.057,0.67-0.15,1.332-0.277,1.985c1.07-0.235,2.609-0.475,4.412-0.475c4.578,0,8.705,1.555,11.941,4.499
						c0.445,0.402,0.559,1.058,0.271,1.585c-0.045,0.085-4.621,8.599-5.9,12.439c-0.16,0.476-0.578,0.818-1.074,0.883
						c-0.055,0.007-0.111,0.011-0.166,0.011c-0.439,0-0.852-0.222-1.098-0.596c-0.057-0.09-5.9-8.951-13.311-8.951
						c-0.021,0-0.041,0-0.062,0c-1.314,1.393-2.879,2.713-4.658,3.93c-0.469,0.46-2.678,2.578-5.84,4.896
						c-2.25,3.684-2.361,5.504-2.055,5.812c1.572,1.57,10.016,7.635,13.139,9.838c0.348,0.244,0.553,0.642,0.553,1.066
						c0,0.426-0.205,0.824-0.553,1.067l-11.314,7.985c-0.229,0.161-0.492,0.239-0.752,0.239c-0.391,0-0.775-0.173-1.031-0.502
						l-11.771-15.04c-0.73-0.366-1.467-1.079-1.561-2.131c-0.004-0.061-0.008-0.122-0.01-0.184c-0.375,0.207-0.76,0.401-1.148,0.582
						c0.523,0.92,1.494,2.42,3.217,4.484c3.352,4.024,7.271,10.535,7.436,10.812c0.369,0.614,0.174,1.411-0.436,1.784
						C681.056,137.377,674.142,141.597,669.503,141.597z M659.972,109.601c0.678,0.84,2.117,2.971,2.205,6.087
						c0.031-0.073,0.064-0.146,0.096-0.218c0.283-0.594,0.656-1.098,1.117-1.499c-1.256-1.503-2.566-3.419-3.367-5.572
						C659.976,108.753,659.956,109.188,659.972,109.601z"/>
				</g>
			</g>
			<g>
				<g>
					<path fill="#292978" d="M692.345,9.907c7.469,0-1.037,5.089-1.037,5.089s5.045-1.192,10.775-1.192
						c2.852,0,5.871,0.295,8.523,1.18c7.986,2.662-1.33,11.973-12.643,11.973c0,0,10.646,5.32,9.98,15.968c0,0,2.82-2.31,5.758-2.31
						c1.793,0,3.629,0.863,4.891,3.639c0,0,0.953,10.482-10.043,10.482c-1.998,0-4.395-0.348-7.26-1.166
						c0,0,1.996,7.983,5.99,10.646c0,0,0.664,5.322-13.311,6.654c0,0,4.912,5.256,7.129,12.255
						c2.32-1.884,12.992-10.258,19.49-10.258c0,0,0,11.312,1.332,13.308c0,0-0.461-0.022-1.258-0.022
						c-3.309,0-12.428,0.378-18.527,4.262c-0.086,1.841-0.461,3.714-1.227,5.575l1.047-1.163c0,0,2.33-0.832,5.574-0.832
						c3.246,0,7.404,0.832,11.062,4.158c0,0-4.658,8.651-5.99,12.646c0,0-6.178-9.547-14.408-9.547c-0.217,0-0.436,0.006-0.654,0.02
						c-1.301,1.447-2.912,2.854-4.9,4.203c0,0-2.408,2.409-5.984,5.006c-1.205,1.941-3.514,6.125-2,7.639
						c1.994,1.994,13.309,9.98,13.309,9.98l-11.314,7.985l-7.064-9.029l-4.912-6.274c0,0-3.994-1.333,3.328-5.326l0.07-0.044
						l-0.008-0.053c-1.184,0.468-2.385,0.853-3.592,1.104c-1.277,1.06-2.98,2.184-5.123,2.985c0,0,0.668,1.997,3.994,5.991
						c3.326,3.991,7.318,10.646,7.318,10.646s-6.836,4.206-11.158,4.206c-0.541,0-1.041-0.064-1.484-0.213
						c0,0-1.332-9.316-3.328-13.974c-1.818-4.247-3.066-10.682,0.748-11.794c-1.621-1.712-3.797-4.48-4.576-7.614
						c-0.318-0.151-0.592-0.218-0.826-0.218c-1.736,0-1.334,3.654-1.334,3.654s7.984,7.986-6.654,19.298
						c-3.234,2.498-6.496,3.472-9.625,3.472c-11.027,0-20.32-12.121-20.32-12.121s3.99,1.995,8.648,1.995
						c4.66,0,9.984-1.997,12.646-9.982c3.361-10.089,9.908-11.946,14.277-11.946c1.516,0,2.771,0.225,3.537,0.406
						c1.135-2.718,3.922-5.432,9.467-7.758c0,0,6.496-3.902,7.605-8.904c-0.902-0.199-1.959-0.311-3.148-0.311
						c-6.336,0-16.375,3.17-26.414,13.21c-6.523,6.522-15.363,8.261-22.938,8.261c-8.658,0-15.66-2.271-15.66-2.271l19.963-21.29
						c3.662,1.664,5.492,2.998,8.072,2.998s5.908-1.331,12.557-4.987c4.176-2.297,8.742-3.084,13.043-3.084
						c4.088,0.002,7.936,0.711,10.986,1.512c-5.5-4.047-16.043-13-16.043-22.348c0,0-6.912,7.699-12.16,7.699
						c-0.395,0-0.779-0.043-1.148-0.137c-5.324-1.328-9.316-7.027,0-11.02h6.654c0,0-10.648-10.273-3.992-14.268
						c1.357-0.814,2.521-1.14,3.514-1.138c3.871,0,5.137,4.933,5.137,4.933s5.322-27.33,26.617-31.324
						C687.593,10.228,690.47,9.907,692.345,9.907 M678.072,115.41l0.197-0.126c-0.068,0.027-0.135,0.046-0.203,0.073L678.072,115.41
						 M692.345,7.294v2.613V7.294c-2.213,0-5.32,0.379-9.504,1.164c-16.723,3.135-24.236,19.027-27.139,27.723
						c-1.104-0.825-2.471-1.376-4.131-1.378c-1.555,0-3.189,0.509-4.859,1.513c-1.988,1.191-3.166,2.955-3.412,5.1
						c-0.344,3.02,1.291,6.25,3.084,8.795h-0.99c-0.355,0-0.705,0.07-1.029,0.211c-6.596,2.827-7.314,6.584-7.154,8.572
						c0.27,3.357,3.305,6.324,7.551,7.385c0.566,0.143,1.164,0.215,1.781,0.215c3.672,0,7.635-2.666,10.436-5.038
						c1.607,4.862,5.172,9.351,8.906,13.005c-0.715-0.037-1.424-0.057-2.125-0.057c-5.379,0-10.191,1.146-14.301,3.407
						c-6.104,3.355-9.27,4.664-11.299,4.664c-1.264,0-2.338-0.504-4.453-1.548c-0.756-0.373-1.586-0.783-2.539-1.215
						c-0.348-0.159-0.715-0.235-1.078-0.235c-0.709,0-1.402,0.288-1.91,0.825l-19.961,21.29c-0.611,0.653-0.848,1.573-0.625,2.44
						c0.225,0.865,0.873,1.558,1.725,1.834c0.303,0.098,7.5,2.398,16.467,2.398c8.121,0,14.965-1.832,20.424-5.457
						c-2.053,2.047-3.92,4.953-5.289,9.059c-1.84,5.515-5.164,8.196-10.168,8.196c-3.947,0-7.451-1.706-7.486-1.724
						c-0.369-0.182-0.766-0.269-1.158-0.269c-0.764,0-1.512,0.333-2.021,0.952c-0.77,0.939-0.797,2.283-0.057,3.248
						c0.412,0.536,10.217,13.145,22.395,13.145c3.998,0,7.773-1.352,11.223-4.018c3.312-2.557,5.797-5.166,7.441-7.799
						c0.42,1.522,0.916,2.773,1.201,3.435c1.84,4.29,3.131,13.226,3.143,13.313c0.141,0.98,0.824,1.797,1.762,2.109
						c0.691,0.232,1.469,0.348,2.311,0.348c4.92,0,11.764-4.123,12.529-4.594c0.82-0.506,1.268-1.395,1.242-2.297l1.316,1.682
						c0.514,0.656,1.283,1.003,2.061,1.003c0.521,0,1.047-0.156,1.504-0.478l11.314-7.985c0.693-0.489,1.107-1.286,1.107-2.136
						c0-0.848-0.414-1.645-1.105-2.135c-4.068-2.872-10.838-7.781-12.697-9.439c0.064-0.635,0.574-2.12,1.844-4.243
						c2.955-2.188,5.068-4.181,5.686-4.779c1.639-1.128,3.104-2.343,4.369-3.624c6.467,0.379,11.686,8.262,11.738,8.344
						c0.486,0.745,1.316,1.188,2.189,1.188c0.113,0,0.223-0.007,0.334-0.022c0.996-0.128,1.83-0.812,2.146-1.763
						c1.246-3.732,5.77-12.148,5.812-12.232c0.57-1.057,0.346-2.365-0.543-3.172c-3.48-3.166-7.912-4.84-12.82-4.84
						c-0.639,0-1.244,0.027-1.812,0.076c5.508-2.477,12.664-2.69,14.945-2.69c0.693,0,1.104,0.019,1.137,0.019
						c0.039,0.002,0.078,0.004,0.119,0.004c0.939,0,1.811-0.506,2.275-1.328c0.473-0.835,0.447-1.861-0.057-2.671
						c-0.559-1.252-0.934-7.151-0.936-11.922c0-1.442-1.17-2.613-2.613-2.613c-5.713,0-13.467,5.021-18.318,8.648
						c-1.078-2.388-2.346-4.465-3.465-6.088c4.629-0.922,7.865-2.505,9.645-4.725c1.242-1.55,1.551-3.185,1.424-4.198
						c-0.094-0.753-0.512-1.429-1.145-1.851c-1.32-0.88-2.523-2.879-3.438-4.935c1.145,0.16,2.232,0.242,3.258,0.242
						c4.09,0,7.305-1.247,9.551-3.706c3.568-3.911,3.117-9.396,3.096-9.626c-0.027-0.293-0.102-0.579-0.225-0.846
						c-2.045-4.498-5.432-5.17-7.27-5.17c-1.221,0-2.391,0.274-3.426,0.654c-0.85-4.385-3.299-7.717-5.686-10.032
						c5.988-1.706,10.887-5.504,11.545-9.569c0.18-1.109,0.371-4.859-4.701-6.55c-2.615-0.871-5.762-1.313-9.352-1.313
						c-1.406,0-2.773,0.068-4.039,0.172c0.047-0.551-0.064-0.963-0.137-1.215C697.12,7.294,693.525,7.294,692.345,7.294
						L692.345,7.294z M649.448,100.401c0.381-0.344,0.754-0.697,1.121-1.062c10.549-10.551,19.957-12.21,23.672-12.42
						c-1.512,1.949-3.701,3.582-4.762,4.246c-4.572,1.945-7.816,4.36-9.674,7.195c-0.641-0.075-1.357-0.127-2.131-0.127
						C655.488,98.233,652.452,98.647,649.448,100.401L649.448,100.401z"/>
				</g>
			</g>
		</g>
	</g>
</g>
</svg>
