<?xml version="1.0" encoding="utf-8"?>
<!-- Generator: Adobe Illustrator 16.0.0, SVG Export Plug-In . SVG Version: 6.00 Build 0)  -->
<!DOCTYPE svg PUBLIC "-//W3C//DTD SVG 1.1//EN" "http://www.w3.org/Graphics/SVG/1.1/DTD/svg11.dtd">
<svg version="1.1" id="Layer_1" xmlns="http://www.w3.org/2000/svg" xmlns:xlink="http://www.w3.org/1999/xlink" x="0px" y="0px"
	 width="730px" height="70px" viewBox="0 120 730 70" enable-background="new 0 120 730 70" xml:space="preserve">
<g>
	<g>
		<g>
			<path fill="#FFFFFF" d="M27.058,186.18c-3.615,0-7.064-0.603-10.256-1.787c-3.371-1.252-6.165-3.383-8.309-6.333
				c-0.725-1.005-0.554-2.396,0.397-3.188l8.218-6.853c0.427-0.356,0.96-0.548,1.507-0.548c0.145,0,0.289,0.015,0.434,0.042
				c0.69,0.129,1.285,0.559,1.625,1.175c0.749,1.354,1.778,2.377,3.148,3.137c1.409,0.777,2.941,1.158,4.678,1.158
				c0.91,0,1.851-0.125,2.792-0.373c0.917-0.236,1.781-0.598,2.576-1.075c0.746-0.452,1.369-1.009,1.898-1.696
				c0.476-0.613,0.773-1.307,0.91-2.123c0.211-1.617-0.363-2.155-0.579-2.357c-0.892-0.837-2.117-1.567-3.64-2.176
				c-1.758-0.704-3.665-1.37-5.668-1.983c-2.304-0.705-4.436-1.689-6.334-2.921c-2.046-1.323-3.696-3.113-4.897-5.314
				c-1.257-2.318-1.628-5.329-1.099-8.953c0.461-3.102,1.521-5.824,3.152-8.106c1.593-2.227,3.565-4.1,5.858-5.567
				c2.254-1.443,4.769-2.532,7.481-3.238c2.677-0.691,5.382-1.043,8.048-1.043c3.081,0,6.055,0.464,8.836,1.381
				c2.94,0.972,5.463,2.592,7.506,4.818c0.422,0.463,0.645,1.073,0.616,1.701c-0.03,0.625-0.309,1.213-0.772,1.633l-7.99,7.228
				c-0.437,0.396-0.998,0.609-1.577,0.609c-0.116,0-0.232-0.01-0.35-0.026c-0.696-0.105-1.31-0.517-1.671-1.121
				c-0.604-1.011-1.439-1.732-2.553-2.208c-1.27-0.542-2.7-0.817-4.249-0.817c-0.938,0-1.873,0.105-2.783,0.314
				c-0.858,0.197-1.62,0.496-2.328,0.916c-0.639,0.384-1.171,0.873-1.623,1.489c-0.399,0.55-0.646,1.204-0.744,1.997
				c-0.206,1.432,0.257,1.824,0.48,2.013c0.908,0.768,2.152,1.46,3.697,2.058c1.751,0.675,3.668,1.334,5.702,1.957
				c2.31,0.705,4.455,1.702,6.378,2.959c2.077,1.358,3.729,3.184,4.903,5.421c1.22,2.333,1.572,5.346,1.043,8.955
				c-0.453,3.155-1.468,5.968-3.017,8.354c-1.531,2.358-3.445,4.346-5.689,5.9c-2.216,1.538-4.718,2.704-7.441,3.464
				C32.699,185.799,29.9,186.18,27.058,186.18z"/>
		</g>
		<g>
			<path fill="#0B0B57" d="M38.998,128.407c2.839,0,5.542,0.421,8.102,1.265c2.56,0.846,4.729,2.235,6.504,4.173l-7.988,7.227
				c-0.86-1.44-2.079-2.496-3.649-3.166c-1.572-0.672-3.296-1.008-5.173-1.008c-1.114,0-2.22,0.125-3.309,0.375
				c-1.092,0.251-2.09,0.646-3.003,1.188c-0.914,0.549-1.687,1.255-2.321,2.123c-0.634,0.871-1.029,1.902-1.178,3.091
				c-0.256,1.79,0.177,3.155,1.292,4.102c1.113,0.939,2.575,1.763,4.371,2.456c1.801,0.696,3.752,1.368,5.859,2.014
				c2.105,0.643,4.031,1.534,5.779,2.679c1.753,1.145,3.118,2.656,4.108,4.545c0.988,1.887,1.257,4.396,0.799,7.521
				c-0.406,2.833-1.293,5.303-2.663,7.413c-1.371,2.111-3.056,3.862-5.058,5.25c-2.006,1.393-4.248,2.436-6.733,3.129
				c-2.483,0.697-5.047,1.044-7.681,1.044c-3.346,0-6.494-0.548-9.436-1.641c-2.938-1.091-5.349-2.927-7.223-5.511l8.216-6.852
				c0.96,1.737,2.319,3.09,4.068,4.057c1.75,0.969,3.69,1.454,5.817,1.454c1.117,0,2.245-0.15,3.387-0.448
				c1.14-0.295,2.207-0.743,3.194-1.338c0.988-0.6,1.839-1.353,2.548-2.274c0.711-0.917,1.165-1.974,1.368-3.166
				c0.254-1.936-0.177-3.427-1.291-4.47c-1.115-1.044-2.575-1.923-4.376-2.643c-1.799-0.72-3.75-1.404-5.854-2.048
				c-2.105-0.646-4.019-1.527-5.742-2.645c-1.725-1.117-3.096-2.608-4.111-4.47c-1.01-1.863-1.291-4.356-0.836-7.486
				c0.406-2.729,1.319-5.09,2.739-7.075c1.419-1.985,3.158-3.64,5.211-4.954c2.055-1.316,4.322-2.298,6.807-2.943
				C34.03,128.731,36.516,128.407,38.998,128.407 M38.998,123.702c-2.863,0-5.768,0.376-8.633,1.116
				c-2.957,0.771-5.703,1.96-8.167,3.538c-2.544,1.627-4.734,3.707-6.501,6.178c-1.849,2.587-3.049,5.654-3.566,9.12
				c-0.602,4.154-0.146,7.656,1.356,10.425c1.396,2.56,3.309,4.635,5.689,6.175c2.083,1.349,4.409,2.425,6.919,3.194
				c1.948,0.595,3.793,1.24,5.489,1.918c1.172,0.467,2.105,1.002,2.774,1.588c0.006,0.09,0.009,0.234-0.016,0.448
				c-0.077,0.394-0.213,0.71-0.433,0.99c-0.356,0.462-0.769,0.83-1.27,1.133c-0.584,0.354-1.238,0.625-1.928,0.805
				c-0.762,0.199-1.5,0.299-2.21,0.299c-1.331,0-2.489-0.283-3.544-0.867c-0.967-0.535-1.695-1.259-2.224-2.215
				c-0.678-1.229-1.87-2.089-3.251-2.349c-0.288-0.053-0.578-0.08-0.867-0.08c-1.092,0-2.16,0.382-3.015,1.092l-8.217,6.851
				c-1.9,1.587-2.248,4.377-0.794,6.38c2.42,3.334,5.58,5.741,9.395,7.157c3.451,1.285,7.179,1.937,11.073,1.937
				c3.056,0,6.068-0.41,8.953-1.219c2.973-0.832,5.715-2.107,8.146-3.796c2.495-1.73,4.624-3.937,6.321-6.557
				c1.736-2.673,2.873-5.801,3.374-9.303c0.599-4.1,0.167-7.593-1.29-10.373c-1.364-2.604-3.283-4.722-5.706-6.303
				c-2.102-1.377-4.45-2.469-6.974-3.238c-1.976-0.606-3.841-1.247-5.54-1.902c-1.101-0.425-2.028-0.91-2.714-1.413
				c0.005-0.027,0.008-0.06,0.012-0.092c0.083-0.652,0.267-0.903,0.326-0.983c0.26-0.359,0.559-0.632,0.938-0.859
				c0.476-0.283,1.016-0.494,1.634-0.637c0.737-0.17,1.496-0.255,2.256-0.255c1.245,0,2.334,0.204,3.325,0.627
				c0.659,0.283,1.108,0.669,1.455,1.25c0.722,1.211,1.951,2.034,3.343,2.243c0.235,0.036,0.467,0.053,0.699,0.053
				c1.158,0,2.286-0.428,3.156-1.216l7.99-7.227c0.928-0.841,1.485-2.018,1.544-3.271c0.058-1.252-0.387-2.477-1.234-3.4
				c-2.316-2.527-5.174-4.363-8.497-5.462C45.552,124.207,42.33,123.702,38.998,123.702L38.998,123.702z"/>
		</g>
	</g>
	<g>
		<g>
			<path fill="#FFFFFF" d="M73.989,185.732c-3.019,0-5.852-0.504-8.419-1.498c-2.624-1.018-4.857-2.491-6.644-4.381
				c-1.787-1.895-3.108-4.197-3.922-6.846c-0.809-2.629-0.988-5.568-0.537-8.733c0.45-3.122,1.447-6.009,2.971-8.578
				c1.512-2.545,3.41-4.749,5.643-6.551c2.231-1.804,4.782-3.212,7.586-4.191c2.802-0.974,5.735-1.468,8.725-1.468
				c5.86,0,10.398,1.994,13.486,5.926c3.036,3.854,4.094,9.302,3.144,16.188l-0.386,2.498c-0.18,1.146-1.165,1.992-2.325,1.992
				h-6.62l5.229,4.325c0.504,0.415,0.811,1.024,0.848,1.678c0.039,0.653-0.198,1.293-0.652,1.766
				c-2.709,2.816-5.653,4.861-8.749,6.072C80.323,185.126,77.166,185.732,73.989,185.732z M68.217,170.417
				c0.303,0.735,0.706,1.336,1.23,1.832c0.534,0.505,1.171,0.892,1.941,1.181c0.795,0.296,1.696,0.446,2.677,0.446
				c1.874,0,3.508-0.369,4.852-1.097c1.337-0.723,2.556-1.627,3.625-2.688H68.098C68.132,170.203,68.173,170.312,68.217,170.417z
				 M82.871,158.68c-0.124-0.919-0.46-1.666-1.013-2.256c-0.954-1.017-2.549-1.531-4.748-1.531c-2.18,0-3.926,0.574-5.333,1.759
				c-0.691,0.583-1.277,1.257-1.766,2.028H82.871z"/>
		</g>
		<g>
			<path fill="#0B0B57" d="M79.392,145.839c5.12,0,9.001,1.674,11.637,5.028c2.638,3.35,3.525,8.155,2.663,14.412l-0.381,2.459
				H65.471c-0.053,1.339,0.141,2.532,0.57,3.574c0.43,1.045,1.027,1.924,1.786,2.643c0.764,0.721,1.675,1.281,2.739,1.678
				c1.067,0.398,2.232,0.596,3.5,0.596c2.282,0,4.272-0.46,5.972-1.379c1.694-0.917,3.205-2.07,4.526-3.463l5.854,4.842
				c-2.483,2.583-5.121,4.422-7.909,5.512c-2.79,1.094-5.629,1.64-8.521,1.64c-2.739,0-5.262-0.446-7.569-1.34
				s-4.232-2.161-5.782-3.802c-1.545-1.637-2.674-3.611-3.384-5.921c-0.709-2.31-0.861-4.878-0.458-7.709
				c0.408-2.831,1.296-5.4,2.666-7.712c1.37-2.307,3.066-4.28,5.098-5.919c2.027-1.639,4.319-2.907,6.882-3.801
				C74.004,146.285,76.651,145.839,79.392,145.839 M66.46,161.033h18.711c0.354-2.634-0.177-4.707-1.6-6.221
				c-1.418-1.515-3.57-2.272-6.461-2.272c-2.739,0-5.021,0.774-6.848,2.31C68.438,156.392,67.169,158.452,66.46,161.033
				 M79.392,141.133c-3.254,0-6.448,0.538-9.497,1.6c-3.06,1.068-5.851,2.61-8.295,4.584c-2.448,1.977-4.529,4.392-6.184,7.179
				c-1.682,2.84-2.784,6.017-3.276,9.444c-0.504,3.514-0.294,6.798,0.616,9.762c0.92,2.993,2.421,5.609,4.462,7.77
				c2.024,2.146,4.55,3.814,7.503,4.959c2.837,1.097,5.958,1.656,9.269,1.656c3.473,0,6.917-0.66,10.24-1.963
				c3.409-1.338,6.635-3.568,9.582-6.631c0.907-0.945,1.381-2.225,1.307-3.532c-0.075-1.306-0.691-2.524-1.7-3.358l-0.191-0.158
				h0.083c2.321,0,4.294-1.69,4.65-3.983l0.382-2.459c1.05-7.625-0.17-13.668-3.618-18.046
				C91.171,143.431,86.01,141.133,79.392,141.133L79.392,141.133z"/>
		</g>
	</g>
	<g>
		<g>
			<path fill="#FFFFFF" d="M110.5,185.732c-1.882,0-3.728-0.258-5.48-0.764c-1.832-0.523-3.454-1.344-4.817-2.436
				c-1.42-1.137-2.5-2.577-3.21-4.278c-0.722-1.741-0.926-3.736-0.613-5.935c0.48-3.41,1.824-6.17,3.994-8.202
				c2-1.874,4.408-3.312,7.146-4.267c2.625-0.903,5.421-1.471,8.321-1.687c2.761-0.202,5.338-0.304,7.668-0.304h0.093
				c-0.043-1.206-0.543-1.602-0.79-1.794c-0.993-0.779-2.446-1.175-4.325-1.175c-1.635,0-3.223,0.287-4.719,0.854
				c-1.524,0.575-2.882,1.358-4.04,2.326c-0.441,0.367-0.977,0.547-1.51,0.547c-0.656,0-1.306-0.273-1.771-0.805l-4.108-4.694
				c-0.851-0.973-0.76-2.447,0.206-3.307c2.529-2.252,5.418-3.895,8.584-4.883c3.085-0.961,6.224-1.445,9.334-1.445
				c2.877,0,5.225,0.319,7.179,0.979c1.983,0.667,3.631,1.556,4.893,2.643c1.329,1.145,2.304,2.496,2.899,4.017
				c0.535,1.37,0.869,2.781,0.99,4.196c0.115,1.337,0.099,2.659-0.043,3.93l-0.344,2.952l-2.895,20.609
				c-0.164,1.162-1.159,2.027-2.331,2.027h-8.216c-0.681,0-1.33-0.296-1.775-0.81c-0.231-0.264-0.397-0.574-0.491-0.908
				c-0.653,0.401-1.328,0.747-2.027,1.043C115.866,185.205,113.241,185.732,110.5,185.732z M121.592,168.832
				c-1.004,0.018-2.105,0.064-3.303,0.138c-1.436,0.089-2.821,0.303-4.122,0.639c-1.176,0.301-2.197,0.741-3.036,1.309
				c-0.523,0.354-0.79,0.78-0.892,1.429c-0.037,0.312,0.003,0.553,0.053,0.649c0.136,0.253,0.324,0.464,0.584,0.649
				c0.314,0.224,0.67,0.382,1.097,0.487c0.52,0.126,1.076,0.191,1.644,0.191c2.553,0,4.5-0.552,5.782-1.638
				C120.526,171.727,121.248,170.463,121.592,168.832z"/>
		</g>
		<g>
			<path fill="#0B0B57" d="M120.463,145.839c2.587,0,4.729,0.282,6.428,0.855c1.7,0.572,3.069,1.303,4.108,2.196
				c1.038,0.895,1.787,1.926,2.242,3.091c0.458,1.17,0.736,2.349,0.838,3.541c0.102,1.19,0.087,2.344-0.038,3.463
				c-0.126,1.116-0.244,2.101-0.343,2.943l-2.889,20.558h-8.216l0.685-4.916h-0.229c-1.625,2.035-3.511,3.514-5.668,4.43
				c-2.155,0.92-4.449,1.38-6.882,1.38c-1.672,0-3.284-0.227-4.827-0.673c-1.55-0.443-2.882-1.115-3.999-2.01
				c-1.115-0.895-1.951-2.013-2.51-3.35c-0.555-1.343-0.709-2.907-0.455-4.695c0.405-2.877,1.494-5.151,3.272-6.814
				c1.774-1.664,3.879-2.916,6.312-3.765c2.433-0.839,5.008-1.36,7.722-1.562c2.71-0.198,5.208-0.297,7.493-0.297h2.281l0.077-0.97
				c0.354-2.233-0.179-3.911-1.6-5.028c-1.42-1.114-3.346-1.677-5.78-1.677c-1.929,0-3.78,0.335-5.554,1.008
				c-1.774,0.669-3.346,1.574-4.715,2.72l-4.108-4.695c2.284-2.033,4.857-3.502,7.721-4.396
				C114.698,146.285,117.575,145.839,120.463,145.839 M124.345,166.472h-1.902c-1.266,0-2.701,0.051-4.298,0.149
				c-1.599,0.099-3.118,0.336-4.563,0.708c-1.447,0.372-2.701,0.919-3.765,1.639c-1.064,0.717-1.699,1.725-1.901,3.015
				c-0.103,0.846,0,1.555,0.304,2.123c0.303,0.57,0.736,1.057,1.294,1.453c0.555,0.401,1.189,0.684,1.9,0.857
				c0.709,0.173,1.445,0.26,2.205,0.26c3.144,0,5.579-0.734,7.303-2.195c1.724-1.465,2.764-3.469,3.121-6L124.345,166.472
				 M120.463,141.133c-3.348,0-6.723,0.521-10.029,1.549c-3.494,1.092-6.671,2.9-9.454,5.375c-1.931,1.719-2.114,4.671-0.411,6.615
				l3.547,4.054c-1.987,0.972-3.78,2.204-5.354,3.679c-2.568,2.404-4.156,5.632-4.712,9.594c-0.372,2.613-0.115,5.021,0.768,7.15
				c0.869,2.082,2.183,3.833,3.913,5.221c1.609,1.29,3.508,2.252,5.646,2.863c1.957,0.566,4.021,0.854,6.124,0.854
				c3.058,0,5.996-0.591,8.727-1.757c0.138-0.06,0.275-0.118,0.411-0.181c0.833,0.672,1.873,1.043,2.956,1.043h8.216
				c2.347,0,4.334-1.728,4.66-4.051l2.889-20.557l0.083-0.701l0.275-2.369c0.161-1.425,0.18-2.902,0.053-4.389
				c-0.142-1.648-0.529-3.279-1.146-4.857c-0.733-1.882-1.931-3.546-3.556-4.943c-1.493-1.286-3.403-2.325-5.678-3.09
				C126.195,141.494,123.601,141.133,120.463,141.133L120.463,141.133z M114.559,171.938c0.064-0.019,0.128-0.034,0.195-0.05
				c0.678-0.177,1.386-0.314,2.114-0.414C116.158,171.753,115.33,171.885,114.559,171.938L114.559,171.938z"/>
		</g>
	</g>
	<g>
		<g>
			<path fill="#FFFFFF" d="M151.423,185.732c-3.089,0-5.935-0.445-8.458-1.324c-2.714-0.941-5.033-2.665-6.887-5.122
				c-0.762-1.013-0.585-2.45,0.402-3.249l6.924-5.587c0.419-0.341,0.942-0.522,1.478-0.522c0.089,0,0.176,0.005,0.266,0.016
				c0.625,0.071,1.198,0.391,1.585,0.888c0.854,1.091,1.795,1.993,2.792,2.681c0.784,0.539,1.911,0.812,3.346,0.812
				c0.493,0,1.038-0.06,1.625-0.18c0.505-0.101,0.997-0.275,1.465-0.521c0.4-0.211,0.727-0.465,0.996-0.771
				c0.155-0.177,0.24-0.366,0.277-0.611c0.046-0.293,0.028-0.429,0.019-0.459c-0.688-0.449-1.613-0.83-2.78-1.137
				c-1.369-0.356-2.858-0.694-4.455-1.008c-1.86-0.365-3.597-0.967-5.164-1.787c-1.753-0.926-3.146-2.231-4.15-3.884
				c-1.078-1.762-1.401-4.099-0.963-6.941c0.356-2.337,1.172-4.417,2.424-6.182c1.216-1.712,2.735-3.141,4.516-4.249
				c1.725-1.068,3.643-1.865,5.703-2.371c1.993-0.489,4.024-0.737,6.04-0.737c2.697,0,5.336,0.462,7.841,1.372
				c2.766,1.001,4.907,2.76,6.357,5.226c0.599,1.015,0.35,2.318-0.578,3.044l-6.848,5.363c-0.417,0.327-0.929,0.501-1.451,0.501
				c-0.146,0-0.297-0.014-0.441-0.041c-0.668-0.129-1.248-0.538-1.59-1.126c-1.004-1.719-2.417-2.484-4.587-2.484
				c-0.428,0-0.889,0.056-1.376,0.168c-0.464,0.101-0.864,0.248-1.238,0.447c-0.26,0.141-0.476,0.322-0.655,0.557
				c-0.136,0.175-0.221,0.379-0.26,0.639c0.616,0.356,1.579,0.703,2.797,1c1.41,0.347,2.932,0.701,4.565,1.07
				c1.857,0.421,3.583,1.081,5.132,1.963c1.705,0.979,3.068,2.33,4.061,4.023c1.061,1.812,1.378,4.187,0.939,7.057
				c-0.351,2.507-1.241,4.698-2.638,6.489c-1.324,1.705-2.959,3.104-4.862,4.154c-1.831,1.008-3.844,1.738-5.988,2.182
				C155.534,185.517,153.454,185.732,151.423,185.732z"/>
		</g>
		<g>
			<path fill="#0B0B57" d="M158.422,145.839c2.431,0,4.777,0.409,7.036,1.229c2.254,0.815,3.966,2.223,5.133,4.207l-6.848,5.363
				c-1.421-2.433-3.626-3.651-6.618-3.651c-0.607,0-1.24,0.076-1.898,0.226c-0.661,0.147-1.268,0.37-1.827,0.669
				c-0.558,0.301-1.027,0.698-1.409,1.192c-0.381,0.496-0.62,1.069-0.722,1.712c-0.151,1.094,0.216,1.889,1.103,2.385
				c0.885,0.502,2.04,0.92,3.46,1.267c1.42,0.35,2.956,0.706,4.603,1.08c1.647,0.372,3.142,0.944,4.488,1.712
				c1.341,0.77,2.408,1.825,3.193,3.167c0.786,1.342,1.002,3.181,0.646,5.512c-0.301,2.137-1.028,3.936-2.167,5.396
				c-1.14,1.47-2.523,2.648-4.146,3.545c-1.625,0.891-3.399,1.536-5.327,1.934c-1.926,0.398-3.828,0.597-5.703,0.597
				c-2.84,0-5.399-0.398-7.684-1.193c-2.279-0.79-4.21-2.233-5.782-4.317l6.924-5.589c1.013,1.294,2.115,2.347,3.309,3.169
				c1.189,0.816,2.75,1.227,4.681,1.227c0.657,0,1.353-0.074,2.09-0.225c0.733-0.146,1.43-0.397,2.092-0.744
				c0.657-0.348,1.215-0.781,1.672-1.303c0.455-0.523,0.734-1.13,0.836-1.826c0.202-1.239-0.14-2.158-1.027-2.754
				c-0.886-0.598-2.042-1.08-3.46-1.454c-1.419-0.37-2.957-0.717-4.602-1.041c-1.65-0.324-3.157-0.846-4.527-1.562
				c-1.369-0.725-2.444-1.729-3.23-3.021c-0.789-1.289-1.002-3.072-0.648-5.361c0.304-1.985,0.976-3.711,2.017-5.18
				c1.04-1.461,2.319-2.665,3.841-3.612c1.521-0.941,3.196-1.636,5.021-2.084C154.771,146.06,156.598,145.839,158.422,145.839
				 M158.422,141.133c-2.204,0-4.424,0.271-6.6,0.805c-2.3,0.565-4.446,1.457-6.376,2.654c-2.056,1.28-3.8,2.921-5.198,4.887
				c-1.468,2.071-2.422,4.49-2.833,7.195c-0.526,3.398-0.094,6.271,1.285,8.524c0.827,1.363,1.875,2.535,3.127,3.5l-6.824,5.507
				c-1.976,1.597-2.331,4.471-0.802,6.498c2.139,2.838,4.83,4.832,7.997,5.93c2.767,0.963,5.873,1.453,9.226,1.453
				c2.189,0,4.43-0.232,6.655-0.692c2.374-0.489,4.607-1.302,6.638-2.421c2.195-1.211,4.074-2.818,5.6-4.78
				c1.645-2.112,2.693-4.679,3.109-7.628c0.513-3.36,0.097-6.256-1.245-8.547c-1.099-1.877-2.579-3.41-4.4-4.562l5.715-4.477
				c1.855-1.452,2.35-4.056,1.152-6.089c-1.734-2.95-4.288-5.053-7.587-6.248C164.303,141.642,161.394,141.133,158.422,141.133
				L158.422,141.133z"/>
		</g>
	</g>
	<g>
		<g>
			<path fill="#FFFFFF" d="M192.268,185.732c-3.018,0-5.851-0.504-8.42-1.498c-2.626-1.021-4.861-2.494-6.641-4.383
				c-1.787-1.893-3.108-4.195-3.922-6.844c-0.811-2.641-0.993-5.58-0.536-8.735c0.443-3.118,1.443-6.004,2.966-8.576
				c1.51-2.54,3.408-4.744,5.644-6.551c2.229-1.802,4.782-3.212,7.583-4.191c2.804-0.974,5.737-1.468,8.728-1.468
				c3.019,0,5.841,0.503,8.387,1.498c2.597,1.018,4.814,2.491,6.597,4.378c1.786,1.893,3.107,4.195,3.922,6.84
				c0.81,2.638,0.989,5.577,0.538,8.739c-0.45,3.13-1.448,6.015-2.966,8.576c-1.505,2.536-3.387,4.737-5.596,6.544
				c-2.205,1.806-4.747,3.218-7.557,4.2C198.196,185.238,195.259,185.732,192.268,185.732z M196.452,156.234
				c-1.342,0-2.578,0.237-3.68,0.706c-1.146,0.489-2.13,1.124-3.005,1.941c-0.868,0.807-1.592,1.751-2.15,2.808
				c-0.559,1.051-0.922,2.146-1.08,3.254c-0.164,1.11-0.127,2.14,0.109,3.151c0.228,0.958,0.619,1.78,1.193,2.508
				c0.561,0.71,1.286,1.271,2.212,1.718c0.918,0.438,2.046,0.662,3.358,0.662c1.356,0,2.61-0.24,3.729-0.711
				c1.161-0.487,2.182-1.137,3.036-1.933c0.86-0.81,1.565-1.744,2.089-2.773c0.548-1.071,0.896-2.148,1.065-3.3
				c0.161-1.103,0.123-2.13-0.115-3.137c-0.227-0.963-0.616-1.783-1.189-2.507c-0.566-0.719-1.292-1.282-2.216-1.726
				C198.887,156.458,197.757,156.234,196.452,156.234z"/>
		</g>
		<g>
			<path fill="#0B0B57" d="M197.67,145.839c2.739,0,5.248,0.446,7.529,1.338c2.282,0.894,4.197,2.162,5.743,3.801
				c1.547,1.639,2.674,3.612,3.387,5.919c0.708,2.312,0.86,4.881,0.457,7.712c-0.408,2.831-1.293,5.399-2.662,7.709
				c-1.369,2.31-3.056,4.284-5.061,5.921c-2.003,1.641-4.285,2.908-6.845,3.802c-2.561,0.894-5.211,1.34-7.95,1.34
				c-2.737,0-5.26-0.446-7.569-1.34c-2.305-0.894-4.232-2.161-5.779-3.802c-1.545-1.637-2.675-3.611-3.384-5.921
				c-0.711-2.31-0.866-4.878-0.458-7.709c0.405-2.831,1.294-5.4,2.663-7.712c1.37-2.307,3.067-4.28,5.097-5.919
				c2.026-1.639,4.322-2.907,6.882-3.801C192.281,146.285,194.931,145.839,197.67,145.839 M193.41,175.335
				c1.672,0,3.222-0.297,4.641-0.895c1.418-0.597,2.662-1.388,3.728-2.38c1.062-0.997,1.925-2.139,2.582-3.429
				c0.662-1.291,1.092-2.631,1.296-4.023c0.202-1.391,0.152-2.73-0.154-4.021c-0.303-1.292-0.847-2.434-1.633-3.426
				c-0.786-0.995-1.801-1.79-3.042-2.386c-1.245-0.593-2.702-0.894-4.375-0.894c-1.673,0-3.208,0.301-4.6,0.894
				c-1.398,0.596-2.625,1.391-3.69,2.386c-1.067,0.992-1.94,2.134-2.625,3.426c-0.685,1.291-1.13,2.631-1.331,4.021
				c-0.205,1.393-0.154,2.732,0.149,4.023c0.309,1.29,0.851,2.432,1.637,3.429c0.786,0.992,1.802,1.783,3.043,2.38
				C190.28,175.038,191.736,175.335,193.41,175.335 M197.67,141.133c-3.254,0-6.448,0.538-9.498,1.6
				c-3.062,1.068-5.852,2.61-8.293,4.584c-2.453,1.981-4.533,4.396-6.186,7.179c-1.684,2.843-2.785,6.021-3.273,9.446
				c-0.506,3.498-0.299,6.781,0.615,9.76c0.922,2.993,2.423,5.609,4.463,7.77c2.019,2.142,4.542,3.809,7.498,4.956
				c2.845,1.1,5.963,1.659,9.272,1.659c3.256,0,6.452-0.541,9.501-1.603c3.073-1.072,5.854-2.62,8.274-4.602
				c2.42-1.979,4.483-4.39,6.129-7.163c1.675-2.829,2.775-6.005,3.27-9.441c0.501-3.509,0.297-6.793-0.613-9.76
				c-0.926-3.003-2.427-5.613-4.464-7.771c-2.023-2.142-4.528-3.808-7.448-4.951C204.094,141.691,200.983,141.133,197.67,141.133
				L197.67,141.133z M193.41,170.629c-0.956,0-1.745-0.145-2.34-0.433c-0.597-0.284-1.05-0.632-1.387-1.057
				c-0.352-0.446-0.6-0.972-0.749-1.6c-0.165-0.703-0.189-1.442-0.071-2.247c0.124-0.866,0.397-1.678,0.832-2.503
				c0.443-0.834,0.989-1.548,1.675-2.186c0.676-0.629,1.434-1.12,2.328-1.5c0.815-0.347,1.719-0.517,2.755-0.517
				c0.951,0,1.744,0.146,2.353,0.437c0.581,0.28,1.034,0.625,1.372,1.053c0.359,0.452,0.6,0.97,0.744,1.585
				c0.173,0.722,0.195,1.462,0.079,2.269c-0.129,0.884-0.401,1.723-0.828,2.555c-0.412,0.811-0.939,1.51-1.615,2.145
				c-0.646,0.602-1.414,1.089-2.328,1.472C195.385,170.456,194.463,170.629,193.41,170.629L193.41,170.629z"/>
		</g>
	</g>
	<g>
		<g>
			<path fill="#FFFFFF" d="M244.982,184.839c-0.682,0-1.33-0.297-1.778-0.812c-0.446-0.515-0.649-1.199-0.551-1.874l2.582-18.098
				c0.14-0.924,0.237-1.956,0.285-3.084c0.041-0.979-0.05-1.898-0.267-2.729c-0.166-0.626-0.458-1.108-0.926-1.523
				c-0.35-0.311-1.067-0.483-2.011-0.483c-1.176,0-2.186,0.185-2.997,0.545c-0.818,0.361-1.518,0.853-2.088,1.464
				c-0.603,0.647-1.099,1.406-1.471,2.252c-0.396,0.894-0.646,1.802-0.77,2.773l-2.742,19.543c-0.162,1.162-1.155,2.027-2.329,2.027
				h-9.129c-0.683,0-1.331-0.297-1.776-0.812c-0.448-0.515-0.65-1.199-0.554-1.874l5.097-35.755c0.165-1.158,1.158-2.02,2.329-2.02
				h8.672c0.683,0,1.333,0.296,1.782,0.813c0.232,0.271,0.4,0.586,0.489,0.924c0.127-0.087,0.255-0.175,0.384-0.26
				c2.357-1.571,5.329-2.369,8.83-2.369c2.792,0,5.178,0.482,7.094,1.434c1.966,0.981,3.514,2.305,4.603,3.937
				c1.059,1.588,1.725,3.433,1.976,5.487c0.225,1.891,0.198,3.872-0.083,5.894l-3.194,22.578c-0.165,1.161-1.158,2.023-2.329,2.023
				H244.982z"/>
		</g>
		<g>
			<path fill="#0B0B57" d="M246.044,145.839c2.436,0,4.451,0.396,6.048,1.188c1.6,0.797,2.827,1.838,3.69,3.134
				c0.86,1.287,1.393,2.778,1.6,4.467c0.199,1.689,0.174,3.452-0.079,5.291l-3.193,22.567h-9.128l2.583-18.099
				c0.152-0.997,0.252-2.101,0.305-3.315c0.051-1.216-0.062-2.36-0.341-3.429c-0.281-1.068-0.826-1.963-1.637-2.685
				c-0.812-0.717-2.004-1.077-3.576-1.077c-1.521,0-2.84,0.253-3.952,0.746c-1.117,0.494-2.068,1.168-2.854,2.011
				c-0.786,0.846-1.42,1.813-1.903,2.905c-0.483,1.094-0.799,2.233-0.951,3.429l-2.737,19.514h-9.129l5.096-35.756h8.672
				l-0.836,5.735h0.152c1.115-1.783,2.664-3.336,4.643-4.652C240.493,146.496,243.001,145.839,246.044,145.839 M246.044,141.133
				c-3.267,0-6.155,0.63-8.61,1.873c-0.816-0.632-1.824-0.981-2.875-0.981h-8.672c-2.341,0-4.329,1.724-4.66,4.042l-5.097,35.754
				c-0.19,1.352,0.212,2.719,1.105,3.749c0.895,1.028,2.191,1.622,3.556,1.622h9.129c2.346,0,4.334-1.728,4.66-4.055l2.737-19.512
				c0.103-0.805,0.297-1.499,0.598-2.182c0.269-0.611,0.612-1.137,1.043-1.601c0.352-0.377,0.781-0.676,1.312-0.91
				c0.508-0.228,1.216-0.345,2.047-0.345c0.275,0,0.464,0.021,0.579,0.039c0.03,0.053,0.058,0.119,0.08,0.211
				c0.16,0.604,0.223,1.29,0.194,2.039c-0.046,1.036-0.132,1.982-0.257,2.803l-2.588,18.141c-0.194,1.35,0.208,2.719,1.103,3.749
				c0.895,1.028,2.191,1.622,3.555,1.622h9.128c2.344,0,4.331-1.725,4.66-4.047l3.194-22.566c0.307-2.241,0.337-4.422,0.091-6.504
				c-0.298-2.439-1.09-4.627-2.359-6.525c-1.316-1.976-3.168-3.568-5.504-4.733C251.941,141.698,249.201,141.133,246.044,141.133
				L246.044,141.133z"/>
		</g>
	</g>
	<g>
		<g>
			<path fill="#FFFFFF" d="M287.805,184.839c-0.682,0-1.331-0.297-1.778-0.812c-0.446-0.515-0.647-1.199-0.551-1.874l7.53-52.735
				c0.166-1.158,1.158-2.021,2.33-2.021h34.762c0.682,0,1.331,0.296,1.778,0.812c0.446,0.517,0.649,1.199,0.551,1.875l-1.214,8.49
				c-0.168,1.158-1.161,2.021-2.331,2.021h-23.139l-1.306,9.149h21.021c0.683,0,1.331,0.297,1.779,0.812
				c0.446,0.517,0.648,1.199,0.552,1.874l-1.219,8.491c-0.167,1.161-1.16,2.021-2.329,2.021h-21.689l-2.832,19.875
				c-0.165,1.161-1.158,2.023-2.331,2.023H287.805z"/>
		</g>
		<g>
			<path fill="#0B0B57" d="M330.098,129.75l-1.216,8.49h-25.18l-1.976,13.855h23.732l-1.217,8.491h-23.732l-3.119,21.899h-9.584
				l7.531-52.736H330.098 M330.098,125.044h-34.762c-2.342,0-4.327,1.723-4.658,4.039l-7.529,52.735
				c-0.194,1.352,0.208,2.72,1.103,3.751c0.894,1.028,2.189,1.622,3.554,1.622h9.584c2.345,0,4.33-1.724,4.661-4.043l2.542-17.855
				h19.649c2.341,0,4.327-1.721,4.657-4.037l1.219-8.491c0.195-1.351-0.207-2.72-1.101-3.75c-0.893-1.031-2.192-1.624-3.557-1.624
				h-18.306l0.633-4.444h21.097c2.342,0,4.327-1.721,4.658-4.04l1.215-8.49c0.194-1.351-0.208-2.719-1.103-3.75
				C332.758,125.637,331.463,125.044,330.098,125.044L330.098,125.044z"/>
		</g>
	</g>
	<g>
		<g>
			<path fill="#FFFFFF" d="M348.502,185.732c-3.018,0-5.848-0.504-8.417-1.498c-2.63-1.021-4.866-2.494-6.644-4.383
				c-1.788-1.891-3.107-4.195-3.922-6.844c-0.811-2.644-0.99-5.582-0.534-8.735c0.445-3.115,1.442-5.999,2.965-8.573
				c1.51-2.546,3.411-4.75,5.646-6.554c2.231-1.804,4.781-3.212,7.585-4.191c2.801-0.974,5.736-1.468,8.726-1.468
				c3.019,0,5.84,0.503,8.387,1.498c2.591,1.016,4.809,2.488,6.594,4.378c1.79,1.896,3.109,4.198,3.926,6.843
				c0.808,2.633,0.987,5.572,0.536,8.736c-0.449,3.132-1.449,6.018-2.97,8.578c-1.504,2.537-3.386,4.738-5.591,6.542
				c-2.204,1.804-4.748,3.216-7.56,4.2C354.432,185.238,351.496,185.732,348.502,185.732z M352.688,156.234
				c-1.341,0-2.578,0.237-3.678,0.706c-1.136,0.484-2.147,1.137-3.006,1.939c-0.869,0.809-1.593,1.753-2.151,2.81
				c-0.558,1.051-0.922,2.146-1.084,3.257c-0.161,1.107-0.123,2.137,0.115,3.148c0.227,0.958,0.618,1.78,1.192,2.508
				c0.563,0.71,1.288,1.274,2.21,1.715c0.917,0.44,2.046,0.665,3.359,0.665c1.354,0,2.609-0.24,3.727-0.711
				c1.164-0.487,2.182-1.136,3.034-1.933c0.864-0.81,1.569-1.744,2.093-2.773c0.541-1.057,0.899-2.167,1.067-3.302
				c0.158-1.105,0.121-2.133-0.118-3.13c-0.226-0.97-0.613-1.786-1.188-2.509c-0.57-0.722-1.293-1.285-2.214-1.727
				C355.124,156.458,353.994,156.234,352.688,156.234z"/>
		</g>
		<g>
			<path fill="#0B0B57" d="M353.907,145.839c2.738,0,5.248,0.446,7.53,1.338c2.281,0.894,4.192,2.162,5.742,3.801
				c1.546,1.639,2.675,3.612,3.385,5.919c0.71,2.312,0.86,4.881,0.457,7.712c-0.406,2.831-1.291,5.399-2.663,7.709
				c-1.37,2.31-3.054,4.284-5.058,5.921c-2.003,1.641-4.288,2.908-6.848,3.802s-5.212,1.34-7.95,1.34
				c-2.735,0-5.258-0.446-7.568-1.34c-2.307-0.894-4.235-2.161-5.779-3.802c-1.548-1.637-2.676-3.611-3.387-5.921
				c-0.707-2.31-0.864-4.878-0.454-7.709c0.403-2.831,1.292-5.4,2.66-7.712c1.369-2.307,3.067-4.28,5.099-5.919
				c2.027-1.639,4.321-2.907,6.882-3.801C348.518,146.285,351.167,145.839,353.907,145.839 M349.646,175.335
				c1.674,0,3.219-0.297,4.64-0.895c1.42-0.597,2.663-1.388,3.728-2.38c1.064-0.997,1.928-2.139,2.585-3.429
				c0.659-1.291,1.089-2.631,1.296-4.023c0.199-1.391,0.152-2.73-0.157-4.021c-0.301-1.292-0.846-2.434-1.634-3.426
				c-0.786-0.995-1.799-1.79-3.042-2.386c-1.244-0.593-2.701-0.894-4.374-0.894c-1.675,0-3.208,0.301-4.6,0.894
				c-1.396,0.596-2.626,1.391-3.69,2.386c-1.065,0.992-1.938,2.134-2.625,3.426c-0.685,1.291-1.13,2.631-1.332,4.021
				c-0.203,1.393-0.152,2.732,0.152,4.023c0.307,1.29,0.849,2.432,1.635,3.429c0.786,0.992,1.8,1.783,3.042,2.38
				C346.515,175.038,347.973,175.335,349.646,175.335 M353.907,141.133c-3.255,0-6.448,0.538-9.497,1.6
				c-3.062,1.068-5.851,2.61-8.293,4.584c-2.452,1.979-4.536,4.394-6.188,7.179c-1.685,2.847-2.783,6.022-3.272,9.446
				c-0.505,3.493-0.299,6.777,0.613,9.756c0.922,3,2.424,5.615,4.467,7.775c2.013,2.14,4.538,3.807,7.498,4.957
				c2.842,1.097,5.958,1.656,9.268,1.656c3.258,0,6.456-0.541,9.501-1.603c3.074-1.075,5.86-2.624,8.277-4.602
				s4.478-4.387,6.125-7.163c1.678-2.823,2.779-6.002,3.273-9.441c0.503-3.514,0.293-6.795-0.617-9.762
				c-0.92-2.997-2.424-5.609-4.462-7.77c-2.026-2.144-4.531-3.81-7.447-4.951C360.331,141.691,357.22,141.133,353.907,141.133
				L353.907,141.133z M349.646,170.629c-0.958,0-1.744-0.145-2.337-0.43c-0.599-0.287-1.051-0.633-1.39-1.06
				c-0.351-0.446-0.599-0.972-0.75-1.6c-0.165-0.703-0.188-1.445-0.071-2.256c0.124-0.854,0.396-1.669,0.833-2.494
				c0.443-0.834,0.991-1.548,1.675-2.186c0.674-0.629,1.433-1.118,2.328-1.5c0.816-0.347,1.718-0.517,2.755-0.517
				c0.951,0,1.742,0.146,2.346,0.437c0.586,0.278,1.038,0.625,1.376,1.053c0.361,0.455,0.603,0.967,0.745,1.578
				c0.173,0.729,0.198,1.469,0.081,2.282c-0.131,0.875-0.402,1.718-0.83,2.555c-0.409,0.804-0.935,1.501-1.613,2.135
				c-0.647,0.606-1.414,1.092-2.328,1.474C351.62,170.456,350.698,170.629,349.646,170.629L349.646,170.629z"/>
		</g>
	</g>
	<g>
		<g>
			<path fill="#FFFFFF" d="M390.189,185.732c-2.777,0-5.157-0.467-7.07-1.39c-1.976-0.95-3.539-2.282-4.635-3.958
				c-1.058-1.615-1.727-3.458-1.997-5.48c-0.257-1.9-0.246-3.896,0.038-5.931l3.271-22.58c0.165-1.156,1.158-2.016,2.326-2.016
				h9.128c0.682,0,1.331,0.296,1.778,0.812c0.445,0.514,0.648,1.199,0.553,1.874l-2.584,18.103c-0.146,0.954-0.252,1.99-0.326,3.133
				c-0.062,0.949,0.019,1.851,0.235,2.676c0.162,0.633,0.456,1.135,0.904,1.543c0.324,0.295,1.062,0.465,2.027,0.465
				c1.183,0,2.192-0.183,3-0.541c0.814-0.362,1.515-0.857,2.084-1.467c0.607-0.654,1.09-1.392,1.474-2.256
				c0.387-0.88,0.646-1.812,0.768-2.767l2.817-19.557c0.167-1.158,1.16-2.018,2.33-2.018h9.13c0.682,0,1.329,0.296,1.774,0.812
				c0.448,0.514,0.651,1.199,0.555,1.874l-5.097,35.755c-0.165,1.158-1.158,2.021-2.33,2.021h-8.669
				c-0.679,0-1.324-0.293-1.771-0.802c-0.238-0.271-0.406-0.592-0.501-0.932c-0.124,0.088-0.251,0.174-0.379,0.26
				C396.66,184.936,393.688,185.732,390.189,185.732z"/>
		</g>
		<g>
			<path fill="#0B0B57" d="M415.441,146.73l-5.098,35.756h-8.669l0.758-5.739h-0.149c-1.063,1.79-2.587,3.344-4.564,4.659
				c-1.979,1.315-4.489,1.974-7.529,1.974c-2.436,0-4.451-0.388-6.049-1.157c-1.597-0.768-2.827-1.812-3.689-3.127
				c-0.86-1.316-1.406-2.816-1.632-4.504c-0.229-1.691-0.221-3.451,0.037-5.291l3.267-22.57h9.128l-2.583,18.103
				c-0.15,0.993-0.267,2.098-0.345,3.314c-0.078,1.218,0.027,2.359,0.309,3.426c0.273,1.068,0.809,1.964,1.595,2.681
				c0.786,0.723,1.99,1.081,3.612,1.081c1.521,0,2.84-0.248,3.954-0.743c1.114-0.496,2.065-1.17,2.852-2.014
				s1.418-1.812,1.903-2.903c0.479-1.094,0.799-2.235,0.95-3.426l2.813-19.519H415.441 M415.441,142.024h-9.13
				c-2.34,0-4.324,1.719-4.658,4.035l-2.812,19.519c-0.107,0.815-0.3,1.512-0.604,2.205c-0.269,0.603-0.61,1.132-1.04,1.593
				c-0.354,0.38-0.786,0.681-1.319,0.917c-0.492,0.218-1.2,0.336-2.04,0.336c-0.268,0-0.455-0.016-0.582-0.034
				c-0.024-0.049-0.046-0.11-0.067-0.189c-0.16-0.611-0.215-1.259-0.17-1.958c0.07-1.072,0.17-2.051,0.3-2.903l2.589-18.149
				c0.193-1.349-0.208-2.718-1.103-3.747c-0.895-1.03-2.189-1.623-3.555-1.623h-9.128c-2.338,0-4.322,1.717-4.657,4.03l-3.267,22.57
				c-0.317,2.271-0.331,4.483-0.042,6.602c0.315,2.362,1.107,4.534,2.353,6.441c1.343,2.047,3.223,3.657,5.594,4.797
				c2.229,1.074,4.952,1.621,8.086,1.621c3.267,0,6.156-0.631,8.612-1.873c0.815,0.629,1.824,0.979,2.873,0.979h8.669
				c2.342,0,4.33-1.724,4.658-4.043l5.096-35.754c0.194-1.351-0.208-2.718-1.103-3.747
				C418.102,142.617,416.806,142.024,415.441,142.024L415.441,142.024z"/>
		</g>
	</g>
	<g>
		<g>
			<path fill="#FFFFFF" d="M420.683,184.839c-0.684,0-1.331-0.297-1.777-0.812c-0.448-0.515-0.649-1.199-0.554-1.874l5.099-35.755
				c0.167-1.158,1.158-2.02,2.331-2.02h9.132c0.685,0,1.335,0.299,1.78,0.815c0.226,0.26,0.387,0.561,0.48,0.883
				c0.312-0.204,0.634-0.397,0.96-0.582c2.404-1.332,5.054-2.008,7.884-2.008c0.706,0,1.394,0.064,2.046,0.19
				c0.558,0.108,1.14,0.246,1.756,0.412c1.158,0.308,1.897,1.436,1.721,2.621l-1.299,8.638c-0.101,0.669-0.484,1.262-1.053,1.627
				c-0.382,0.248-0.827,0.377-1.273,0.377c-0.214,0-0.431-0.03-0.64-0.09c-0.635-0.177-1.267-0.319-1.898-0.432
				c-0.567-0.099-1.133-0.147-1.719-0.147c-1.724,0-3.139,0.292-4.205,0.869c-1.156,0.629-2.068,1.335-2.704,2.093
				c-0.655,0.779-1.114,1.533-1.365,2.245c-0.411,1.142-0.479,1.583-0.489,1.693l-2.751,19.235
				c-0.168,1.158-1.158,2.021-2.329,2.021H420.683z"/>
		</g>
		<g>
			<path fill="#0B0B57" d="M446.018,145.839c0.552,0,1.087,0.049,1.598,0.147c0.505,0.099,1.037,0.225,1.598,0.375l-1.298,8.637
				c-0.709-0.199-1.417-0.357-2.124-0.484c-0.715-0.124-1.423-0.184-2.133-0.184c-2.13,0-3.903,0.384-5.324,1.151
				c-1.42,0.773-2.548,1.651-3.387,2.649c-0.835,0.989-1.434,1.984-1.783,2.978c-0.358,0.995-0.561,1.739-0.612,2.236l-2.737,19.142
				h-9.132l5.099-35.756h9.132l-0.839,5.66h0.151c1.319-2.084,3.006-3.695,5.059-4.842
				C441.335,146.409,443.582,145.839,446.018,145.839 M446.018,141.133c-2.925,0-5.684,0.633-8.216,1.882
				c-0.82-0.636-1.835-0.99-2.889-0.99h-9.132c-2.343,0-4.329,1.724-4.658,4.042l-5.102,35.754c-0.19,1.35,0.212,2.719,1.105,3.749
				c0.894,1.028,2.19,1.622,3.556,1.622h9.132c2.341,0,4.326-1.721,4.656-4.039l2.74-19.142c0.009-0.062,0.018-0.124,0.022-0.187
				c0,0.003,0,0.003,0,0.003c0.005,0,0.073-0.331,0.358-1.124c0.117-0.338,0.37-0.845,0.953-1.542
				c0.454-0.535,1.139-1.055,2.041-1.549c0.694-0.374,1.763-0.576,3.072-0.576c0.45,0,0.886,0.036,1.328,0.115
				c0.567,0.101,1.115,0.225,1.647,0.376c0.421,0.117,0.853,0.178,1.281,0.178c0.896,0,1.783-0.258,2.552-0.752
				c1.136-0.732,1.9-1.918,2.101-3.257l1.298-8.637c0.356-2.369-1.126-4.63-3.442-5.246c-0.668-0.18-1.303-0.328-1.904-0.446
				C447.712,141.211,446.873,141.133,446.018,141.133L446.018,141.133z"/>
		</g>
	</g>
	<g>
		<g>
			<path fill="#FFFFFF" d="M473.625,184.839c-0.684,0-1.331-0.297-1.779-0.812c-0.445-0.515-0.647-1.199-0.551-1.874l7.532-52.735
				c0.166-1.158,1.157-2.021,2.33-2.021h35.675c0.682,0,1.329,0.296,1.777,0.812c0.446,0.517,0.649,1.199,0.552,1.875l-1.215,8.49
				c-0.167,1.158-1.16,2.021-2.33,2.021h-24.048l-1.162,8.256h22.013c0.684,0,1.331,0.296,1.779,0.812
				c0.445,0.517,0.647,1.199,0.551,1.874l-1.214,8.491c-0.169,1.158-1.161,2.02-2.331,2.02h-22.683l-1.377,9.597h24.741
				c0.684,0,1.331,0.295,1.779,0.811c0.446,0.518,0.647,1.199,0.552,1.874l-1.216,8.491c-0.168,1.158-1.159,2.021-2.329,2.021
				H473.625z"/>
		</g>
		<g>
			<path fill="#0B0B57" d="M516.832,129.75l-1.216,8.49h-26.093l-1.824,12.962h24.72l-1.215,8.491h-24.72l-2.055,14.301h27.456
				l-1.214,8.492h-37.047l7.532-52.736H516.832 M516.832,125.044h-35.675c-2.341,0-4.327,1.723-4.658,4.039l-7.532,52.735
				c-0.192,1.352,0.21,2.72,1.103,3.751c0.895,1.028,2.19,1.622,3.556,1.622h37.047c2.341,0,4.325-1.721,4.656-4.039l1.217-8.492
				c0.192-1.349-0.21-2.718-1.104-3.749c-0.894-1.028-2.19-1.622-3.556-1.622h-22.026l0.703-4.891h20.642
				c2.341,0,4.327-1.72,4.657-4.039l1.216-8.491c0.192-1.351-0.208-2.718-1.103-3.75c-0.895-1.029-2.19-1.622-3.556-1.622h-19.306
				l0.501-3.55h22.002c2.341,0,4.327-1.721,4.658-4.04l1.215-8.49c0.193-1.351-0.209-2.719-1.103-3.75
				C519.492,125.637,518.195,125.044,516.832,125.044L516.832,125.044z"/>
		</g>
	</g>
	<g>
		<g>
			<path fill="#FFFFFF" d="M535.317,185.732c-3.18,0-5.997-0.564-8.375-1.674c-2.417-1.127-4.423-2.699-5.959-4.671
				c-1.525-1.95-2.597-4.272-3.18-6.896c-0.571-2.561-0.63-5.335-0.178-8.244c0.38-2.835,1.26-5.584,2.608-8.12
				c1.332-2.503,3.013-4.713,4.994-6.567c1.983-1.866,4.29-3.362,6.854-4.439c2.591-1.085,5.365-1.634,8.257-1.634
				c1.953,0,3.624,0.197,5.107,0.604c1.474,0.404,2.771,0.939,3.856,1.588c0.409,0.248,0.793,0.498,1.15,0.756l2.999-20.601
				c0.168-1.158,1.158-2.016,2.328-2.016h9.125c0.683,0,1.33,0.297,1.778,0.812c0.445,0.518,0.648,1.199,0.551,1.875l-8.061,56.313
				c-0.168,1.158-1.159,2.021-2.329,2.021h-8.673c-0.683,0-1.33-0.297-1.775-0.812c-0.276-0.317-0.461-0.699-0.536-1.105
				c-0.708,0.436-1.448,0.815-2.218,1.138C541.01,185.168,538.209,185.732,535.317,185.732z M541.324,156.234
				c-1.342,0-2.58,0.237-3.682,0.706c-1.133,0.484-2.143,1.137-3.003,1.939c-0.868,0.809-1.592,1.753-2.155,2.812
				c-0.557,1.048-0.919,2.144-1.077,3.251c-0.164,1.112-0.124,2.14,0.114,3.144c0.226,0.966,0.613,1.785,1.189,2.516
				c0.563,0.71,1.29,1.274,2.214,1.715c0.918,0.44,2.043,0.665,3.354,0.665c1.375,0,2.595-0.232,3.73-0.711
				c1.174-0.492,2.164-1.121,3.03-1.933c0.873-0.814,1.561-1.726,2.103-2.78c0.535-1.05,0.892-2.157,1.06-3.293
				c0.16-1.101,0.122-2.13-0.115-3.141c-0.227-0.961-0.616-1.781-1.188-2.5c-0.569-0.722-1.294-1.285-2.217-1.727
				C543.76,156.458,542.629,156.234,541.324,156.234z"/>
		</g>
		<g>
			<path fill="#0B0B57" d="M564.905,126.172l-8.061,56.314h-8.673l0.758-5.365h-0.151c-1.675,2.186-3.69,3.777-6.048,4.769
				c-2.355,0.993-4.828,1.49-7.413,1.49c-2.845,0-5.303-0.482-7.378-1.453c-2.08-0.97-3.782-2.292-5.099-3.984
				c-1.321-1.69-2.231-3.673-2.739-5.96c-0.508-2.284-0.558-4.741-0.149-7.374c0.351-2.631,1.143-5.088,2.359-7.377
				c1.217-2.283,2.719-4.265,4.525-5.956c1.797-1.69,3.852-3.017,6.158-3.986c2.31-0.967,4.756-1.45,7.344-1.45
				c1.724,0,3.213,0.173,4.485,0.522c1.266,0.347,2.359,0.792,3.27,1.337c0.915,0.55,1.674,1.13,2.284,1.751
				c0.604,0.622,1.112,1.233,1.52,1.826h0.229l3.653-25.104H564.905 M538.279,175.335c1.676,0,3.223-0.297,4.642-0.895
				c1.423-0.597,2.661-1.388,3.726-2.38c1.066-0.997,1.927-2.139,2.589-3.429c0.66-1.291,1.09-2.631,1.294-4.023
				c0.202-1.391,0.152-2.73-0.151-4.021c-0.306-1.292-0.848-2.434-1.637-3.426c-0.785-0.995-1.8-1.79-3.044-2.386
				c-1.242-0.593-2.697-0.894-4.373-0.894c-1.673,0-3.211,0.301-4.602,0.894c-1.396,0.596-2.625,1.391-3.689,2.386
				c-1.065,0.992-1.938,2.134-2.626,3.426c-0.685,1.291-1.13,2.631-1.331,4.021c-0.201,1.393-0.151,2.732,0.157,4.023
				c0.301,1.29,0.846,2.432,1.632,3.429c0.787,0.992,1.801,1.783,3.044,2.38C535.15,175.038,536.607,175.335,538.279,175.335
				 M564.905,121.466h-9.125c-2.337,0-4.319,1.716-4.657,4.028l-2.506,17.208c-0.793-0.338-1.645-0.632-2.551-0.88
				c-1.688-0.464-3.563-0.689-5.728-0.689c-3.204,0-6.287,0.611-9.161,1.815c-2.832,1.19-5.375,2.838-7.568,4.901
				c-2.158,2.024-3.997,4.439-5.452,7.172c-1.482,2.785-2.447,5.8-2.87,8.964c-0.482,3.1-0.414,6.168,0.221,9.019
				c0.659,2.967,1.879,5.604,3.626,7.838c1.758,2.259,4.054,4.062,6.818,5.35c2.686,1.258,5.839,1.895,9.365,1.895
				c3.206,0,6.315-0.625,9.24-1.859c0.167-0.068,0.332-0.143,0.496-0.217c0.854,0.758,1.962,1.182,3.118,1.182h8.673
				c2.341,0,4.325-1.721,4.657-4.039l8.061-56.314c0.195-1.351-0.208-2.718-1.103-3.75
				C567.565,122.059,566.271,121.466,564.905,121.466L564.905,121.466z M538.279,170.629c-0.956,0-1.739-0.145-2.327-0.427
				c-0.604-0.29-1.062-0.638-1.402-1.067c-0.348-0.443-0.592-0.96-0.734-1.571c-0.173-0.733-0.198-1.471-0.081-2.279
				c0.122-0.857,0.394-1.669,0.83-2.491c0.443-0.834,0.992-1.551,1.678-2.188c0.673-0.629,1.431-1.118,2.328-1.5
				c0.802-0.342,1.73-0.517,2.754-0.517c0.952,0,1.742,0.146,2.346,0.437c0.588,0.28,1.042,0.625,1.38,1.053
				c0.357,0.455,0.602,0.972,0.749,1.594c0.167,0.711,0.189,1.453,0.072,2.26c-0.128,0.884-0.399,1.725-0.827,2.562
				c-0.411,0.802-0.938,1.501-1.612,2.13c-0.654,0.613-1.418,1.097-2.328,1.479C540.256,170.456,539.335,170.629,538.279,170.629
				L538.279,170.629z"/>
		</g>
	</g>
	<g>
		<g>
			<path fill="#FFFFFF" d="M567.417,184.839c-0.684,0-1.331-0.297-1.776-0.812c-0.447-0.515-0.65-1.199-0.555-1.872l5.093-35.755
				c0.166-1.16,1.157-2.021,2.33-2.021h9.132c0.682,0,1.33,0.296,1.778,0.812c0.445,0.514,0.647,1.199,0.551,1.874l-5.099,35.755
				c-0.165,1.158-1.158,2.021-2.33,2.021H567.417z M577.986,142.31c-2.334,0-4.301-0.832-5.685-2.406
				c-1.388-1.571-1.962-3.524-1.666-5.641c0.281-2.016,1.279-3.773,2.972-5.224c1.667-1.434,3.656-2.164,5.903-2.164
				c2.311,0,4.228,0.746,5.696,2.22c1.551,1.551,2.174,3.582,1.802,5.873c-0.354,2.128-1.407,3.906-3.13,5.292
				C582.183,141.62,580.202,142.31,577.986,142.31z"/>
		</g>
		<g>
			<path fill="#0B0B57" d="M579.511,129.228c1.673,0,3.014,0.511,4.03,1.528c1.016,1.016,1.395,2.296,1.144,3.835
				c-0.254,1.537-1.016,2.817-2.281,3.836c-1.271,1.02-2.739,1.529-4.417,1.529c-1.675,0-2.979-0.537-3.917-1.605
				c-0.94-1.066-1.306-2.321-1.103-3.76c0.199-1.44,0.923-2.694,2.171-3.764C576.376,129.761,577.837,129.228,579.511,129.228
				 M581.641,146.73l-5.1,35.756h-9.124l5.092-35.756H581.641 M579.511,124.522c-2.788,0-5.361,0.946-7.443,2.738
				c-2.103,1.8-3.405,4.113-3.765,6.685c-0.392,2.809,0.38,5.409,2.237,7.517c0.208,0.238,0.448,0.486,0.716,0.732
				c-1.766,0.487-3.137,1.981-3.406,3.872l-5.093,35.754c-0.191,1.352,0.211,2.719,1.105,3.749c0.893,1.028,2.189,1.622,3.555,1.622
				h9.124c2.342,0,4.33-1.724,4.66-4.043l5.097-35.754c0.194-1.349-0.208-2.718-1.103-3.747c-0.264-0.306-0.565-0.572-0.892-0.798
				c0.356-0.229,0.706-0.48,1.046-0.753c2.159-1.738,3.536-4.065,3.977-6.736c0.497-3.04-0.379-5.853-2.459-7.932
				C584.973,125.528,582.426,124.522,579.511,124.522L579.511,124.522z"/>
		</g>
	</g>
	<g>
		<g>
			<path fill="#FFFFFF" d="M602.101,185.732c-2.736,0-4.91-0.302-6.646-0.922c-1.933-0.68-3.438-1.779-4.461-3.263
				c-0.976-1.425-1.533-3.164-1.663-5.171c-0.11-1.748-0.002-3.768,0.326-6.001l1.972-13.693h-4.818
				c-0.68,0-1.328-0.294-1.776-0.809c-0.445-0.515-0.647-1.197-0.554-1.871l1.065-7.599c0.164-1.162,1.157-2.026,2.331-2.026h5.482
				l1.16-8.325c0.161-1.163,1.155-2.029,2.331-2.029h9.13c0.681,0,1.33,0.294,1.777,0.81c0.445,0.514,0.648,1.196,0.554,1.87
				l-1.075,7.675h7.341c0.681,0,1.328,0.294,1.777,0.809c0.445,0.515,0.647,1.197,0.554,1.871l-1.065,7.599
				c-0.164,1.162-1.157,2.026-2.331,2.026h-8.006l-1.987,13.629c-0.177,1.246-0.113,2.253,0.184,2.835l0,0
				c0.015,0,0.398,0.283,1.743,0.283c0.672,0,1.444-0.076,2.299-0.227c0.834-0.146,1.279-0.355,1.505-0.504
				c0.394-0.261,0.846-0.389,1.297-0.389c0.437,0,0.873,0.121,1.258,0.365c0.782,0.493,1.2,1.4,1.071,2.316l-1.063,7.522
				c-0.114,0.81-0.64,1.499-1.383,1.828c-1.229,0.536-2.678,0.911-4.312,1.11C604.619,185.638,603.268,185.732,602.101,185.732z"/>
		</g>
		<g>
			<path fill="#0B0B57" d="M605.98,136.376l-1.449,10.354h10.046l-1.065,7.6h-10.039l-2.282,15.641
				c-0.256,1.787-0.114,3.207,0.416,4.247c0.535,1.046,1.815,1.565,3.839,1.565c0.811,0,1.715-0.088,2.704-0.262
				c0.987-0.174,1.79-0.459,2.396-0.857l-1.064,7.522c-1.016,0.446-2.231,0.759-3.65,0.933c-1.424,0.176-2.667,0.261-3.73,0.261
				c-2.433,0-4.387-0.261-5.853-0.783c-1.478-0.521-2.579-1.313-3.316-2.385c-0.73-1.065-1.151-2.396-1.251-3.983
				c-0.102-1.588,0-3.426,0.305-5.513l2.36-16.386h-7.535l1.066-7.6h7.53l1.443-10.354H605.98 M605.98,131.671h-9.13
				c-2.35,0-4.337,1.729-4.661,4.056l-0.877,6.298h-3.436c-2.347,0-4.334,1.729-4.66,4.054l-1.066,7.597
				c-0.19,1.352,0.216,2.717,1.11,3.743c0.892,1.027,2.188,1.618,3.55,1.618h2.103l-1.585,11.009
				c-0.35,2.386-0.467,4.57-0.346,6.482c0.157,2.434,0.851,4.57,2.069,6.346c1.316,1.912,3.209,3.31,5.636,4.163
				c1.969,0.702,4.401,1.05,7.413,1.05c1.261,0,2.709-0.101,4.304-0.295c1.861-0.23,3.532-0.664,4.969-1.296
				c1.492-0.654,2.541-2.036,2.768-3.649l1.064-7.523c0.26-1.832-0.579-3.646-2.145-4.634c-0.768-0.486-1.642-0.73-2.515-0.73
				c-0.901,0-1.802,0.257-2.585,0.774c0-0.003,0-0.003,0-0.003c-0.01,0-0.203,0.083-0.631,0.158
				c-0.562,0.101-1.077,0.158-1.532,0.18c0.012-0.13,0.03-0.273,0.052-0.432l1.693-11.6h5.969c2.347,0,4.334-1.729,4.66-4.052
				l1.066-7.602c0.19-1.346-0.216-2.711-1.11-3.74c-0.892-1.027-2.187-1.618-3.551-1.618h-4.634l0.698-4.995
				c0.188-1.349-0.216-2.714-1.11-3.741C608.639,132.262,607.345,131.671,605.98,131.671L605.98,131.671z"/>
		</g>
	</g>
	<g>
		<g>
			<path fill="#FFFFFF" d="M616.853,184.839c-0.682,0-1.331-0.297-1.776-0.812c-0.447-0.515-0.65-1.199-0.554-1.874l5.1-35.755
				c0.165-1.158,1.158-2.02,2.329-2.02h9.126c0.682,0,1.33,0.296,1.776,0.812c0.447,0.514,0.65,1.199,0.553,1.872l-5.094,35.754
				c-0.166,1.161-1.158,2.023-2.33,2.023H616.853z M627.43,142.31c-2.337,0-4.303-0.832-5.687-2.406
				c-1.389-1.583-1.963-3.533-1.665-5.644c0.284-2.015,1.281-3.771,2.965-5.218c1.673-1.438,3.66-2.167,5.904-2.167
				c2.312,0,4.232,0.746,5.7,2.22c1.55,1.554,2.172,3.585,1.8,5.873c-0.354,2.128-1.407,3.906-3.131,5.292
				C631.621,141.62,629.644,142.31,627.43,142.31z"/>
		</g>
		<g>
			<path fill="#0B0B57" d="M628.947,129.228c1.672,0,3.019,0.511,4.034,1.528c1.013,1.016,1.393,2.296,1.142,3.835
				c-0.254,1.537-1.016,2.817-2.281,3.836c-1.271,1.02-2.739,1.529-4.412,1.529s-2.98-0.537-3.921-1.605
				c-0.934-1.066-1.304-2.321-1.1-3.76c0.202-1.44,0.923-2.694,2.167-3.764C625.817,129.761,627.278,129.228,628.947,129.228
				 M631.077,146.73l-5.095,35.756h-9.13l5.099-35.756H631.077 M628.947,124.522c-2.783,0-5.355,0.946-7.439,2.736
				c-2.1,1.804-3.398,4.113-3.758,6.678c-0.398,2.803,0.369,5.404,2.222,7.519c0.214,0.241,0.454,0.491,0.729,0.739
				c-1.768,0.487-3.137,1.981-3.408,3.872l-5.097,35.754c-0.193,1.35,0.209,2.719,1.103,3.749c0.895,1.028,2.189,1.622,3.555,1.622
				h9.13c2.344,0,4.329-1.724,4.659-4.043l5.093-35.754c0.193-1.351-0.209-2.718-1.104-3.747c-0.264-0.306-0.565-0.572-0.891-0.796
				c0.358-0.231,0.708-0.482,1.048-0.755c2.159-1.738,3.536-4.065,3.978-6.736c0.494-3.037-0.377-5.848-2.453-7.927
				C634.414,125.528,631.867,124.522,628.947,124.522L628.947,124.522z"/>
		</g>
	</g>
	<g>
		<g>
			<path fill="#FFFFFF" d="M654.356,185.732c-3.021,0-5.854-0.504-8.417-1.498c-2.625-1.016-4.86-2.491-6.646-4.381
				c-1.79-1.896-3.109-4.199-3.92-6.847c-0.809-2.609-0.988-5.55-0.538-8.729c0.451-3.13,1.448-6.014,2.965-8.578
				c1.507-2.539,3.405-4.74,5.644-6.551c2.222-1.8,4.774-3.21,7.587-4.194c2.803-0.974,5.737-1.468,8.725-1.468
				c3.02,0,5.842,0.503,8.387,1.498c2.598,1.018,4.814,2.491,6.598,4.378c1.783,1.886,3.104,4.188,3.925,6.838
				c0.812,2.645,0.988,5.587,0.531,8.743c-0.441,3.12-1.441,6.009-2.966,8.576c-1.498,2.529-3.379,4.73-5.587,6.539
				c-2.206,1.809-4.749,3.221-7.56,4.203C660.282,185.238,657.347,185.732,654.356,185.732z M658.541,156.234
				c-1.358,0-2.562,0.232-3.684,0.708c-1.129,0.482-2.142,1.135-3.002,1.939c-0.875,0.813-1.597,1.756-2.148,2.802
				c-0.561,1.054-0.923,2.148-1.081,3.26c-0.166,1.104-0.127,2.13,0.112,3.151c0.223,0.96,0.61,1.777,1.188,2.502
				c0.564,0.719,1.286,1.28,2.213,1.721c0.917,0.44,2.047,0.665,3.36,0.665c1.352,0,2.606-0.24,3.728-0.711
				c1.16-0.487,2.181-1.137,3.036-1.933c0.866-0.813,1.554-1.723,2.09-2.778c0.544-1.066,0.901-2.173,1.061-3.288
				c0.165-1.101,0.128-2.128-0.11-3.152c-0.229-0.954-0.619-1.774-1.192-2.498c-0.57-0.722-1.294-1.284-2.211-1.724
				C660.977,156.458,659.846,156.234,658.541,156.234z"/>
		</g>
		<g>
			<path fill="#0B0B57" d="M659.756,145.839c2.739,0,5.248,0.446,7.529,1.338c2.283,0.894,4.197,2.162,5.743,3.801
				c1.55,1.639,2.675,3.612,3.39,5.919c0.708,2.312,0.859,4.881,0.451,7.712c-0.402,2.831-1.29,5.399-2.662,7.709
				c-1.366,2.31-3.053,4.284-5.055,5.921c-2.004,1.641-4.285,2.908-6.846,3.802c-2.563,0.894-5.213,1.34-7.95,1.34
				c-2.739,0-5.263-0.446-7.566-1.34c-2.311-0.894-4.236-2.161-5.784-3.802c-1.546-1.637-2.675-3.611-3.382-5.921
				c-0.715-2.31-0.86-4.878-0.458-7.709c0.406-2.831,1.291-5.4,2.659-7.712c1.371-2.307,3.074-4.28,5.099-5.919
				s4.327-2.907,6.885-3.801C654.37,146.285,657.022,145.839,659.756,145.839 M655.5,175.335c1.668,0,3.218-0.297,4.64-0.895
				c1.415-0.597,2.662-1.388,3.728-2.38c1.064-0.997,1.923-2.139,2.582-3.429c0.658-1.291,1.095-2.631,1.294-4.023
				c0.207-1.391,0.151-2.73-0.149-4.021c-0.309-1.292-0.852-2.434-1.638-3.426c-0.788-0.995-1.798-1.79-3.04-2.386
				c-1.246-0.593-2.702-0.894-4.375-0.894c-1.676,0-3.206,0.301-4.603,0.894c-1.393,0.596-2.622,1.391-3.688,2.386
				c-1.066,0.992-1.944,2.134-2.624,3.426c-0.687,1.291-1.132,2.631-1.33,4.021c-0.207,1.393-0.152,2.732,0.151,4.023
				c0.301,1.29,0.843,2.432,1.636,3.429c0.782,0.992,1.795,1.783,3.04,2.38C652.366,175.038,653.825,175.335,655.5,175.335
				 M659.756,141.133c-3.251,0-6.445,0.538-9.494,1.6c-3.074,1.073-5.864,2.617-8.298,4.587c-2.454,1.985-4.535,4.397-6.184,7.171
				c-1.679,2.841-2.78,6.017-3.272,9.449c-0.502,3.534-0.294,6.817,0.621,9.768c0.911,2.983,2.412,5.6,4.455,7.764
				c2.027,2.146,4.552,3.814,7.508,4.959c2.832,1.097,5.95,1.656,9.265,1.656c3.254,0,6.449-0.541,9.499-1.603
				c3.074-1.072,5.857-2.62,8.277-4.602c2.424-1.983,4.482-4.397,6.123-7.167c1.684-2.83,2.783-6.01,3.272-9.445
				c0.504-3.495,0.3-6.778-0.61-9.752c-0.934-3.01-2.434-5.62-4.47-7.773c-2.02-2.14-4.525-3.806-7.445-4.949
				C666.181,141.691,663.07,141.133,659.756,141.133L659.756,141.133z M655.5,170.629c-0.957,0-1.746-0.145-2.338-0.43
				c-0.604-0.287-1.051-0.631-1.381-1.051c-0.372-0.469-0.607-0.965-0.752-1.585c-0.17-0.733-0.198-1.471-0.078-2.264
				c0.125-0.875,0.395-1.687,0.83-2.502c0.442-0.839,0.987-1.551,1.677-2.193c0.673-0.629,1.435-1.118,2.329-1.502
				c0.814-0.345,1.718-0.515,2.754-0.515c0.951,0,1.744,0.146,2.354,0.437c0.576,0.275,1.028,0.625,1.373,1.059
				c0.354,0.449,0.6,0.971,0.749,1.596c0.163,0.705,0.191,1.445,0.071,2.238c-0.128,0.892-0.4,1.73-0.831,2.58
				c-0.411,0.802-0.938,1.5-1.609,2.13c-0.647,0.604-1.415,1.09-2.331,1.475C657.475,170.456,656.553,170.629,655.5,170.629
				L655.5,170.629z"/>
		</g>
	</g>
	<g>
		<g>
			<path fill="#FFFFFF" d="M707.068,184.839c-0.683,0-1.332-0.297-1.78-0.812c-0.445-0.515-0.646-1.199-0.552-1.874l2.591-18.098
				c0.143-0.931,0.237-1.961,0.282-3.082c0.042-0.977-0.05-1.896-0.27-2.731c-0.163-0.626-0.456-1.108-0.923-1.523
				c-0.348-0.309-1.065-0.483-2.007-0.483c-1.177,0-2.189,0.185-3.01,0.547c-0.815,0.361-1.515,0.853-2.073,1.457
				c-0.617,0.657-1.098,1.391-1.478,2.252c-0.393,0.892-0.644,1.8-0.768,2.778l-2.743,19.543c-0.162,1.162-1.155,2.027-2.329,2.027
				h-9.128c-0.683,0-1.331-0.297-1.776-0.812c-0.447-0.515-0.649-1.199-0.553-1.872l5.092-35.755
				c0.165-1.16,1.158-2.021,2.329-2.021h8.679c0.681,0,1.332,0.296,1.78,0.813c0.232,0.271,0.398,0.586,0.488,0.921
				c0.126-0.087,0.253-0.174,0.382-0.259c2.361-1.569,5.331-2.367,8.832-2.367c2.788,0,5.175,0.482,7.093,1.434
				c1.976,0.986,3.521,2.312,4.603,3.941c1.056,1.571,1.72,3.419,1.974,5.482c0.227,1.891,0.197,3.872-0.082,5.894l-3.194,22.578
				c-0.166,1.161-1.158,2.023-2.329,2.023H707.068z"/>
		</g>
		<g>
			<path fill="#0B0B57" d="M708.135,145.839c2.432,0,4.447,0.396,6.048,1.188c1.596,0.797,2.828,1.838,3.688,3.134
				c0.862,1.287,1.394,2.778,1.599,4.467c0.2,1.689,0.174,3.452-0.079,5.291l-3.191,22.567h-9.13l2.588-18.099
				c0.153-0.997,0.253-2.101,0.304-3.315c0.053-1.216-0.063-2.36-0.343-3.429c-0.28-1.068-0.823-1.963-1.636-2.685
				c-0.812-0.717-2.005-1.077-3.571-1.077c-1.525,0-2.842,0.253-3.96,0.746c-1.113,0.494-2.067,1.168-2.849,2.011
				c-0.794,0.846-1.424,1.813-1.904,2.905c-0.485,1.094-0.799,2.233-0.951,3.429l-2.736,19.514h-9.128l5.092-35.756h8.679
				l-0.839,5.735h0.15c1.115-1.783,2.661-3.336,4.643-4.652C702.584,146.496,705.09,145.839,708.135,145.839 M708.135,141.133
				c-3.266,0-6.154,0.63-8.607,1.873c-0.817-0.632-1.825-0.981-2.875-0.981h-8.679c-2.344,0-4.328,1.724-4.659,4.042l-5.093,35.754
				c-0.191,1.352,0.211,2.719,1.105,3.749c0.895,1.028,2.189,1.622,3.555,1.622h9.128c2.345,0,4.334-1.728,4.661-4.055l2.735-19.512
				c0.103-0.809,0.295-1.501,0.593-2.174c0.277-0.625,0.615-1.145,1.034-1.593c0.364-0.395,0.794-0.691,1.327-0.929
				c0.509-0.225,1.203-0.342,2.05-0.342c0.273,0,0.461,0.021,0.574,0.041c0.029,0.049,0.053,0.113,0.077,0.2
				c0.163,0.618,0.227,1.305,0.197,2.048c-0.044,1.036-0.129,1.979-0.256,2.803l-2.593,18.139c-0.192,1.352,0.209,2.72,1.103,3.751
				c0.895,1.028,2.189,1.622,3.556,1.622h9.13c2.342,0,4.331-1.725,4.658-4.047l3.194-22.566c0.309-2.241,0.338-4.422,0.092-6.504
				c-0.301-2.451-1.097-4.644-2.365-6.537c-1.298-1.955-3.15-3.55-5.492-4.72C714.024,141.698,711.289,141.133,708.135,141.133
				L708.135,141.133z"/>
		</g>
	</g>
</g>
</svg>
