<?xml version="1.0" encoding="utf-8"?>
<!-- Generator: Adobe Illustrator 16.0.0, SVG Export Plug-In . SVG Version: 6.00 Build 0)  -->
<!DOCTYPE svg PUBLIC "-//W3C//DTD SVG 1.1//EN" "http://www.w3.org/Graphics/SVG/1.1/DTD/svg11.dtd">
<svg version="1.1" id="Layer_1" xmlns="http://www.w3.org/2000/svg" xmlns:xlink="http://www.w3.org/1999/xlink" x="0px" y="0px"
	 width="150px" height="100px" viewBox="0 0 150 100" enable-background="new 0 0 150 100" xml:space="preserve">
<path d="M12.65,93.5c-2.393-0.71-4.729-1.615-4.729-4.147c0-2.502,2.732-7.994,4.71-11.644c-0.364-0.009-0.679-0.014-0.931-0.014
	H9.486l0.822-2.057c0.519-1.298,2.014-2.105,5.103-2.728c4.377-7.097,9.843-13.059,14.532-15.87l0.077-1.342l1.418-0.053
	c1.467,0,7.055,1.824,7.594,3.765l0.167,0.603l-0.31,0.543c-1.966,3.44-3.793,10.469-4.889,18.801
	c-0.334,2.525-0.504,5.425-0.504,8.619c0,1.246,0,2.535,0.083,3.908l0.069,1.149l-1.092,0.364c-0.359,0.12-0.584,0.12-0.99,0.12
	c-1.521,0-5.577-1.095-6.289-2.819l-0.096-0.233l-0.015-0.251c-0.045-0.775-0.045-1.527-0.045-2.324
	c0-3.224,0.216-6.479,0.645-9.702c-1.768-0.098-4.278-0.203-6.562-0.288c-1.304,2.475-2.269,4.656-2.943,6.646
	c-0.915,2.618-1.528,5.392-1.688,7.622L14.44,94.03L12.65,93.5z M28.276,65.636c-1.712,1.531-3.667,3.814-5.529,6.483
	c1.277-0.07,2.628-0.122,4.047-0.153c0.377-1.904,0.849-3.921,1.43-6.128C28.241,65.775,28.258,65.707,28.276,65.636z"/>
<path d="M39.785,91.751c-1.446-0.121-4.119-1.756-4.77-3.201l-0.188-0.414l0.075-0.449c0.596-3.571,3.2-11.873,5.257-16.761
	c0.813-1.959,1.426-3,2.256-3.831l0.543-0.544l0.758,0.123c1.691,0.273,4.162,1.337,5.208,2.577l0.522,0.618
	c0.234-0.324,0.466-0.656,0.694-0.999l0.129-0.193l0.183-0.146c0.627-0.502,1.278-0.544,1.84-0.544c1.082,0,2.574,0.382,3.221,1.459
	l0.372,0.62l-0.253,0.678c-0.457,1.219-0.679,2.383-0.679,3.559c0,1.232,0.188,1.805,0.345,2.068l0.267,0.443l-0.064,0.514
	c-0.146,1.164-1.981,3.029-2.19,3.238l-0.764,0.765l-0.967-0.483c-1.33-0.664-2.486-1.74-3.299-3.03
	c-3.993,3.07-5.462,5.941-6.904,12.749l-0.274,1.294L39.785,91.751z"/>
<path d="M61.703,91.535c-4.521-0.411-8.201-5.036-8.201-10.31c0-7.357,6.496-14.313,13.368-14.313c3.789,0,6.144,2.223,6.144,5.8
	c0,3.164-2.039,6.703-4.768,6.703c-1.17,0-2.414-0.711-3.171-1.811l-0.742-1.078l0.968-0.882c1.623-1.478,2.193-2.541,2.345-3.25
	c-0.693,0.303-1.827,1.042-2.974,2.312c-2.22,2.493-3.396,5.554-3.396,8.842c0,1.375,0.201,2.181,0.432,2.562
	c1.438-0.396,3.899-1.615,6.161-3.293l0.928-0.688l0.903,0.723c0.575,0.46,0.993,1.314,0.993,2.03v0.526l-0.329,0.411
	c-2.103,2.628-5.964,5.291-8.262,5.699l-0.198,0.035L61.703,91.535z"/>
<path d="M74.094,92.358c-1.914,0-2.797-3.508-2.831-4.225c-0.002-4.293,1.742-11.511,4.442-18.459
	c2.375-6.199,6.367-12.93,10.418-17.558l0.448-0.513h0.681c2.018,0,5.12,1.024,6.521,2.55l0.964,1.048l-0.997,1.017
	c-4.188,4.272-7.696,8.887-9.625,12.661c-0.765,1.499-1.403,2.824-1.949,4.059c3.392-3.466,6.135-5.166,8.311-5.166
	c1.989,0,4.291,1.287,5.864,3.279l0.788,0.999l-0.856,0.94c-3.084,3.385-6.501,9.428-7.415,12.133
	c0.132-0.038,0.284-0.066,0.458-0.066h0.851l0.437,0.729c0.291,0.486,0.514,0.902,0.514,1.459c0,2.023-4.99,3.478-5.671,3.478
	c-1.964,0-3.821-2.046-3.821-4.209c0-1.495,1.091-4.646,2.549-8.059c-3.021,3.209-6.006,7.762-7.882,12.172
	C76.068,91.127,75.263,92.358,74.094,92.358z"/>
<path d="M98.217,91.068c-1.08,0-4.639-1.607-4.639-5.155c0-1.027,0.238-2.685,1.496-8.487c0.241-1.048,1.59-6.26,4.88-7.904
	l0.479-0.239l0.523,0.118c1.061,0.241,3.452,1.275,4.915,3.469l0.646,0.968l-0.777,0.866c-1.953,2.177-2.778,4.429-3.822,7.279
	c-0.238,0.651-0.485,1.324-0.754,2.021c-0.312,0.823-1.149,3.039-1.189,4.198C99.976,89.241,99.976,91.068,98.217,91.068z
	 M104.305,69.887c-1.235-0.231-2.514-1.28-2.514-2.636c0-0.14,0.012-0.292,0.036-0.463c-0.289-0.57-0.423-1.219-0.423-1.729
	c0-1.311,0.699-4.316,1.438-6.185l0.375-0.948h1.02c1.832,0,5.328,1.994,6.45,3.678l0.706,1.06l-0.931,0.868
	c-1.238,1.157-4.178,4.788-4.517,5.503l-0.496,1.043L104.305,69.887z"/>
<path d="M108.014,92.265c-2.088-0.776-3.385-2.32-3.385-4.029c0-0.692,0.207-1.321,0.446-2.05c0.438-1.336,1.102-3.355,1.102-7.539
	c0-1.07-0.042-2.225-0.078-3.205c-0.027-0.758-0.051-1.418-0.051-1.869c0-3.449,1.546-5.198,4.596-5.198
	c0.556,0,2.447,0.071,3.46,0.993l0.664,0.604l-0.218,0.87c-0.433,1.727-0.516,2.34-0.601,6.161
	c-0.043,1.935-0.098,3.652-0.262,5.282c1.09-1.398,2.209-3.003,3.109-4.498c0.852-1.463,2.987-5.401,4.179-9.928l0.294-1.118h1.156
	c0.97,0,3.052,0.668,3.786,1.491l0.405,0.455l-0.026,0.609c-0.175,3.961-2.802,8.871-7.81,14.595
	c-2.633,3.086-5.257,5.677-9.463,8.248l-0.622,0.38L108.014,92.265z"/>
<path d="M130.132,91.962c-4.555-0.495-7.615-3.738-7.615-8.07c0-8.031,7.132-16.851,13.626-16.851h0.1l0.099,0.013
	c1.697,0.227,3.27,1.238,4.674,3.006l0.357,0.45l-0.035,0.573c-0.459,7.532-4.401,10.739-11.52,13.705
	c-0.001,0.03-0.001,0.062-0.001,0.093c0,1.368,0.333,1.882,0.415,1.937c0.002,0,0.004,0,0.006,0c2.582,0,5.45-3.073,6.829-4.551
	l0.981-1.051l1.092,0.936c0.365,0.312,0.637,0.585,0.907,0.909l0.765,0.917l-0.723,0.951c-2.764,3.639-6.393,6.323-9.47,7.006
	l-0.241,0.054L130.132,91.962z M134.491,75.207c-0.887,0.738-1.768,1.76-2.531,3.008C133.053,77.27,133.909,76.252,134.491,75.207z"
	/>
<g>
	<path fill="#BCA695" d="M19.827,73.83c2.408-0.215,5.16-0.344,8.213-0.387c0.431-2.365,0.989-4.773,1.635-7.224
		c0.215-0.817,0.559-2.322,0.859-3.87C27.653,63.425,23.396,68.068,19.827,73.83z"/>
	<path fill="#BCA695" d="M128.703,82.129c4.558-2.278,7.955-5.805,8.17-9.718C133.734,72.841,130.079,76.797,128.703,82.129z"/>
	<path fill="#BCA695" d="M142.904,70.026l-0.715-0.9c-1.654-2.082-3.555-3.279-5.65-3.559l-0.197-0.026h-0.199
		c-2.766,0-5.59,1.336-8.038,3.477l0.038-0.874l-0.812-0.91c-1.084-1.217-3.63-1.993-4.905-1.993h-2.312l-0.589,2.236
		c-1.145,4.349-3.203,8.146-4.035,9.575c-0.015,0.023-0.028,0.047-0.043,0.07c0.001-0.029,0.002-0.059,0.002-0.088
		c0.085-3.824,0.17-4.285,0.557-5.829l0.436-1.741l-1.327-1.207c-1.323-1.203-3.368-1.383-4.47-1.383
		c-0.46,0-0.873,0.043-1.267,0.104c0.797-0.959,1.624-1.896,2.11-2.351l1.86-1.737l-1.411-2.118
		c-1.276-1.916-5.157-4.347-7.699-4.347h-2.039l-0.751,1.896c-0.808,2.041-1.543,5.252-1.543,6.736c0,0.552,0.113,1.27,0.393,1.975
		c-0.004,0.074-0.006,0.146-0.006,0.218c0,0.157,0.011,0.312,0.031,0.467l-0.079-0.018l-0.96,0.479
		c-0.791,0.396-1.478,0.948-2.08,1.582c-1.855-2.155-4.39-3.489-6.727-3.489c-1.174,0-2.418,0.349-3.767,1.072
		c1.958-3.161,4.811-6.72,8.102-10.075l1.993-2.034l-1.927-2.097c-1.723-1.874-5.3-3.034-7.626-3.034h-1.361l-0.896,1.024
		c-4.159,4.753-8.256,11.656-10.692,18.016c-0.093,0.24-0.183,0.48-0.273,0.722c-1.021-2.773-3.606-4.454-7.158-4.454
		c-3.489,0-6.883,1.612-9.551,4.128l-0.52-0.865c-0.968-1.613-2.962-2.188-4.507-2.188c-0.834,0-1.816,0.104-2.777,0.872
		l-0.217,0.174c-1.468-1.2-3.698-2.074-5.342-2.34l-1.517-0.246l-1.086,1.087c-1.124,1.125-1.821,2.488-2.583,4.324
		c-1.064,2.53-2.275,5.974-3.289,9.228c0.001-0.01,0.002-0.021,0.003-0.03c1.262-9.599,3.258-15.723,4.705-18.255l0.619-1.086
		l-0.334-1.204c-0.842-3.037-7.447-4.864-9.039-4.864h-3v2.07c-4.588,3.007-9.75,8.673-13.961,15.357
		c-2.508,0.562-4.747,1.469-5.562,3.508l-1.643,4.113h2.873c-2.003,3.893-3.723,7.894-3.723,10.157c0,3.864,3.919,5.026,5.802,5.585
		L15.804,96l0.266-3.725c0.15-2.104,0.734-4.736,1.603-7.222c0.58-1.71,1.376-3.556,2.426-5.618c1.478,0.057,2.834,0.115,3.984,0.17
		c-0.306,2.759-0.461,5.533-0.461,8.285c0,0.819,0,1.593,0.048,2.412l0.029,0.503l0.192,0.466c1.16,2.81,6.378,3.747,7.676,3.747
		c0.449,0,0.873,0,1.465-0.197l2.185-0.729l-0.14-2.299c-0.018-0.29-0.02-0.565-0.031-0.85c1.358,1.235,3.267,2.188,4.615,2.301
		l2.636,0.22l0.548-2.587c1.211-5.71,2.371-8.398,5.188-10.911c0.82,0.918,1.801,1.685,2.878,2.223l1.196,0.598
		c0.642,5.426,4.561,9.796,9.462,10.241l0.4,0.037l0.396-0.07c2.312-0.411,5.265-2.351,7.447-4.399
		c0.222,1.422,1.31,5.263,4.283,5.263c1.893,0,3.126-1.63,3.557-2.593l0.011-0.025l0.011-0.025c0.686-1.611,1.522-3.241,2.453-4.81
		c0,0.037-0.001,0.073-0.001,0.109c0,3.041,2.486,5.709,5.321,5.709c0.335,0,1.353,0,3.709-1.116
		c1.107-0.525,2.843-1.359,3.324-2.977c1.109,2.933,4.242,4.438,5.738,4.438c1.34,0,2.911-0.906,3.196-2.897
		c0.061-0.422,0.062-0.861,0.062-1.457c0.035-0.619,0.403-1.86,1.095-3.69c0.266-0.685,0.515-1.365,0.756-2.024
		c0.451-1.232,0.863-2.343,1.341-3.376c-0.049,3.607-0.626,5.402-1.018,6.594c-0.268,0.816-0.521,1.587-0.521,2.519
		c0,2.352,1.671,4.435,4.361,5.435l1.366,0.509l1.244-0.761c4.375-2.674,7.096-5.358,9.834-8.567c0.382-0.437,0.745-0.866,1.1-1.292
		c-0.002,0.111-0.018,0.223-0.018,0.333c0,5.138,3.598,8.979,8.953,9.562l0.492,0.054l0.482-0.107
		c3.46-0.769,7.325-3.596,10.339-7.563l1.445-1.901l-1.53-1.835c-0.322-0.387-0.656-0.722-1.083-1.087l-0.705-0.604
		c2.006-2.296,3.179-5.213,3.424-9.233L142.904,70.026z M104.237,59.426c1.333,0,4.343,1.72,5.202,3.01
		c-1.289,1.204-4.429,5.03-4.858,5.977c-0.688-0.129-1.29-0.688-1.29-1.161c0-0.172,0.043-0.43,0.129-0.773
		c-0.301-0.301-0.516-0.946-0.516-1.419C102.904,64.069,103.506,61.274,104.237,59.426z M32.513,79.162
		c-0.302,2.279-0.517,5.203-0.517,8.814c0,1.247,0,2.58,0.086,3.999c-0.129,0.043-0.172,0.043-0.516,0.043
		c-1.591,0-4.601-1.16-4.902-1.892c-0.043-0.731-0.043-1.462-0.043-2.236c0-3.525,0.259-7.224,0.86-11.094
		c-1.591-0.129-5.547-0.301-9.159-0.43c-1.376,2.537-2.623,5.16-3.482,7.697c-0.946,2.709-1.591,5.59-1.763,7.997
		c-2.752-0.816-3.655-1.505-3.655-2.709c0-1.849,2.149-6.794,5.719-13.071c-1.462-0.043-2.709-0.086-3.439-0.086
		c0.344-0.86,2.021-1.462,4.644-1.936c4.515-7.481,10.319-13.76,15.007-16.296c0.043-0.388,0.086-0.688,0.086-0.817
		c1.591,0,5.934,1.892,6.148,2.666C35.694,63.123,33.717,70.003,32.513,79.162z M48.853,75.55
		c-5.418,3.741-7.267,6.794-8.943,14.706c-1.032-0.086-3.139-1.462-3.526-2.322c0.56-3.354,3.097-11.523,5.16-16.426
		c0.731-1.763,1.247-2.665,1.935-3.354c1.592,0.258,3.612,1.247,4.301,2.063c-1.549,1.807-2.623,3.999-3.827,7.654
		c3.053-2.752,5.375-5.074,7.438-8.17c0.215-0.172,0.431-0.215,0.903-0.215c0.816,0,1.677,0.301,1.935,0.73
		c-0.516,1.377-0.773,2.709-0.773,4.085c0,0.197,0.012,0.375,0.021,0.557c-0.675,1.452-1.143,2.993-1.346,4.577
		C50.636,78.646,49.397,77.183,48.853,75.55z M61.839,90.041c-3.784-0.344-6.837-4.3-6.837-8.815
		c0-6.492,5.848-12.813,11.868-12.813c2.967,0,4.644,1.548,4.644,4.3c0,2.623-1.634,5.203-3.268,5.203
		c-0.688,0-1.462-0.473-1.936-1.161c1.936-1.763,2.882-3.354,2.882-4.772c0-0.817-0.345-1.247-0.989-1.247
		c-1.118,0-3.053,1.204-4.645,2.967c-2.45,2.752-3.783,6.192-3.783,9.847c0,2.322,0.516,3.698,1.548,4.171
		c1.677-0.215,4.772-1.72,7.438-3.697c0.215,0.172,0.431,0.602,0.431,0.859C67.3,87.246,63.774,89.697,61.839,90.041z
		 M67.929,80.904l-0.954,0.708c-1.484,1.101-3.003,1.953-4.186,2.491c-0.009-0.165-0.014-0.35-0.014-0.556
		c0-1.764,0.383-3.455,1.124-5.008C64.88,79.913,66.394,80.796,67.929,80.904z M70.895,80.064c-0.122,0.526-0.235,1.043-0.34,1.55
		l-1.098-0.879C69.945,80.593,70.43,80.365,70.895,80.064z M85.445,89.224c-1.161,0-2.321-1.376-2.321-2.709
		c0-1.677,2.063-7.095,4.858-12.728c0-0.043-0.129-0.172-0.172-0.172c-0.172,0-1.075,0.559-1.677,1.032
		c-4.085,3.053-8.644,9.33-11.223,15.394c-0.173,0.387-0.603,0.817-0.817,0.817c-0.387,0-1.29-1.893-1.333-2.796
		c0-4.041,1.72-11.094,4.343-17.845c2.322-6.062,6.235-12.642,10.148-17.113c1.806,0,4.429,0.989,5.417,2.064
		c-4.3,4.386-7.868,9.072-9.89,13.028c-2.192,4.3-3.525,7.481-4.558,11.609c5.461-6.966,9.632-10.534,12.255-10.534
		c1.505,0,3.396,1.075,4.687,2.709c-3.525,3.87-8.041,11.867-8.041,14.189c0,0.559,0.13,0.731,0.688,0.731
		c0.86,0,1.376-0.345,1.505-0.345c0.258,0.431,0.301,0.56,0.301,0.688C89.616,87.676,86.349,89.224,85.445,89.224z M91.092,83.685
		c0.483-1.01,1.123-2.205,1.854-3.445c-0.59,2.877-0.797,4.238-0.851,5.142c-0.067-0.124-0.136-0.247-0.206-0.364L91.092,83.685z
		 M99.765,83.462c-0.602,1.591-1.246,3.44-1.289,4.688c0,1.031,0,1.419-0.259,1.419c-0.43,0-3.139-1.118-3.139-3.655
		c0-0.989,0.344-3.01,1.462-8.17c0.258-1.118,1.505-5.59,4.085-6.88c0.927,0.21,2.796,1.127,3.923,2.738
		c0,0.06,0.002,0.126,0.002,0.189C101.991,76.688,101.213,79.717,99.765,83.462z M117.652,82.903
		c-2.752,3.225-5.246,5.59-9.116,7.955c-1.505-0.56-2.407-1.592-2.407-2.623c0-1.419,1.548-3.097,1.548-9.589
		c0-1.893-0.129-4.042-0.129-5.074c0-2.107,0.473-3.698,3.096-3.698c0.817,0,1.978,0.172,2.451,0.603
		c-0.474,1.892-0.56,2.623-0.646,6.492c-0.086,3.913-0.215,6.751-1.161,9.805c0,0.172,0.044,0.172,0.13,0.172
		c1.677-1.29,4.644-5.031,6.664-8.385c1.376-2.365,3.269-6.235,4.344-10.32c0.73,0,2.321,0.603,2.666,0.989
		C124.876,74.131,120.361,79.807,117.652,82.903z M128.359,83.763c0,0.345-0.043,0.731-0.043,1.118c0,1.462,0.344,3.44,1.978,3.44
		c3.097,0,6.063-3.097,7.869-5.031c0.301,0.258,0.516,0.473,0.731,0.731c-2.58,3.396-5.892,5.848-8.601,6.449
		c-3.956-0.43-6.277-3.139-6.277-6.579c0-7.052,6.449-15.351,12.126-15.351c1.289,0.172,2.536,0.989,3.697,2.451
		C139.41,78.044,135.669,80.839,128.359,83.763z"/>
</g>
</svg>
