<?xml version="1.0" encoding="utf-8"?>
<!-- Generator: Adobe Illustrator 16.0.0, SVG Export Plug-In . SVG Version: 6.00 Build 0)  -->
<!DOCTYPE svg PUBLIC "-//W3C//DTD SVG 1.1//EN" "http://www.w3.org/Graphics/SVG/1.1/DTD/svg11.dtd">
<svg version="1.1" id="Layer_1" xmlns="http://www.w3.org/2000/svg" xmlns:xlink="http://www.w3.org/1999/xlink" x="0px" y="0px"
	 width="110px" height="100px" viewBox="0 0 110 100" enable-background="new 0 0 110 100" xml:space="preserve">
<g>
	<g>
		<path d="M13.325,93.033c-3.062-0.927-5.404-1.868-5.404-4.791c0-5.498,7.761-24.955,12.001-31.438l-0.506-3.035h1.771
			c1.552,0,7.765,1.886,8.402,3.8l0.123,0.369L29.64,58.32c-0.231,1.236-0.466,4.243-0.466,7.598c0,4.247,0.139,8.094,0.668,11.873
			c1.122-4.807,2.37-9.413,3.595-13.232c2.993-9.33,4.576-10.271,5.824-10.42l0.218-0.025l0.216,0.038
			c1.774,0.306,4.096,2.054,4.969,3.741l0.753,1.455L43.9,59.969c-4.42,1.811-10.277,22.914-10.681,30.883l1.49,1.457l-2.599,0.654
			c-0.359,0.09-0.713,0.09-0.948,0.09c-3.55,0-6.192-1.047-7.068-2.799l-0.075-0.148l-0.04-0.162
			c-2.064-8.371-2.972-15.541-3.429-22.994c-2.687,6.889-5.425,17.261-5.425,22.635c0,1.193,0.042,1.463,0.089,1.651l0.637,2.563
			L13.325,93.033z"/>
		<path fill="#FFB8CA" d="M21.187,55.27c1.655,0,6.711,1.969,6.979,2.773c-0.269,1.432-0.492,4.608-0.492,7.874
			c0,6.486,0.313,12.616,2.147,19.06c2.863-14.361,7.382-29.08,9.619-29.35c1.297,0.225,3.221,1.655,3.892,2.952
			C37.65,60.907,31.835,84.217,31.7,91.374c0,0.045,0,0.091,0.045,0.134c-0.179,0.045-0.402,0.045-0.582,0.045
			c-2.729,0-5.1-0.715-5.727-1.969c-2.46-9.977-3.311-18.387-3.668-28.722c-3.4,5.413-8.143,21.608-8.143,28.722
			c0,1.254,0.045,1.656,0.134,2.014c-3.399-1.028-4.339-1.744-4.339-3.354c0-5.413,8.142-25.501,12.079-31.094L21.187,55.27
			 M21.187,52.27h-3.542l0.583,3.494l0.12,0.719C16.036,60.19,13.2,66.585,11.195,71.66c-1.783,4.512-4.773,12.666-4.773,16.582
			c0,4.268,3.893,5.446,6.47,6.227L17.947,96l-1.275-5.126c-0.01-0.043-0.045-0.262-0.045-1.29c0-3.599,1.336-9.713,3.034-15.357
			c0.562,5.107,1.442,10.308,2.864,16.076l0.08,0.324l0.15,0.299c1.637,3.273,6.426,3.627,8.41,3.627c0.29,0,0.774,0,1.313-0.136
			l5.196-1.306l-2.908-2.846c0.292-3.42,1.521-9.717,3.518-16.152c2.965-9.559,5.471-12.45,6.187-12.757l3.034-1.243l-1.507-2.912
			c-1.092-2.111-3.805-4.145-6.046-4.529l-0.432-0.074l-0.435,0.052c-2.293,0.274-4.1,2.182-7.074,11.452
			c-0.438,1.365-0.878,2.828-1.315,4.367c-0.014-0.836-0.02-1.685-0.02-2.551c0-3.229,0.227-6.182,0.441-7.32l0.143-0.765
			l-0.246-0.737c-0.396-1.189-1.324-2.195-4.716-3.533C25.309,53.174,22.835,52.27,21.187,52.27L21.187,52.27z"/>
	</g>
	<g>
		<path d="M44.875,91.434c-4.707-0.512-7.869-3.861-7.869-8.336c0-8.328,7.388-17.473,14.116-17.473h0.1l0.099,0.014
			c1.751,0.232,3.374,1.276,4.824,3.104l0.357,0.45l-0.035,0.573c-0.477,7.818-4.579,11.142-11.985,14.222
			c-0.001,0.047-0.002,0.093-0.002,0.139c0,1.243,0.289,2.078,0.558,2.078c2.651,0,5.65-3.214,7.091-4.758l0.982-1.054l1.092,0.938
			c0.382,0.329,0.662,0.61,0.937,0.941l0.76,0.917l-0.72,0.947c-2.868,3.774-6.629,6.56-9.817,7.268l-0.241,0.054L44.875,91.434z
			 M49.596,73.831c-1.077,0.839-2.158,2.083-3.061,3.638C47.902,76.338,48.942,75.102,49.596,73.831z"/>
		<path fill="#FFB8CA" d="M51.122,67.126c1.342,0.179,2.64,1.028,3.848,2.55c-0.447,7.338-4.34,10.246-11.945,13.287
			c0,0.358-0.045,0.762-0.045,1.164c0,1.521,0.357,3.578,2.058,3.578c3.222,0,6.309-3.221,8.188-5.234
			c0.313,0.271,0.537,0.492,0.761,0.763c-2.685,3.532-6.13,6.084-8.948,6.71c-4.115-0.447-6.531-3.266-6.531-6.846
			C38.506,75.76,45.217,67.126,51.122,67.126 M51.883,71.152c-3.267,0.447-7.069,4.562-8.501,10.111
			C48.124,78.893,51.659,75.223,51.883,71.152 M51.321,64.126h-0.199c-8.043,0-15.616,10.688-15.616,18.972
			c0,5.279,3.7,9.229,9.207,9.828l0.492,0.053l0.483-0.106c3.572-0.793,7.567-3.718,10.687-7.823l1.441-1.896l-1.521-1.834
			c-0.327-0.395-0.67-0.739-1.113-1.12l-0.832-0.716c2.119-2.387,3.359-5.42,3.615-9.622l0.07-1.147l-0.715-0.899
			c-1.7-2.142-3.652-3.372-5.801-3.658L51.321,64.126L51.321,64.126z"/>
	</g>
	<g>
		<path d="M59.627,91.331c-2.417-0.749-3.695-2.467-3.695-4.968c0-2.48,1.225-9.434,2.426-13.777
			c0.955-3.484,3.261-5.484,6.322-5.484c1.41,0,3.946,0.451,4.51,2.146l0.33,0.987l-0.811,0.654
			c-1.775,1.435-2.645,4.108-3.184,6.877c0.681-0.777,1.276-1.406,1.799-1.894c1.648-1.532,1.895-2.223,2.339-3.478l0.119-0.368
			c0.37-1.164,0.879-2.759,2.157-4.037l0.297-0.296l0.406-0.1c0.354-0.088,0.727-0.088,1.119-0.088c1.232,0,4.143,0.215,4.516,2.209
			l0.125,0.666l-0.418,0.534c-1.1,1.406-2.129,6.246-2.851,10.146c0.612-0.791,1.226-1.635,1.755-2.446
			c2.063-3.157,2.578-5.021,3.721-11.006l0.062-0.329l0.196-0.271c1.055-1.453,4.047-1.469,4.077-1.469
			c0.539,0,1.303,0.09,1.88,0.521l0.672,0.5l-0.073,0.834c-0.609,6.949-3.148,10.688-8.986,16.953l-0.191,0.207
			c-4.178,4.514-6.184,6.399-7.795,6.399c-2.207,0-3.871-1.876-3.871-4.362c0-1.461,0.093-2.562,0.328-3.74
			c-0.204,0.256-0.419,0.526-0.645,0.814c-1.203,1.604-2.011,2.809-2.791,3.973c-0.68,1.012-1.32,1.967-2.193,3.152l-0.633,0.858
			L59.627,91.331z"/>
		<path fill="#FFB8CA" d="M84.945,67.036c0.447,0,0.806,0.09,0.984,0.224c-0.582,6.621-3.087,10.156-8.59,16.062
			c-2.236,2.416-5.638,6.13-6.89,6.13c-1.388,0-2.371-1.209-2.371-2.862c0-1.746,0.134-2.863,0.491-4.296
			c0.672-2.641,0.851-3.399,0.939-4.385c-0.939,0.447-3.312,3.399-4.43,4.832c-2.281,3.041-3.132,4.606-5.012,7.158
			c-1.879-0.582-2.639-1.79-2.639-3.535c0-2.371,1.207-9.172,2.37-13.377c0.761-2.772,2.461-4.386,4.877-4.386
			c1.298,0,2.863,0.447,3.087,1.119c-3.49,2.818-3.893,8.902-4.562,13.332c1.969-2.595,3.803-4.832,5.145-6.084
			c1.879-1.744,2.237-2.685,2.729-4.071c0.356-1.073,0.761-2.685,1.924-3.849c0.179-0.043,0.446-0.043,0.761-0.043
			c1.163,0,2.908,0.269,3.042,0.983c-1.924,2.46-3.266,11.677-4.071,15.972c0.537-0.224,3.58-3.713,5.414-6.531
			c2.281-3.489,2.818-5.683,3.938-11.543C82.439,67.395,83.917,67.036,84.945,67.036 M84.945,64.036
			c-0.387,0-3.816,0.06-5.291,2.088l-0.393,0.542l-0.127,0.658c-0.035,0.186-0.068,0.365-0.104,0.541
			c-0.971-1.199-2.801-1.859-5.271-1.859c-0.443,0-0.945,0-1.478,0.131l-0.813,0.199l-0.592,0.592
			c-0.283,0.285-0.535,0.58-0.759,0.879c-1.154-1.608-3.532-2.205-5.44-2.205c-3.732,0-6.638,2.464-7.771,6.591
			c-1.121,4.054-2.478,11.284-2.478,14.17c0,3.179,1.688,5.451,4.752,6.399l2.037,0.633l1.266-1.719
			c0.894-1.213,1.574-2.227,2.231-3.207c0.152-0.228,0.306-0.455,0.464-0.688c0.479,2.731,2.584,4.67,5.27,4.67
			c2.162,0,4.117-1.718,8.896-6.881l0.194-0.211c5.961-6.396,8.731-10.492,9.377-17.837l0.146-1.668l-1.342-1
			C86.814,64.178,85.712,64.036,84.945,64.036L84.945,64.036z"/>
	</g>
	<g>
		<path d="M85.816,94.346c-2.299-0.182-4.901-2.312-5.569-4.558l-0.062-0.209V89.36c0-4.892,3.901-9.082,9.123-10.074
			c-0.127-0.948-0.367-1.878-0.604-2.786c-0.34-1.312-0.691-2.668-0.691-4.052c0-3.924,3.248-7.935,7.092-8.759l0.354-0.076
			l0.35,0.093c1.887,0.504,5.717,4.396,6.209,6.31l0.06,0.228l-0.015,0.235c-0.138,2.354-1.562,6.558-3.912,6.558h-0.094
			l-0.095-0.012c-1.042-0.132-1.765-0.896-1.885-1.997l-0.009-0.082v-0.082c0-0.428,0.154-0.826,0.367-1.377
			c0.084-0.217,0.238-0.616,0.312-0.877c-0.8,0.484-1.575,2.287-1.69,6.158c0.592-0.021,1.127-0.034,1.661-0.034h0.927l0.416,0.829
			c0.203,0.406,0.203,0.736,0.203,1.027c0,0.492-0.162,1.182-0.613,1.637l-0.309,0.312l-0.427,0.098
			c-0.591,0.133-1.334,0.301-1.813,0.435c0,0.013,0.002,0.024,0.002,0.038c0.014,0.298,0.027,0.636,0.027,1.062
			c0,5.699-3.465,9.598-9.042,10.17l-0.136,0.015L85.816,94.346z M88.748,85.922c-0.966,0.868-1.844,1.93-2.188,2.689
			C87.432,87.922,88.202,86.961,88.748,85.922z"/>
		<path fill="#FFB8CA" d="M95.42,65.157c1.342,0.358,4.787,3.849,5.145,5.233c-0.133,2.283-1.477,5.146-2.416,5.146
			c-0.356-0.045-0.537-0.27-0.58-0.672c0-0.357,0.716-1.699,0.716-2.416c0-0.85-0.447-1.477-1.074-1.477
			c-2.371,0-3.668,3.088-3.668,8.813c0,0.356,0,0.447,0.044,0.537c1.253-0.045,2.191-0.09,3.132-0.09
			c0.046,0.09,0.046,0.135,0.046,0.356c0,0.226-0.091,0.492-0.18,0.582c-2.773,0.627-2.998,0.717-2.998,1.387
			c0,0.447,0.045,0.896,0.045,1.611c0,4.965-2.908,8.188-7.695,8.68c-1.699-0.135-3.758-1.836-4.25-3.489
			c0-4.563,4.026-8.411,9.217-8.771c0-3.041-1.387-5.637-1.387-8.143C89.514,69.273,92.288,65.828,95.42,65.157 M91.08,82.918
			c-2.326,0.314-6.174,4.206-6.174,6.264c0,0.672,0.312,1.209,0.895,1.611C88.664,89.629,91.08,86.006,91.08,82.918 M95.497,62.073
			l-0.706,0.151c-4.486,0.961-8.277,5.644-8.277,10.226c0,1.575,0.377,3.024,0.739,4.428c0.114,0.439,0.226,0.87,0.323,1.296
			c-5.176,1.577-8.893,6.043-8.893,11.188v0.437l0.125,0.42c0.854,2.869,3.944,5.393,6.891,5.625l0.271,0.021l0.271-0.026
			c6.288-0.646,10.358-5.195,10.389-11.596c0.222-0.051,0.435-0.1,0.614-0.141l0.855-0.192l0.616-0.626
			c0.972-0.98,1.046-2.309,1.046-2.691c0-0.365,0-0.976-0.361-1.699l-0.248-0.498c2.981-0.875,4.274-5.568,4.408-7.826l0.026-0.469
			l-0.116-0.455c-0.619-2.403-4.904-6.75-7.275-7.385L95.497,62.073L95.497,62.073z"/>
	</g>
</g>
</svg>
