<?xml version="1.0" encoding="utf-8"?>
<!-- Generator: Adobe Illustrator 16.0.0, SVG Export Plug-In . SVG Version: 6.00 Build 0)  -->
<!DOCTYPE svg PUBLIC "-//W3C//DTD SVG 1.1//EN" "http://www.w3.org/Graphics/SVG/1.1/DTD/svg11.dtd">
<svg version="1.1" id="Layer_1" xmlns="http://www.w3.org/2000/svg" xmlns:xlink="http://www.w3.org/1999/xlink" x="0px" y="0px"
	 width="110px" height="100px" viewBox="0 0 110 100" enable-background="new 0 0 110 100" xml:space="preserve">
<g>
	<g>
		<path d="M14.556,93.452c-2.375-0.527-4.1-1.931-5.589-4.551l-0.401-0.705l0.371-0.722c0.753-1.465,1.097-2.134,7.215-16.6
			c1.296-3.057,2.017-4.795,2.64-6.844c-1.426,0.646-2.584,1.33-3.374,2.003l-0.88,0.75l-0.949-0.66
			c-1.373-0.954-2.945-3.72-3.116-5.479l-0.085-0.883l0.732-0.5c3.945-2.695,11.511-4.306,16.547-4.306
			c7.685,0,12.459,3.657,12.459,9.546c0,5.69-4.822,10.611-11.703,12.199c1.907,4.908,4.791,9.742,7.17,11.919l0.809,0.739
			l-0.459,0.995c-0.724,1.569-3.148,3.394-5.188,3.394c-3.334,0-5.429-3.898-8.773-16.545c-0.184-0.009-0.351-0.022-0.505-0.042
			c-2.656,5.964-4.165,10.435-5.125,15.127l-0.306,1.494L14.556,93.452z M29.214,61.748c-0.562,0.751-2.755,4.9-4.827,9.199
			c6.44-0.54,11.043-3.225,11.043-6.663c0-0.815,0-2.979-4.894-2.979c-0.318,0-0.651,0.01-1.014,0.032L29.214,61.748z"/>
		<path fill="#C5E894" d="M27.667,56.456c6.914,0,10.959,3.088,10.959,8.046c0,5.523-5.307,10.09-12.221,11.047
			c1.783,5.219,5.132,11.394,8.176,14.178c-0.521,1.131-2.479,2.521-3.826,2.521c-2.522,0-4.524-4.652-7.611-16.526
			c-0.653,0-1.348,0-1.696-0.087c-0.218-0.13-0.436-0.348-0.652-0.608c-3.088,6.741-4.828,11.655-5.914,16.961
			c-1.958-0.435-3.349-1.608-4.61-3.827c0.782-1.521,1.174-2.305,7.263-16.7c1.826-4.306,2.565-6.132,3.479-9.915
			c-2.652,0.912-5.087,2.087-6.566,3.348c-1-0.695-2.349-3.044-2.479-4.393C15.402,58.152,22.534,56.456,27.667,56.456
			 M21.969,72.547c8.698,0,14.961-3.436,14.961-8.263c0-2.87-2.088-4.479-6.394-4.479c-0.957,0-1.956,0.087-3.044,0.218l0.521,0.826
			C27.231,61.893,24.274,67.59,21.969,72.547 M27.667,53.456c-5.264,0-13.209,1.708-17.394,4.567l-1.465,1l0.171,1.766
			c0.215,2.221,2.004,5.351,3.752,6.566l1.899,1.32l1.269-1.081c-0.322,0.788-0.692,1.665-1.128,2.694
			C8.674,84.705,8.316,85.401,7.603,86.788L6.86,88.232l0.802,1.411c1.694,2.979,3.781,4.654,6.568,5.272l2.978,0.661l0.611-2.988
			c0.757-3.698,1.868-7.266,3.641-11.587c2.771,9.811,5.074,14.246,9.294,14.246c2.701,0,5.62-2.248,6.55-4.266l0.918-1.99
			l-1.617-1.479c-1.95-1.783-4.363-5.692-6.15-9.815c6.648-2.131,11.17-7.285,11.17-13.195
			C41.626,57.792,36.147,53.456,27.667,53.456L27.667,53.456z M30.307,62.807c0.078-0.002,0.154-0.002,0.229-0.002
			c3.394,0,3.394,0.999,3.394,1.479c0,2.296-3.096,3.974-6.941,4.761C28.489,66.037,29.801,63.596,30.307,62.807L30.307,62.807z"/>
	</g>
	<g>
		<path d="M41.517,90.832c-2.519-0.118-5.501-1.853-6.131-4.55l-0.039-0.168v-0.173c0-1.689,0.093-2.664,0.381-4.01
			c1.028-4.326,4.201-12.268,8.371-15.296l0.394-0.286h0.487c0.138,0,3.399,0.021,5.002,1.865l0.882,1.015l-0.913,0.987
			c-0.432,0.468-2.722,3.647-5.243,9.612c-0.271,0.626-0.635,1.688-0.957,2.773c0.485-0.639,0.943-1.263,1.28-1.722l0.544-0.735
			c1.17-1.57,2.772-3.72,3.521-5.729c0.542-1.493,1.555-4.279,3.762-6.389l0.435-0.416h0.602c1.768,0,4.381,0.803,5.303,1.954
			l0.557,0.695l-0.344,0.821c-0.643,1.535-1.39,3.042-2.111,4.5c-1.673,3.378-3.253,6.569-3.253,9.447
			c0,1.357,0.342,2.122,0.591,2.68c0.18,0.402,0.366,0.817,0.366,1.32c0,0.765-0.537,1.435-1.306,1.629l-0.181,0.046h-0.187
			c-1.248,0-3.579-1.011-4.973-1.954l-0.065-0.044l-0.06-0.05c-0.817-0.688-1.29-1.574-1.562-2.401
			c-0.227,0.299-0.439,0.581-0.617,0.818c-0.602,0.801-1.122,1.493-1.451,1.882c-0.775,0.825-1.846,1.76-2.851,1.87l-0.117,0.013
			L41.517,90.832z"/>
		<path fill="#C5E894" d="M44.979,67.85c1.001,0,3,0.349,3.87,1.35c-0.521,0.564-2.913,3.87-5.523,10.046
			c-0.564,1.304-1.826,5.263-1.826,6.784c0,0.436,0.217,0.695,0.305,0.783c0.869-0.348,2.043-1.783,4.436-5.045
			c1.175-1.609,3.306-4.262,4.262-6.828c0.521-1.436,1.436-3.958,3.393-5.828c1.522,0,3.609,0.739,4.132,1.392
			c-2.132,5.089-5.48,9.96-5.48,14.526c0,2.479,0.957,3.436,0.957,4c0,0.131-0.174,0.175-0.174,0.175
			c-0.783,0-2.783-0.783-4.132-1.696c-1.086-0.913-1.391-2.522-1.391-3.522c0-0.653,0.086-1.175,0.217-1.565
			c-0.002,0-0.005,0-0.007,0c-0.501,0-3.606,4.441-4.559,5.566c-0.739,0.783-1.479,1.305-1.87,1.348
			c-1.826-0.086-4.263-1.348-4.74-3.393c0-1.608,0.087-2.479,0.348-3.695C38.238,77.854,41.326,70.503,44.979,67.85 M44.979,64.85
			h-0.975l-0.788,0.572c-4.529,3.289-7.829,11.449-8.941,16.131l-0.007,0.032l-0.007,0.032c-0.31,1.445-0.414,2.537-0.414,4.324
			v0.346l0.079,0.337c0.821,3.516,4.487,5.563,7.521,5.707l0.235,0.011l0.234-0.025c1.17-0.129,2.423-0.893,3.724-2.271l0.056-0.06
			l0.053-0.062c0.198-0.233,0.441-0.545,0.729-0.921c0.231,0.281,0.493,0.551,0.791,0.801l0.12,0.101l0.129,0.088
			c1.263,0.855,3.958,2.212,5.813,2.212h0.373l0.362-0.092c1.436-0.362,2.438-1.631,2.438-3.083c0-0.822-0.287-1.464-0.496-1.933
			c-0.227-0.507-0.461-1.03-0.461-2.067c0-2.526,1.505-5.565,3.098-8.781c0.731-1.479,1.489-3.008,2.149-4.586l0.689-1.644
			l-1.114-1.392c-1.391-1.734-4.623-2.516-6.474-2.516h-1.203l-0.87,0.831c-0.176,0.169-0.346,0.341-0.508,0.515l-0.2-0.227
			C49.102,64.916,45.396,64.85,44.979,64.85L44.979,64.85z"/>
	</g>
	<g>
		<path d="M62.344,93.13c-1.045-0.115-2.334-0.623-2.815-1.707c-0.071-0.101-0.473-0.515-0.637-0.623
			c-1.427-0.95-1.581-3.896-1.581-5.118c0-3.433,1.94-9.481,3.569-13.951c3.696-10.094,6.857-16.549,9.949-20.314l0.563-0.688
			l0.873,0.164c1.643,0.31,5.067,2.187,5.853,3.4l0.605,0.934l-0.719,0.85c-4.388,5.189-7.593,10.963-10.39,18.72
			c-2.354,6.556-3.651,12.09-3.651,15.583c0,0.601-0.005,0.802,0.008,0.931l0.408,2.014L62.344,93.13z"/>
		<path fill="#C5E894" d="M71.988,52.367c1.391,0.262,4.393,2.001,4.871,2.74c-4.523,5.35-7.785,11.221-10.655,19.18
			c-2.437,6.784-3.74,12.438-3.74,16.092c0,1,0,1.043,0.044,1.26c-0.783-0.086-1.436-0.435-1.609-0.825
			c-0.131-0.305-0.783-1.001-1.174-1.262c-0.522-0.348-0.914-2.001-0.914-3.87c0-2.523,1.261-7.35,3.479-13.438
			C65.856,62.501,68.988,56.021,71.988,52.367 M70.797,49.09l-1.127,1.374c-3.202,3.9-6.443,10.493-10.198,20.747
			c-1.671,4.589-3.661,10.819-3.661,14.471c0,2.202,0.384,5.079,2.205,6.336c0.072,0.061,0.199,0.189,0.275,0.278
			c0.709,1.282,2.133,2.132,3.89,2.325l4.083,0.447l-0.799-3.94c-0.003-0.141-0.001-0.359-0.001-0.749
			c0-3.324,1.266-8.679,3.563-15.078c2.732-7.578,5.855-13.209,10.123-18.256l1.437-1.699l-1.209-1.869
			c-1.089-1.681-5.029-3.718-6.835-4.058L70.797,49.09L70.797,49.09z"/>
	</g>
	<g>
		<path d="M74.698,91.651c-4.599-0.498-7.688-3.771-7.688-8.145c0-8.115,7.203-17.026,13.764-17.026h0.1l0.099,0.014
			c1.713,0.228,3.3,1.248,4.717,3.032l0.357,0.45l-0.035,0.574c-0.465,7.613-4.452,10.854-11.65,13.852
			c-0.001,0.035-0.001,0.07-0.001,0.105c0,1.309,0.313,1.903,0.428,1.972c0.003,0,0.006,0,0.009,0c2.627,0,5.53-3.109,6.926-4.604
			l0.979-1.048l1.092,0.93c0.364,0.312,0.639,0.586,0.916,0.919l0.766,0.917l-0.723,0.951c-2.79,3.677-6.456,6.39-9.566,7.08
			l-0.241,0.054L74.698,91.651z M79.16,74.655c-0.941,0.77-1.88,1.855-2.684,3.19C77.646,76.846,78.555,75.766,79.16,74.655z"/>
		<path fill="#C5E894" d="M80.773,67.98c1.306,0.174,2.566,1,3.74,2.479c-0.436,7.133-4.218,9.96-11.611,12.918
			c0,0.348-0.043,0.738-0.043,1.131c0,1.479,0.348,3.479,2,3.479c3.131,0,6.132-3.131,7.959-5.088
			c0.305,0.26,0.521,0.479,0.738,0.738c-2.608,3.437-5.958,5.915-8.697,6.523c-4.002-0.434-6.35-3.174-6.35-6.653
			C68.51,76.375,75.033,67.98,80.773,67.98 M81.514,71.895c-3.175,0.436-6.872,4.436-8.264,9.83
			C77.86,79.418,81.295,75.853,81.514,71.895 M80.973,64.98h-0.199c-7.418,0-15.264,9.522-15.264,18.526
			c0,5.179,3.628,9.051,9.026,9.636l0.491,0.054l0.482-0.107c3.494-0.776,7.396-3.632,10.437-7.639l1.444-1.902l-1.53-1.833
			c-0.331-0.396-0.669-0.735-1.096-1.1l-0.736-0.628c2.038-2.321,3.231-5.272,3.479-9.346l0.07-1.147l-0.715-0.9
			c-1.666-2.1-3.582-3.306-5.694-3.587L80.973,64.98L80.973,64.98z"/>
	</g>
	<g>
		<path d="M87.182,94.483c-2.25-0.178-4.798-2.262-5.451-4.46l-0.062-0.209v-0.219c0-4.762,3.788-8.844,8.864-9.826
			c-0.125-0.906-0.355-1.796-0.58-2.665c-0.331-1.277-0.673-2.599-0.673-3.948c0-3.833,3.172-7.751,6.926-8.556l0.353-0.075
			l0.35,0.093c1.841,0.492,5.583,4.294,6.066,6.163l0.06,0.229l-0.015,0.235c-0.137,2.302-1.539,6.412-3.847,6.412h-0.095
			l-0.094-0.012c-1.03-0.131-1.746-0.887-1.867-1.974l-0.01-0.083v-0.084c0-0.425,0.151-0.815,0.361-1.356
			c0.074-0.192,0.191-0.495,0.267-0.732c-0.756,0.578-1.414,2.451-1.524,5.84c0.557-0.02,1.063-0.032,1.57-0.032h0.923l0.416,0.823
			c0.205,0.406,0.205,0.734,0.205,1.024c0,0.492-0.163,1.18-0.62,1.632l-0.305,0.302L97.98,83.1
			c-0.532,0.12-1.253,0.283-1.728,0.413c0,0.002,0,0.003,0,0.005c0.013,0.29,0.027,0.618,0.027,1.033c0,5.564-3.382,9.37-8.827,9.93
			l-0.136,0.014L87.182,94.483z M89.888,86.436c-0.802,0.748-1.518,1.614-1.866,2.284C88.75,88.11,89.399,87.308,89.888,86.436z"/>
		<path fill="#C5E894" d="M96.52,66.067c1.305,0.349,4.653,3.74,5.002,5.089c-0.132,2.218-1.437,5.001-2.35,5.001
			c-0.347-0.044-0.521-0.261-0.565-0.652c0-0.349,0.696-1.653,0.696-2.349c0-0.826-0.436-1.436-1.044-1.436
			c-2.305,0-3.565,3.001-3.565,8.568c0,0.348,0,0.435,0.043,0.521c1.218-0.043,2.131-0.087,3.044-0.087
			c0.044,0.087,0.044,0.13,0.044,0.348s-0.087,0.479-0.175,0.565c-2.695,0.609-2.913,0.696-2.913,1.348
			c0,0.436,0.044,0.871,0.044,1.566c0,4.827-2.827,7.959-7.48,8.438c-1.653-0.131-3.653-1.784-4.132-3.393
			c0-4.437,3.915-8.176,8.959-8.524c0-2.957-1.348-5.479-1.348-7.915C90.779,70.068,93.476,66.72,96.52,66.067 M92.301,83.332
			c-2.262,0.305-6.002,4.089-6.002,6.09c0,0.652,0.305,1.174,0.87,1.565C89.952,89.856,92.301,86.334,92.301,83.332 M96.597,62.982
			l-0.706,0.151c-4.396,0.942-8.111,5.532-8.111,10.022c0,1.541,0.366,2.956,0.721,4.324c0.104,0.4,0.205,0.794,0.296,1.182
			c-5.026,1.564-8.628,5.92-8.628,10.934v0.437l0.125,0.419c0.838,2.819,3.875,5.299,6.771,5.527L87.335,96l0.271-0.027
			c6.137-0.631,10.118-5.056,10.173-11.289c0.195-0.045,0.381-0.087,0.531-0.121l0.838-0.189l0.61-0.604
			c0.988-0.978,1.065-2.312,1.065-2.698c0-0.365,0-0.976-0.367-1.701l-0.193-0.384c2.871-0.936,4.122-5.461,4.253-7.652l0.027-0.471
			l-0.118-0.458c-0.622-2.408-4.755-6.601-7.132-7.236L96.597,62.982L96.597,62.982z"/>
	</g>
</g>
</svg>
