<?xml version="1.0" encoding="utf-8"?>
<!-- Generator: Adobe Illustrator 16.0.0, SVG Export Plug-In . SVG Version: 6.00 Build 0)  -->
<!DOCTYPE svg PUBLIC "-//W3C//DTD SVG 1.1//EN" "http://www.w3.org/Graphics/SVG/1.1/DTD/svg11.dtd">
<svg version="1.1" id="Layer_1" xmlns="http://www.w3.org/2000/svg" xmlns:xlink="http://www.w3.org/1999/xlink" x="0px" y="0px"
	 width="220px" height="100px" viewBox="0 0 220 100" enable-background="new 0 0 220 100" xml:space="preserve">
<g>
	<path d="M25.942,93.296c-6.916,0-17.582-4.577-17.582-10.657c0-1.873,0.993-4.111,2.657-5.984c0.29-0.326,0.7-0.504,1.122-0.504
		c0.154,0,0.311,0.023,0.462,0.072c0.567,0.185,0.972,0.687,1.03,1.277c0.108,1.085,1.39,3.359,4.474,5.18
		c2.604,1.533,5.823,2.414,8.827,2.414c5.43,0,6.246-3.012,6.358-3.648c-0.263-1.37-5.298-3.555-8.332-4.87
		c-7.445-3.261-11.224-5.829-11.224-10.836c0-4.005,2.53-7.535,6.604-9.214c2.429-1.016,4.927-1.229,6.593-1.229
		c3.484,0,7.163,0.916,11.575,2.882c0.457,0.204,0.782,0.621,0.867,1.113c0.051,0.288,0.093,0.504,0.128,0.682
		c0.088,0.448,0.152,0.774,0.152,1.338c0,2.513-1.273,4.817-3.168,5.735c-0.209,0.103-0.433,0.149-0.653,0.149
		c-0.468,0-0.925-0.219-1.215-0.618c-2.042-2.812-6.553-3.81-9.794-3.81c-3.599,0-5.59,1.057-5.794,1.7
		c0.561,1.812,7.196,4.884,9.734,6.06c5.813,2.713,9.341,4.793,9.341,10.82C38.106,88.383,33.104,93.296,25.942,93.296z"/>
	<path fill="#84ADD9" d="M26.932,56.795c3.74,0,7.395,1.161,10.965,2.752c0.172,0.989,0.258,1.161,0.258,1.764
		c0,1.893-0.904,3.697-2.322,4.385c-2.279-3.139-6.967-4.428-11.008-4.428c-4,0-7.268,1.246-7.311,3.269
		c0.344,2.493,5.977,5.202,10.621,7.353c5.805,2.709,8.471,4.387,8.471,9.461c0,5.891-4.084,10.447-10.664,10.447
		c-6.363,0-16.082-4.257-16.082-9.158c0-1.16,0.561-3.053,2.279-4.988c0.172,1.721,1.85,4.344,5.203,6.322
		c3.139,1.848,6.664,2.622,9.59,2.622c6.406,0,7.738-3.784,7.867-5.116c-0.086-2.279-4.385-4.172-9.244-6.278
		c-7.268-3.183-10.32-5.375-10.32-9.46c0-3.225,2.021-6.32,5.676-7.825C22.76,57.139,24.911,56.795,26.932,56.795 M26.932,53.795
		c-1.804,0-4.514,0.234-7.18,1.352c-4.631,1.906-7.518,5.969-7.518,10.593c0,6.384,5.487,9.306,12.117,12.208
		c2.359,1.022,6.156,2.67,7.294,3.744c-0.353,0.707-1.435,1.902-4.714,1.902c-2.744,0-5.685-0.805-8.067-2.208
		c-2.653-1.565-3.68-3.427-3.74-4.034c-0.119-1.186-0.928-2.188-2.061-2.557c-0.304-0.098-0.616-0.146-0.925-0.146
		c-0.843,0-1.664,0.356-2.243,1.009c-1.93,2.173-3.036,4.718-3.036,6.979c0,7.543,12.354,12.158,19.082,12.158
		c7.918,0,13.664-5.654,13.664-13.447c0-6.9-4.039-9.304-10.202-12.18c-4.108-1.9-6.836-3.38-8.149-4.415
		c0.766-0.252,1.964-0.487,3.57-0.487c3.805,0,7.173,1.254,8.58,3.191c0.58,0.8,1.493,1.236,2.43,1.236
		c0.441,0,0.888-0.098,1.307-0.301c2.438-1.182,4.014-3.963,4.014-7.084c0-0.711-0.084-1.137-0.181-1.629
		c-0.033-0.169-0.074-0.373-0.121-0.647c-0.172-0.984-0.822-1.82-1.735-2.228C34.506,54.752,30.634,53.795,26.932,53.795
		L26.932,53.795z"/>
	<path d="M45.559,91.695c-4.555-0.494-7.615-3.737-7.615-8.069c0-8.032,7.132-16.851,13.627-16.851c0.066,0,0.133,0.004,0.198,0.014
		c1.696,0.227,3.269,1.236,4.672,3.004c0.23,0.29,0.346,0.655,0.324,1.025c-0.459,7.531-4.402,10.738-11.52,13.703
		c-0.001,0.03-0.001,0.062-0.001,0.094c0,1.367,0.333,1.883,0.415,1.936c0.002,0,0.004,0,0.005,0c2.584,0,5.451-3.072,6.829-4.55
		c0.295-0.315,0.695-0.478,1.097-0.478c0.347,0,0.693,0.119,0.977,0.361c0.363,0.312,0.634,0.583,0.905,0.907
		c0.45,0.536,0.469,1.312,0.045,1.87c-2.764,3.638-6.393,6.322-9.471,7.007c-0.107,0.022-0.216,0.035-0.325,0.035
		C45.667,91.705,45.613,91.702,45.559,91.695z M49.919,74.939c-0.887,0.74-1.768,1.762-2.531,3.01
		C48.481,77.004,49.336,75.986,49.919,74.939z"/>
	<path fill="#84ADD9" d="M51.571,68.275c1.289,0.172,2.535,0.988,3.697,2.451c-0.43,7.051-4.172,9.847-11.48,12.771
		c0,0.345-0.043,0.731-0.043,1.118c0,1.462,0.344,3.439,1.977,3.439c3.098,0,6.064-3.097,7.869-5.031
		c0.301,0.259,0.516,0.474,0.732,0.731c-2.58,3.396-5.893,5.849-8.602,6.449c-3.955-0.431-6.277-3.14-6.277-6.579
		C39.444,76.574,45.893,68.275,51.571,68.275 M52.301,72.146c-3.139,0.43-6.795,4.386-8.17,9.718
		C48.688,79.585,52.086,76.059,52.301,72.146 M51.571,65.275c-7.352,0-15.127,9.433-15.127,18.351c0,5.138,3.598,8.979,8.953,9.562
		c0.108,0.013,0.216,0.019,0.324,0.019c0.219,0,0.437-0.022,0.65-0.071c3.461-0.769,7.326-3.597,10.339-7.562
		c0.848-1.115,0.811-2.668-0.088-3.741c-0.324-0.386-0.656-0.72-1.08-1.083c-0.247-0.211-0.518-0.375-0.802-0.493
		c2.064-2.313,3.273-5.259,3.521-9.344c0.045-0.739-0.184-1.47-0.645-2.05c-1.656-2.082-3.556-3.278-5.65-3.559
		C51.835,65.284,51.704,65.275,51.571,65.275L51.571,65.275z"/>
	<path d="M60.152,90.973c-2.949-0.119-5.007-2.875-5.007-6.701c0-7.291,6.755-16.629,12.251-16.934
		c0.027-0.002,0.055-0.003,0.082-0.003c0.127,0,0.254,0.017,0.377,0.048c1.035,0.268,2.416,1.346,3.342,2.561
		c0.252-0.184,0.561-0.286,0.883-0.286c1.355,0,3.32,0.788,4.123,1.653c0.51,0.551,0.582,1.103,0.555,1.467
		c-0.014,0.187-0.062,0.367-0.145,0.535c-2.25,4.668-3.764,9.558-3.764,12.164c0,1.49,0.348,1.826,0.35,1.83
		c0.465,0.258,0.756,0.74,0.77,1.271c0.014,0.53-0.256,1.028-0.707,1.31c-0.93,0.58-2.439,1.002-3.59,1.002
		c-1.049,0-3.365-0.38-3.764-3.654c-1.709,1.97-3.609,3.424-5.455,3.722c-0.08,0.015-0.16,0.021-0.24,0.021
		C60.193,90.975,60.172,90.975,60.152,90.973z M68.566,74.743c-2.922,1.968-5.846,6.272-6.473,9.804
		c0.979-0.949,2.42-2.816,4.531-6.336C67.193,77.255,67.875,76.033,68.566,74.743z"/>
	<path fill="#84ADD9" d="M67.479,68.835c1.162,0.301,3.098,2.321,3.227,3.396c-4.602,0.731-10.234,8.343-10.234,13.631
		c0,0.603,0.215,0.904,0.602,1.033c1.678-0.345,3.742-2.752,6.838-7.912c1.203-2.021,2.924-5.246,4.17-7.826
		c1.205,0,3.225,0.945,3.182,1.505c-2.322,4.815-3.912,9.891-3.912,12.813c0,1.592,0.344,2.709,1.117,3.14
		c-0.688,0.43-1.934,0.774-2.795,0.774c-1.547,0-2.322-1.033-2.322-3.184c0-1.591,0.561-3.913,1.635-6.708
		c-2.322,5.246-6.105,9.546-8.771,9.978c-2.107-0.086-3.568-2.236-3.568-5.203C56.645,77.864,62.836,69.093,67.479,68.835
		 M67.479,65.835c-0.055,0-0.111,0.001-0.166,0.005c-6.779,0.377-13.667,11.041-13.667,18.432c0,4.601,2.71,8.049,6.447,8.201
		c0.041,0.002,0.08,0.002,0.121,0.002c0.16,0,0.32-0.013,0.479-0.039c1.557-0.25,3.107-1.14,4.568-2.422
		c1.021,1.7,2.754,2.375,4.412,2.375c1.424,0,3.227-0.506,4.385-1.229c0.9-0.562,1.438-1.56,1.41-2.621
		c-0.023-0.86-0.412-1.66-1.053-2.206c-0.031-0.16-0.064-0.434-0.064-0.855c0-2.363,1.486-7.098,3.615-11.512
		c0.162-0.337,0.26-0.699,0.289-1.072c0.072-0.938-0.266-1.859-0.951-2.601c-1.09-1.178-3.434-2.135-5.223-2.135
		c-0.143,0-0.283,0.01-0.422,0.028c-1.059-1.106-2.348-1.976-3.428-2.254C67.984,65.867,67.732,65.835,67.479,65.835L67.479,65.835z
		"/>
	<path d="M78.111,94.496c-2.23-0.178-4.756-2.242-5.404-4.422c-0.041-0.139-0.062-0.283-0.062-0.428
		c0-4.713,3.744-8.752,8.762-9.729c-0.123-0.89-0.35-1.763-0.57-2.617c-0.328-1.264-0.668-2.571-0.668-3.907
		c0-3.799,3.143-7.681,6.861-8.477c0.104-0.021,0.209-0.033,0.314-0.033c0.131,0,0.26,0.018,0.387,0.051
		c1.826,0.485,5.533,4.254,6.012,6.106c0.039,0.149,0.055,0.308,0.045,0.462c-0.135,2.281-1.525,6.355-3.82,6.355
		c-0.062,0-0.123-0.004-0.186-0.012c-1.029-0.129-1.742-0.883-1.863-1.967c-0.006-0.055-0.01-0.111-0.01-0.166
		c0-0.423,0.15-0.811,0.357-1.347c0.068-0.177,0.174-0.446,0.246-0.671c-0.723,0.602-1.346,2.436-1.455,5.707
		c0.543-0.019,1.039-0.03,1.535-0.03c0.568,0,1.088,0.321,1.342,0.829c0.201,0.402,0.201,0.729,0.201,1.016
		c0,0.487-0.16,1.168-0.611,1.619c-0.199,0.201-0.453,0.34-0.729,0.402c-0.521,0.117-1.227,0.277-1.695,0.404
		c0.012,0.284,0.025,0.606,0.025,1.014c0,5.512-3.35,9.279-8.742,9.834c-0.051,0.006-0.104,0.008-0.154,0.008
		C78.189,94.5,78.15,94.498,78.111,94.496z M80.721,86.607c-0.73,0.691-1.379,1.478-1.723,2.104
		C79.664,88.141,80.262,87.405,80.721,86.607z"/>
	<path fill="#84ADD9" d="M87.344,66.384c1.291,0.345,4.602,3.698,4.945,5.031c-0.129,2.192-1.418,4.944-2.322,4.944
		c-0.344-0.043-0.516-0.258-0.559-0.646c0-0.345,0.688-1.634,0.688-2.321c0-0.817-0.43-1.42-1.031-1.42
		c-2.279,0-3.525,2.967-3.525,8.471c0,0.345,0,0.431,0.043,0.517c1.203-0.043,2.105-0.086,3.01-0.086
		c0.043,0.086,0.043,0.13,0.043,0.345s-0.086,0.473-0.172,0.559c-2.666,0.604-2.881,0.688-2.881,1.334
		c0,0.43,0.043,0.859,0.043,1.548c0,4.772-2.795,7.868-7.396,8.342c-1.635-0.129-3.611-1.763-4.084-3.354
		c0-4.386,3.869-8.084,8.857-8.428c0-2.924-1.334-5.418-1.334-7.826C81.668,70.34,84.334,67.027,87.344,66.384 M83.174,83.454
		c-2.236,0.302-5.934,4.042-5.934,6.021c0,0.646,0.301,1.161,0.859,1.549C80.852,89.904,83.174,86.421,83.174,83.454 M87.344,63.384
		c-0.211,0-0.42,0.022-0.627,0.066c-4.363,0.935-8.049,5.487-8.049,9.942c0,1.527,0.363,2.93,0.715,4.284
		c0.1,0.386,0.197,0.763,0.285,1.136c-4.967,1.56-8.523,5.871-8.523,10.834c0,0.289,0.043,0.576,0.125,0.854
		c0.832,2.8,3.848,5.264,6.725,5.489C78.072,95.997,78.15,96,78.229,96c0.104,0,0.205-0.006,0.307-0.016
		c6.078-0.625,10.023-5,10.09-11.168c0.184-0.041,0.357-0.08,0.5-0.113c0.553-0.125,1.059-0.403,1.459-0.805
		c0.975-0.976,1.051-2.297,1.051-2.681c0-0.36,0-0.967-0.359-1.687c-0.061-0.122-0.129-0.237-0.205-0.35
		c2.848-0.939,4.086-5.422,4.215-7.592c0.018-0.312-0.014-0.624-0.09-0.926c-0.617-2.393-4.719-6.553-7.08-7.182
		C87.863,63.418,87.604,63.384,87.344,63.384L87.344,63.384z"/>
	<path d="M97.25,91.525c-4.018-0.424-6.719-3.822-6.719-8.459c0-5.058,3.207-11.082,7.623-14.323
		c1.787-1.341,3.629-2.054,5.314-2.054c0.242,0,0.482,0.059,0.697,0.172c1.16,0.606,2.125,1.767,2.826,2.838
		c1.715,0.015,3.737,0.996,3.737,5.542c0,7.819-5.473,14.657-13.012,16.259c-0.104,0.021-0.207,0.033-0.312,0.033
		C97.354,91.533,97.303,91.53,97.25,91.525z M104.562,74.066c-1.641,0.86-2.922,2.227-3.771,3.334
		c-1.957,2.596-3.174,6.08-3.174,7.816c0,0.495,0.098,0.975,0.211,1.326c3.971-1.411,6.764-6.111,6.764-11.604
		C104.592,74.596,104.582,74.309,104.562,74.066z"/>
	<path fill="#84ADD9" d="M103.469,68.189c0.904,0.474,1.85,1.547,2.709,3.053c0.258,0,0.516-0.043,0.775-0.043
		c1.547,0,2.277,1.29,2.277,4.042c0,7.182-4.943,13.329-11.824,14.792c-3.268-0.344-5.375-3.096-5.375-6.967
		c0-4.601,2.967-10.146,7.01-13.114C100.588,68.792,102.137,68.189,103.469,68.189 M97.234,88.271
		c5.117-1.119,8.857-6.623,8.857-13.33c0-1.463-0.172-2.279-0.559-2.881c-2.494,0.73-4.516,2.58-5.934,4.429
		c-1.979,2.622-3.482,6.45-3.482,8.729C96.117,86.594,96.676,88.1,97.234,88.271 M103.469,65.189c-2.014,0-4.166,0.815-6.227,2.362
		c-4.824,3.54-8.211,9.929-8.211,15.515c0,5.444,3.24,9.442,8.062,9.949c0.104,0.012,0.209,0.018,0.312,0.018
		c0.209,0,0.418-0.021,0.623-0.065c8.229-1.748,14.201-9.202,14.201-17.727c0-5.362-2.626-6.688-4.399-6.974
		c-0.92-1.267-1.914-2.185-2.969-2.736C104.432,65.307,103.953,65.189,103.469,65.189L103.469,65.189z M99.279,84.035
		c0.379-1.641,1.391-3.982,2.717-5.74c0.293-0.385,0.602-0.742,0.916-1.072C102.449,80.113,101.121,82.572,99.279,84.035
		L99.279,84.035z"/>
	<path d="M112.328,92.18c-0.256,0-0.514-0.065-0.744-0.199c-1.393-0.795-2.277-2.223-2.705-4.361
		c-0.02-0.098-0.029-0.195-0.029-0.294c0-2.509,1.41-7.554,3.352-11.995c1.229-2.823,3.95-8.346,5.438-9.021
		c0.197-0.09,0.41-0.135,0.621-0.135c0.152,0,0.303,0.023,0.451,0.068c1.943,0.611,3.771,2.663,4.547,5.105
		c0.107,0.336,0.092,0.697-0.041,1.022c-0.174,0.424-0.396,0.885-0.652,1.377c2.619-2.562,5.394-4.736,7.863-4.736
		c1.752,0,3.353,1.142,4.385,3.132c0.111,0.213,0.168,0.45,0.168,0.69c0,0.597-0.303,1.078-0.897,1.435
		c-0.146,0.086-0.364,0.217-0.709,0.616c-1.416,1.853-4.11,7.222-4.11,10.247c0,0.021,0,0.044,0,0.064
		c0.071-0.021,0.139-0.045,0.194-0.062c0.396-0.133,0.771-0.257,1.187-0.257c0.272,0,0.543,0.075,0.776,0.216
		c0.813,0.493,1.109,1.554,1.109,2.146c0,0.425-0.181,0.83-0.496,1.113c-0.998,0.901-3.188,2.148-4.701,2.148
		c-2.547,0-5.584-1.051-5.584-6.059c0-0.904,0.123-1.883,0.578-3.377c-2.16,2.168-3.922,4.267-5.902,7.009
		c-1.559,2.2-2.422,3.381-3.36,3.911C112.836,92.114,112.582,92.18,112.328,92.18z"/>
	<path fill="#84ADD9" d="M118.262,67.674c1.504,0.473,2.967,2.235,3.568,4.128c-1.289,3.14-5.805,9.245-6.148,11.867
		c1.807-1.935,4.73-5.547,5.719-6.578c2.193-2.321,6.234-6.579,9.029-6.579c1.463,0,2.494,1.247,3.053,2.322
		c0,0.129-0.473,0.172-1.246,1.074c-1.549,2.021-4.473,7.697-4.473,11.224c0,1.419,0.387,1.677,1.076,1.677
		c0.602,0,1.418-0.431,1.805-0.431c0.215,0.13,0.388,0.603,0.388,0.86c-0.859,0.773-2.71,1.763-3.697,1.763
		c-3.312,0-4.084-2.021-4.084-4.558c0-1.42,0.388-3.183,2.362-7.74c-0.129,0-1.805,0.816-3.481,2.451
		c-2.666,2.58-4.687,4.945-6.922,8.041c-1.248,1.763-2.192,3.096-2.881,3.482c-1.205-0.688-1.722-2.063-1.979-3.354
		c0-2.149,1.289-6.967,3.225-11.396C115.768,70.898,117.789,67.889,118.262,67.674 M118.262,64.674c-0.424,0-0.848,0.09-1.24,0.27
		c-2.172,0.986-5.057,7.175-6.196,9.787c-2.045,4.681-3.475,9.859-3.475,12.595c0,0.196,0.02,0.395,0.059,0.588
		c0.51,2.555,1.666,4.362,3.432,5.371c0.461,0.264,0.976,0.396,1.488,0.396c0.508,0,1.017-0.129,1.476-0.387
		c1.274-0.72,2.301-2.169,3.854-4.363c0.901-1.25,1.762-2.363,2.637-3.412c0.492,5.828,5.027,6.484,7.039,6.484
		c1.996,0,4.539-1.48,5.705-2.534c0.633-0.567,0.992-1.379,0.992-2.229c0-1.154-0.566-2.662-1.834-3.429
		c-0.361-0.219-0.763-0.356-1.179-0.408c0.66-2.633,2.449-6.131,3.547-7.6c0.146-0.164,0.213-0.203,0.285-0.246
		c1.42-0.846,1.631-2.067,1.631-2.723c0-0.48-0.114-0.956-0.338-1.383c-1.301-2.504-3.383-3.939-5.715-3.939
		c-2.012,0-4.033,1.047-6.024,2.598c-1.044-2.537-3.074-4.614-5.242-5.297C118.869,64.72,118.564,64.674,118.262,64.674
		L118.262,64.674z"/>
	<path d="M155.629,93.641c-0.074,0-0.15-0.006-0.229-0.018c-2.396-0.365-4.314-1.775-5.869-4.311
		c-0.213-0.351-0.275-0.772-0.17-1.17c0.93-3.507,2.416-7.929,5.674-16.896c0.801-2.176,1.85-5.078,2.615-7.543
		c-1.75,0.182-3.117,0.268-4.217,0.268c-2.984,0-5.068-1.979-5.068-4.811c0-0.691,0.234-1.682,0.545-2.305
		c0.262-0.525,0.791-0.83,1.344-0.83c0.213,0,0.432,0.045,0.637,0.143c0.117,0.057,0.842,0.331,3.576,0.331
		c3.844,0,9.494-0.53,13.232-0.882c2.258-0.212,3.461-0.322,4.01-0.322c3.826,0,4.529,3.908,4.83,5.576
		c0.084,0.461-0.053,0.934-0.369,1.277c-0.285,0.312-0.688,0.488-1.107,0.488c-0.043,0-0.088-0.002-0.131-0.006
		c-1.438-0.127-2.99-0.209-3.953-0.209c-1.412,0-2.957,0.083-4.602,0.247c-1.498,3.195-3.539,8.671-4.809,12.524
		c-2.379,7.255-3.67,12.232-4.459,17.183C156.99,93.115,156.354,93.641,155.629,93.641z"/>
	<path fill="#84ADD9" d="M171.709,56.795c2.107,0,2.881,1.721,3.354,4.344c-1.461-0.13-3.053-0.216-4.084-0.216
		c-1.807,0-3.699,0.129-5.59,0.345c-1.635,3.269-3.957,9.545-5.246,13.459c-2.494,7.61-3.74,12.556-4.516,17.414
		c-1.977-0.302-3.525-1.505-4.816-3.611c0.947-3.569,2.494-8.127,5.635-16.771c1.203-3.269,2.578-7.138,3.269-9.804
		c-2.407,0.301-4.603,0.516-6.278,0.516c-2.277,0-3.568-1.462-3.568-3.311c0-0.432,0.172-1.204,0.387-1.635
		c0.732,0.345,2.279,0.474,4.215,0.474C160.357,57.999,170.205,56.795,171.709,56.795 M171.709,53.795
		c-0.617,0-1.783,0.107-4.15,0.329c-3.711,0.349-9.317,0.875-13.092,0.875c-2.16,0-2.873-0.179-2.99-0.212
		c-0.396-0.178-0.812-0.262-1.223-0.262c-1.102,0-2.162,0.608-2.686,1.66c-0.414,0.83-0.703,2.053-0.703,2.975
		c0,3.656,2.764,6.311,6.568,6.311c0.623,0,1.311-0.023,2.09-0.076c-0.627,1.859-1.324,3.78-1.894,5.328
		c-3.28,9.027-4.774,13.482-5.719,17.036c-0.211,0.793-0.088,1.638,0.34,2.337c1.772,2.896,4.104,4.58,6.922,5.012
		c0.154,0.022,0.308,0.033,0.457,0.033c1.449,0,2.726-1.053,2.959-2.526c0.777-4.865,2.054-9.777,4.404-16.953
		c1.155-3.513,2.961-8.384,4.385-11.576c1.276-0.106,2.481-0.161,3.601-0.161c0.922,0,2.422,0.079,3.819,0.203
		c0.088,0.008,0.177,0.012,0.265,0.012c0.84,0,1.645-0.352,2.215-0.977c0.631-0.689,0.904-1.637,0.738-2.557
		C177.711,58.921,176.789,53.795,171.709,53.795L171.709,53.795z"/>
	<path d="M167.883,91.662c-0.146,0-0.297-0.021-0.443-0.066c-2.35-0.728-3.594-2.396-3.594-4.83c0-2.393,1.178-9.082,2.334-13.258
		c0.926-3.375,3.16-5.312,6.131-5.312c1.369,0,3.834,0.44,4.392,2.097c0.2,0.597,0.01,1.252-0.479,1.646
		c-1.647,1.332-2.479,3.791-2.998,6.364c0.599-0.676,1.125-1.229,1.59-1.661c1.576-1.464,1.81-2.123,2.232-3.318l0.115-0.356
		c0.359-1.124,0.85-2.662,2.086-3.899c0.193-0.191,0.434-0.327,0.697-0.395c0.352-0.088,0.713-0.088,1.096-0.088
		c1.201,0,4.031,0.211,4.398,2.169c0.08,0.423-0.027,0.86-0.293,1.2c-1.027,1.314-1.994,5.791-2.685,9.486
		c0.539-0.703,1.072-1.443,1.533-2.154c1.979-3.025,2.473-4.812,3.569-10.559c0.041-0.217,0.129-0.42,0.261-0.6
		c1.028-1.42,3.936-1.438,3.965-1.438c0.528,0,1.278,0.09,1.846,0.516c0.414,0.312,0.642,0.814,0.595,1.331
		c-0.588,6.694-3.031,10.297-8.652,16.329l-0.193,0.208c-4.021,4.344-5.955,6.159-7.527,6.159c-2.151,0-3.776-1.827-3.776-4.252
		c0-1.312,0.078-2.32,0.272-3.373c-0.151,0.19-0.309,0.391-0.471,0.599c-1.158,1.543-1.934,2.7-2.686,3.819
		c-0.652,0.972-1.268,1.888-2.105,3.025C168.803,91.441,168.352,91.662,167.883,91.662z"/>
	<path fill="#84ADD9" d="M191.791,68.189c0.43,0,0.773,0.086,0.945,0.215c-0.56,6.363-2.967,9.761-8.256,15.438
		c-2.15,2.321-5.418,5.891-6.623,5.891c-1.332,0-2.277-1.16-2.277-2.752c0-1.676,0.129-2.752,0.473-4.127
		c0.646-2.537,0.816-3.269,0.902-4.215c-0.902,0.43-3.182,3.269-4.256,4.645c-2.193,2.924-3.012,4.429-4.816,6.88
		c-1.807-0.56-2.537-1.72-2.537-3.396c0-2.279,1.16-8.815,2.279-12.857c0.73-2.666,2.365-4.215,4.686-4.215
		c1.248,0,2.752,0.432,2.97,1.076c-3.355,2.709-3.742,8.557-4.388,12.812c1.894-2.493,3.654-4.645,4.945-5.848
		c1.805-1.678,2.15-2.58,2.623-3.913c0.344-1.031,0.73-2.58,1.848-3.697c0.172-0.043,0.433-0.043,0.732-0.043
		c1.117,0,2.795,0.258,2.924,0.944c-1.85,2.365-3.139,11.224-3.914,15.352c0.516-0.215,3.441-3.568,5.203-6.277
		c2.193-3.354,2.709-5.461,3.785-11.094C189.383,68.533,190.801,68.189,191.791,68.189 M191.791,65.189
		c-0.377,0-3.73,0.058-5.18,2.055c-0.258,0.357-0.437,0.767-0.519,1.199c-0.02,0.096-0.036,0.189-0.055,0.283
		c-0.988-1.062-2.713-1.646-4.998-1.646c-0.437,0-0.931,0-1.459,0.133c-0.526,0.132-1.011,0.404-1.396,0.789
		c-0.237,0.237-0.451,0.483-0.646,0.733c-1.166-1.487-3.418-2.043-5.229-2.043c-3.646,0-6.478,2.399-7.578,6.421
		c-1.08,3.897-2.387,10.862-2.387,13.649c0,3.066,1.694,5.35,4.651,6.264c0.291,0.091,0.59,0.134,0.885,0.134
		c0.938,0,1.841-0.438,2.416-1.222c0.856-1.166,1.513-2.14,2.146-3.08c0.096-0.145,0.192-0.289,0.291-0.436
		c0.559,2.533,2.576,4.307,5.123,4.307c2.121,0,4.016-1.657,8.629-6.641l0.195-0.211c5.748-6.17,8.422-10.123,9.043-17.215
		c0.092-1.033-0.357-2.039-1.188-2.662C193.639,65.331,192.549,65.189,191.791,65.189L191.791,65.189z"/>
	<path d="M197.182,91.525c-4.018-0.424-6.719-3.822-6.719-8.459c0-5.058,3.205-11.08,7.621-14.323
		c1.789-1.341,3.631-2.054,5.316-2.054c0.244,0,0.481,0.059,0.697,0.172c1.157,0.606,2.123,1.768,2.825,2.838
		c1.716,0.016,3.738,0.996,3.738,5.542c0,7.819-5.474,14.657-13.013,16.259c-0.104,0.021-0.207,0.033-0.312,0.033
		C197.285,91.533,197.234,91.53,197.182,91.525z M204.494,74.066c-1.641,0.86-2.924,2.227-3.775,3.336
		c-1.955,2.596-3.172,6.08-3.172,7.814c0,0.495,0.098,0.975,0.211,1.327c3.971-1.412,6.766-6.112,6.766-11.604
		C204.523,74.596,204.514,74.309,204.494,74.066z"/>
	<path fill="#84ADD9" d="M203.4,68.189c0.901,0.474,1.848,1.547,2.709,3.053c0.258,0,0.516-0.043,0.772-0.043
		c1.55,0,2.279,1.29,2.279,4.042c0,7.182-4.945,13.329-11.824,14.792c-3.271-0.344-5.375-3.096-5.375-6.967
		c0-4.601,2.968-10.146,7.008-13.114C200.52,68.792,202.066,68.189,203.4,68.189 M197.166,88.271
		c5.115-1.119,8.857-6.623,8.857-13.33c0-1.463-0.172-2.279-0.56-2.881c-2.494,0.73-4.516,2.58-5.937,4.429
		c-1.977,2.622-3.481,6.45-3.481,8.729C196.047,86.594,196.605,88.1,197.166,88.271 M203.4,65.189c-2.012,0-4.166,0.815-6.229,2.36
		c-4.823,3.543-8.209,9.931-8.209,15.517c0,5.444,3.24,9.442,8.062,9.949c0.104,0.012,0.209,0.018,0.312,0.018
		c0.209,0,0.418-0.021,0.625-0.065c8.227-1.749,14.199-9.204,14.199-17.727c0-5.362-2.627-6.688-4.402-6.974
		c-0.92-1.267-1.912-2.183-2.965-2.734C204.365,65.309,203.887,65.189,203.4,65.189L203.4,65.189z M199.209,84.037
		c0.379-1.641,1.391-3.982,2.717-5.743c0.295-0.384,0.602-0.743,0.918-1.071C202.381,80.113,201.053,82.572,199.209,84.037
		L199.209,84.037z"/>
</g>
<g>
	<path fill="#84ADD9" d="M1030.5,991.5c0,5.522-4.478,10-10,10h-762c-5.522,0-10-4.478-10-10v-115c0-5.522,4.478-10,10-10h762
		c5.522,0,10,4.478,10,10V991.5z"/>
</g>
</svg>
