<?xml version="1.0" encoding="utf-8"?>
<!-- Generator: Adobe Illustrator 16.0.0, SVG Export Plug-In . SVG Version: 6.00 Build 0)  -->
<!DOCTYPE svg PUBLIC "-//W3C//DTD SVG 1.1//EN" "http://www.w3.org/Graphics/SVG/1.1/DTD/svg11.dtd">
<svg version="1.1" id="Layer_1" xmlns="http://www.w3.org/2000/svg" xmlns:xlink="http://www.w3.org/1999/xlink" x="0px" y="0px"
	 width="210px" height="200px" viewBox="0 0 210 200" enable-background="new 0 0 210 200" xml:space="preserve">
<g>
	<path fill="#E3F6FF" d="M91.957,194.588c-0.112,0-0.224-0.006-0.337-0.019c-31.637-3.562-54.629-15.102-68.338-34.302
		c-17.913-25.09-14.69-55.38-11.174-71.203c3.685-16.586,14.937-30.855,32.539-41.264c13.134-7.766,25.05-10.648,25.551-10.767
		c0.23-0.055,0.463-0.081,0.693-0.081c1.023,0,1.998,0.525,2.552,1.424c0.679,1.1,0.577,2.512-0.253,3.503
		c-7.758,9.256-13.793,18.797-17.982,28.417c9.852,0.136,22.651,1.907,31.334,9.033l53.47-28.584
		c0.448-0.24,0.933-0.355,1.412-0.355c0.944,0,1.867,0.446,2.447,1.263c0.875,1.231,0.698,2.92-0.413,3.944L97.587,97.855
		c1.469,5.81,1.85,11.653,2.189,16.866c0.243,3.732,0.453,6.956,1.012,9.413c2.097,9.224,2.769,9.45,3.545,9.712
		c2.126,0.715,5.389,3.639,4.121,10.058c-1.108,5.603-8.182,15.608-18.329,15.608c0,0,0,0,0,0c-2.748,0-5.491-0.751-8.151-2.232
		c-3.528-1.964-8.546-4.104-13.859-6.37c-2.92-1.245-5.892-2.513-8.823-3.833c13.449,25.604,34.272,41.963,34.501,42.141
		c1.062,0.824,1.446,2.254,0.939,3.5C94.27,193.857,93.165,194.588,91.957,194.588z M69.181,124.238
		c2.808,1.142,5.575,2.146,7.646,2.868c0.056-2.902-0.474-7.278-3.393-11.355C72.176,118.749,70.584,121.771,69.181,124.238z
		 M58.788,105.381c-1.653,6.455-1.715,11.677-0.551,13.004c0.173,0.197,0.559,0.571,1.363,1.124
		c0.446-4.356,1.747-8.635,2.946-11.845C61.348,106.99,60.032,106.207,58.788,105.381z"/>
	<path fill="#0B0B57" d="M70.891,39.953C61.315,51.378,54.822,62.562,50.726,73.35c0.942-0.036,2.021-0.061,3.209-0.061
		c8.716,0,23.263,1.338,31.884,9.394c0.1,0.093,0.187,0.19,0.286,0.284l55.321-29.574L94.212,96.885
		c3.009,10.21,2.137,21.264,3.651,27.916c2.28,10.027,3.201,11.109,5.512,11.889c0,0,3.232,1.087,2.136,6.634
		c-0.877,4.435-6.991,13.189-15.386,13.189c-2.103,0-4.349-0.549-6.692-1.854c-7.314-4.071-20.116-8.584-30.518-13.963
		c13.394,31.021,39.039,50.892,39.039,50.892c-76.632-8.625-85.481-63.336-76.919-101.872
		C23.597,51.181,70.891,39.953,70.891,39.953 M62.538,124.586c-0.66-6.637,2.133-14.398,3.784-18.29
		c-1.721-0.896-6.958-3.717-9.151-5.99c0,0-5.245,15.43-1.189,20.056C57.16,121.705,59.63,123.176,62.538,124.586 M79.382,131.132
		c0,0,3.06-12.401-7.142-21.053c-1.352,5.242-5.194,12.001-7.38,15.585C71.591,128.655,79.382,131.132,79.382,131.132
		 M141.426,53.392h0.005 M70.891,33.953c-0.46,0-0.925,0.053-1.386,0.163c-0.519,0.124-12.864,3.109-26.385,11.104
		C24.785,56.061,13.048,70.997,9.179,88.415c-3.624,16.31-6.928,47.559,11.662,73.596c14.224,19.922,37.924,31.88,70.444,35.539
		c0.226,0.025,0.451,0.038,0.674,0.038c2.418,0,4.63-1.462,5.557-3.743c1.011-2.492,0.241-5.353-1.885-7
		c-0.195-0.152-16.41-12.915-29.219-33.399c0.176,0.074,0.352,0.149,0.528,0.225c5.238,2.234,10.186,4.344,13.577,6.231
		c3.111,1.733,6.345,2.611,9.61,2.611c11.4,0,19.814-10.658,21.271-18.025c0.975-4.931-0.342-8.152-1.616-9.986
		c-1.342-1.929-2.974-2.869-3.959-3.293c-0.362-0.867-1.012-2.916-2.108-7.737c-0.507-2.227-0.719-5.489-0.944-8.943
		c-0.314-4.832-0.663-10.189-1.86-15.653l44.51-41.003c1.232-1.099,2.01-2.698,2.01-4.479c0-3.214-2.526-5.838-5.702-5.993
		c-0.102-0.005-0.203-0.008-0.305-0.008c-0.346,0-0.693,0.03-1.039,0.091c-0.674,0.118-1.309,0.349-1.886,0.671L86.828,75.776
		c-5.27-3.77-13.725-7.454-27.004-8.304c3.932-7.995,9.178-15.924,15.666-23.665c1.661-1.982,1.865-4.806,0.507-7.006
		C74.886,35.004,72.938,33.953,70.891,33.953L70.891,33.953z"/>
</g>
</svg>
