<?xml version="1.0" encoding="utf-8"?>
<!-- Generator: Adobe Illustrator 16.0.0, SVG Export Plug-In . SVG Version: 6.00 Build 0)  -->
<!DOCTYPE svg PUBLIC "-//W3C//DTD SVG 1.1//EN" "http://www.w3.org/Graphics/SVG/1.1/DTD/svg11.dtd">
<svg version="1.1" id="Layer_1" xmlns="http://www.w3.org/2000/svg" xmlns:xlink="http://www.w3.org/1999/xlink" x="0px" y="0px"
	 width="210px" height="200px" viewBox="0 0 210 200" enable-background="new 0 0 210 200" xml:space="preserve">
<g>
	<path fill="#C5E894" d="M151.212,95.512c-5.907-4.915-11.036-6.63-14.778-7.082c-2.806-4.471-6.535-8.63-11.125-12.4
		C108.583,62.292,84.53,57.827,76.025,56.633c-4.341-3.128-13.768-7.66-32.248-8.131C14.516,47.753,3.774,66.753,3.625,79.43
		c-0.084,7.186,3.204,12.733,9.072,15.764c-0.771,2.884-1.301,6.574-1.196,11.192c0.176,7.814,2.628,15.101,7.142,21.339
		c-0.42,1.19-0.549,2.452-0.358,3.729c0.715,4.77,4.963,8.541,10.57,9.387c1.743,0.266,3.567,0.157,5.039-0.15
		c0.837,0.449,1.66,0.863,2.481,1.248c5.943,2.777,13.995,5.295,22.474,7.049c1.785,2.918,5.011,4.723,8.458,4.723
		c2.541,0,4.823-0.934,6.51-2.514c8.288,0.717,16.14,0.525,23.189-0.536c-5.761,9.862-5.392,22.786,0.993,32.409
		c4.436,6.687,12.446,10.841,20.905,10.841c3.688,0,7.104-0.796,9.875-2.302c5.356-2.907,9.097-7.666,10.003-12.727
		c0.067-0.382,0.12-0.765,0.155-1.146c16.397-1.203,28.668-14.776,31.261-34.58C172.016,129.27,167.982,109.463,151.212,95.512z"/>
	<polygon fill="#FFE5AC" points="161.25,121.417 156.167,110.834 151.167,104.75 143.5,98 137.584,95 132.167,94.833 
		134.167,98.417 136.251,99 140.501,100.625 145.042,103.958 149.084,108.417 152.334,113.625 154.459,119.125 155.417,124.834 
		154.75,131.334 153.417,135.334 150.75,139.75 148.167,142.75 143.917,145.5 139.167,146.417 135.805,145.882 131.584,143.334 
		129.75,140.334 126.75,142.417 120.5,143.334 115.084,144.667 108.167,148.167 103.75,152.084 101,157.334 99.333,164.834 
		100.167,171.084 102.583,177.084 102.583,174.001 104.583,166.251 109.25,159.084 114.917,154.084 122.417,150.667 
		128.375,148.688 129.436,148.562 129.5,149.084 125.812,151.812 122.625,156.5 121.812,160.125 124.562,166 129,169.312 
		135.938,171.188 142.375,170.75 150.062,167.062 156.312,161 161,153.375 163.833,143.417 164.167,133 	"/>
	<polygon fill="#EDC365" points="129.5,149.084 124.083,154.084 122.167,158.751 123.333,164.917 126.583,167.667 130.667,171.667 
		132.167,176.751 130.667,181.334 126.083,185.334 120.5,187.584 114.417,186.917 107.667,183.667 102.5,178.251 103.083,173.167 
		104.917,165.251 108.417,159.417 113.25,155.417 119.167,151.917 125.917,149.417 129.667,148.584 	"/>
	<polygon fill="#EDC365" points="135.25,104.562 138.062,106.562 139.688,110.625 140.688,115.438 139.5,120.875 136.812,124.938 
		132.562,129.25 130,134.312 130,140.75 132.188,143.75 136.438,146.25 142.438,146.188 147.25,143.375 149.812,140.75 
		152.188,137.75 154.5,132.75 155.125,128.188 155.312,123.688 154.375,118.625 152.375,113.812 150.5,110.312 146.438,105.312 
		142.062,101.562 137.688,99.438 133.875,98.75 	"/>
	<polygon fill="#DDD2E4" points="133,95.5 126.417,86.5 118.25,79.75 104,71.5 88.833,66.25 75.5,63.75 83.25,68.417 90.583,74.667 
		95.75,82.583 99.125,92.875 99.25,99.375 98.375,105.75 95,113.5 88.875,119.438 81.333,123.417 72.667,122.333 68.75,118.167 
		66.083,111.417 66.417,105.167 68.75,102.083 71.583,100.583 75.75,100.25 75.417,95.083 74,89.833 71.875,87.438 74.312,81.688 
		73.438,79.188 69.188,81.75 65.917,88.083 63.75,92.438 58.75,94.625 53,94.562 48.125,91.938 45.25,86.5 43.875,78.688 44.812,74 
		40.875,70 34.375,63.562 33,58.333 25.5,61.167 21.5,91.833 19.333,98.667 18.917,111.417 22.917,122.167 27.814,127.866 
		25.781,129.125 25.281,131.562 27.938,133.25 31.562,134.031 35.036,132.516 40.833,136.167 49.75,139.333 74.5,144 99,142.875 
		116.5,136.875 119.531,134.109 121.417,136.083 124.583,137.375 126.875,136.542 127.125,134.333 125.625,131 124.327,129.736 
		127.875,126.5 133.75,116.875 135.125,107 	"/>
	<polygon fill="#FFE5AC" points="70.75,61.688 62.25,60.75 55.25,62.562 47.688,69.375 44.812,74 41.812,70.375 31.688,61.75 
		32.5,67.625 35.875,79 34.875,79.875 35.062,84.062 31.688,89.75 24.312,91.188 15.5,89.375 11.125,85.125 10.25,77.188 
		12.375,70.5 16.917,64.833 24,58.833 31.5,56.5 40.417,54.917 49.833,55.417 62.75,57.583 69.25,60.083 	"/>
	<polygon fill="#EDC365" points="70.562,80.5 67.125,85.375 65.562,89.688 62.688,93.062 57.438,94.875 53.938,95 49,92.625 
		45.938,88.25 44.062,80.5 44.938,74.25 47.062,69.75 52.938,63.562 61.5,60.583 68.25,61 73.167,62.75 78.417,65.5 84.25,69.167 
		90,74.917 94.5,80.833 97.917,88.667 99.5,95.083 98.625,104.25 95.875,111.5 90.562,118.312 83.5,122.688 74.625,122.938 
		69.188,118.938 66.062,111.875 66.875,104.5 69.688,101.312 73.688,100.188 77.5,101.625 78.938,103.188 79.688,105.75 
		79.797,109.656 82.359,109.031 85,107.125 86.458,105.167 87.292,103 87.583,99.083 86.875,94.75 83.875,89.25 80.625,86.417 
		76.625,83.833 74.417,82.792 74.208,79.792 72.333,79.417 	"/>
	<path fill="#FFE5AC" d="M74.062,82.875l-2.188,4.562L74.75,91c0,0,1,6,1.062,6.188s0,3.438,0,3.438l2.75,2.25l0.875,2.5l0.438,4.5
		l3.672-1.405l2.203-2.188l1.5-3.048l0.297-2.375l-0.067-3.442l-1.354-4.5l-2.917-4.062l-3.104-2.812l-4.042-2.604L74.062,82.875z"
		/>
	<path fill="#3F3645" d="M21.18,90.958c0,0-3.93,4.208-3.68,15.292s6.083,23.083,21.417,30.25s56.458,16.625,80.333-0.625
		S140.166,96,121.5,80.667c-18.667-15.333-48.375-18.354-48.375-18.354l2.094,1.844c0,0,23.798,2.321,44.948,18.01
		C140.5,97.25,137.5,120.25,118,133.833c-17.048,11.875-51.095,12.166-79,0.334c-14.25-6.042-19.206-19.097-19.458-27.875
		C19.25,96.125,22.875,91,22.875,91L21.18,90.958z"/>
	<polygon fill="#DDD2E4" points="63.938,137.562 63.5,141.438 64.938,145.875 68.188,146.688 70,143.75 70.5,136.125 	"/>
	<polygon fill="#B4304E" points="40.417,120.384 38.208,116.25 37.458,112.594 39.542,111.529 41.976,111.209 44.292,112.417 
		46.375,112.834 46.083,115.584 45.375,120.125 	"/>
	<path fill="#E48097" d="M40.583,120.384c0.188-1.528,1.333-1.758,1.688-2.592s1.542-0.5,1.75,0.271
		c0.208,0.771,0.292,1.209,1.354,1.459l-1.188,2.459l-2.308-0.125L40.583,120.384z"/>
	<path fill="#3F3645" d="M35.562,109.562c0.53-0.102,0.884,2.539,1.808,2.481c0.724-0.045,1.942-1.606,4.286-1.356
		c2.344,0.25,2.75,2,4.406,1.812c1.656-0.188,1.781-2.812,2.344-2.72c0.563,0.094-0.156,3.722-2.219,3.72
		c-2.407-0.002-2.812-1.722-4.75-1.892c-1.938-0.172-3.469,1.672-4.469,1.517C35.968,112.968,34.906,109.688,35.562,109.562z"/>
	<path fill="#3F3645" d="M37.062,112.812c0,0,1.562,9.438,5.781,9.875c4.219,0.437,3.844-9.47,3.844-9.47l-0.844-0.094
		c0,0,0.159,8.688-2.812,8.719c-3.094,0.031-5.188-9.25-5.188-9.25L37.062,112.812z"/>
	<path fill="#3F3645" d="M47.188,97.5c1.163-0.445,0.625,6.438,8.375,6.438s8.75-4.875,9.875-4.312s-2.188,7.906-9.906,7.345
		C47.814,106.408,46.125,97.906,47.188,97.5z"/>
	<path fill="#3F3645" d="M21.312,98.979c0.489-0.296,4.063,4.667,8.646,3.292s4.74-5.479,5.401-5.417
		c0.661,0.062,1.52,6.311-5.964,7.812C23.271,105.896,20.521,99.459,21.312,98.979z"/>
	<path fill="#3F3645" d="M23.375,105.469c0.312,0.188-1.734,2.281-2.195,2.031S22.906,105.188,23.375,105.469z"/>
	<path fill="#3F3645" d="M25.609,106.234c0.287,0.111-3.094,2.75-3.531,2.422S24.969,105.984,25.609,106.234z"/>
	<path fill="#3F3645" d="M27.672,107.016c0.125,0.094-2.5,2.892-3.016,2.359C24.14,108.843,27.547,106.922,27.672,107.016z"/>
	<path fill="#3F3645" d="M62.221,108.898c0.312,0.209-3.289,4.19-3.929,3.58C57.854,112.062,62.072,108.8,62.221,108.898z"/>
	<path fill="#3F3645" d="M58.594,109.953c0.219,0.219-2.922,3.156-3.406,2.734S58.375,109.734,58.594,109.953z"/>
	<path fill="#3F3645" d="M55.812,109.939c0.124,0.07-2.188,2.748-2.578,2.231C52.844,111.654,55.625,109.832,55.812,109.939z"/>
	<path fill="#3F3645" d="M26.812,127.344c0,0-2.875,1.344-2.594,3.219c0.281,1.875,2.219,3.845,5.531,4.345s5.781-1.25,5.781-1.25
		L34,132.562c0,0-1.801,1.188-4.135,0.719c-2.334-0.469-3.803-1.781-3.865-2.719c-0.062-0.938,2-2.062,2-2.062L26.812,127.344z"/>
	<path fill="#CCA750" d="M122.469,96.812c1.275-0.142,0.281,3.906,2.531,6.125c2.25,2.219,4.031,1.469,4.062,2.625
		c0.03,1.155-2.125,0.905-3.297,2.28c-1.173,1.375-1.642,6.22-3.078,6.125c-1.438-0.094,0.062-1.969-1.625-5.155
		c-1.688-3.188-4.25-2.625-4.531-3.845c-0.281-1.219,3.25-0.03,4.438-2.125C122.157,100.749,121.344,96.938,122.469,96.812z"/>
	<path fill="#3F3645" d="M65.062,144.625c0.853,1.581,3.844,2.094,3.875-1c0.031-3.094,1.828-3.6,1.844,0.469
		c0.017,4.156-5.062,4.73-6.844,1.709c-1.782-3.021-0.85-7.646-0.156-7.521C64.812,138.469,63.562,141.844,65.062,144.625z"/>
	<path fill="#3F3645" d="M35.417,81.333c0,0,0.75-0.917,1.667-1.667c0,0-5.334-15.417-4.667-16.167s12.167,11.25,12.167,11.25
		l0.583-1.333c0,0-12.53-13.801-14.25-12.75c-1.5,0.917,4.667,18.917,4.667,18.917l-0.417,0.833L35.417,81.333z"/>
	<path fill="#3F3645" d="M66.083,86.333c0,0,3.416-9.083,7.583-7.75s-0.75,8.917-0.75,8.917s4.833,3.834,3.333,13.167l-1.083-0.167
		c0.625-11.542-4.5-12.333-4.5-12.333s4.583-7.698,2.083-7.698c-3.156,0-5.302,7.323-5.969,7.656s-0.865-0.042-0.865-0.042
		L66.083,86.333z"/>
	<path fill="#3F3645" d="M119,135.219c0,0,3.281,3.688,7.062,2.562c3.78-1.127,0.625-7.031-0.47-7.719l-1.094,1
		c1.938,1.905,2.375,5.405,0.188,5.312c-2.188-0.095-4.188-2.125-4.188-2.125L119,135.219z"/>
	<path fill="#3F3645" d="M58,86.708c0-0.419-3.583,0.208-2.375-4.042s8.125-2.75,9.75,1.792S62.5,95.667,53.458,94
		S41,75.25,50.25,67.083s18.35-8.022,32.083,1.583C96.75,78.75,105.625,99.125,92.125,115.5c-10.368,12.575-25.5,7.125-25.5-6.625
		c0-9.125,9.625-10.188,11.812-4.875c2.187,5.312-0.688,8.75-3.125,7.75s-2.562-3.5-3.312-3s1,3.125,3,3.938
		c2,0.813,7.438-1.375,4.938-8.688c-2.5-7.313-15.562-5.375-14.562,6.125s13.188,21.5,27.375,6.438
		c14.187-15.062,5.917-39.396-11.25-50.229S55.125,60.375,48,67.5c-7.008,7.008-6.167,21.333,2.083,26.333s18.25-1.75,16.583-8.333
		s-9.917-8.375-11.833-3.75C52.646,87.027,58,87.5,58,86.708z"/>
	<path fill="#3F3645" d="M74.271,83.061c0,0,11.138,4.382,12.831,14.789c1.692,10.406-7.209,11.589-7.209,11.589l-0.313,0.623
		c0,0,9.421-0.688,8.338-11.589C86.806,87.3,74.5,82.417,74.5,82.417L74.271,83.061z"/>
	<path fill="#3F3645" d="M74.417,63.167c0,0-6.292-8.042-30.792-8.667s-33.875,14.375-34,25c-0.125,10.688,10,13.25,18.938,11.938
		s9.938-15.75,1.562-18.375s-10.438,3-10.25,7.188s6.562,4.812,6.562,3.812s-6,0.062-5.281-5.438
		c0.719-5.5,7.406-6.156,10.906-2.781s4.562,15.24-8.312,14.573s-13.083-8.25-12.583-14.083s9.079-20.86,31.417-20.583
		C62.75,56,70.833,62,70.833,62L74.417,63.167z"/>
	<path fill="#3F3645" d="M135.709,105.667c0,0,4.249,3.001,4.249,9.084s-2.958,8.874-7.271,13.562
		c-4.313,4.688-5.438,13.125,0.438,16.875s17.721,1.623,15-7.188c-2.625-8.5-12.58-3.708-12.062,1.125
		c0.375,3.5,4.979,2.709,4.938,2.084s-3.5,0.197-3.655-2.334c-0.254-4.102,7.35-6.85,9.594-0.906
		c2.521,6.678-6.594,10.281-13.104,6.198c-6.276-3.937-3.399-13.017,1.042-16.729c4.188-3.5,6.434-8.342,6.375-13.021
		C141.167,107.834,135.5,104,135.5,104L135.709,105.667z"/>
	<path fill="#3F3645" d="M129.834,139.75c0,0-1.917,2.499-7.417,2.833S107,145.917,102.5,153.167s-5.084,18.167,0.5,26.583
		s17.084,9.751,22.917,6.584s9.667-9.751,5-15.084s-8.249-5.707-13.083-3.749s-5.834,7.083-1.917,8.833s7.251-1.042,6.917-1.75
		s-3.209,2.667-6.334,0.667s-1.5-5.5,2.042-6.875s7.646-1.251,10.958,3.187c3.312,4.438,3.084,8.188-3.166,12.854
		s-17.917,1.584-22.167-5.333s-5.501-14.251-1.917-23.167s15.667-11.833,20.417-12.083S130,140.75,130,140.75L129.834,139.75z"/>
	<path fill="#3F3645" d="M132.625,95.344c0,0,4.875-1.344,12.375,4.594s21,21.812,18,42.438s-16.625,28.25-25.5,28.25
		c-11.628,0-19.312-10-12-17.5s11.75-4.812,14.875-0.438c3.125,4.375-1.812,9-4.062,8.812s-3.312-3.312-3.875-2.5
		c-0.562,0.812,1.5,3.75,3.875,3.938c2.375,0.188,9.5-5.375,5.188-10.75s-8.812-8.25-16.938,0.188
		c-8.125,8.438,0.287,20.377,13.938,19.375c13.625-1,23.543-12.511,25.75-29.375c1.75-13.375-2.75-30.5-16.875-42.25
		c-8.995-7.483-15.03-5.625-15.03-5.625L132.625,95.344z"/>
	<path fill="#3F3645" d="M134.417,99.083c0,0,6.756-0.34,14.75,10.083c8.5,11.083,6.5,23.917,1.75,29.75s-4.75,7-19.167,9
		s-31.417,11.25-29.167,29.917l1.229,1.416c-2.729-22.083,17.903-29.449,29.312-30.958c11.188-1.479,13.562-2.104,18.5-9.292
		s6.381-18.692-1.874-30.25c-7.5-10.5-15.584-10.333-15.584-10.333L134.417,99.083z"/>
</g>
</svg>
