<?xml version="1.0" encoding="utf-8"?>
<!-- Generator: Adobe Illustrator 16.0.0, SVG Export Plug-In . SVG Version: 6.00 Build 0)  -->
<!DOCTYPE svg PUBLIC "-//W3C//DTD SVG 1.1//EN" "http://www.w3.org/Graphics/SVG/1.1/DTD/svg11.dtd">
<svg version="1.1" id="Layer_1" xmlns="http://www.w3.org/2000/svg" xmlns:xlink="http://www.w3.org/1999/xlink" x="0px" y="0px"
	 width="210px" height="200px" viewBox="0 0 210 200" enable-background="new 0 0 210 200" xml:space="preserve">
<g>
	<polygon fill="#C399DB" points="138.08,36.307 134.833,59.677 154.129,70.372 131.863,76.136 126.198,96.15 100.943,76.046 
		106.377,47.275 	"/>
	<path fill="#231F20" d="M43.386,183.253c-0.192-0.786-0.06-1.617,0.37-2.304l59.568-95.248l-19.635-0.028
		c-1.142-0.002-2.184-0.651-2.688-1.676c-0.092-0.186-0.162-0.377-0.212-0.572c-0.229-0.884-0.045-1.838,0.524-2.58L97.55,59.721
		L89.354,34.37c-0.018-0.058-0.035-0.115-0.049-0.172c-0.269-1.039,0.037-2.148,0.813-2.903c0.819-0.796,2.019-1.058,3.095-0.676
		l25.107,8.914l21.576-15.628c0.926-0.67,2.149-0.756,3.16-0.224c0.759,0.4,1.296,1.097,1.504,1.901
		c0.069,0.269,0.103,0.548,0.095,0.833l-0.719,26.634l21.531,15.69c0.572,0.417,0.967,1.013,1.138,1.672
		c0.104,0.406,0.126,0.835,0.052,1.264c-0.194,1.125-1.011,2.042-2.106,2.365l-25.551,7.547l-8.271,25.324
		c-0.354,1.086-1.293,1.876-2.424,2.038c-1.131,0.163-2.255-0.33-2.901-1.271L114.56,91.874l-54.678,98.572
		c-0.393,0.707-1.055,1.225-1.834,1.438c-0.78,0.213-1.614,0.102-2.312-0.309l-10.957-6.45c-0.687-0.403-1.183-1.064-1.382-1.834
		C43.393,183.279,43.39,183.266,43.386,183.253z M112.503,61.773c0.227,0.875,0.047,1.813-0.499,2.544l-6.465,8.668l10.812-0.141
		c0.987-0.012,1.918,0.461,2.488,1.267l6.248,8.828l3.207-10.329c0.293-0.943,1.031-1.681,1.973-1.975l10.326-3.215l-8.831-6.24
		c-0.587-0.415-0.998-1.02-1.173-1.699c-0.066-0.254-0.099-0.519-0.096-0.788l0.134-10.814l-8.664,6.472
		c-0.792,0.59-1.822,0.754-2.758,0.438l-10.243-3.47l3.477,10.241C112.463,61.63,112.484,61.701,112.503,61.773z"/>
	<path fill="#C399DB" d="M163.7,71.165l-27.064,7.993l-8.759,26.825L114.29,86.177L57.257,188.991l-5.189-3.056l-0.45-0.265
		l-5.317-3.13l62.433-99.832l-25.04-0.036l17.195-22.375l-8.68-26.852l26.592,9.441l22.854-16.553l-0.762,28.21L163.7,71.165
		 M133.493,58.73l0.21-16.892l-13.535,10.109l-16.001-5.421l5.432,15.997l-10.1,13.542l16.892-0.221l9.76,13.79l5.009-16.134
		l16.13-5.021L133.493,58.73 M169.509,69.662c-0.343-1.322-1.131-2.513-2.274-3.347l-20.258-14.761l0.677-25.057
		c0.016-0.57-0.051-1.13-0.188-1.665c-0.417-1.611-1.493-3.004-3.009-3.804c-2.021-1.066-4.47-0.892-6.32,0.448l-20.3,14.702
		l-23.621-8.386c-2.152-0.765-4.551-0.24-6.189,1.352c-1.552,1.508-2.164,3.728-1.626,5.805c0.03,0.115,0.062,0.229,0.099,0.343
		l7.712,23.85L78.936,79.017c-1.14,1.483-1.509,3.391-1.051,5.16c0.101,0.389,0.242,0.773,0.423,1.144
		c1.009,2.049,3.092,3.349,5.376,3.353l14.229,0.021l-56.701,90.665c-0.858,1.372-1.126,3.035-0.741,4.608
		c0.006,0.024,0.013,0.051,0.02,0.077c0.398,1.539,1.392,2.858,2.764,3.667l5.318,3.13l0.451,0.265l5.189,3.056
		c1.395,0.82,3.062,1.043,4.623,0.618c1.56-0.426,2.883-1.464,3.668-2.878l52.326-94.329l8.1,11.804
		c1.292,1.885,3.542,2.87,5.802,2.545c2.261-0.325,4.142-1.905,4.85-4.076l7.779-23.827l24.039-7.099
		c2.189-0.647,3.823-2.481,4.213-4.732C169.76,71.332,169.719,70.472,169.509,69.662L169.509,69.662z M127.686,60.234
		c0.351,1.357,1.173,2.567,2.346,3.396l3.867,2.732l-4.521,1.408c-1.886,0.587-3.361,2.064-3.947,3.95l-1.404,4.524l-2.736-3.867
		c-1.141-1.612-3.002-2.559-4.977-2.534l-4.735,0.063l2.832-3.796c1.091-1.463,1.452-3.337,0.998-5.09
		c-0.037-0.143-0.079-0.285-0.127-0.426l-1.522-4.484l4.485,1.52c1.871,0.633,3.934,0.306,5.516-0.876l3.794-2.834l-0.059,4.736
		C127.487,59.195,127.553,59.725,127.686,60.234L127.686,60.234z"/>
</g>
</svg>
