<?xml version="1.0" encoding="utf-8"?>
<!-- Generator: Adobe Illustrator 16.0.0, SVG Export Plug-In . SVG Version: 6.00 Build 0)  -->
<!DOCTYPE svg PUBLIC "-//W3C//DTD SVG 1.1//EN" "http://www.w3.org/Graphics/SVG/1.1/DTD/svg11.dtd">
<svg version="1.1" id="Layer_1" xmlns="http://www.w3.org/2000/svg" xmlns:xlink="http://www.w3.org/1999/xlink" x="0px" y="0px"
	 width="130px" height="100px" viewBox="0 0 130 100" enable-background="new 0 0 130 100" xml:space="preserve">
<g>
	<g>
		<path d="M12.65,93.5c-2.393-0.71-4.729-1.615-4.729-4.147c0-2.501,2.732-7.994,4.71-11.643c-0.364-0.009-0.679-0.014-0.931-0.014
			H9.487l0.821-2.056c0.519-1.3,2.014-2.107,5.103-2.729c4.377-7.096,9.843-13.059,14.532-15.87l0.077-1.342l1.418-0.054
			c1.467,0,7.056,1.824,7.594,3.766l0.167,0.602l-0.31,0.543c-1.966,3.44-3.793,10.469-4.889,18.802
			c-0.334,2.525-0.504,5.425-0.504,8.619c0,1.246,0,2.535,0.083,3.907l0.07,1.149l-1.093,0.364c-0.36,0.12-0.584,0.12-0.99,0.12
			c-1.521,0-5.577-1.094-6.289-2.818l-0.096-0.232l-0.015-0.252c-0.045-0.776-0.045-1.528-0.045-2.324
			c0-3.224,0.216-6.48,0.645-9.702c-1.768-0.098-4.278-0.203-6.562-0.288c-1.304,2.475-2.269,4.656-2.943,6.646
			c-0.915,2.618-1.528,5.392-1.688,7.621L14.44,94.03L12.65,93.5z M28.276,65.637c-1.712,1.531-3.667,3.814-5.529,6.482
			c1.277-0.07,2.628-0.121,4.047-0.152c0.377-1.904,0.848-3.921,1.43-6.129C28.241,65.775,28.258,65.708,28.276,65.637z"/>
		<path fill="#FFB8CA" d="M31.438,57.146c1.591,0,5.934,1.893,6.148,2.666c-1.892,3.311-3.869,10.19-5.073,19.351
			c-0.302,2.279-0.517,5.203-0.517,8.814c0,1.246,0,2.58,0.086,3.998c-0.129,0.043-0.172,0.043-0.516,0.043
			c-1.591,0-4.601-1.16-4.902-1.891c-0.043-0.732-0.043-1.463-0.043-2.236c0-3.525,0.259-7.225,0.86-11.094
			c-1.591-0.129-5.547-0.301-9.159-0.43c-1.376,2.537-2.623,5.16-3.482,7.697c-0.946,2.709-1.591,5.59-1.763,7.996
			c-2.752-0.816-3.655-1.504-3.655-2.709c0-1.848,2.149-6.793,5.719-13.07c-1.462-0.043-2.709-0.086-3.439-0.086
			c0.344-0.861,2.021-1.463,4.644-1.936c4.515-7.481,10.319-13.761,15.007-16.296C31.395,57.576,31.438,57.275,31.438,57.146
			 M30.534,62.35c-2.881,1.076-7.138,5.72-10.707,11.481c2.408-0.215,5.16-0.344,8.213-0.387c0.431-2.365,0.989-4.773,1.635-7.224
			C29.89,65.402,30.233,63.898,30.534,62.35 M31.438,54.146h-3v2.07c-4.588,3.008-9.75,8.674-13.961,15.357
			c-2.508,0.561-4.747,1.469-5.562,3.51l-1.641,4.112h2.871c-2.003,3.893-3.723,7.894-3.723,10.156c0,3.864,3.919,5.026,5.802,5.585
			L15.804,96l0.266-3.725c0.15-2.104,0.734-4.735,1.603-7.221c0.58-1.71,1.376-3.556,2.426-5.618
			c1.478,0.057,2.834,0.115,3.984,0.17c-0.306,2.758-0.461,5.533-0.461,8.285c0,0.818,0,1.592,0.048,2.412l0.029,0.504l0.192,0.466
			c1.161,2.809,6.378,3.745,7.675,3.745c0.449,0,0.874,0,1.464-0.197l2.186-0.728l-0.14-2.3c-0.08-1.327-0.08-2.593-0.08-3.816
			c0-3.128,0.165-5.962,0.49-8.421c1.262-9.599,3.258-15.723,4.704-18.256l0.62-1.085l-0.334-1.205
			C39.634,55.975,33.029,54.146,31.438,54.146L31.438,54.146z"/>
	</g>
	<g>
		<path d="M44.123,91.843c-1.392,0-3.841-0.619-4.425-2.079c-0.655-0.228-1.206-0.824-1.518-1.675
			c-0.054-0.057-0.189-0.186-0.493-0.408c-0.409-0.293-0.959-0.853-1.203-1.395c-0.258-0.535-0.312-1.088-0.312-1.748
			c0-10.121,8.194-30.158,14.668-32.94l0.506-0.217l0.526,0.162c1.396,0.429,3.981,2.036,4.853,3.018l1.043,1.175l-1.222,0.987
			c-4.001,3.234-7.328,7.781-9.946,13.578c2.072-2.169,4.219-3.731,5.95-3.731h0.188l0.183,0.047
			c2.457,0.628,4.563,3.093,4.901,5.733l0.014,0.113l-0.002,0.112C57.625,81.509,49.358,91.843,44.123,91.843z M50.387,73.423
			c-2.45,2.815-6.21,8.712-7.828,12.561C45.982,82.778,49.026,77.904,50.387,73.423z"/>
		<path fill="#FFB8CA" d="M51.433,52.977c1.118,0.344,3.483,1.805,4.171,2.58c-6.277,5.074-10.921,13.157-13.846,23.993
			c3.226-5.977,8.385-11.48,10.793-11.48c1.85,0.473,3.526,2.451,3.784,4.471c-0.172,7.311-7.396,17.803-12.212,17.803
			c-1.333,0-3.053-0.688-3.053-1.248c5.332-3.568,10.405-11.566,11.395-18.016c0-0.301-0.258-0.602-0.559-0.688
			c-2.408,0.086-11.18,13.674-11.61,17.973c-0.258,0-0.559-0.344-0.73-0.859c-0.086-0.258-0.344-0.559-0.989-1.033
			c-0.301-0.215-0.645-0.602-0.73-0.816c-0.13-0.258-0.173-0.559-0.173-1.117C37.673,74.304,45.929,55.342,51.433,52.977
			 M51.261,49.785l-1.013,0.435c-4.539,1.95-8.533,9.853-10.51,14.388c-3.172,7.279-5.065,14.73-5.065,19.931
			c0,0.745,0.056,1.548,0.449,2.377c0.496,1.092,1.506,1.852,1.71,1.998c0.036,0.026,0.067,0.05,0.096,0.071
			c0.391,0.859,0.976,1.521,1.679,1.928c1.085,1.664,3.6,2.431,5.517,2.431c6.968,0,15.015-12.357,15.211-20.732l0.006-0.226
			l-0.029-0.225c-0.41-3.218-2.997-6.226-6.017-6.998l-0.366-0.093h-0.377c-0.517,0-1.05,0.099-1.595,0.28
			c1.914-2.997,4.095-5.489,6.533-7.461l2.443-1.975l-2.086-2.35c-1.134-1.277-4.038-2.996-5.532-3.456L51.261,49.785L51.261,49.785
			z"/>
	</g>
	<g>
		<path d="M62.326,91.792c-4.018-0.423-6.718-3.822-6.718-8.459c0-5.057,3.205-11.081,7.621-14.324
			c1.787-1.34,3.63-2.053,5.316-2.053h0.369l0.326,0.171c1.161,0.607,2.126,1.768,2.828,2.839c1.715,0.015,3.738,0.996,3.738,5.541
			c0,7.818-5.473,14.657-13.013,16.26l-0.232,0.05L62.326,91.792z M69.64,74.333c-1.642,0.861-2.924,2.227-3.773,3.335
			c-1.957,2.596-3.173,6.081-3.173,7.815c0,0.495,0.098,0.975,0.21,1.326c3.972-1.41,6.766-6.111,6.766-11.604
			C69.669,74.861,69.658,74.573,69.64,74.333z"/>
		<path fill="#FFB8CA" d="M68.546,68.456c0.903,0.473,1.849,1.547,2.709,3.053c0.258,0,0.516-0.043,0.774-0.043
			c1.548,0,2.278,1.289,2.278,4.041c0,7.182-4.944,13.33-11.824,14.793c-3.269-0.344-5.375-3.096-5.375-6.967
			c0-4.6,2.967-10.146,7.009-13.115C65.665,69.058,67.213,68.456,68.546,68.456 M62.312,88.536c5.116-1.117,8.857-6.621,8.857-13.33
			c0-1.461-0.172-2.279-0.559-2.881c-2.494,0.732-4.516,2.58-5.935,4.43c-1.978,2.623-3.482,6.449-3.482,8.729
			C61.193,86.86,61.752,88.364,62.312,88.536 M69.283,65.456h-0.737c-2.014,0-4.167,0.816-6.228,2.361
			c-4.824,3.543-8.21,9.931-8.21,15.516c0,5.444,3.239,9.443,8.062,9.95l0.473,0.05l0.465-0.099c8.229-1.75,14.2-9.205,14.2-17.728
			c0-5.36-2.627-6.688-4.401-6.972c-0.92-1.268-1.915-2.186-2.97-2.737L69.283,65.456L69.283,65.456z M64.355,84.303
			c0.378-1.641,1.39-3.983,2.716-5.742c0.295-0.384,0.602-0.742,0.918-1.072C67.526,80.38,66.197,82.839,64.355,84.303
			L64.355,84.303z"/>
	</g>
	<g>
		<path d="M80.472,91.153c-2.496-0.118-5.451-1.839-6.076-4.512l-0.039-0.169V86.3c0-1.672,0.092-2.637,0.377-3.969
			c1.017-4.279,4.155-12.135,8.281-15.132l0.395-0.286h0.487c0.137,0,3.37,0.021,4.959,1.848l0.881,1.013l-0.909,0.987
			c-0.428,0.466-2.697,3.621-5.183,9.502c-0.261,0.602-0.608,1.61-0.92,2.653c0.459-0.606,0.889-1.193,1.209-1.63l0.542-0.732
			c1.155-1.551,2.737-3.674,3.477-5.656c0.541-1.486,1.544-4.239,3.724-6.322l0.435-0.416h0.602c1.752,0,4.342,0.797,5.256,1.94
			l0.557,0.695l-0.344,0.82c-0.636,1.519-1.374,3.009-2.088,4.45c-1.653,3.338-3.214,6.49-3.214,9.332
			c0,1.339,0.337,2.092,0.583,2.643c0.179,0.398,0.363,0.812,0.363,1.312c0,0.759-0.533,1.428-1.296,1.626l-0.186,0.048h-0.191
			c-1.236,0-3.545-1.001-4.925-1.936l-0.064-0.044l-0.059-0.049c-0.803-0.674-1.271-1.54-1.542-2.354
			c-0.216,0.285-0.417,0.554-0.587,0.78c-0.598,0.795-1.113,1.48-1.439,1.866c-0.77,0.818-1.832,1.744-2.827,1.855l-0.118,0.013
			L80.472,91.153z"/>
		<path fill="#FFB8CA" d="M83.896,68.413c0.989,0,2.968,0.344,3.827,1.332c-0.516,0.561-2.881,3.828-5.461,9.934
			c-0.559,1.289-1.806,5.203-1.806,6.707c0,0.432,0.215,0.689,0.301,0.775c0.86-0.344,2.021-1.764,4.386-4.988
			c1.161-1.592,3.269-4.215,4.214-6.752c0.517-1.418,1.42-3.912,3.354-5.762c1.505,0,3.569,0.732,4.085,1.377
			c-2.107,5.031-5.418,9.846-5.418,14.361c0,2.451,0.946,3.396,0.946,3.955c0,0.129-0.173,0.174-0.173,0.174
			c-0.773,0-2.752-0.775-4.084-1.678c-1.075-0.902-1.376-2.494-1.376-3.482c0-0.646,0.086-1.162,0.215-1.549
			c-0.002,0-0.005,0-0.007,0c-0.497,0-3.567,4.393-4.509,5.504c-0.73,0.773-1.462,1.291-1.849,1.334
			c-1.806-0.086-4.214-1.334-4.687-3.355c0-1.59,0.086-2.451,0.344-3.654C77.232,78.302,80.285,71.036,83.896,68.413 M83.896,65.413
			h-0.975l-0.788,0.573c-4.485,3.258-7.751,11.332-8.853,15.966l-0.008,0.032l-0.007,0.032c-0.307,1.432-0.41,2.513-0.41,4.283
			v0.346l0.079,0.337c0.815,3.49,4.455,5.526,7.465,5.67l0.237,0.011l0.236-0.026c1.163-0.129,2.407-0.888,3.698-2.256l0.056-0.059
			l0.053-0.062c0.19-0.226,0.424-0.522,0.697-0.88c0.223,0.269,0.476,0.525,0.762,0.766l0.118,0.1l0.128,0.086
			c1.252,0.849,3.925,2.194,5.767,2.194h0.384l0.371-0.097c1.424-0.37,2.418-1.635,2.418-3.077c0-0.821-0.285-1.459-0.494-1.926
			c-0.223-0.497-0.452-1.011-0.452-2.029c0-2.49,1.485-5.49,3.058-8.666c0.725-1.463,1.474-2.975,2.127-4.536l0.688-1.643
			l-1.112-1.391c-1.381-1.727-4.59-2.503-6.428-2.503h-1.203l-0.87,0.831c-0.165,0.158-0.324,0.32-0.478,0.483l-0.174-0.197
			C87.99,65.479,84.31,65.413,83.896,65.413L83.896,65.413z"/>
	</g>
	<g>
		<path d="M104.706,92.271c-3.333-0.101-7.561-2.973-7.561-6.058c0-2.61,1.229-7.497,3.077-12.389h-0.994l-0.45-0.6
			c-0.612-0.817-0.859-2.763-0.859-3.438V68.2l1.586,0.091c0.649,0.037,1.274,0.082,1.869,0.124c0.418,0.03,0.82,0.06,1.205,0.083
			c1.354-2.51,3.841-6.571,5.324-7.379l0.336-0.184h0.382c1.272,0,4.589,0.894,5.605,2.066l0.817,0.943l-0.779,0.976
			c-1.06,1.324-1.855,2.446-2.652,3.693c0.215-0.018,0.426-0.038,0.634-0.06l0.716-0.077l0.508,0.512
			c0.561,0.564,0.908,1.431,0.908,2.262v1.04l-0.974,0.365c-1.32,0.494-2.931,0.807-4.701,0.916c-2.443,4.938-4,10.03-4,13.157
			c0,0.311,0.043,0.484,0.073,0.568c1.27-0.215,2.478-0.737,3.435-1.488l1.338-1.05l0.875,1.458c0.162,0.27,0.374,0.67,0.47,1.052
			l0.159,0.636l-0.358,0.549c-0.826,1.265-4.319,3.677-5.808,3.812l-0.091,0.008L104.706,92.271z"/>
		<path fill="#FFB8CA" d="M108.621,62.436c1.161,0,3.913,0.904,4.472,1.549c-1.72,2.15-2.795,3.827-4.214,6.233
			c1.118,0,2.322-0.043,3.526-0.172c0.258,0.26,0.473,0.732,0.473,1.205c-1.376,0.516-3.139,0.816-5.116,0.859
			c-2.839,5.504-4.559,11.094-4.559,14.619c0,1.291,0.517,1.979,1.419,2.107c1.72-0.215,3.312-0.902,4.516-1.848
			c0.129,0.215,0.258,0.473,0.301,0.645c-0.646,0.988-3.741,3.053-4.688,3.139c-2.838-0.086-6.105-2.537-6.105-4.559
			c0-2.795,1.591-8.6,3.784-13.889h-2.451c-0.258-0.344-0.56-1.762-0.56-2.537c1.506,0.086,2.882,0.215,4.042,0.258
			C105.182,66.65,107.675,62.951,108.621,62.436 M108.621,59.436h-0.765l-0.671,0.366c-1.822,0.993-4.172,4.837-5.459,7.135
			c-0.081-0.006-0.163-0.012-0.245-0.018c-0.602-0.043-1.234-0.089-1.892-0.126l-3.171-0.182v3.177c0,0.589,0.197,3.054,1.159,4.337
			l0.634,0.845c-1.42,4.058-2.566,8.451-2.566,11.244c0,4.035,4.932,7.434,9.015,7.558l0.182,0.005l0.181-0.017
			c2.149-0.194,5.944-2.979,6.928-4.485l0.717-1.097l-0.318-1.271c-0.112-0.45-0.327-0.941-0.639-1.46l-1.75-2.917l-2.675,2.101
			c-0.293,0.229-0.623,0.435-0.977,0.61c0.355-2.74,1.585-6.487,3.37-10.242c1.575-0.159,3.021-0.477,4.252-0.938l1.947-0.73v-2.079
			c0-1.23-0.502-2.471-1.344-3.318l-0.385-0.388c0.392-0.543,0.812-1.094,1.286-1.688l1.561-1.951l-1.636-1.887
			C113.971,60.416,110.208,59.436,108.621,59.436L108.621,59.436z"/>
	</g>
</g>
</svg>
