<?xml version="1.0" encoding="utf-8"?>
<!-- Generator: Adobe Illustrator 16.0.0, SVG Export Plug-In . SVG Version: 6.00 Build 0)  -->
<!DOCTYPE svg PUBLIC "-//W3C//DTD SVG 1.1//EN" "http://www.w3.org/Graphics/SVG/1.1/DTD/svg11.dtd">
<svg version="1.1" id="Layer_1" xmlns="http://www.w3.org/2000/svg" xmlns:xlink="http://www.w3.org/1999/xlink" x="0px" y="0px"
	 width="130px" height="100px" viewBox="0 0 130 100" enable-background="new 0 0 130 100" xml:space="preserve">
<g>
	<g>
		<path d="M25.152,93.593c-5.269,0-9.233-2.261-11.161-6.366l-0.291-0.617l0.275-0.625c1.969-4.472,6.201-15.623,8.498-22.114
			c-1.485,1.483-2.611,3.472-3.32,5.897l-0.437,1.494L17.24,70.77c-1.94-0.646-3.463-2.442-3.879-4.576l-0.059-0.299l0.063-0.299
			c1.266-5.983,7.419-10.004,15.313-10.004c10.099,0,17.151,6.293,17.151,15.303C45.83,82.986,36.167,93.593,25.152,93.593z
			 M21.978,86.772c0.482,0.052,1.038,0.08,1.627,0.08c8.464,0,15.614-8.371,15.614-18.28c0-4.65-2.765-7.447-7.634-7.794
			c0.297,0.211,0.545,0.41,0.737,0.59l0.973,0.903l-0.779,1.075c-0.737,1.018-3.457,6.187-6.212,12.293
			C23.443,82.003,22.356,85.185,21.978,86.772z"/>
		<path fill="#84ADD9" d="M28.679,57.092c9.159,0,15.651,5.59,15.651,13.803c0,11.18-8.943,21.198-19.178,21.198
			c-4.687,0-8.127-1.935-9.804-5.504c2.537-5.762,8.729-22.316,9.933-26.358c-3.568,1.462-6.234,4.559-7.567,9.116
			c-1.29-0.43-2.537-1.677-2.881-3.44C15.951,60.618,21.412,57.092,28.679,57.092 M23.604,88.353c9.331,0,17.114-9.202,17.114-19.78
			c0-5.891-3.956-9.331-10.191-9.331c-1.462,0-2.838,0.216-4.085,0.603c2.494,0.903,4.257,2.063,4.859,2.623
			c-0.903,1.247-3.784,6.837-6.364,12.556c-3.268,7.267-4.644,11.309-4.644,12.942C21.067,88.224,22.271,88.353,23.604,88.353
			 M28.679,54.092c-8.622,0-15.365,4.498-16.781,11.193l-0.126,0.597l0.117,0.599c0.518,2.655,2.432,4.898,4.877,5.713l0.94,0.312
			c-1.907,5.056-3.917,10.182-5.103,12.874l-0.55,1.249l0.581,1.235c2.19,4.661,6.636,7.229,12.519,7.229
			c11.814,0,22.178-11.308,22.178-24.198C47.33,61.001,39.66,54.092,28.679,54.092L28.679,54.092z M23.96,85.347
			c0.584-1.74,1.676-4.562,3.713-9.094c2.633-5.838,5.391-11.105,6.058-12.026l0.876-1.21c2.484,1.181,3.111,3.508,3.111,5.556
			C37.719,77.37,31.33,85.104,23.96,85.347L23.96,85.347z"/>
	</g>
	<g>
		<path d="M48.674,91.1c-1.081,0-4.639-1.607-4.639-5.155c0-1.027,0.238-2.685,1.496-8.487c0.241-1.048,1.59-6.26,4.88-7.904
			l0.48-0.239l0.523,0.118c1.061,0.241,3.453,1.275,4.915,3.469l0.646,0.968l-0.777,0.866c-1.954,2.177-2.778,4.429-3.823,7.279
			c-0.239,0.651-0.485,1.324-0.754,2.021c-0.311,0.823-1.149,3.039-1.189,4.198C50.433,89.272,50.433,91.1,48.674,91.1z
			 M54.762,69.918c-1.236-0.231-2.514-1.28-2.514-2.636c0-0.14,0.012-0.292,0.036-0.463c-0.289-0.57-0.423-1.219-0.423-1.729
			c0-1.311,0.699-4.316,1.438-6.185l0.375-0.948h1.02c1.832,0,5.329,1.994,6.451,3.678l0.706,1.06l-0.93,0.868
			c-1.239,1.157-4.178,4.788-4.518,5.503l-0.496,1.043L54.762,69.918z"/>
		<path fill="#84ADD9" d="M54.694,59.457c1.333,0,4.343,1.72,5.202,3.01c-1.289,1.204-4.429,5.03-4.858,5.977
			c-0.688-0.129-1.29-0.688-1.29-1.161c0-0.172,0.043-0.43,0.129-0.773c-0.301-0.301-0.516-0.946-0.516-1.419
			C53.361,64.101,53.963,61.306,54.694,59.457 M51.082,70.895c0.946,0.215,2.881,1.161,3.999,2.838
			c-2.623,2.924-3.396,5.977-4.859,9.761c-0.602,1.591-1.246,3.44-1.289,4.688c0,1.031,0,1.419-0.259,1.419
			c-0.43,0-3.139-1.118-3.139-3.655c0-0.989,0.344-3.01,1.462-8.17C47.255,76.656,48.502,72.185,51.082,70.895 M54.694,56.457
			h-2.039l-0.75,1.896c-0.808,2.041-1.543,5.252-1.543,6.736c0,0.552,0.114,1.27,0.393,1.975c-0.004,0.074-0.006,0.146-0.006,0.218
			c0,0.157,0.011,0.313,0.031,0.467L50.7,67.731l-0.96,0.479c-3.793,1.897-5.296,7.283-5.667,8.89
			c-1.302,6.007-1.539,7.687-1.539,8.844c0,4.391,4.303,6.655,6.139,6.655c1.339,0,2.911-0.906,3.196-2.897
			c0.061-0.422,0.062-0.86,0.062-1.457c0.035-0.619,0.403-1.86,1.095-3.69c0.265-0.685,0.514-1.365,0.755-2.024
			c0.989-2.7,1.77-4.832,3.531-6.795l1.554-1.731l-1.291-1.936c-0.175-0.262-0.36-0.51-0.553-0.743l0.723-1.592
			c0.465-0.81,3.138-4.084,4.197-5.074l1.86-1.737l-1.411-2.118C61.117,58.888,57.236,56.457,54.694,56.457L54.694,56.457z"/>
	</g>
	<g>
		<path d="M62.599,91.566c-4.522-0.411-8.201-5.036-8.201-10.31c0-7.357,6.497-14.313,13.368-14.313c3.789,0,6.144,2.223,6.144,5.8
			c0,3.164-2.039,6.703-4.768,6.703c-1.17,0-2.414-0.711-3.171-1.811l-0.742-1.078l0.968-0.882c1.623-1.478,2.193-2.541,2.345-3.25
			c-0.693,0.303-1.827,1.042-2.974,2.312c-2.22,2.493-3.396,5.554-3.396,8.842c0,1.375,0.201,2.181,0.432,2.562
			c1.438-0.396,3.899-1.615,6.161-3.293l0.928-0.688l0.903,0.723c0.575,0.46,0.993,1.314,0.993,2.03v0.526l-0.329,0.411
			c-2.103,2.628-5.963,5.291-8.262,5.699l-0.198,0.035L62.599,91.566z"/>
		<path fill="#84ADD9" d="M67.766,68.443c2.967,0,4.644,1.548,4.644,4.3c0,2.623-1.634,5.203-3.268,5.203
			c-0.688,0-1.462-0.473-1.936-1.161c1.936-1.763,2.882-3.354,2.882-4.772c0-0.817-0.345-1.247-0.989-1.247
			c-1.118,0-3.053,1.204-4.645,2.967c-2.45,2.752-3.783,6.192-3.783,9.847c0,2.322,0.516,3.698,1.548,4.171
			c1.677-0.215,4.772-1.72,7.438-3.697c0.215,0.172,0.431,0.602,0.431,0.859c-1.893,2.365-5.418,4.816-7.354,5.16
			c-3.784-0.344-6.837-4.3-6.837-8.815C55.897,74.765,61.745,68.443,67.766,68.443 M67.766,65.443
			c-7.643,0-14.868,7.686-14.868,15.813c0,6.131,4.202,11.315,9.565,11.803l0.4,0.037l0.396-0.07
			c3.009-0.534,7.104-3.655,9.172-6.24l0.657-0.821v-1.053c0-1.17-0.626-2.457-1.557-3.202l-1.179-0.943
			c2.585-0.757,5.057-3.842,5.057-8.023C75.409,68.309,72.409,65.443,67.766,65.443L67.766,65.443z M63.685,84.135
			c-0.009-0.165-0.014-0.35-0.014-0.556c0-1.764,0.383-3.455,1.124-5.008c0.98,1.373,2.494,2.256,4.029,2.364l-0.954,0.708
			C66.386,82.744,64.868,83.597,63.685,84.135L63.685,84.135z"/>
	</g>
	<g>
		<path d="M79.385,91.993c-4.555-0.495-7.615-3.738-7.615-8.07c0-8.031,7.132-16.851,13.626-16.851h0.1l0.099,0.013
			c1.697,0.227,3.27,1.238,4.674,3.006l0.357,0.45l-0.035,0.573c-0.459,7.532-4.401,10.739-11.52,13.705
			c-0.001,0.03-0.001,0.062-0.001,0.093c0,1.368,0.333,1.882,0.415,1.937c0.002,0,0.004,0,0.006,0c2.582,0,5.45-3.073,6.829-4.551
			l0.981-1.051l1.092,0.936c0.365,0.312,0.637,0.585,0.907,0.909l0.765,0.917l-0.723,0.951c-2.764,3.639-6.393,6.323-9.47,7.006
			l-0.241,0.054L79.385,91.993z M83.744,75.238c-0.887,0.738-1.768,1.76-2.531,3.008C82.306,77.301,83.162,76.283,83.744,75.238z"/>
		<path fill="#84ADD9" d="M85.396,68.572c1.289,0.172,2.536,0.989,3.697,2.451c-0.43,7.052-4.171,9.847-11.48,12.771
			c0,0.345-0.043,0.731-0.043,1.118c0,1.462,0.344,3.44,1.978,3.44c3.097,0,6.063-3.097,7.869-5.031
			c0.301,0.258,0.516,0.473,0.731,0.731c-2.58,3.396-5.892,5.848-8.601,6.449c-3.956-0.43-6.277-3.139-6.277-6.579
			C73.27,76.871,79.719,68.572,85.396,68.572 M86.126,72.442c-3.139,0.43-6.794,4.386-8.17,9.718
			C82.514,79.882,85.911,76.355,86.126,72.442 M85.595,65.572h-0.199c-7.351,0-15.126,9.433-15.126,18.351
			c0,5.138,3.598,8.979,8.953,9.562l0.492,0.054l0.482-0.107c3.46-0.769,7.325-3.596,10.339-7.563l1.445-1.901l-1.53-1.835
			c-0.322-0.387-0.656-0.722-1.083-1.087l-0.705-0.604c2.006-2.297,3.179-5.213,3.424-9.233l0.07-1.148l-0.715-0.9
			c-1.654-2.082-3.556-3.279-5.65-3.559L85.595,65.572L85.595,65.572z"/>
	</g>
</g>
</svg>
