<?xml version="1.0" encoding="utf-8"?>
<!-- Generator: Adobe Illustrator 16.0.0, SVG Export Plug-In . SVG Version: 6.00 Build 0)  -->
<!DOCTYPE svg PUBLIC "-//W3C//DTD SVG 1.1//EN" "http://www.w3.org/Graphics/SVG/1.1/DTD/svg11.dtd">
<svg version="1.1" id="Layer_1" xmlns="http://www.w3.org/2000/svg" xmlns:xlink="http://www.w3.org/1999/xlink" x="0px" y="0px"
	 width="130px" height="100px" viewBox="0 0 130 100" enable-background="new 0 0 130 100" xml:space="preserve">
<g>
	<g>
		<path d="M14.187,93.854c-2.341-0.521-4.081-1.899-5.642-4.469l-0.42-0.692l0.348-0.731c0.762-1.602,1.838-4.24,4.659-11.438
			c-0.88-0.588-1.537-1.392-1.876-2.327L10.929,73.3l0.675-0.676c0.426-0.426,1.1-0.752,3.549-1.336
			c1.216-3.246,1.956-5.266,2.551-7.641c-2.14-0.514-3.53-2.062-3.53-4.109c0-0.691,0.234-1.682,0.544-2.305l0.492-0.986
			l1.088,0.176c0.938,0.15,1.747,0.196,3.46,0.196c4.651,0,8.715-0.411,11.404-0.683c1.514-0.153,2.607-0.264,3.344-0.264
			c0.986,0,3.393,0.5,4.431,5.128l0.453,2.017l-2.058-0.195c-1.928-0.184-2.879-0.208-3.556-0.208c-2.544,0-4.726,0.249-6.566,0.522
			c-0.539,0.955-1.357,2.703-3.179,6.785c1.372-0.164,2.475-0.246,3.295-0.246c2.672,0,4.467,1.777,4.467,4.424
			c0,0.834-0.125,1.509-0.373,2.004l-0.5,1.001l-1.102-0.194c-0.732-0.13-1.589-0.192-2.62-0.192c-1.675,0-3.47,0.287-5.205,0.564
			c-0.445,0.071-0.882,0.142-1.311,0.205c-2.353,5.646-3.849,10.546-4.691,15.361l-0.271,1.547L14.187,93.854z"/>
		<path fill="#84ADD9" d="M34.507,57.173c1.333,0,2.408,1.462,2.968,3.956c-1.807-0.172-2.838-0.215-3.698-0.215
			c-2.881,0-5.289,0.301-7.481,0.645c-0.688,1.032-1.506,2.752-4.73,10.019c2.236-0.344,4.386-0.602,5.762-0.602
			c1.85,0,2.967,1.075,2.967,2.924c0,0.43-0.043,0.989-0.215,1.333c-0.73-0.129-1.634-0.215-2.881-0.215
			c-2.537,0-5.246,0.602-7.567,0.903c-2.58,6.062-4.214,11.309-5.117,16.469c-1.935-0.431-3.354-1.592-4.687-3.784
			c0.859-1.807,2.106-4.902,5.202-12.814c-1.161-0.387-2.021-1.16-2.364-2.106c0.301-0.301,1.72-0.688,3.611-1.118
			c1.677-4.472,2.537-6.751,3.269-10.233h-0.216c-2.192,0-3.654-1.118-3.654-2.795c0-0.431,0.172-1.204,0.387-1.635
			c1.075,0.173,1.979,0.216,3.698,0.216C26.94,58.119,32.573,57.173,34.507,57.173 M34.507,54.173c-0.812,0-1.938,0.114-3.495,0.271
			c-2.659,0.27-6.678,0.676-11.253,0.676c-1.642,0-2.364-0.04-3.222-0.178l-2.176-0.35l-0.984,1.972
			c-0.414,0.83-0.702,2.053-0.702,2.975c0,2.242,1.247,4.073,3.224,5.043c-0.472,1.632-1.055,3.248-1.873,5.439
			c-2.007,0.514-2.846,0.906-3.482,1.543l-1.351,1.35l0.652,1.796c0.313,0.861,0.824,1.637,1.491,2.285
			c-2.509,6.394-3.509,8.833-4.218,10.322l-0.696,1.463l0.841,1.384c1.767,2.908,3.864,4.546,6.599,5.155L16.927,96l0.542-3.093
			c0.785-4.482,2.153-9.052,4.279-14.267c0.16-0.025,0.321-0.051,0.482-0.077c1.678-0.269,3.413-0.546,4.968-0.546
			c0.942,0,1.714,0.056,2.359,0.169l2.204,0.389l1-2.001c0.358-0.716,0.532-1.591,0.532-2.675c0-3.488-2.454-5.924-5.967-5.924
			c-0.266,0-0.559,0.008-0.877,0.023c0.812-1.795,1.345-2.932,1.728-3.686c1.619-0.219,3.483-0.399,5.6-0.399
			c0.642,0,1.549,0.024,3.414,0.201l4.117,0.392l-0.905-4.035C39.127,54.787,35.855,54.173,34.507,54.173L34.507,54.173z"/>
	</g>
	<g>
		<path d="M37.146,91.903c-4.019-0.423-6.718-3.822-6.718-8.458c0-5.058,3.205-11.082,7.621-14.324
			c1.788-1.341,3.631-2.054,5.316-2.054h0.37l0.327,0.172c1.16,0.607,2.124,1.767,2.826,2.838c1.715,0.015,3.739,0.996,3.739,5.542
			c0,7.819-5.473,14.657-13.012,16.259l-0.232,0.05L37.146,91.903z M44.459,74.444c-1.64,0.861-2.922,2.227-3.773,3.335
			c-1.957,2.596-3.172,6.081-3.172,7.816c0,0.495,0.098,0.975,0.21,1.326c3.971-1.412,6.766-6.112,6.766-11.604
			C44.489,74.974,44.478,74.686,44.459,74.444z"/>
		<path fill="#84ADD9" d="M43.366,68.567c0.903,0.474,1.849,1.548,2.709,3.053c0.258,0,0.516-0.043,0.774-0.043
			c1.548,0,2.278,1.29,2.278,4.042c0,7.182-4.944,13.33-11.824,14.792c-3.269-0.344-5.375-3.096-5.375-6.966
			c0-4.601,2.967-10.147,7.009-13.115C40.485,69.17,42.033,68.567,43.366,68.567 M37.131,88.648
			c5.116-1.118,8.857-6.622,8.857-13.33c0-1.462-0.172-2.279-0.559-2.881c-2.494,0.731-4.516,2.58-5.935,4.429
			c-1.978,2.623-3.482,6.45-3.482,8.729C36.013,86.972,36.572,88.477,37.131,88.648 M44.104,65.567h-0.739
			c-2.013,0-4.166,0.816-6.228,2.362c-4.824,3.542-8.209,9.929-8.209,15.516c0,5.444,3.24,9.442,8.061,9.949l0.473,0.05l0.465-0.099
			c8.229-1.749,14.201-9.204,14.201-17.727c0-5.362-2.627-6.688-4.402-6.973c-0.919-1.267-1.914-2.184-2.967-2.735L44.104,65.567
			L44.104,65.567z M39.175,84.414c0.378-1.641,1.39-3.983,2.716-5.742c0.295-0.384,0.602-0.742,0.918-1.071
			C42.346,80.491,41.018,82.95,39.175,84.414L39.175,84.414z"/>
	</g>
	<g>
		<path d="M53.561,91.863c-1.445-0.121-4.117-1.756-4.769-3.201l-0.187-0.414l0.075-0.449c0.596-3.571,3.199-11.873,5.258-16.761
			c0.812-1.959,1.425-3,2.255-3.832l0.543-0.543l0.758,0.123c1.691,0.273,4.162,1.336,5.207,2.577l0.523,0.618
			c0.234-0.324,0.465-0.656,0.693-0.999l0.129-0.194l0.184-0.145c0.627-0.502,1.277-0.544,1.84-0.544
			c1.082,0,2.574,0.382,3.221,1.459l0.371,0.62l-0.254,0.678c-0.455,1.219-0.678,2.383-0.678,3.559c0,1.232,0.188,1.805,0.346,2.068
			l0.266,0.443l-0.064,0.514c-0.145,1.164-1.98,3.029-2.189,3.238l-0.766,0.765l-0.967-0.483c-1.328-0.664-2.484-1.74-3.297-3.03
			c-3.994,3.07-5.463,5.941-6.906,12.749l-0.273,1.294L53.561,91.863z"/>
		<path fill="#84ADD9" d="M57.254,68.267c1.592,0.258,3.613,1.247,4.301,2.063c-1.549,1.807-2.623,3.999-3.826,7.654
			c3.053-2.752,5.375-5.074,7.438-8.17c0.215-0.172,0.43-0.215,0.904-0.215c0.816,0,1.676,0.301,1.934,0.73
			c-0.516,1.377-0.773,2.709-0.773,4.085c0,1.247,0.172,2.193,0.559,2.839c-0.043,0.344-0.902,1.505-1.762,2.364
			c-1.549-0.773-2.838-2.278-3.398-3.956c-5.418,3.741-7.266,6.794-8.943,14.706c-1.032-0.086-3.139-1.462-3.526-2.322
			c0.56-3.354,3.097-11.523,5.16-16.426C56.051,69.857,56.566,68.955,57.254,68.267 M56.217,65.06l-1.085,1.088
			c-1.123,1.125-1.82,2.488-2.582,4.322c-2.086,4.956-4.738,13.424-5.349,17.082l-0.15,0.897l0.374,0.829
			c0.902,2.003,4.061,3.917,6.013,4.079l2.635,0.22l0.549-2.587c1.211-5.71,2.371-8.398,5.188-10.911
			c0.82,0.918,1.801,1.685,2.877,2.223l1.934,0.966l1.529-1.528c0.898-0.897,2.432-2.626,2.617-4.113l0.129-1.026l-0.531-0.888
			v0.001c0.002,0-0.133-0.322-0.133-1.298c0-1.008,0.186-1.971,0.584-3.033l0.506-1.354l-0.744-1.241
			c-0.967-1.611-2.961-2.187-4.506-2.187c-0.834,0-1.816,0.104-2.777,0.872l-0.217,0.174c-1.469-1.2-3.699-2.074-5.342-2.34
			L56.217,65.06L56.217,65.06z"/>
	</g>
	<g>
		<path d="M72.621,91.265c-2.496-0.118-5.451-1.839-6.076-4.511l-0.039-0.169v-0.173c0-1.672,0.092-2.637,0.377-3.969
			c1.016-4.28,4.156-12.136,8.281-15.133l0.395-0.286h0.486c0.137,0,3.371,0.021,4.961,1.85l0.879,1.013l-0.908,0.987
			c-0.43,0.465-2.695,3.615-5.184,9.5c-0.26,0.603-0.607,1.61-0.92,2.653c0.459-0.606,0.889-1.193,1.209-1.63l0.541-0.729
			c1.154-1.551,2.738-3.675,3.479-5.66c0.539-1.484,1.543-4.238,3.723-6.322l0.436-0.415h0.602c1.752,0,4.342,0.796,5.256,1.938
			l0.557,0.695l-0.344,0.822c-0.637,1.518-1.375,3.008-2.088,4.449c-1.652,3.338-3.215,6.491-3.215,9.333
			c0,1.338,0.338,2.092,0.584,2.642c0.178,0.399,0.363,0.812,0.363,1.313c0,0.763-0.537,1.432-1.303,1.627l-0.184,0.046h-0.188
			c-1.238,0-3.547-1.001-4.926-1.937l-0.062-0.043l-0.059-0.049c-0.803-0.674-1.271-1.54-1.543-2.353
			c-0.217,0.287-0.42,0.558-0.59,0.785c-0.596,0.792-1.109,1.477-1.436,1.86c-0.77,0.818-1.832,1.744-2.828,1.855l-0.117,0.013
			L72.621,91.265z"/>
		<path fill="#84ADD9" d="M76.045,68.524c0.99,0,2.969,0.344,3.828,1.333c-0.516,0.56-2.881,3.827-5.461,9.933
			c-0.559,1.29-1.807,5.203-1.807,6.708c0,0.431,0.215,0.688,0.301,0.774c0.861-0.344,2.021-1.763,4.387-4.988
			c1.16-1.591,3.268-4.214,4.213-6.751c0.518-1.419,1.42-3.913,3.355-5.762c1.504,0,3.568,0.731,4.084,1.376
			c-2.107,5.031-5.418,9.847-5.418,14.362c0,2.45,0.947,3.396,0.947,3.955c0,0.129-0.174,0.173-0.174,0.173
			c-0.773,0-2.752-0.774-4.084-1.678c-1.074-0.902-1.375-2.493-1.375-3.482c0-0.646,0.086-1.161,0.215-1.548
			c-0.002,0-0.006,0-0.008,0c-0.496,0-3.566,4.392-4.508,5.504c-0.73,0.773-1.463,1.29-1.85,1.333
			c-1.805-0.086-4.213-1.333-4.686-3.354c0-1.591,0.086-2.451,0.344-3.654C69.381,78.414,72.434,71.147,76.045,68.524
			 M76.045,65.524H75.07l-0.787,0.572c-4.486,3.258-7.752,11.334-8.854,15.968l-0.008,0.032l-0.006,0.032
			c-0.307,1.432-0.41,2.513-0.41,4.283v0.346l0.078,0.337c0.816,3.49,4.455,5.525,7.465,5.669l0.238,0.011l0.236-0.026
			c1.162-0.129,2.406-0.888,3.697-2.255l0.057-0.06l0.053-0.062c0.191-0.226,0.424-0.521,0.697-0.88
			c0.223,0.269,0.475,0.525,0.762,0.766l0.117,0.099l0.127,0.086c1.252,0.849,3.924,2.195,5.768,2.195h0.375l0.365-0.093
			c1.432-0.364,2.434-1.631,2.434-3.08c0-0.82-0.285-1.459-0.494-1.926c-0.223-0.497-0.453-1.011-0.453-2.029
			c0-2.491,1.486-5.491,3.059-8.667c0.725-1.463,1.473-2.975,2.127-4.536l0.688-1.643l-1.111-1.391
			c-1.381-1.726-4.59-2.502-6.428-2.502h-1.203l-0.869,0.831c-0.166,0.158-0.326,0.32-0.479,0.483l-0.174-0.196
			C80.141,65.591,76.459,65.524,76.045,65.524L76.045,65.524z"/>
	</g>
	<g>
		<path d="M90.438,91.202c-1.992-1.424-2.471-3.154-2.793-4.805l-0.031-0.165l0.006-0.168c0.051-1.633,0.504-3.995,1.184-6.164
			c1.293-4.176,3.617-8.513,5.719-12.204l0.545-0.957l1.076,0.232c1.904,0.412,3.34,1.24,4.957,2.857l0.645,0.645l-0.275,0.869
			c-0.107,0.344-0.24,0.689-0.393,1.04c2.002-1.913,3.922-3.122,5.67-3.122c1.662,0,4.436,1.227,4.889,2.436l0.162,0.434
			c0,0-0.115,0.469-0.117,0.479c2.369-2.343,4.412-3.562,6.377-3.562c1.918,0,3.523,1.094,4.088,2.787l0.152,0.454l-0.139,0.458
			c-0.4,1.316-1.184,2.963-2.09,4.868c-1.387,2.922-3.105,6.539-3.217,8.85c0.041-0.014,0.08-0.027,0.117-0.041
			c0.307-0.107,0.625-0.22,1.002-0.22h0.43l0.365,0.228c1.049,0.656,1.049,1.8,1.049,2.176v0.734l-0.58,0.45
			c-1.213,0.942-2.721,1.906-4.705,1.906c-3.174,0-5.068-2.185-5.068-5.843c0-1.432,0.271-2.832,0.678-4.155
			c-1.488,1.888-2.994,3.963-4.008,5.357c-1.141,1.573-2.129,2.932-2.867,3.834l-0.707,0.86l-1.027-0.426
			c-1.738-0.72-3.014-2.182-3.5-4.011l-0.082-0.314L98,86.679c0.309-1.828,0.766-3.565,1.395-5.271
			c-0.848,1.052-1.754,2.239-2.693,3.555c-0.805,1.134-1.516,2.207-2.119,3.117c-1.299,1.961-1.852,2.771-2.461,3.164l-0.855,0.551
			L90.438,91.202z"/>
		<path fill="#84ADD9" d="M95.826,68.438c1.59,0.344,2.795,1.032,4.213,2.451c-1.117,3.525-5.461,8.041-6.105,12.771
			c3.268-4.601,9.115-12.899,12.812-12.899c1.42,0,3.355,1.118,3.484,1.462c-0.559,2.279-4.902,8.643-5.289,11.051
			c5.59-7.654,9.846-12.728,13.115-12.728c1.16,0,2.277,0.602,2.666,1.763c-1.033,3.396-5.332,10.233-5.375,14.318
			c0,1.204,0.344,1.462,0.988,1.462c0.688,0,1.332-0.387,1.635-0.387c0.344,0.215,0.344,0.646,0.344,0.903
			c-1.162,0.902-2.322,1.591-3.785,1.591c-2.709,0-3.568-1.978-3.568-4.343c0-3.913,2.365-7.783,3.482-10.148
			c-2.752,0.216-9.588,10.879-12.34,14.233c-1.248-0.517-2.236-1.548-2.623-3.01c0.602-3.569,1.893-7.568,5.418-12.6
			c-1.764,0.086-6.191,5.246-9.418,9.761c-2.105,2.968-3.568,5.504-4.17,5.892c-1.506-1.075-1.893-2.322-2.193-3.87
			c0.043-1.376,0.43-3.569,1.117-5.762C91.525,76.179,93.891,71.836,95.826,68.438 M94.309,65.042l-1.09,1.912
			c-2.143,3.762-4.514,8.189-5.85,12.509c-0.715,2.278-1.195,4.795-1.25,6.555l-0.01,0.336l0.062,0.33
			c0.389,1.999,1.068,4.078,3.395,5.739l1.656,1.183l1.711-1.102c0.898-0.577,1.525-1.523,2.898-3.596
			c0.242-0.365,0.496-0.749,0.766-1.148c0.617,2.256,2.203,4.058,4.357,4.95l2.057,0.852l1.41-1.721
			c0.77-0.936,1.768-2.312,2.924-3.903c0.197-0.272,0.424-0.584,0.672-0.924c0.451,4.532,3.574,6.183,6.512,6.183
			c2.451,0,4.295-1.188,5.625-2.222l1.16-0.901v-1.468c0-1.943-0.955-2.947-1.754-3.447l-0.73-0.456h-0.121
			c0.586-1.965,1.777-4.47,2.715-6.444c0.932-1.96,1.736-3.653,2.168-5.077l0.279-0.915l-0.303-0.907
			c-0.773-2.316-2.938-3.812-5.512-3.812c-1.902,0-3.756,0.832-5.771,2.486c-1.359-1.4-3.939-2.271-5.539-2.271
			c-1.375,0-2.756,0.518-4.156,1.438l-0.43-0.43c-1.814-1.815-3.52-2.791-5.701-3.262L94.309,65.042L94.309,65.042z"/>
	</g>
</g>
</svg>
