<?xml version="1.0" encoding="utf-8"?>
<!-- Generator: Adobe Illustrator 16.0.0, SVG Export Plug-In . SVG Version: 6.00 Build 0)  -->
<!DOCTYPE svg PUBLIC "-//W3C//DTD SVG 1.1//EN" "http://www.w3.org/Graphics/SVG/1.1/DTD/svg11.dtd">
<svg version="1.1" id="Layer_1" xmlns="http://www.w3.org/2000/svg" xmlns:xlink="http://www.w3.org/1999/xlink" x="0px" y="0px"
	 width="220px" height="100px" viewBox="0 0 220 100" enable-background="new 0 0 220 100" xml:space="preserve">
<path d="M25.942,93.296c-6.916,0-17.582-4.577-17.582-10.658c0-1.875,0.994-4.112,2.658-5.985c0.29-0.325,0.7-0.503,1.121-0.503
	c0.154,0,0.311,0.024,0.463,0.073c0.566,0.184,0.971,0.686,1.029,1.277c0.108,1.086,1.39,3.36,4.473,5.179
	c2.605,1.534,5.823,2.415,8.826,2.415c5.431,0,6.248-3.012,6.36-3.648c-0.263-1.369-5.298-3.555-8.332-4.871
	c-7.445-3.26-11.224-5.829-11.224-10.836c0-4.004,2.53-7.535,6.604-9.213c2.429-1.016,4.926-1.23,6.591-1.23
	c3.487,0,7.165,0.916,11.575,2.882c0.457,0.204,0.782,0.621,0.867,1.113c0.051,0.288,0.093,0.504,0.128,0.681
	c0.088,0.449,0.152,0.775,0.152,1.339c0,2.513-1.273,4.818-3.169,5.735c-0.209,0.102-0.432,0.15-0.652,0.15
	c-0.468,0-0.925-0.219-1.215-0.619c-2.04-2.809-6.396-3.81-9.794-3.81c-3.597,0-5.588,1.057-5.792,1.701
	c0.561,1.81,7.195,4.884,9.733,6.06c5.813,2.712,9.342,4.793,9.342,10.82C38.106,88.383,33.104,93.296,25.942,93.296z"/>
<path fill="#FFB8CA" d="M26.93,56.795c3.74,0,7.396,1.161,10.965,2.752c0.172,0.989,0.258,1.161,0.258,1.763
	c0,1.893-0.902,3.698-2.322,4.386c-2.279-3.139-6.965-4.429-11.008-4.429c-3.998,0-7.266,1.247-7.309,3.269
	c0.344,2.493,5.977,5.202,10.619,7.353c5.807,2.709,8.473,4.386,8.473,9.46c0,5.891-4.086,10.448-10.664,10.448
	c-6.365,0-16.082-4.257-16.082-9.158c0-1.161,0.559-3.053,2.279-4.988c0.172,1.72,1.848,4.343,5.203,6.321
	c3.139,1.849,6.664,2.623,9.588,2.623c6.406,0,7.74-3.784,7.869-5.117c-0.086-2.279-4.387-4.171-9.244-6.278
	c-7.268-3.182-10.32-5.375-10.32-9.46c0-3.225,2.021-6.32,5.676-7.825C22.76,57.139,24.909,56.795,26.93,56.795 M26.93,53.795
	c-1.803,0-4.512,0.234-7.178,1.352c-4.631,1.906-7.518,5.968-7.518,10.592c0,6.384,5.487,9.306,12.117,12.208
	c2.359,1.024,6.156,2.671,7.294,3.746c-0.354,0.706-1.437,1.901-4.716,1.901c-2.743,0-5.683-0.805-8.065-2.208
	c-2.653-1.564-3.68-3.426-3.74-4.034c-0.118-1.186-0.927-2.188-2.06-2.556c-0.305-0.099-0.616-0.146-0.926-0.146
	c-0.842,0-1.663,0.355-2.242,1.007c-1.93,2.171-3.037,4.716-3.037,6.981c0,7.542,12.354,12.158,19.082,12.158
	c7.918,0,13.664-5.656,13.664-13.448c0-6.902-4.04-9.303-10.204-12.179c-4.107-1.902-6.834-3.381-8.148-4.415
	c0.767-0.252,1.965-0.487,3.569-0.487c3.805,0,7.173,1.253,8.58,3.191c0.58,0.8,1.493,1.237,2.43,1.237
	c0.44,0,0.887-0.098,1.306-0.3c2.438-1.181,4.015-3.962,4.015-7.086c0-0.71-0.084-1.136-0.181-1.629
	c-0.033-0.168-0.074-0.373-0.121-0.647c-0.172-0.984-0.821-1.819-1.734-2.227C34.507,54.752,30.635,53.795,26.93,53.795
	L26.93,53.795z"/>
<path d="M45.559,91.696c-4.555-0.494-7.615-3.737-7.615-8.07c0-8.032,7.131-16.851,13.625-16.851c0.066,0,0.133,0.004,0.198,0.014
	c1.698,0.227,3.271,1.237,4.674,3.005c0.23,0.29,0.344,0.655,0.322,1.024c-0.459,7.531-4.402,10.738-11.52,13.704
	c-0.001,0.03-0.001,0.062-0.001,0.093c0,1.369,0.333,1.882,0.415,1.936c0.002,0,0.004,0,0.006,0c2.581,0,5.451-3.072,6.83-4.551
	c0.295-0.314,0.695-0.476,1.097-0.476c0.347,0,0.694,0.119,0.977,0.361c0.367,0.314,0.639,0.587,0.908,0.912
	c0.445,0.536,0.462,1.31,0.041,1.865c-2.764,3.639-6.392,6.323-9.469,7.006c-0.107,0.024-0.216,0.036-0.325,0.036
	C45.667,91.705,45.613,91.702,45.559,91.696z M49.917,74.941c-0.886,0.738-1.767,1.76-2.53,3.008
	C48.479,77.004,49.335,75.986,49.917,74.941z"/>
<path fill="#FFB8CA" d="M51.569,68.275c1.289,0.172,2.537,0.989,3.697,2.451c-0.43,7.052-4.17,9.847-11.48,12.771
	c0,0.345-0.043,0.731-0.043,1.118c0,1.462,0.344,3.44,1.979,3.44c3.096,0,6.062-3.097,7.869-5.031
	c0.301,0.258,0.516,0.473,0.73,0.731c-2.58,3.396-5.891,5.848-8.6,6.449c-3.957-0.43-6.277-3.139-6.277-6.579
	C39.444,76.574,45.893,68.275,51.569,68.275 M52.299,72.146c-3.139,0.43-6.793,4.386-8.17,9.718
	C48.688,79.585,52.084,76.059,52.299,72.146 M51.569,65.275c-7.351,0-15.125,9.433-15.125,18.351c0,5.138,3.598,8.98,8.953,9.562
	c0.108,0.012,0.216,0.018,0.324,0.018c0.219,0,0.437-0.023,0.65-0.071c3.459-0.769,7.324-3.596,10.337-7.563
	c0.844-1.111,0.811-2.657-0.08-3.73c-0.322-0.389-0.656-0.726-1.086-1.094c-0.247-0.211-0.518-0.375-0.803-0.494
	c2.063-2.312,3.272-5.258,3.52-9.343c0.045-0.739-0.184-1.468-0.645-2.048c-1.652-2.082-3.553-3.28-5.65-3.56
	C51.833,65.284,51.702,65.275,51.569,65.275L51.569,65.275z"/>
<path d="M60.15,90.974c-2.949-0.12-5.007-2.876-5.007-6.702c0-7.291,6.755-16.629,12.253-16.934
	c0.027-0.002,0.055-0.003,0.082-0.003c0.127,0,0.254,0.017,0.377,0.048c1.035,0.269,2.416,1.346,3.342,2.561
	c0.252-0.183,0.559-0.287,0.883-0.287c1.355,0,3.32,0.789,4.123,1.654c0.51,0.551,0.582,1.102,0.555,1.466
	c-0.014,0.187-0.062,0.368-0.145,0.536c-2.252,4.671-3.766,9.559-3.766,12.163c0,1.492,0.35,1.827,0.352,1.83
	c0.465,0.258,0.756,0.741,0.77,1.271s-0.256,1.027-0.707,1.31c-0.93,0.58-2.439,1.002-3.59,1.002c-1.049,0-3.365-0.38-3.764-3.655
	c-1.709,1.97-3.611,3.424-5.457,3.722c-0.08,0.013-0.16,0.02-0.24,0.02C60.191,90.975,60.17,90.975,60.15,90.974z M68.564,74.742
	c-2.922,1.968-5.846,6.273-6.473,9.807c0.979-0.949,2.418-2.817,4.531-6.338C67.189,77.262,67.871,76.039,68.564,74.742z"/>
<path fill="#FFB8CA" d="M67.479,68.835c1.16,0.301,3.096,2.321,3.225,3.396c-4.602,0.731-10.234,8.342-10.234,13.631
	c0,0.602,0.217,0.903,0.604,1.032c1.676-0.344,3.74-2.752,6.836-7.912c1.205-2.021,2.924-5.246,4.172-7.826
	c1.203,0,3.225,0.946,3.182,1.505c-2.322,4.816-3.914,9.891-3.914,12.814c0,1.591,0.346,2.709,1.119,3.139
	c-0.688,0.43-1.936,0.774-2.795,0.774c-1.549,0-2.322-1.032-2.322-3.183c0-1.591,0.559-3.913,1.635-6.708
	c-2.322,5.246-6.107,9.546-8.773,9.977c-2.105-0.086-3.568-2.236-3.568-5.203C56.643,77.864,62.834,69.093,67.479,68.835
	 M67.479,65.835c-0.055,0-0.111,0.001-0.166,0.005c-6.781,0.376-13.669,11.041-13.669,18.432c0,4.6,2.71,8.048,6.447,8.2
	c0.039,0.002,0.08,0.003,0.121,0.003c0.16,0,0.32-0.013,0.479-0.038c1.557-0.252,3.109-1.142,4.57-2.424
	c1.021,1.701,2.754,2.376,4.412,2.376c1.424,0,3.227-0.506,4.385-1.23c0.9-0.562,1.438-1.56,1.41-2.621
	c-0.023-0.861-0.412-1.661-1.055-2.207c-0.031-0.16-0.064-0.434-0.064-0.854c0-2.362,1.488-7.095,3.617-11.512
	c0.162-0.337,0.26-0.7,0.289-1.073c0.072-0.936-0.266-1.859-0.951-2.6c-1.09-1.177-3.434-2.135-5.223-2.135
	c-0.143,0-0.285,0.01-0.424,0.03c-1.057-1.108-2.346-1.976-3.424-2.255C67.986,65.867,67.732,65.835,67.479,65.835L67.479,65.835z"
	/>
<path d="M78.111,94.495c-2.232-0.176-4.758-2.242-5.406-4.422c-0.041-0.139-0.062-0.282-0.062-0.427
	c0-4.712,3.744-8.751,8.762-9.729c-0.123-0.89-0.35-1.764-0.57-2.617c-0.328-1.264-0.666-2.571-0.666-3.908
	c0-3.798,3.143-7.68,6.861-8.476c0.104-0.022,0.209-0.033,0.314-0.033c0.131,0,0.26,0.017,0.387,0.051
	c1.826,0.487,5.533,4.253,6.012,6.106c0.039,0.15,0.055,0.307,0.045,0.462c-0.135,2.281-1.525,6.356-3.82,6.356
	c-0.062,0-0.123-0.004-0.186-0.012c-1.029-0.129-1.742-0.883-1.863-1.967c-0.006-0.055-0.01-0.111-0.01-0.166
	c0-0.423,0.15-0.811,0.357-1.347c0.068-0.177,0.174-0.448,0.248-0.673c-0.725,0.599-1.35,2.434-1.459,5.709
	c0.543-0.018,1.039-0.03,1.535-0.03c0.568,0,1.088,0.321,1.342,0.829c0.201,0.402,0.201,0.729,0.201,1.016
	c0,0.487-0.16,1.168-0.611,1.619c-0.199,0.201-0.453,0.34-0.729,0.402c-0.521,0.118-1.227,0.277-1.695,0.405
	c0.012,0.284,0.025,0.606,0.025,1.013c0,5.512-3.35,9.28-8.74,9.834c-0.051,0.005-0.104,0.008-0.154,0.008
	C78.189,94.5,78.15,94.498,78.111,94.495z M80.719,86.607c-0.73,0.693-1.379,1.478-1.723,2.104
	C79.662,88.141,80.26,87.405,80.719,86.607z"/>
<path fill="#FFB8CA" d="M87.344,66.384c1.289,0.344,4.602,3.698,4.945,5.031c-0.129,2.192-1.42,4.944-2.322,4.944
	c-0.344-0.043-0.516-0.258-0.559-0.645c0-0.345,0.688-1.634,0.688-2.322c0-0.817-0.43-1.419-1.033-1.419
	c-2.277,0-3.525,2.967-3.525,8.471c0,0.344,0,0.43,0.043,0.516c1.205-0.043,2.107-0.086,3.01-0.086
	c0.043,0.086,0.043,0.13,0.043,0.345s-0.086,0.473-0.172,0.559c-2.666,0.603-2.881,0.688-2.881,1.333c0,0.43,0.043,0.86,0.043,1.548
	c0,4.773-2.795,7.869-7.395,8.342c-1.635-0.129-3.613-1.763-4.086-3.354c0-4.386,3.869-8.084,8.857-8.428
	c0-2.924-1.332-5.418-1.332-7.826C81.668,70.34,84.334,67.028,87.344,66.384 M83.172,83.454c-2.234,0.302-5.934,4.042-5.934,6.021
	c0,0.645,0.301,1.161,0.859,1.548C80.85,89.904,83.172,86.421,83.172,83.454 M87.344,63.384c-0.211,0-0.42,0.022-0.627,0.066
	c-4.363,0.935-8.049,5.487-8.049,9.942c0,1.527,0.363,2.929,0.713,4.284c0.1,0.385,0.199,0.763,0.285,1.137
	c-4.967,1.559-8.523,5.87-8.523,10.833c0,0.289,0.043,0.577,0.125,0.854c0.832,2.8,3.85,5.263,6.727,5.49
	C78.072,95.997,78.15,96,78.229,96c0.104,0,0.205-0.005,0.307-0.016c6.076-0.624,10.021-5,10.088-11.167
	c0.184-0.042,0.357-0.081,0.5-0.114c0.553-0.125,1.059-0.404,1.459-0.805c0.975-0.975,1.051-2.297,1.051-2.68
	c0-0.361,0-0.967-0.359-1.687c-0.061-0.122-0.129-0.237-0.205-0.349c2.85-0.939,4.088-5.421,4.217-7.592
	c0.018-0.312-0.014-0.624-0.09-0.926c-0.617-2.391-4.719-6.552-7.078-7.182C87.863,63.418,87.604,63.384,87.344,63.384
	L87.344,63.384z"/>
<path d="M97.25,91.525c-4.018-0.423-6.719-3.822-6.719-8.458c0-5.058,3.205-11.081,7.621-14.324
	c1.789-1.341,3.631-2.054,5.316-2.054c0.244,0,0.482,0.059,0.697,0.172c1.158,0.607,2.123,1.768,2.826,2.838
	c1.715,0.016,3.738,0.996,3.738,5.542c0,7.819-5.473,14.657-13.012,16.259c-0.104,0.022-0.207,0.033-0.312,0.033
	C97.354,91.533,97.303,91.53,97.25,91.525z M104.562,74.066c-1.641,0.861-2.924,2.227-3.775,3.336
	c-1.955,2.596-3.172,6.081-3.172,7.815c0,0.495,0.098,0.975,0.211,1.327c3.971-1.412,6.766-6.113,6.766-11.604
	C104.592,74.596,104.582,74.308,104.562,74.066z"/>
<path fill="#FFB8CA" d="M103.469,68.189c0.902,0.474,1.848,1.548,2.709,3.053c0.258,0,0.516-0.043,0.773-0.043
	c1.549,0,2.279,1.29,2.279,4.042c0,7.182-4.945,13.33-11.824,14.792c-3.27-0.344-5.375-3.096-5.375-6.966
	c0-4.601,2.967-10.147,7.008-13.115C100.588,68.792,102.135,68.189,103.469,68.189 M97.234,88.271
	c5.115-1.118,8.857-6.622,8.857-13.33c0-1.462-0.172-2.279-0.559-2.881c-2.494,0.731-4.516,2.58-5.936,4.429
	c-1.977,2.623-3.482,6.45-3.482,8.729C96.115,86.594,96.674,88.099,97.234,88.271 M103.469,65.189c-2.012,0-4.166,0.816-6.229,2.361
	c-4.824,3.543-8.209,9.931-8.209,15.517c0,5.444,3.24,9.442,8.062,9.949c0.104,0.011,0.209,0.017,0.312,0.017
	c0.209,0,0.418-0.021,0.625-0.065c8.227-1.749,14.199-9.204,14.199-17.727c0-5.362-2.627-6.688-4.402-6.973
	c-0.92-1.267-1.912-2.183-2.965-2.735C104.434,65.308,103.955,65.189,103.469,65.189L103.469,65.189z M99.277,84.037
	c0.379-1.641,1.391-3.983,2.717-5.743c0.295-0.384,0.602-0.743,0.918-1.072C102.449,80.113,101.121,82.572,99.277,84.037
	L99.277,84.037z"/>
<path d="M112.326,92.179c-0.256,0-0.514-0.066-0.744-0.198c-1.389-0.795-2.273-2.221-2.705-4.36
	c-0.02-0.097-0.029-0.196-0.029-0.296c0-2.506,1.41-7.551,3.354-11.995c1.229-2.823,3.949-8.344,5.438-9.021
	c0.197-0.09,0.41-0.135,0.621-0.135c0.152,0,0.303,0.023,0.449,0.068c1.943,0.61,3.771,2.661,4.551,5.104
	c0.107,0.337,0.092,0.7-0.041,1.027c-0.174,0.422-0.395,0.883-0.65,1.373c2.615-2.56,5.391-4.734,7.861-4.734
	c1.752,0,3.352,1.141,4.385,3.131c0.111,0.213,0.168,0.451,0.168,0.691c0,0.596-0.303,1.078-0.9,1.434
	c-0.145,0.087-0.365,0.219-0.709,0.618c-1.414,1.852-4.109,7.224-4.109,10.246c0,0.022,0,0.044,0,0.065
	c0.072-0.023,0.139-0.045,0.193-0.063c0.398-0.132,0.773-0.256,1.188-0.256c0.273,0,0.543,0.075,0.777,0.216
	c0.814,0.493,1.109,1.553,1.109,2.145c0,0.425-0.18,0.83-0.496,1.114c-0.998,0.9-3.189,2.148-4.701,2.148
	c-2.547,0-5.586-1.051-5.586-6.058c0-0.904,0.123-1.883,0.578-3.376c-2.164,2.173-3.926,4.269-5.902,7.007
	c-1.555,2.199-2.416,3.378-3.361,3.911C112.834,92.114,112.58,92.179,112.326,92.179z"/>
<path fill="#FFB8CA" d="M118.26,67.674c1.506,0.473,2.967,2.235,3.57,4.128c-1.291,3.139-5.807,9.245-6.15,11.867
	c1.807-1.935,4.73-5.547,5.719-6.578c2.193-2.322,6.236-6.579,9.031-6.579c1.461,0,2.494,1.247,3.053,2.322
	c0,0.129-0.473,0.172-1.248,1.074c-1.547,2.021-4.471,7.697-4.471,11.224c0,1.419,0.387,1.677,1.074,1.677
	c0.602,0,1.42-0.431,1.807-0.431c0.215,0.13,0.387,0.603,0.387,0.86c-0.859,0.774-2.709,1.763-3.697,1.763
	c-3.312,0-4.086-2.021-4.086-4.558c0-1.419,0.387-3.182,2.365-7.74c-0.129,0-1.807,0.817-3.482,2.451
	c-2.666,2.58-4.688,4.945-6.924,8.041c-1.246,1.763-2.193,3.096-2.881,3.483c-1.203-0.688-1.719-2.064-1.979-3.354
	c0-2.149,1.291-6.966,3.227-11.395C115.766,70.898,117.787,67.889,118.26,67.674 M118.26,64.674c-0.424,0-0.848,0.09-1.24,0.27
	c-2.174,0.987-5.057,7.174-6.195,9.789c-2.047,4.681-3.477,9.86-3.477,12.592c0,0.199,0.02,0.397,0.059,0.592
	c0.516,2.553,1.668,4.358,3.43,5.366c0.463,0.265,0.977,0.396,1.49,0.396c0.508,0,1.016-0.129,1.475-0.387
	c1.281-0.724,2.307-2.172,3.855-4.364c0.902-1.249,1.76-2.362,2.637-3.412c0.492,5.828,5.027,6.485,7.041,6.485
	c1.996,0,4.539-1.481,5.705-2.534c0.633-0.568,0.992-1.379,0.992-2.229c0-1.154-0.566-2.662-1.834-3.428
	c-0.361-0.219-0.762-0.357-1.178-0.409c0.66-2.63,2.447-6.128,3.543-7.599c0.146-0.162,0.215-0.203,0.287-0.246
	c1.422-0.846,1.633-2.068,1.633-2.723c0-0.481-0.115-0.956-0.338-1.383c-1.301-2.504-3.383-3.939-5.715-3.939
	c-2.012,0-4.035,1.046-6.025,2.597c-1.045-2.538-3.078-4.616-5.246-5.297C118.865,64.72,118.562,64.674,118.26,64.674L118.26,64.674
	z"/>
<path d="M154.508,93.641c-6.117,0-9.627-4.167-9.627-11.434c0-10.62,7.422-26.998,17.281-26.998c1.166,0,2.145,0.196,3.172,0.637
	c1.201,0.506,3.73,1.985,5.068,3.531c0.051-0.049,0.104-0.096,0.162-0.139c0.262-0.19,0.572-0.288,0.885-0.288
	c0.223,0,0.447,0.05,0.654,0.149c1.572,0.762,4.416,2.137,4.416,7.929c0,7.931-3.789,16.157-9.889,21.47
	C162.896,91.766,158.477,93.641,154.508,93.641z M166.979,62.38c-6.643,0-13.938,10.962-13.938,20.945
	c0,5.122,2.098,5.122,2.887,5.122c2.363,0,5.742-2.076,8.221-5.051c3.678-4.387,6.146-11.896,6.146-18.689
	c0-0.895-0.025-1.57-0.064-2.098c-0.148,0.047-0.301,0.071-0.457,0.071c-0.105,0-0.213-0.011-0.318-0.034
	C168.686,62.479,167.76,62.38,166.979,62.38z"/>
<path fill="#FFB8CA" d="M162.162,56.709c0.902,0,1.678,0.129,2.58,0.516c2.15,0.903,4.902,3.053,5.031,3.956
	c-0.99-0.215-2.021-0.301-2.795-0.301c-7.826,0-15.438,12.169-15.438,22.445c0,4.472,1.549,6.622,4.387,6.622
	c2.795,0,6.578-2.236,9.373-5.59c4-4.772,6.494-12.642,6.494-19.65c0-2.795-0.26-3.655-0.346-4.257
	c1.42,0.688,3.57,1.677,3.57,6.578c0,8.041-4.043,15.695-9.375,20.339c-3.439,3.01-7.566,4.773-11.137,4.773
	c-5.246,0-8.127-3.44-8.127-9.934C146.381,71.673,153.691,56.709,162.162,56.709 M162.162,53.709
	c-5.021,0-9.877,3.662-13.672,10.312c-3.152,5.521-5.109,12.49-5.109,18.187c0,8.099,4.16,12.934,11.127,12.934
	c4.328,0,9.107-2.011,13.113-5.516c6.412-5.584,10.398-14.245,10.398-22.597c0-6.731-3.525-8.438-5.219-9.257
	c-0.42-0.203-0.875-0.304-1.33-0.304c-0.254,0-0.506,0.031-0.752,0.094c-2.008-1.837-4.771-3.085-4.814-3.103
	C164.701,53.943,163.541,53.709,162.162,53.709L162.162,53.709z M155.928,86.947c-0.414,0-1.387,0-1.387-3.622
	c0-8.905,6.742-19.445,12.438-19.445c0.566,0,1.221,0.06,1.811,0.165c0.004,0.205,0.006,0.425,0.006,0.662
	c0,6.467-2.328,13.589-5.793,17.723C160.555,85.366,157.533,86.947,155.928,86.947L155.928,86.947z"/>
<path d="M176.439,92.179c-0.256,0-0.514-0.065-0.744-0.197c-1.393-0.796-2.277-2.223-2.705-4.363
	c-0.02-0.097-0.029-0.195-0.029-0.294c0-2.509,1.41-7.554,3.352-11.995c1.23-2.823,3.951-8.345,5.439-9.021
	c0.197-0.09,0.41-0.135,0.621-0.135c0.152,0,0.303,0.023,0.451,0.068c1.943,0.611,3.771,2.663,4.547,5.105
	c0.107,0.336,0.092,0.698-0.041,1.023c-0.174,0.424-0.396,0.885-0.652,1.377c2.619-2.561,5.393-4.736,7.863-4.736
	c1.752,0,3.352,1.141,4.385,3.131c0.111,0.213,0.168,0.451,0.168,0.691c0,0.596-0.303,1.078-0.898,1.434
	c-0.146,0.086-0.365,0.218-0.709,0.617c-1.416,1.852-4.111,7.221-4.111,10.247c0,0.022,0,0.044,0,0.065
	c0.072-0.022,0.139-0.045,0.195-0.062c0.396-0.133,0.771-0.257,1.186-0.257c0.273,0,0.543,0.075,0.777,0.216
	c0.814,0.493,1.109,1.553,1.109,2.145c0,0.425-0.18,0.83-0.496,1.114c-0.998,0.9-3.189,2.148-4.701,2.148
	c-2.547,0-5.584-1.051-5.584-6.058c0-0.905,0.123-1.884,0.578-3.379c-2.166,2.176-3.928,4.271-5.902,7.009
	c-1.559,2.202-2.422,3.383-3.361,3.912C176.947,92.114,176.693,92.179,176.439,92.179z"/>
<path fill="#FFB8CA" d="M182.373,67.674c1.504,0.473,2.967,2.235,3.568,4.128c-1.289,3.139-5.805,9.245-6.148,11.867
	c1.807-1.935,4.73-5.547,5.719-6.578c2.193-2.322,6.234-6.579,9.029-6.579c1.463,0,2.494,1.247,3.053,2.322
	c0,0.129-0.473,0.172-1.246,1.074c-1.549,2.021-4.473,7.697-4.473,11.224c0,1.419,0.387,1.677,1.076,1.677
	c0.602,0,1.418-0.431,1.805-0.431c0.215,0.13,0.387,0.603,0.387,0.86c-0.859,0.774-2.709,1.763-3.697,1.763
	c-3.311,0-4.084-2.021-4.084-4.558c0-1.419,0.387-3.182,2.363-7.74c-0.129,0-1.805,0.817-3.482,2.451
	c-2.666,2.58-4.688,4.945-6.922,8.041c-1.248,1.763-2.193,3.096-2.881,3.483c-1.205-0.688-1.721-2.064-1.979-3.354
	c0-2.149,1.289-6.966,3.225-11.395C179.879,70.898,181.9,67.889,182.373,67.674 M182.373,64.674c-0.424,0-0.848,0.09-1.24,0.27
	c-2.172,0.986-5.057,7.174-6.197,9.787c-2.045,4.68-3.475,9.859-3.475,12.594c0,0.197,0.02,0.395,0.059,0.588
	c0.51,2.555,1.666,4.362,3.432,5.371c0.461,0.264,0.975,0.396,1.488,0.396c0.508,0,1.016-0.129,1.475-0.387
	c1.275-0.72,2.301-2.169,3.855-4.363c0.902-1.249,1.76-2.364,2.637-3.415c0.492,5.829,5.027,6.487,7.039,6.487
	c1.996,0,4.539-1.481,5.705-2.534c0.633-0.568,0.992-1.379,0.992-2.229c0-1.154-0.566-2.662-1.834-3.428
	c-0.361-0.219-0.762-0.357-1.178-0.409c0.66-2.632,2.449-6.131,3.547-7.599c0.145-0.164,0.213-0.204,0.285-0.246
	c1.42-0.846,1.631-2.068,1.631-2.723c0-0.481-0.115-0.956-0.338-1.383c-1.301-2.504-3.383-3.939-5.715-3.939
	c-2.012,0-4.033,1.047-6.025,2.598c-1.043-2.538-3.074-4.615-5.242-5.297C182.98,64.72,182.676,64.674,182.373,64.674
	L182.373,64.674z"/>
<path d="M204.312,91.696c-4.555-0.494-7.615-3.737-7.615-8.07c0-8.032,7.131-16.851,13.625-16.851c0.066,0,0.133,0.004,0.199,0.014
	c1.697,0.227,3.271,1.237,4.674,3.005c0.23,0.29,0.344,0.655,0.322,1.024c-0.459,7.531-4.402,10.738-11.52,13.704
	c-0.002,0.03-0.002,0.062-0.002,0.093c0,1.369,0.334,1.882,0.416,1.936c0.002,0,0.004,0,0.006,0c2.58,0,5.451-3.072,6.83-4.551
	c0.295-0.314,0.695-0.476,1.096-0.476c0.348,0,0.695,0.119,0.977,0.361c0.367,0.314,0.639,0.587,0.908,0.912
	c0.445,0.536,0.463,1.31,0.041,1.865c-2.764,3.639-6.393,6.323-9.469,7.006c-0.107,0.024-0.217,0.036-0.326,0.036
	C204.422,91.705,204.367,91.702,204.312,91.696z M208.672,74.941c-0.887,0.738-1.768,1.76-2.531,3.008
	C207.232,77.004,208.09,75.986,208.672,74.941z"/>
<path fill="#FFB8CA" d="M210.322,68.275c1.289,0.172,2.537,0.989,3.697,2.451c-0.43,7.052-4.17,9.847-11.48,12.771
	c0,0.345-0.043,0.731-0.043,1.118c0,1.462,0.344,3.44,1.979,3.44c3.096,0,6.062-3.097,7.869-5.031
	c0.301,0.258,0.516,0.473,0.73,0.731c-2.58,3.396-5.891,5.848-8.6,6.449c-3.957-0.43-6.277-3.139-6.277-6.579
	C198.197,76.574,204.646,68.275,210.322,68.275 M211.053,72.146c-3.139,0.43-6.793,4.386-8.17,9.718
	C207.441,79.585,210.838,76.059,211.053,72.146 M210.322,65.275c-7.35,0-15.125,9.433-15.125,18.351c0,5.138,3.598,8.98,8.953,9.562
	c0.109,0.012,0.217,0.018,0.324,0.018c0.219,0,0.438-0.023,0.65-0.071c3.459-0.769,7.324-3.596,10.338-7.563
	c0.844-1.111,0.811-2.657-0.08-3.73c-0.322-0.389-0.656-0.726-1.086-1.094c-0.246-0.211-0.518-0.375-0.803-0.494
	c2.062-2.312,3.271-5.258,3.52-9.343c0.045-0.739-0.184-1.468-0.645-2.048c-1.652-2.082-3.553-3.28-5.65-3.56
	C210.588,65.284,210.455,65.275,210.322,65.275L210.322,65.275z"/>
</svg>
