<?xml version="1.0" encoding="utf-8"?>
<!-- Generator: Adobe Illustrator 16.0.0, SVG Export Plug-In . SVG Version: 6.00 Build 0)  -->
<!DOCTYPE svg PUBLIC "-//W3C//DTD SVG 1.1//EN" "http://www.w3.org/Graphics/SVG/1.1/DTD/svg11.dtd">
<svg version="1.1" id="Layer_1" xmlns="http://www.w3.org/2000/svg" xmlns:xlink="http://www.w3.org/1999/xlink" x="0px" y="0px"
	 width="235px" height="100px" viewBox="0 0 235 100" enable-background="new 0 0 235 100" xml:space="preserve">
<g>
	<g>
		<path d="M25.942,93.296c-6.916,0-17.582-4.577-17.582-10.658c0-1.874,0.994-4.111,2.658-5.984c0.29-0.326,0.7-0.504,1.122-0.504
			c0.155,0,0.311,0.023,0.462,0.073c0.566,0.184,0.971,0.685,1.03,1.277c0.108,1.085,1.389,3.36,4.473,5.179
			c2.605,1.534,5.823,2.415,8.827,2.415c5.43,0,6.247-3.012,6.359-3.649c-0.262-1.369-5.297-3.554-8.332-4.87
			c-7.446-3.26-11.224-5.829-11.224-10.836c0-4.005,2.531-7.534,6.604-9.212c2.429-1.018,4.926-1.231,6.592-1.231
			c3.486,0,7.164,0.916,11.576,2.882c0.456,0.203,0.781,0.621,0.867,1.113c0.05,0.288,0.092,0.504,0.127,0.681
			c0.089,0.449,0.153,0.774,0.153,1.339c0,2.513-1.273,4.817-3.168,5.735c-0.21,0.102-0.433,0.15-0.653,0.15
			c-0.468,0-0.924-0.219-1.215-0.618c-2.042-2.812-6.552-3.811-9.794-3.811c-3.598,0-5.589,1.057-5.792,1.701
			c0.561,1.811,7.196,4.884,9.733,6.059c5.813,2.713,9.341,4.794,9.341,10.821C38.106,88.383,33.104,93.296,25.942,93.296z"/>
		<path fill="#C5E894" d="M26.931,56.795c3.74,0,7.396,1.161,10.965,2.752c0.172,0.989,0.258,1.161,0.258,1.763
			c0,1.893-0.903,3.698-2.322,4.386c-2.279-3.139-6.966-4.429-11.008-4.429c-3.999,0-7.267,1.247-7.31,3.269
			c0.344,2.493,5.977,5.202,10.62,7.353c5.806,2.709,8.472,4.386,8.472,9.46c0,5.891-4.085,10.448-10.664,10.448
			c-6.364,0-16.082-4.257-16.082-9.158c0-1.161,0.56-3.053,2.279-4.988c0.172,1.72,1.849,4.343,5.203,6.321
			c3.139,1.849,6.664,2.623,9.589,2.623c6.406,0,7.739-3.784,7.868-5.117c-0.086-2.279-4.386-4.171-9.244-6.278
			c-7.268-3.182-10.32-5.375-10.32-9.46c0-3.225,2.021-6.32,5.676-7.825C22.76,57.139,24.91,56.795,26.931,56.795 M26.931,53.795
			c-1.803,0-4.512,0.234-7.179,1.351c-4.63,1.907-7.517,5.969-7.517,10.593c0,6.384,5.488,9.306,12.117,12.208
			c2.36,1.023,6.156,2.671,7.293,3.746c-0.353,0.706-1.435,1.901-4.714,1.901c-2.744,0-5.684-0.805-8.066-2.208
			c-2.653-1.564-3.68-3.426-3.74-4.034c-0.119-1.186-0.927-2.188-2.061-2.556c-0.304-0.099-0.616-0.146-0.924-0.146
			c-0.843,0-1.664,0.355-2.243,1.008c-1.93,2.172-3.037,4.716-3.037,6.98c0,7.542,12.354,12.158,19.082,12.158
			c7.917,0,13.664-5.656,13.664-13.448c0-6.901-4.04-9.303-10.203-12.179c-4.108-1.902-6.835-3.381-8.149-4.415
			c0.766-0.253,1.964-0.487,3.57-0.487c3.804,0,7.172,1.253,8.581,3.191c0.58,0.799,1.493,1.237,2.429,1.237
			c0.441,0,0.888-0.098,1.307-0.3c2.438-1.182,4.014-3.963,4.014-7.086c0-0.71-0.084-1.136-0.181-1.629
			c-0.033-0.168-0.074-0.373-0.122-0.647c-0.171-0.984-0.821-1.819-1.734-2.227C34.507,54.752,30.635,53.795,26.931,53.795
			L26.931,53.795z"/>
	</g>
	<g>
		<path d="M45.56,91.696c-4.555-0.495-7.616-3.738-7.616-8.07c0-8.031,7.131-16.851,13.625-16.851c0.066,0,0.133,0.004,0.199,0.013
			c1.695,0.227,3.269,1.237,4.673,3.005c0.23,0.29,0.346,0.655,0.323,1.024c-0.459,7.532-4.402,10.739-11.52,13.705
			c-0.001,0.03-0.002,0.062-0.002,0.093c0,1.368,0.333,1.882,0.416,1.937c0.002,0,0.004,0,0.005,0c2.583,0,5.45-3.073,6.829-4.551
			c0.295-0.315,0.695-0.477,1.097-0.477c0.347,0,0.694,0.119,0.977,0.361c0.363,0.312,0.634,0.583,0.905,0.907
			c0.45,0.536,0.469,1.312,0.045,1.87c-2.765,3.639-6.393,6.323-9.471,7.006c-0.106,0.024-0.215,0.036-0.324,0.036
			C45.667,91.705,45.613,91.702,45.56,91.696z M49.919,74.941c-0.887,0.738-1.768,1.76-2.531,3.008
			C48.479,77.004,49.336,75.986,49.919,74.941z"/>
		<path fill="#C5E894" d="M51.569,68.275c1.29,0.172,2.536,0.989,3.698,2.451c-0.43,7.052-4.171,9.847-11.481,12.771
			c0,0.345-0.043,0.731-0.043,1.118c0,1.462,0.344,3.44,1.979,3.44c3.096,0,6.062-3.097,7.868-5.031
			c0.301,0.258,0.516,0.473,0.732,0.731c-2.581,3.396-5.892,5.848-8.601,6.449c-3.957-0.43-6.278-3.139-6.278-6.579
			C39.444,76.574,45.894,68.275,51.569,68.275 M52.3,72.146c-3.139,0.43-6.793,4.386-8.17,9.718
			C48.688,79.585,52.085,76.059,52.3,72.146 M51.569,65.275c-7.351,0-15.125,9.433-15.125,18.351c0,5.138,3.598,8.979,8.954,9.562
			c0.107,0.012,0.216,0.018,0.324,0.018c0.218,0,0.436-0.023,0.65-0.071c3.459-0.769,7.324-3.596,10.339-7.563
			c0.848-1.114,0.811-2.668-0.089-3.741c-0.323-0.386-0.656-0.72-1.08-1.082c-0.246-0.212-0.518-0.376-0.802-0.494
			c2.064-2.312,3.272-5.258,3.521-9.344c0.045-0.739-0.185-1.47-0.646-2.05c-1.655-2.081-3.556-3.278-5.65-3.558
			C51.835,65.284,51.702,65.275,51.569,65.275L51.569,65.275z"/>
	</g>
	<g>
		<path d="M60.151,90.974c-2.948-0.12-5.007-2.876-5.007-6.702c0-7.291,6.755-16.629,12.251-16.935
			c0.027-0.001,0.056-0.002,0.083-0.002c0.127,0,0.253,0.016,0.376,0.048c1.035,0.268,2.416,1.345,3.343,2.561
			c0.252-0.184,0.56-0.287,0.883-0.287c1.355,0,3.32,0.788,4.122,1.654c0.51,0.551,0.583,1.101,0.555,1.466
			c-0.014,0.187-0.062,0.368-0.144,0.536c-2.251,4.669-3.764,9.557-3.764,12.163c0,1.491,0.347,1.827,0.35,1.83
			c0.465,0.258,0.756,0.74,0.77,1.271c0.014,0.53-0.257,1.027-0.707,1.31c-0.93,0.58-2.439,1.002-3.59,1.002
			c-1.049,0-3.365-0.38-3.764-3.654c-1.709,1.969-3.61,3.423-5.456,3.721c-0.079,0.013-0.159,0.02-0.239,0.02
			C60.192,90.975,60.172,90.975,60.151,90.974z M68.565,74.743c-2.922,1.968-5.845,6.272-6.472,9.804
			c0.979-0.948,2.419-2.816,4.53-6.336C67.193,77.255,67.875,76.033,68.565,74.743z"/>
		<path fill="#C5E894" d="M67.479,68.835c1.162,0.301,3.098,2.321,3.227,3.396c-4.602,0.731-10.234,8.342-10.234,13.631
			c0,0.602,0.215,0.903,0.602,1.032c1.678-0.344,3.742-2.752,6.838-7.912c1.203-2.021,2.924-5.246,4.17-7.826
			c1.205,0,3.225,0.946,3.182,1.505c-2.322,4.816-3.912,9.891-3.912,12.814c0,1.591,0.344,2.709,1.117,3.139
			c-0.688,0.43-1.934,0.774-2.795,0.774c-1.547,0-2.322-1.032-2.322-3.183c0-1.591,0.561-3.913,1.635-6.708
			c-2.322,5.246-6.105,9.546-8.771,9.977c-2.107-0.086-3.568-2.236-3.568-5.203C56.645,77.864,62.836,69.093,67.479,68.835
			 M67.479,65.835c-0.056,0-0.111,0.002-0.166,0.005c-6.78,0.376-13.668,11.041-13.668,18.432c0,4.6,2.711,8.049,6.446,8.2
			c0.041,0.002,0.081,0.003,0.122,0.003c0.16,0,0.32-0.013,0.479-0.038c1.556-0.252,3.107-1.141,4.568-2.423
			c1.021,1.7,2.754,2.375,4.412,2.375c1.423,0,3.226-0.506,4.385-1.23c0.9-0.562,1.437-1.56,1.409-2.621
			c-0.022-0.86-0.412-1.659-1.053-2.206c-0.03-0.16-0.063-0.434-0.063-0.855c0-2.364,1.486-7.098,3.614-11.512
			c0.162-0.336,0.261-0.7,0.289-1.072c0.072-0.938-0.266-1.86-0.95-2.601c-1.091-1.177-3.434-2.135-5.223-2.135
			c-0.143,0-0.284,0.01-0.423,0.03c-1.058-1.108-2.348-1.977-3.427-2.256C67.984,65.867,67.731,65.835,67.479,65.835L67.479,65.835z
			"/>
	</g>
	<g>
		<path d="M78.11,94.495c-2.23-0.176-4.756-2.242-5.403-4.422c-0.042-0.139-0.062-0.282-0.062-0.427
			c0-4.712,3.743-8.751,8.762-9.729c-0.124-0.89-0.351-1.763-0.571-2.616c-0.328-1.265-0.667-2.572-0.667-3.909
			c0-3.798,3.143-7.679,6.861-8.476c0.104-0.022,0.209-0.033,0.314-0.033c0.13,0,0.26,0.017,0.386,0.051
			c1.826,0.485,5.534,4.252,6.012,6.105c0.039,0.151,0.055,0.308,0.045,0.463c-0.134,2.281-1.525,6.356-3.819,6.356
			c-0.062,0-0.124-0.004-0.187-0.012c-1.028-0.129-1.742-0.882-1.863-1.967c-0.006-0.056-0.009-0.11-0.009-0.166
			c0-0.423,0.15-0.811,0.357-1.347c0.068-0.176,0.173-0.446,0.246-0.671c-0.723,0.601-1.347,2.436-1.456,5.708
			c0.543-0.019,1.039-0.031,1.536-0.031c0.568,0,1.088,0.321,1.342,0.829c0.201,0.402,0.201,0.729,0.201,1.016
			c0,0.487-0.16,1.169-0.611,1.619c-0.2,0.2-0.453,0.34-0.729,0.402c-0.521,0.118-1.226,0.277-1.695,0.405
			c0.013,0.284,0.026,0.606,0.026,1.013c0,5.512-3.351,9.28-8.743,9.834c-0.051,0.005-0.103,0.008-0.153,0.008
			C78.189,94.5,78.149,94.498,78.11,94.495z M80.721,86.607c-0.73,0.692-1.379,1.478-1.723,2.104
			C79.664,88.141,80.261,87.405,80.721,86.607z"/>
		<path fill="#C5E894" d="M87.344,66.384c1.291,0.344,4.602,3.698,4.945,5.031c-0.129,2.192-1.418,4.944-2.322,4.944
			c-0.344-0.043-0.516-0.258-0.559-0.645c0-0.345,0.688-1.634,0.688-2.322c0-0.817-0.43-1.419-1.031-1.419
			c-2.279,0-3.525,2.967-3.525,8.471c0,0.344,0,0.43,0.043,0.516c1.203-0.043,2.105-0.086,3.01-0.086
			c0.043,0.086,0.043,0.13,0.043,0.345s-0.086,0.473-0.172,0.559c-2.666,0.603-2.881,0.688-2.881,1.333
			c0,0.43,0.043,0.86,0.043,1.548c0,4.773-2.795,7.869-7.396,8.342c-1.635-0.129-3.611-1.763-4.084-3.354
			c0-4.386,3.869-8.084,8.857-8.428c0-2.924-1.334-5.418-1.334-7.826C81.668,70.34,84.334,67.028,87.344,66.384 M83.174,83.454
			c-2.236,0.302-5.934,4.042-5.934,6.021c0,0.645,0.301,1.161,0.859,1.548C80.852,89.904,83.174,86.421,83.174,83.454
			 M87.344,63.384c-0.211,0-0.421,0.022-0.628,0.066c-4.362,0.935-8.048,5.487-8.048,9.942c0,1.528,0.363,2.93,0.715,4.285
			c0.1,0.385,0.197,0.763,0.285,1.136c-4.968,1.559-8.523,5.87-8.523,10.833c0,0.289,0.042,0.577,0.124,0.854
			c0.832,2.8,3.849,5.263,6.725,5.489c0.078,0.007,0.156,0.01,0.235,0.01c0.103,0,0.205-0.005,0.307-0.016
			c6.077-0.624,10.022-5,10.089-11.167c0.184-0.042,0.357-0.082,0.5-0.114c0.553-0.125,1.06-0.403,1.46-0.805
			c0.975-0.975,1.051-2.298,1.051-2.68c0-0.361,0-0.967-0.359-1.687c-0.062-0.121-0.13-0.238-0.205-0.349
			c2.848-0.94,4.086-5.421,4.214-7.593c0.018-0.311-0.013-0.623-0.09-0.925c-0.617-2.392-4.719-6.553-7.079-7.182
			C87.863,63.418,87.604,63.384,87.344,63.384L87.344,63.384z"/>
	</g>
	<g>
		<path d="M97.249,91.525c-4.018-0.423-6.718-3.822-6.718-8.458c0-5.059,3.206-11.082,7.622-14.324
			c1.787-1.341,3.629-2.054,5.315-2.054c0.242,0,0.481,0.059,0.696,0.171c1.161,0.608,2.125,1.768,2.827,2.839
			c1.715,0.015,3.738,0.996,3.738,5.542c0,7.819-5.473,14.657-13.013,16.259c-0.103,0.022-0.207,0.033-0.312,0.033
			C97.354,91.533,97.302,91.53,97.249,91.525z M104.562,74.067c-1.641,0.86-2.923,2.226-3.772,3.334
			c-1.957,2.594-3.173,6.08-3.173,7.816c0,0.494,0.098,0.974,0.21,1.326c3.971-1.412,6.765-6.112,6.765-11.604
			C104.592,74.595,104.581,74.308,104.562,74.067z"/>
		<path fill="#C5E894" d="M103.469,68.189c0.904,0.474,1.85,1.548,2.709,3.053c0.258,0,0.516-0.043,0.775-0.043
			c1.547,0,2.277,1.29,2.277,4.042c0,7.182-4.943,13.33-11.824,14.792c-3.268-0.344-5.375-3.096-5.375-6.966
			c0-4.601,2.967-10.147,7.01-13.115C100.588,68.792,102.137,68.189,103.469,68.189 M97.234,88.271
			c5.117-1.118,8.857-6.622,8.857-13.33c0-1.462-0.172-2.279-0.559-2.881c-2.494,0.731-4.516,2.58-5.934,4.429
			c-1.979,2.623-3.482,6.45-3.482,8.729C96.117,86.594,96.676,88.099,97.234,88.271 M103.469,65.189
			c-2.014,0-4.167,0.817-6.228,2.362c-4.824,3.541-8.21,9.929-8.21,15.516c0,5.443,3.239,9.442,8.062,9.949
			c0.104,0.011,0.209,0.017,0.313,0.017c0.209,0,0.418-0.021,0.623-0.065c8.229-1.748,14.201-9.203,14.201-17.727
			c0-5.362-2.627-6.688-4.401-6.973c-0.919-1.267-1.914-2.185-2.969-2.736C104.432,65.307,103.953,65.189,103.469,65.189
			L103.469,65.189z M99.279,84.035c0.378-1.641,1.39-3.982,2.716-5.74c0.294-0.384,0.602-0.742,0.917-1.072
			C102.449,80.113,101.121,82.571,99.279,84.035L99.279,84.035z"/>
	</g>
	<g>
		<path d="M112.328,92.179c-0.257,0-0.514-0.065-0.744-0.197c-1.393-0.796-2.277-2.223-2.705-4.363
			c-0.02-0.097-0.029-0.195-0.029-0.294c0-2.509,1.409-7.554,3.351-11.995c1.23-2.823,3.952-8.345,5.44-9.021
			c0.197-0.09,0.409-0.135,0.621-0.135c0.151,0,0.303,0.022,0.45,0.069c1.943,0.61,3.771,2.662,4.548,5.104
			c0.106,0.336,0.092,0.698-0.042,1.024c-0.174,0.423-0.396,0.885-0.651,1.376c2.617-2.561,5.393-4.736,7.863-4.736
			c1.752,0,3.351,1.141,4.384,3.131c0.111,0.214,0.169,0.45,0.169,0.691c0,0.596-0.303,1.078-0.899,1.434
			c-0.146,0.087-0.365,0.218-0.708,0.617c-1.416,1.852-4.111,7.222-4.111,10.247c0,0.022,0,0.044,0,0.065
			c0.071-0.022,0.138-0.045,0.194-0.063c0.396-0.132,0.772-0.256,1.187-0.256c0.273,0,0.542,0.075,0.776,0.217
			c0.814,0.492,1.11,1.552,1.11,2.144c0,0.425-0.181,0.83-0.496,1.114c-0.999,0.9-3.189,2.148-4.701,2.148
			c-2.548,0-5.584-1.051-5.584-6.058c0-0.905,0.123-1.884,0.578-3.378c-2.16,2.169-3.923,4.267-5.903,7.008
			c-1.559,2.202-2.421,3.383-3.36,3.912C112.836,92.114,112.582,92.179,112.328,92.179z"/>
		<path fill="#C5E894" d="M118.262,67.674c1.504,0.473,2.967,2.235,3.568,4.128c-1.289,3.139-5.805,9.245-6.148,11.867
			c1.807-1.935,4.73-5.547,5.719-6.578c2.193-2.322,6.234-6.579,9.029-6.579c1.463,0,2.494,1.247,3.053,2.322
			c0,0.129-0.473,0.172-1.246,1.074c-1.549,2.021-4.473,7.697-4.473,11.224c0,1.419,0.387,1.677,1.076,1.677
			c0.602,0,1.418-0.431,1.805-0.431c0.215,0.13,0.387,0.603,0.387,0.86c-0.859,0.774-2.709,1.763-3.697,1.763
			c-3.311,0-4.084-2.021-4.084-4.558c0-1.419,0.387-3.182,2.363-7.74c-0.129,0-1.805,0.817-3.482,2.451
			c-2.666,2.58-4.686,4.945-6.922,8.041c-1.248,1.763-2.193,3.096-2.881,3.483c-1.205-0.688-1.721-2.064-1.979-3.354
			c0-2.149,1.289-6.966,3.225-11.395C115.768,70.898,117.789,67.889,118.262,67.674 M118.262,64.674
			c-0.425,0-0.849,0.09-1.241,0.269c-2.172,0.987-5.057,7.174-6.196,9.788c-2.045,4.681-3.475,9.86-3.475,12.594
			c0,0.197,0.02,0.395,0.059,0.588c0.51,2.555,1.665,4.362,3.432,5.371c0.461,0.264,0.975,0.396,1.488,0.396
			c0.508,0,1.016-0.129,1.474-0.387c1.276-0.72,2.302-2.169,3.855-4.363c0.903-1.25,1.762-2.364,2.637-3.413
			c0.493,5.827,5.027,6.485,7.04,6.485c1.996,0,4.538-1.481,5.705-2.534c0.632-0.568,0.992-1.379,0.992-2.229
			c0-1.154-0.567-2.661-1.835-3.428c-0.36-0.218-0.762-0.357-1.178-0.409c0.66-2.633,2.449-6.131,3.547-7.6
			c0.146-0.162,0.214-0.203,0.285-0.246c1.42-0.846,1.632-2.068,1.632-2.722c0-0.481-0.116-0.956-0.338-1.383
			c-1.301-2.504-3.384-3.939-5.715-3.939c-2.013,0-4.034,1.046-6.025,2.598c-1.043-2.538-3.074-4.616-5.243-5.298
			C118.868,64.72,118.564,64.674,118.262,64.674L118.262,64.674z"/>
	</g>
	<g>
		<path d="M150.123,93.512c-0.108,0-0.218-0.012-0.326-0.036c-2.34-0.521-4.08-1.899-5.642-4.469
			c-0.262-0.433-0.289-0.968-0.072-1.424c0.758-1.594,1.834-4.232,4.658-11.438c-0.88-0.587-1.536-1.392-1.876-2.326
			c-0.198-0.547-0.062-1.16,0.35-1.572c0.426-0.427,1.101-0.752,3.549-1.337c1.217-3.249,1.956-5.266,2.551-7.639
			c-2.14-0.516-3.529-2.062-3.529-4.11c0-0.691,0.234-1.683,0.545-2.305c0.256-0.514,0.78-0.83,1.341-0.83
			c0.079,0,0.159,0.006,0.239,0.02c0.938,0.15,1.745,0.196,3.459,0.196c4.652,0,8.717-0.411,11.406-0.683
			c1.513-0.153,2.605-0.264,3.342-0.264c0.986,0,3.393,0.5,4.433,5.127c0.105,0.469-0.021,0.96-0.339,1.32
			c-0.286,0.325-0.696,0.509-1.125,0.509c-0.047,0-0.095-0.002-0.142-0.007c-1.928-0.184-2.88-0.208-3.558-0.208
			c-2.545,0-4.727,0.249-6.565,0.522c-0.538,0.953-1.356,2.702-3.179,6.785c1.372-0.163,2.475-0.246,3.295-0.246
			c2.672,0,4.467,1.777,4.467,4.424c0,0.834-0.126,1.509-0.373,2.004c-0.258,0.515-0.781,0.829-1.341,0.829
			c-0.087,0-0.174-0.008-0.262-0.022c-0.732-0.13-1.589-0.192-2.62-0.192c-1.675,0-3.469,0.287-5.204,0.564
			c-0.445,0.071-0.884,0.142-1.312,0.205c-2.352,5.643-3.847,10.543-4.691,15.361c-0.07,0.403-0.304,0.761-0.645,0.988
			C150.708,93.425,150.417,93.512,150.123,93.512z"/>
		<path fill="#C5E894" d="M170.117,56.795c1.334,0,2.408,1.462,2.969,3.956c-1.807-0.172-2.838-0.215-3.699-0.215
			c-2.881,0-5.289,0.301-7.48,0.645c-0.689,1.032-1.506,2.752-4.73,10.019c2.236-0.344,4.385-0.602,5.762-0.602
			c1.85,0,2.967,1.075,2.967,2.924c0,0.43-0.043,0.989-0.215,1.333c-0.73-0.129-1.635-0.215-2.881-0.215
			c-2.537,0-5.246,0.602-7.568,0.903c-2.58,6.062-4.213,11.309-5.117,16.469c-1.934-0.431-3.354-1.592-4.686-3.784
			c0.859-1.807,2.105-4.902,5.201-12.814c-1.16-0.387-2.02-1.16-2.363-2.106c0.301-0.301,1.719-0.688,3.611-1.118
			c1.676-4.472,2.537-6.751,3.268-10.233h-0.215c-2.193,0-3.654-1.118-3.654-2.795c0-0.431,0.172-1.204,0.387-1.635
			c1.074,0.173,1.979,0.216,3.697,0.216C162.551,57.741,168.184,56.795,170.117,56.795 M170.117,53.795
			c-0.812,0-1.937,0.113-3.493,0.271c-2.659,0.269-6.678,0.675-11.255,0.675c-1.642,0-2.364-0.04-3.221-0.178
			c-0.16-0.025-0.319-0.038-0.478-0.038c-1.123,0-2.17,0.632-2.684,1.661c-0.413,0.828-0.702,2.052-0.702,2.974
			c0,2.241,1.247,4.073,3.224,5.043c-0.471,1.631-1.054,3.245-1.872,5.439c-2.007,0.514-2.846,0.906-3.482,1.543
			c-0.824,0.823-1.097,2.05-0.698,3.146c0.312,0.861,0.823,1.636,1.489,2.284c-2.513,6.402-3.512,8.842-4.217,10.323
			c-0.435,0.913-0.38,1.983,0.146,2.847c1.767,2.908,3.862,4.546,6.597,5.155c0.216,0.048,0.435,0.071,0.652,0.071
			c0.589,0,1.169-0.173,1.667-0.506c0.681-0.455,1.146-1.169,1.288-1.977c0.786-4.485,2.154-9.055,4.278-14.267
			c0.161-0.025,0.322-0.051,0.484-0.077c1.678-0.269,3.412-0.546,4.968-0.546c0.942,0,1.715,0.056,2.359,0.169
			c0.175,0.031,0.35,0.046,0.522,0.046c1.121,0,2.168-0.63,2.683-1.658c0.357-0.716,0.531-1.591,0.531-2.675
			c0-3.488-2.453-5.924-5.967-5.924c-0.269,0-0.561,0.008-0.877,0.023c0.812-1.796,1.346-2.933,1.728-3.686
			c1.618-0.219,3.481-0.399,5.599-0.399c0.643,0,1.55,0.024,3.415,0.201c0.095,0.009,0.19,0.014,0.284,0.014
			c0.857,0,1.679-0.367,2.251-1.017c0.636-0.722,0.887-1.703,0.676-2.642C174.735,54.408,171.464,53.795,170.117,53.795
			L170.117,53.795z"/>
	</g>
	<g>
		<path d="M172.757,91.525c-4.018-0.423-6.718-3.821-6.718-8.458c0-5.058,3.205-11.082,7.62-14.324
			c1.789-1.341,3.632-2.054,5.317-2.054c0.243,0,0.482,0.059,0.697,0.172c1.158,0.608,2.123,1.767,2.825,2.838
			c1.716,0.015,3.739,0.997,3.739,5.542c0,7.818-5.473,14.657-13.013,16.259c-0.103,0.022-0.207,0.033-0.312,0.033
			C172.861,91.533,172.81,91.53,172.757,91.525z M180.07,74.067c-1.641,0.86-2.924,2.226-3.775,3.335
			c-1.956,2.596-3.172,6.081-3.172,7.815c0,0.495,0.098,0.975,0.21,1.326c3.972-1.411,6.767-6.112,6.767-11.604
			C180.1,74.595,180.089,74.308,180.07,74.067z"/>
		<path fill="#C5E894" d="M178.977,68.189c0.902,0.474,1.848,1.548,2.709,3.053c0.258,0,0.516-0.043,0.773-0.043
			c1.549,0,2.279,1.29,2.279,4.042c0,7.182-4.945,13.33-11.824,14.792c-3.27-0.344-5.375-3.096-5.375-6.966
			c0-4.601,2.967-10.147,7.008-13.115C176.096,68.792,177.643,68.189,178.977,68.189 M172.742,88.271
			c5.115-1.118,8.857-6.622,8.857-13.33c0-1.462-0.172-2.279-0.559-2.881c-2.494,0.731-4.516,2.58-5.936,4.429
			c-1.977,2.623-3.482,6.45-3.482,8.729C171.623,86.594,172.182,88.099,172.742,88.271 M178.977,65.189
			c-2.012,0-4.166,0.816-6.229,2.361c-4.824,3.543-8.209,9.931-8.209,15.517c0,5.444,3.239,9.442,8.062,9.949
			c0.104,0.011,0.209,0.017,0.313,0.017c0.209,0,0.418-0.021,0.624-0.065c8.228-1.749,14.2-9.204,14.2-17.727
			c0-5.362-2.627-6.688-4.402-6.973c-0.92-1.267-1.913-2.184-2.965-2.735C179.94,65.308,179.462,65.189,178.977,65.189
			L178.977,65.189z M174.785,84.037c0.378-1.641,1.39-3.983,2.716-5.743c0.296-0.385,0.603-0.742,0.919-1.072
			C177.957,80.113,176.628,82.572,174.785,84.037L174.785,84.037z"/>
	</g>
	<g>
		<path d="M190.901,90.887c-2.495-0.118-5.45-1.839-6.075-4.511c-0.025-0.112-0.039-0.227-0.039-0.342
			c0-1.672,0.092-2.637,0.377-3.969c1.016-4.28,4.154-12.136,8.283-15.133c0.256-0.186,0.564-0.286,0.881-0.286
			c0.137,0,3.37,0.021,4.959,1.85c0.501,0.576,0.488,1.438-0.029,2c-0.429,0.464-2.695,3.614-5.183,9.5
			c-0.261,0.603-0.608,1.61-0.92,2.652c0.459-0.605,0.89-1.192,1.209-1.629l0.543-0.733c1.154-1.55,2.735-3.673,3.475-5.654
			c0.544-1.493,1.547-4.243,3.725-6.323c0.279-0.267,0.65-0.415,1.036-0.415c1.752,0,4.341,0.796,5.255,1.938
			c0.344,0.429,0.425,1.011,0.213,1.517c-0.636,1.518-1.374,3.009-2.088,4.45c-1.652,3.338-3.214,6.491-3.214,9.333
			c0,1.338,0.337,2.092,0.584,2.642c0.179,0.399,0.363,0.812,0.363,1.313c0,0.762-0.535,1.431-1.3,1.626
			c-0.122,0.031-0.247,0.047-0.372,0.047c-1.237,0-3.547-1.001-4.927-1.936c-0.043-0.029-0.084-0.061-0.124-0.094
			c-0.802-0.673-1.269-1.539-1.54-2.353c-0.22,0.29-0.425,0.563-0.598,0.793c-0.592,0.789-1.104,1.47-1.428,1.854
			c-0.771,0.818-1.832,1.744-2.829,1.855c-0.056,0.006-0.11,0.009-0.166,0.009C190.949,90.889,190.925,90.888,190.901,90.887z"/>
		<path fill="#C5E894" d="M194.328,68.146c0.988,0,2.967,0.344,3.826,1.333c-0.516,0.56-2.881,3.827-5.461,9.933
			c-0.559,1.29-1.807,5.203-1.807,6.708c0,0.431,0.215,0.688,0.301,0.774c0.861-0.344,2.021-1.763,4.387-4.988
			c1.16-1.591,3.268-4.214,4.213-6.751c0.518-1.419,1.42-3.913,3.355-5.762c1.504,0,3.568,0.731,4.084,1.376
			c-2.107,5.031-5.418,9.847-5.418,14.362c0,2.45,0.947,3.396,0.947,3.955c0,0.129-0.172,0.173-0.172,0.173
			c-0.775,0-2.752-0.774-4.086-1.678c-1.074-0.902-1.375-2.493-1.375-3.482c0-0.646,0.086-1.161,0.215-1.548
			c-0.002,0-0.005,0-0.007,0c-0.497,0-3.568,4.392-4.509,5.504c-0.73,0.773-1.463,1.29-1.85,1.333
			c-1.805-0.086-4.213-1.333-4.686-3.354c0-1.591,0.086-2.451,0.344-3.654C187.662,78.036,190.715,70.77,194.328,68.146
			 M194.328,65.146c-0.633,0-1.25,0.2-1.763,0.572c-4.487,3.258-7.753,11.334-8.854,15.968c-0.005,0.021-0.01,0.043-0.015,0.064
			c-0.307,1.432-0.41,2.513-0.41,4.283c0,0.229,0.026,0.459,0.079,0.683c0.815,3.49,4.454,5.525,7.464,5.669
			c0.048,0.002,0.095,0.003,0.143,0.003c0.11,0,0.221-0.006,0.331-0.019c1.164-0.129,2.409-0.888,3.699-2.255
			c0.038-0.04,0.075-0.081,0.11-0.123c0.189-0.224,0.422-0.521,0.694-0.878c0.224,0.269,0.476,0.525,0.761,0.765
			c0.079,0.066,0.162,0.129,0.248,0.188c1.252,0.848,3.926,2.193,5.768,2.193c0.251,0,0.5-0.031,0.743-0.094
			c1.43-0.365,2.429-1.632,2.429-3.079c0-0.821-0.286-1.46-0.495-1.927c-0.222-0.497-0.452-1.011-0.452-2.028
			c0-2.491,1.485-5.491,3.059-8.668c0.724-1.462,1.473-2.975,2.127-4.535c0.424-1.013,0.261-2.176-0.425-3.033
			c-1.381-1.726-4.589-2.502-6.427-2.502c-0.771,0-1.514,0.298-2.072,0.83c-0.169,0.162-0.331,0.326-0.488,0.493
			c-0.051-0.069-0.105-0.138-0.163-0.205C198.422,65.213,194.741,65.146,194.328,65.146L194.328,65.146z"/>
	</g>
	<g>
		<path d="M210.415,91.485c-1.445-0.12-4.117-1.755-4.771-3.2c-0.122-0.271-0.161-0.571-0.112-0.864
			c0.597-3.571,3.201-11.873,5.257-16.761c0.814-1.96,1.427-3,2.257-3.831c0.284-0.284,0.667-0.44,1.062-0.44
			c0.08,0,0.16,0.006,0.24,0.02c1.688,0.273,4.159,1.336,5.207,2.576c0.21,0.249,0.326,0.549,0.35,0.854
			c0.295-0.398,0.583-0.809,0.867-1.234c0.086-0.129,0.19-0.243,0.311-0.339c0.627-0.502,1.278-0.544,1.84-0.544
			c1.082,0,2.576,0.382,3.222,1.459c0.235,0.392,0.279,0.869,0.118,1.298c-0.456,1.219-0.678,2.383-0.678,3.559
			c0,1.232,0.188,1.805,0.346,2.068c0.172,0.287,0.243,0.624,0.201,0.957c-0.146,1.163-1.982,3.029-2.191,3.238
			c-0.288,0.288-0.672,0.439-1.061,0.439c-0.229,0-0.458-0.052-0.671-0.158c-1.33-0.665-2.485-1.741-3.297-3.03
			c-3.994,3.07-5.463,5.942-6.904,12.749c-0.148,0.698-0.765,1.189-1.467,1.189C210.499,91.49,210.457,91.488,210.415,91.485z"/>
		<path fill="#C5E894" d="M214.107,67.889c1.592,0.258,3.611,1.247,4.301,2.063c-1.549,1.807-2.623,3.999-3.828,7.654
			c3.053-2.752,5.375-5.074,7.439-8.17c0.215-0.172,0.43-0.215,0.902-0.215c0.816,0,1.678,0.301,1.936,0.73
			c-0.516,1.377-0.773,2.709-0.773,4.085c0,1.247,0.172,2.193,0.559,2.839c-0.043,0.344-0.904,1.505-1.764,2.364
			c-1.547-0.773-2.838-2.278-3.396-3.956c-5.418,3.741-7.268,6.794-8.943,14.706c-1.033-0.086-3.139-1.462-3.527-2.322
			c0.561-3.354,3.098-11.523,5.16-16.426C212.904,69.479,213.42,68.577,214.107,67.889 M214.107,64.889
			c-0.79,0-1.556,0.312-2.123,0.88c-1.122,1.124-1.82,2.487-2.583,4.322c-2.085,4.957-4.737,13.424-5.349,17.083
			c-0.098,0.586-0.02,1.188,0.225,1.729c0.904,2.001,4.062,3.914,6.013,4.076c0.085,0.008,0.168,0.011,0.251,0.011
			c1.404,0,2.638-0.982,2.933-2.378c1.21-5.71,2.369-8.397,5.188-10.911c0.818,0.918,1.799,1.684,2.876,2.223
			c0.427,0.213,0.886,0.316,1.341,0.316c0.778,0,1.546-0.303,2.122-0.879c0.898-0.898,2.434-2.627,2.619-4.113
			c0.083-0.665-0.059-1.339-0.403-1.914l0.001,0.001c0.002,0-0.133-0.322-0.133-1.298c0-1.007,0.186-1.971,0.583-3.033
			c0.32-0.855,0.233-1.812-0.237-2.596c-0.967-1.612-2.963-2.187-4.508-2.187c-0.834,0-1.815,0.104-2.776,0.872
			c-0.072,0.058-0.141,0.118-0.207,0.182c-1.468-1.204-3.705-2.081-5.352-2.348C214.427,64.901,214.267,64.889,214.107,64.889
			L214.107,64.889z"/>
	</g>
</g>
</svg>
