<?xml version="1.0" encoding="utf-8"?>
<!-- Generator: Adobe Illustrator 16.0.0, SVG Export Plug-In . SVG Version: 6.00 Build 0)  -->
<!DOCTYPE svg PUBLIC "-//W3C//DTD SVG 1.1//EN" "http://www.w3.org/Graphics/SVG/1.1/DTD/svg11.dtd">
<svg version="1.1" id="Layer_1" xmlns="http://www.w3.org/2000/svg" xmlns:xlink="http://www.w3.org/1999/xlink" x="0px" y="0px"
	 width="200px" height="200px" viewBox="0 0 200 200" enable-background="new 0 0 200 200" xml:space="preserve">
<g>
	<g>
		<path fill="#FFB8CA" d="M25.974,127.557c-2.209,0-4-1.791-4-4V91.448c0-2.209,1.791-4,4-4h59.512c2.209,0,4,1.791,4,4v32.108
			c0,2.209-1.791,4-4,4H25.974z"/>
		<path fill="#FFB8CA" d="M85.485,91.448v32.108H25.974V91.448H85.485 M85.485,83.448H25.974c-4.418,0-8,3.582-8,8v32.108
			c0,4.418,3.582,8,8,8h59.512c4.418,0,8-3.582,8-8V91.448C93.485,87.03,89.904,83.448,85.485,83.448L85.485,83.448z"/>
	</g>
	<path d="M108.813,172.647c-1.828,0-3.838-0.451-6.145-1.381c-1.775-0.715-2.987-2.381-3.12-4.29
		c-0.057-0.81-0.096-4.642,3.626-8.666c-0.094-0.265-0.241-0.593-0.472-0.984c-0.038-0.064-2.307-4.057-3.787-8.493
		c-1.59,1.15-3.893,2.288-6.773,2.288c-1.564,0-3.11-0.338-4.605-1.006c-0.709-0.209-1.447-0.56-2.14-1.085
		c-2.358-0.411-5.36-2.147-6.995-5.962c-0.589-1.374-1.95-3.193-2.836-4.229c-1.02-0.846-2.722-2.615-3.292-5.345
		c-0.358-1.716-0.374-4.39,1.587-7.384c0.058-0.088,0.118-0.175,0.182-0.259c0.753-1.005,3.125-3.422,8.865-4.163
		c0.738-0.095,1.434-0.236,2.066-0.397c-0.418-1.797-0.346-3.563-0.158-4.915c-0.374-0.534-0.651-1.142-0.81-1.794
		c-0.437-1.806,0.104-3.396,0.813-4.617c-0.199-1.709-0.322-4.132,0.057-6.691c-0.244-0.195-0.473-0.412-0.683-0.648
		c-0.757-0.854-1.591-2.33-1.463-4.617c-0.072-0.15-0.137-0.304-0.195-0.46c-1.214-0.169-2.32-0.74-3.173-1.649
		c-1.629-1.738-1.627-3.989-1.575-4.982c-1.665-2.78-1.437-6.982,2.236-9.798l0.649-0.498c0.439-0.893,1.109-1.746,2.007-2.554
		c0.345-0.31,0.688-0.57,1.027-0.787L55.093,64.458c-0.801,0.346-1.649,0.528-2.515,0.528c-0.836,0-1.645-0.17-2.404-0.506
		c-0.103-0.046-0.204-0.094-0.304-0.145c-0.529,0.147-1.03,0.202-1.483,0.202c-0.685,0-1.354-0.127-1.988-0.378
		c-0.459-0.183-1.266-0.584-1.995-1.36c-0.361-0.062-0.715-0.162-1.059-0.298c-0.367-0.146-1.307-0.587-2.121-1.541
		c-0.219-0.056-0.435-0.125-0.646-0.21c-1.642-0.65-3.152-2.205-3.4-4.733l-2.147-1.058c-2.393-1.179-3.438-4.028-2.377-6.475
		c0.814-1.878,2.65-3.011,4.588-3.011c0.587,0,1.184,0.104,1.764,0.323l2.194,0.828c1.169-0.855,2.344-1.102,3.311-1.102
		c0.675,0,1.335,0.126,1.96,0.375c0.154,0.061,0.416,0.177,0.729,0.365c0.158-0.013,0.312-0.019,0.46-0.019
		c0.681,0,1.345,0.126,1.975,0.376c0.18,0.071,0.502,0.215,0.881,0.459c0.175-0.016,0.346-0.023,0.51-0.023
		c0.684,0,1.353,0.126,1.986,0.377c0.637,0.252,1.939,0.927,2.779,2.43c0.246,0.072,0.488,0.161,0.725,0.265
		c1.551,0.688,2.674,1.96,3.248,3.543l36.811,15.47c0.808-0.72,1.865-1.449,3.244-2.152c0.821-0.934,1.965-1.531,3.205-1.668
		c0.475-0.251,0.993-0.427,1.536-0.516c0.268-0.043,0.536-0.065,0.803-0.065c1.315,0,2.59,0.519,3.535,1.464
		c0.222,0.222,0.503,0.547,0.785,0.989l0.482-0.965c0.832-3.307,3.519-6.43,7.595-7.076c0.055-0.358,0.142-0.714,0.26-1.066
		c0.889-2.628,3.348-4.394,6.12-4.394c0.7,0,1.393,0.113,2.057,0.337c3.375,1.136,5.197,4.806,4.062,8.181
		c-0.21,0.628-0.51,1.207-0.884,1.724c0.662,0.485,1.253,1.065,1.758,1.731c3.214,2.504,4.295,6.761,2.967,11.523
		c0.908,2.212,0.797,4.1,0.373,5.534c0.06,0.44,0.103,0.932,0.116,1.47c0.348,0.54,0.694,1.167,0.978,1.857l12.667,5.297
		c0.683,0.285,1.293,0.718,1.788,1.268c0.491,0.546,2.056,2.547,1.558,5.38c-0.15,0.856-0.595,2.252-1.896,3.52
		c0.572,0.345,1.129,0.743,1.637,1.204c0.139,0.093,0.819,0.376,1.39,0.405c0.072-0.075,0.146-0.151,0.221-0.229
		c1.685-1.737,4.504-4.646,8.667-4.646c2.348,0,4.602,0.923,6.7,2.741c6.043,5.239,8.653,11.948,7.759,19.944
		c-0.327,3.684-4.238,9.757-7.541,14.299c-0.34,0.467-0.757,0.87-1.231,1.192c0.003,0.01,0.006,0.019,0.009,0.028
		c0.007,0.025,1.474,4.962,5.951,10.861c1.35,1.295,2.557,3.348,2.419,5.776c-0.046,0.812-0.274,2.043-1.098,3.318
		c0.438,1.93,0.174,4.064-1.304,5.911c-2.196,2.744-4.851,4.135-7.892,4.135c-2.319,0-4.659-0.854-6.954-2.54
		c-1.537-1.129-2.299-3.033-1.963-4.911c0.239-1.337,0.901-4.121,2.51-6.304c-2.134-3.115-4.463-6.267-6.028-8.055
		c-0.142,0.193-0.292,0.382-0.453,0.566c-1.079,1.238-2.296,2.214-3.473,3.157c-1.836,1.472-3.425,2.746-4.439,4.892
		c-0.238,0.577-0.586,1.198-1.045,1.808c0.251,1.072,0.358,2.325,0.152,3.718c-0.505,3.425-2.675,6.425-6.451,8.918
		c-0.817,0.539-1.775,0.827-2.755,0.827h-0.826c-2,0-3.809-1.192-4.596-3.031c-0.221-0.513-2.098-5.185-1.232-12.97
		c0.022-1.29,0.383-3.668,2.372-6.121c-1.311,0.69-2.859,1.179-4.616,1.179c-1.589,0-3.116-0.404-4.55-1.203
		c-1.437-0.668-2.958-2.256-2.974-5.985c-0.15-0.249-0.564-0.943-1.098-1.944c-0.899,0.812-1.988,1.334-3.173,1.507
		c1.099,1.766,2.062,4.476,1.728,8.377c-0.091,1.066-0.097,1.688-0.085,2.028c0.168,0.188,0.342,0.39,0.522,0.615
		c1.416,1.769,6.069,9.833,1.348,14.297c-0.195,1.415-0.707,3.033-1.884,4.453C113.85,171.612,111.508,172.647,108.813,172.647z"/>
	<path fill="#FFB8CA" d="M37.24,50.475l5.599,2.112c0.543-1.21,1.23-2.064,1.671-2.064c0.04,0,0.077,0.007,0.112,0.021
		c0.427,0.169,0.374,1.328-0.088,2.683l1.158,0.437c0.642-1.421,1.448-2.42,1.968-2.419c0.046,0,0.091,0.008,0.133,0.024
		c0.503,0.199,0.444,1.558-0.095,3.152l1.088,0.411c0.727-1.626,1.648-2.774,2.24-2.774c0.053,0,0.103,0.009,0.149,0.028
		c0.572,0.227,0.499,1.784-0.124,3.602l1.127,0.425c0.545-0.908,1.299-1.486,1.937-1.486c0.134,0,0.263,0.025,0.383,0.079
		c0.616,0.273,0.836,1.19,0.622,2.249c0.002,0.068,0.01,0.123,0.01,0.196l41.424,17.409c0,0-0.551-0.55,2.477-0.55
		c0,0,0.275-1.238,3.44-2.752c0,0,0.688-0.275,1.102-0.964c0,0,0.55,1.102,0.275,1.515c0,0,0.688-0.414,1.513-2.065
		c0,0,1.102,1.101,0.138,4.68c0,0,0.022-0.002,0.064-0.002c0.271,0,1.359,0.104,2.551,1.653c1.376,1.79,1.789,2.616,1.789,2.616
		s0.749,1.248,1.178,1.248c0.021,0,0.042-0.003,0.062-0.01c0,0,1.024-0.746,1.854-0.746c0.597,0,1.093,0.385,1.035,1.708
		c0,0,0.274,2.478,0.825,3.166l1.17,0.069c0,0-3.578-4.403,1.375-7.982l-2.751-2.476c0,0-0.551-1.927,0.275-2.753l-0.826-1.376
		l0.826-1.652c0,0,0.551-3.853,4.404-3.853c0,0,0.031-0.001,0.091-0.001c0.318,0,1.434,0.03,2.611,0.41l1.441-2.994
		c-0.633-0.323-0.953-1.064-0.719-1.758c0.206-0.609,0.774-0.994,1.383-0.994c0.153,0,0.31,0.025,0.463,0.076
		c0.765,0.257,1.174,1.084,0.917,1.849c-0.203,0.608-0.77,0.987-1.379,0.987c-0.084,0-0.17-0.007-0.255-0.022l-0.686,3.372
		c0.863,0.496,1.621,1.255,1.958,2.429c1.123,0.281,1.867,0.958,2.341,1.853c3.584,2.033,1.777,6.941,1.146,8.383
		c0.982,1.389,1.662,3.111,0.596,4.578c0,0,0.551,1.376,0.275,3.579c0,0,2.064,2.203,1.65,3.853l15.139,6.331
		c0,0,1.238,1.376-0.826,2.478l-15.138-6.606c0,0-1.119,1.278-2.504,1.278c-0.433,0-0.892-0.125-1.35-0.452c0,0,0.138,1.513,0,2.201
		l0.276,0.826l-0.276,0.551v2.202c0,0,1.762-3.171,4.299-3.171c0.634,0,1.316,0.198,2.031,0.693c0,0,1.102,3.028-0.273,4.404
		c-1.378,1.376-0.827,3.027-0.827,3.027s0.86-0.537,1.707-0.537c0.508,0,1.012,0.193,1.321,0.812c0,0,0.599-0.108,1.505-0.108
		c1.133,0,2.746,0.17,4.275,0.935l1.376-0.826c0,0,1.376,0,1.651,0.826c0,0,2.891,0.551,4.403,1.926
		c0.939,0.854,2.938,1.707,4.845,1.707c1.168,0,2.302-0.32,3.138-1.156c1.528-1.528,3.322-3.721,5.658-3.721
		c1.028,0,2.162,0.426,3.425,1.52c4.128,3.578,6.881,8.531,6.056,15.689c0,0,0,2.751-6.606,11.834c0,0-1.926,0.827-2.752,1.927
		h-1.102c0,0,0.896,0.964,1.858,3.579c0,0,1.651,5.918,7.089,12.937c0,0,2.751,2.133-0.415,4.059l-0.205,1.238
		c0,0,1.514,1.79,0.412,3.167c-0.709,0.886-1.988,2.258-3.987,2.258c-1.104,0-2.428-0.419-3.995-1.57c0,0,0.689-3.854,2.341-4.954
		c0,0,0-0.826,0.825-1.238c0.827-0.414,0.274-1.239,0.274-1.239s-6.88-10.528-10.046-13.006c0,0-6.056-2.615-7.431-3.303
		c0,0,3.716,3.097,1.375,5.78c-2.339,2.684-6.469,4.403-8.739,9.358c0,0-0.549,1.514-2.339,2.201l0.139,0.826
		c0,0,3.784,4.542-3.304,9.221h-0.826c0,0-1.65-3.853-0.826-10.734c0,0-0.273-2.339,2.753-4.679c3.027-2.341,5.78-5.092,5.918-5.918
		s0.138-2.202-1.927-3.303c-2.065-1.101-3.028-1.514-3.716-2.341c0,0-1.027,1.865-2.712,1.865c-0.059,0-0.118-0.002-0.178-0.007
		c-0.118-0.009-0.23-0.014-0.336-0.014c-1.489,0-1.729,0.84-1.729,0.84s-2.291,3.347-5.32,3.347c-0.758,0-1.562-0.209-2.387-0.731
		c0,0-0.137,0-0.137-1.515c0-1.514-0.689-2.478-0.689-2.478s-1.788-2.889-3.165-6.468c0,0-1.2,0.929-2.903,0.929
		c-0.567,0-1.191-0.103-1.845-0.378c-1.046-0.44-1.828-0.572-2.389-0.572c-0.843,0-1.189,0.297-1.189,0.297l0.414,0.963l0.274,0.139
		l0.825-0.414c0,0,2.408,0.275,1.652,1.79c-0.313,0.625-0.708,0.875-1.127,0.875c-0.595,0-1.238-0.504-1.763-1.15
		c-0.326-0.4-0.506-0.527-0.603-0.527c-0.17,0-0.087,0.39-0.087,0.39s0,0.436-1.546,0.436c-0.193,0-0.411-0.007-0.655-0.022
		c0,0,0.551,1.376-0.138,5.367c0,0-0.138,1.101,0.413,1.927c0,0,2.408,1.651,1.995,6.469c-0.412,4.815,0.413,4.815,1.514,6.192
		c1.102,1.376,3.303,6.192,1.789,7.568c0,0-1.376,0.481-1.514,1.032c0,0,0.936,4.942-3.499,4.942c-1.077,0-2.474-0.292-4.276-1.019
		c0,0-0.206-2.959,3.578-6.125c0,0,0.963-2.202-1.101-5.712c-2.065-3.509-4.955-10.803-4.267-13.143c0,0,0.206-0.826-3.234-6.605
		c0,0-0.137-2.477-7.844-2.615c-1.031-0.019-1.934-0.032-2.718-0.032c-5.079,0-5.19,0.566-2.925,4.023c0,0,0.826,1.377,1.652,1.377
		s2.615,0.825,2.202,3.165c0,0,1.256-1.367,2.794-1.367c0.561,0,1.16,0.182,1.748,0.679c2.202,1.858,3.027,3.165,3.027,3.165
		s-2.096,2.683-5.306,2.683c-0.903,0-1.894-0.212-2.951-0.756c0,0-0.688,0-1.239-0.826c-0.275-0.412-0.654-0.516-0.963-0.516
		s-0.55,0.104-0.55,0.104s-2.202-0.138-3.441-3.028c-1.238-2.89-3.991-5.917-3.991-5.917s-3.578-2.339-0.963-6.33
		c0,0,1.239-1.652,5.505-2.203c4.266-0.55,7.363-2.27,7.363-2.27s0.825-0.551-0.55-2.892c-1.376-2.338-0.275-5.917-0.275-5.917
		l-1.101-1.995c0,0-0.688-0.276,1.101-2.341c0,0-1.446-6.33,0.826-10.871c0,0-0.005,0.006-0.019,0.006
		c-0.053,0-0.229-0.089-0.669-0.97c-0.2-0.4-0.4-0.527-0.574-0.527c-0.304,0-0.528,0.391-0.528,0.391s-0.374,0.234-0.737,0.234
		c-0.398,0-0.783-0.284-0.639-1.474c0.233-1.922-0.225-2.069-0.371-2.069c-0.027,0-0.043,0.005-0.043,0.005
		s-0.688-0.413,1.101-1.514l0.138-0.826c0,0-0.082,0.007-0.209,0.007c-0.444,0-1.442-0.083-1.442-0.833c0,0-0.826,0.367-1.56,0.367
		c-0.367,0-0.711-0.092-0.917-0.367c0,0-0.412-0.275-0.688-0.275c-0.101,0-0.277,0.083-0.451,0.083
		c-0.301,0-0.599-0.248-0.512-1.597c0.137-2.133-0.688-2.615-0.688-2.615s-1.101-1.721,0.963-3.304
		c2.065-1.583,2.065-1.583,2.065-1.583s-0.482-0.481,0.894-1.72c0.459-0.413,0.826-0.55,1.111-0.55c0.571,0,0.816,0.55,0.816,0.55
		s3.44-3.716,6.055-5.368L54.403,58.67c-0.534,0.808-1.23,1.316-1.825,1.316c-0.133,0-0.261-0.025-0.381-0.079
		c-0.546-0.242-0.776-0.993-0.674-1.896c-0.016-0.163-0.032-0.324-0.039-0.517l-0.969-0.478c-0.708,1.492-1.567,2.521-2.128,2.521
		c-0.053,0-0.103-0.009-0.15-0.028c-0.568-0.226-0.501-1.761,0.11-3.561L47.3,55.432c-0.643,1.434-1.457,2.445-1.979,2.445
		c-0.047,0-0.091-0.008-0.133-0.024c-0.526-0.208-0.436-1.688,0.176-3.375l-1.103-0.543c-0.551,1.276-1.269,2.19-1.726,2.19
		c-0.04,0-0.078-0.007-0.113-0.021c-0.457-0.181-0.364-1.5,0.195-2.979L37.24,50.475 M126.81,75.56
		c0.662-2.537,0.456-4.187-0.023-5.242c-0.52-0.381-1.078-0.605-1.494-0.734c-0.039,0.333-0.091,0.678-0.181,1.053
		c0,0,1.789,1.927,1.376,3.028l-0.274,1.375C126.213,75.04,126.457,75.236,126.81,75.56 M37.243,40.472
		c-3.876,0-7.547,2.267-9.176,6.022c-2.123,4.894-0.031,10.592,4.753,12.95l0.079,0.039c1.014,2.619,2.984,4.718,5.633,5.833
		c0.981,0.855,2.03,1.46,2.973,1.834c0.155,0.061,0.311,0.119,0.468,0.172c0.823,0.643,1.703,1.135,2.572,1.48
		c1.239,0.49,2.526,0.734,3.842,0.734c0.289,0,0.604-0.012,0.941-0.042c1.048,0.326,2.136,0.491,3.25,0.491
		c0.724,0,1.443-0.073,2.148-0.213l20.363,9.124c-2.189,2.431-3.361,5.497-3.273,8.708c0.05,1.819,0.492,3.342,0.979,4.486
		c0.133,2.873,1.112,5.299,2.921,7.228c0.68,0.726,1.458,1.343,2.304,1.841c0.37,1.611,1.028,2.876,1.663,3.797
		c-0.09,1.505-0.057,2.912,0.032,4.14c-0.914,2.208-1.105,4.436-0.566,6.661c0.121,0.499,0.278,0.984,0.468,1.453
		c-5.801,1.373-8.579,4.317-9.572,5.643c-0.127,0.169-0.248,0.342-0.364,0.518c-2.9,4.427-2.851,8.505-2.299,11.146
		c0.802,3.84,3.001,6.412,4.617,7.847c0.711,0.868,1.543,2.052,1.81,2.673c2.155,5.028,6.056,7.65,9.5,8.629
		c0.824,0.512,1.705,0.916,2.623,1.201c2.006,0.833,4.09,1.254,6.212,1.254c1.461,0,2.812-0.195,4.048-0.521
		c0.381,0.826,0.748,1.565,1.071,2.191c-2.756,4.299-2.796,8.162-2.701,9.531c0.266,3.819,2.688,7.151,6.239,8.581
		c2.911,1.173,5.532,1.743,8.013,1.743c4.211,0,7.919-1.678,10.443-4.726c1.431-1.726,2.241-3.588,2.679-5.335
		c0.709-0.909,1.239-1.874,1.618-2.873c0.369,1.45,0.74,2.387,0.897,2.755c1.576,3.678,5.191,6.062,9.192,6.062h0.826
		c1.959,0,3.874-0.575,5.509-1.654c6.246-4.123,8.148-8.998,8.645-12.361c0.178-1.206,0.201-2.341,0.117-3.395
		c0.14-0.269,0.257-0.516,0.354-0.736c0.502-1.048,1.397-1.797,3.041-3.114c0.084-0.067,0.169-0.136,0.255-0.205
		c0.222,0.304,0.447,0.615,0.675,0.933c-0.839,1.911-1.293,3.771-1.535,5.126c-0.672,3.755,0.852,7.564,3.926,9.821
		c3.171,2.329,6.507,3.51,9.913,3.51c3.187,0,7.819-1.043,11.794-6.009c1.903-2.378,2.757-5.274,2.579-8.174
		c0.523-1.231,0.835-2.543,0.912-3.899c0.252-4.454-1.953-7.604-3.603-9.312c-1.939-2.595-3.209-4.944-3.979-6.601
		c6.415-8.955,7.761-13.49,7.972-16.147c1.013-9.52-2.259-17.848-9.473-24.102c-3.778-3.275-7.51-3.963-9.975-3.963
		c-1.964,0-3.709,0.408-5.239,1.029c-0.439-1.842-1.331-3.576-2.619-5.008c-0.99-1.1-2.211-1.966-3.575-2.536l-10.503-4.392
		c0.242-1.82,0.066-3.619-0.389-5.302c1.133-5.638-0.294-10.856-3.955-14.364c1.284-5.648-1.908-11.494-7.524-13.384
		c-1.182-0.397-2.409-0.599-3.652-0.599c-4.396,0-8.349,2.502-10.263,6.361c-2.621,1.051-4.727,2.829-6.238,4.95
		c-0.742-0.174-1.506-0.263-2.276-0.263c-0.533,0-1.069,0.042-1.604,0.129c-0.77,0.125-1.513,0.338-2.218,0.63
		c-1.771,0.368-3.408,1.209-4.735,2.43c-0.306,0.169-0.6,0.341-0.882,0.514L63.435,49.792c-1.056-1.693-2.557-3.085-4.426-4.015
		c-1.201-1.418-2.687-2.409-4.145-2.988c-1.01-0.399-2.054-0.635-3.122-0.708c-0.089-0.038-0.179-0.075-0.269-0.111
		c-0.998-0.396-2.045-0.632-3.118-0.703c-0.018-0.007-0.035-0.014-0.053-0.021c-1.197-0.476-2.475-0.722-3.783-0.723
		c0,0-0.001,0-0.001,0c-0.832,0-2.13,0.113-3.599,0.652l-0.15-0.057C39.61,40.681,38.417,40.472,37.243,40.472L37.243,40.472z
		 M122.752,152.918c-0.096-0.23-0.194-0.457-0.295-0.681c0.117,0.026,0.235,0.052,0.353,0.075
		C122.789,152.517,122.77,152.718,122.752,152.918L122.752,152.918z"/>
	<path d="M32.104,103.876h-1.899v-4.52h2.716c0.914,1.153,2.981,4.184,3.894,5.842h3.101v-1.322h-2.428
		c-0.793-1.322-2.188-3.39-3.125-4.567c1.563-0.265,3.678-1.273,3.678-4.086c0-2.068-1.13-3.774-3.991-3.774h-7.044v1.322h1.899
		v11.106h-1.899v1.322h5.097V103.876z M30.205,92.77h3.414c1.058,0,2.235,0.096,2.764,1.129c0.216,0.409,0.361,0.865,0.361,1.371
		c0,2.645-2.692,2.765-4.135,2.765h-2.404V92.77z"/>
	<path d="M47.752,105.487c3.654,0,5.962-2.356,5.962-5.505c0-2.116-1.37-5.53-5.986-5.53c-3.39,0-6.083,2.091-6.083,5.53
		C41.646,103.179,44.002,105.487,47.752,105.487z M47.704,95.775c3.87,0,4.688,2.932,4.688,4.23c0,2.404-1.923,4.158-4.664,4.158
		c-3.245,0-4.76-2.211-4.76-4.158C42.968,97.771,44.723,95.775,47.704,95.775z"/>
	<path d="M66.117,98.083c0-0.649-0.048-1.322-0.409-1.972c-0.505-0.938-1.707-1.659-3.75-1.659c-1.635,0-3.293,0.481-4.688,1.058
		l0.337,1.298c0.745-0.361,2.476-1.009,4.111-1.009c0.817,0,1.611,0.071,2.308,0.504c0.625,0.385,0.793,1.226,0.793,2.02v0.745
		c-1.058-0.168-2.236-0.336-3.39-0.336c-3.943,0-5.217,2.091-5.217,3.51c0,1.562,1.371,3.245,3.823,3.245
		c1.827,0,3.486-1.035,4.808-2.309v2.02h3.245v-1.322h-1.971V98.083z M64.818,101.593c-1.202,1.441-2.812,2.571-4.76,2.571
		c-1.466,0-2.5-0.985-2.5-1.898c0-0.649,0.385-1.178,0.866-1.515c0.89-0.624,2.188-0.673,3.317-0.673
		c1.058,0,2.067,0.144,3.077,0.312V101.593z"/>
	<path d="M70.033,103.876v1.322h5.289v-1.322h-1.995v-6.13c1.009-1.105,2.645-1.971,4.11-1.971c1.034,0,2.38,0.312,2.38,1.971v6.13
		h-1.972v1.322h5.241v-1.322h-1.971v-6.153c0-0.891-0.168-1.947-0.89-2.549c-0.504-0.409-1.25-0.721-2.404-0.721
		c-1.659,0-3.27,0.721-4.495,1.827v-1.515h-3.293v1.347h1.995v7.765H70.033z"/>
	<path d="M34.315,109.806h-5.89v1.322h3.438l-4.399,11.105h-1.49v1.323h5.097v-1.323h-2.188l1.034-2.74h6.947l1.082,2.74h-2.356
		v1.323h5.024v-1.323h-1.298L34.315,109.806z M30.445,118.171l2.86-7.429l3.029,7.429H30.445z"/>
	<path d="M52.007,112.811c-2.284,0-3.798,1.779-5.361,3.101v-2.789h-4.326v1.323h3.004v7.788h-3.004v1.323h8.99v-1.323h-4.664
		v-4.831c2.597-2.501,3.679-3.294,4.929-3.294c0.601,0,1.154,0.144,1.322,0.962l1.298-0.121c-0.072-0.48-0.168-0.912-0.433-1.321
		C53.377,113.027,52.751,112.811,52.007,112.811z"/>
	<path d="M62.51,122.521c-0.649,0-1.274-0.095-1.923-0.433c-0.697-0.359-0.89-1.226-0.89-1.971v-5.673h6.202v-1.323h-6.202v-3.101
		h-1.298v3.101h-1.707v1.323h1.707v6.25c0,2.717,2.596,3.149,3.846,3.149c1.779,0,3.582-0.697,5.097-1.347l-0.144-1.298
		C65.948,121.681,64.145,122.521,62.51,122.521z"/>
	<path d="M81.788,120.406c0-1.995-1.418-2.5-3.077-2.62c-1.658-0.119-3.87-0.048-4.976-0.745c-0.36-0.241-0.625-0.674-0.625-1.105
		c0-1.49,2.115-1.804,3.148-1.804c1.322,0,2.645,0.409,3.655,1.059v1.418h1.298v-3.798h-1.298v0.962
		c-1.082-0.65-2.381-0.962-3.727-0.962c-2.644,0-4.375,1.273-4.375,3.342c0,0.601,0.168,1.25,0.625,1.658
		c1.274,1.154,3.125,1.058,4.904,1.201c1.058,0.097,2.308-0.071,2.957,0.842c0.12,0.168,0.168,0.553,0.168,0.697
		c0,1.779-2.645,1.971-3.534,1.971c-1.515,0-2.836-0.456-3.99-1.345v-1.419H71.62v4.087h1.322v-1.082
		c1.178,0.553,2.356,1.082,4.279,1.082C79.889,123.845,81.788,122.475,81.788,120.406z"/>
	<polygon points="82.463,112.964 82.463,110.996 83.139,110.996 83.139,110.755 81.503,110.755 81.503,110.996 82.175,110.996 
		82.175,112.964 	"/>
	<path d="M83.657,112.017c0.019-0.335,0.036-0.702,0.042-0.978h0.006c0.062,0.263,0.147,0.544,0.253,0.859l0.36,1.053h0.216
		l0.39-1.073c0.111-0.305,0.2-0.584,0.279-0.839h0.007c0,0.272,0.02,0.646,0.036,0.954l0.053,0.971h0.282l-0.138-2.209H85.08
		l-0.393,1.067c-0.099,0.279-0.177,0.522-0.236,0.745h-0.007c-0.059-0.23-0.13-0.472-0.222-0.745l-0.377-1.067h-0.364l-0.153,2.209
		h0.271L83.657,112.017z"/>
	<path fill="#FFB8CA" d="M154.906,115.158c0,0,1.377,1.1,2.615,0c0,0,0.963-0.964,0.688,1.926c-0.274,2.89-3.716,7.846-3.716,7.846
		s0.275-2.409,0.275-3.442c0,0,0.688,0.414,0.688-2.889c0,0,0.346-1.79-0.824-1.927
		C154.632,116.672,154.493,115.295,154.906,115.158z"/>
	<path fill="#FFFFFF" d="M120.08,69.588c0,0.23-0.248,0.417-0.556,0.417h-4.452c-0.308,0-0.557-0.187-0.557-0.417l0,0
		c0-0.231,0.249-0.417,0.557-0.417h4.452C119.832,69.171,120.08,69.356,120.08,69.588L120.08,69.588z"/>
	<g>
		<g>
			<path fill="#FFFFFF" d="M104.133,87.752c3.769,0.032,6.785,0.311,9.047,0.835c1.999,0.492,3.703,1.23,5.113,2.213
				c1.835,1.277,2.753,2.786,2.753,4.522c0,2.82-2.394,5.541-7.179,8.163c1.147,2.426,3.195,5.179,6.146,8.26
				c3.311,3.343,5.801,5.851,7.474,7.522c4.457,4.489,9.227,7.866,14.307,10.127c3.77,1.673,7.211,2.508,10.325,2.508
				c0.394,0,0.787-0.017,1.18-0.049c-1.769,0.427-3.606,0.639-5.506,0.639c-5.408,0-10.948-1.557-16.619-4.67
				c-4.621-2.557-9.194-6.146-13.717-10.768c-2.852-2.819-4.999-4.916-6.441-6.293c-2.949-2.884-4.934-5.164-5.949-6.835
				c2.393,0.165,4.327-0.45,5.802-1.843c1.476-1.394,2.213-3.286,2.213-5.679c0-1.934-0.509-3.573-1.523-4.917
				c-1.116-1.508-2.606-2.262-4.475-2.262c-0.525,0-1.05,0.067-1.573,0.197c-1.541,5.771-2.312,11.784-2.312,18.044
				c0,6.786,1.163,10.604,3.491,11.456c-5.049,0.099-9.03,0.147-11.948,0.147c1.901-1.704,3.129-8.062,3.688-19.077
				c0.099-1.933,0.147-3.491,0.147-4.67c0-2.229-0.131-3.786-0.393-4.67c-0.492-1.704-1.541-2.655-3.147-2.852
				C99.036,87.769,102.068,87.752,104.133,87.752z"/>
		</g>
		<path fill="#FFFFFF" d="M106.733,103.893c0,0-2.294,0.327-4.151-0.438l-0.219,1.93c0,0,3.642-0.291,5.535,2.04L106.733,103.893z"
			/>
		<path fill="#FFFFFF" d="M103.207,108.765c0,0,0,1.076,3.412,1.076c0,0,2.792,0.358,2.792-1.076l0.775-0.539l3.103,4.845
			c0,0-1.861-1.525-6.204-1.525c0,0-3.724-0.359-3.724,0.717l-0.853-1.793L103.207,108.765z"/>
	</g>
</g>
</svg>
