<?xml version="1.0" encoding="utf-8"?>
<!-- Generator: Adobe Illustrator 16.0.0, SVG Export Plug-In . SVG Version: 6.00 Build 0)  -->
<!DOCTYPE svg PUBLIC "-//W3C//DTD SVG 1.1//EN" "http://www.w3.org/Graphics/SVG/1.1/DTD/svg11.dtd">
<svg version="1.1" id="Layer_1" xmlns="http://www.w3.org/2000/svg" xmlns:xlink="http://www.w3.org/1999/xlink" x="0px" y="0px"
	 width="200px" height="200px" viewBox="0 0 200 200" enable-background="new 0 0 200 200" xml:space="preserve">
<g>
	<g>
		<g>
			<path d="M92.973,174.947c-22.02,0-51.188-3.045-65.104-17.555c-5.188-5.408-6.88-11.064-6.734-14.557
				c0.291-7.029,7.294-29.479,34.449-42.232c2.337-6.852,4.693-12.376,6.621-16.896c2.479-5.81,4.27-10.008,4.488-13.287
				c0.74-11.086,18.318-16.073,30.563-16.073c0.447,0,0.889,0.007,1.321,0.021c10.204,0.318,27.097,3.928,34.475,6.761
				c4.046,0.045,12.901,0.736,17.758,5.594c2.529,2.528,5.907,8.34,6.765,29.375c10.642,2.76,22.016,7.11,21.266,21.946
				C177.938,135.871,155.062,174.947,92.973,174.947z"/>
		</g>
		<g>
			<g>
				<path fill="#BCA695" d="M97.256,59.348c0.394,0,0.783,0.006,1.164,0.018c10.562,0.329,27.894,4.292,33.669,6.767
					c0,0,0.18-0.005,0.504-0.005c2.173,0,10.803,0.251,14.681,4.131c4.456,4.455,5.239,22.088,5.426,29.778
					c11.424,2.786,21.776,5.306,21.147,17.755c-0.66,13.04-18.98,52.155-80.874,52.155c-61.893,0-67.008-22.943-66.843-26.902
					c0.164-3.962,5.445-26.573,33.504-38.787c5.612-17.164,11.553-26.077,12.048-33.504C72.159,63.594,86.743,59.348,97.256,59.348
					 M97.257,49.348C97.256,49.348,97.256,49.348,97.257,49.348c-6.692,0-14.236,1.383-20.183,3.701
					c-5.457,2.127-14.711,7.169-15.37,17.039c-0.163,2.432-1.986,6.708-4.099,11.659c-1.774,4.16-3.905,9.155-6.068,15.267
					c-11.688,5.883-21.164,14.251-27.57,24.393c-5.871,9.294-7.684,17.715-7.828,21.226c-0.092,2.191,0.224,9.99,8.121,18.223
					c12.152,12.67,35.271,19.094,68.713,19.094c36.592,0,58.356-12.958,70.17-23.828c14.536-13.375,20.231-28.733,20.691-37.822
					c0.466-9.23-3.207-16.634-10.622-21.41c-3.279-2.113-6.992-3.526-10.823-4.656c-1.152-19.474-4.666-25.666-8.045-29.044
					c-5.65-5.652-14.674-6.88-20.354-7.04c-8.273-2.973-24.808-6.45-35.259-6.776C98.25,49.356,97.756,49.348,97.257,49.348
					L97.257,49.348L97.257,49.348z"/>
			</g>
		</g>
	</g>
	<g>
		<path fill="#FFFFFF" d="M83.043,122.295c0,0-2.763-16.074-3.039-26.168c0,0,14.051-2.085,24.809-2.57
			c10.761-0.489,25.645-2.326,25.645-2.326c-0.259,15.403,1.928,21.683,2.476,38.229l-27.472-0.932L83.043,122.295z"/>
	</g>
	<g>
		<path fill="#EAE6D9" d="M152.699,100.833c0,0,3.362,12.378,1.753,24.51c-2.735,20.625-59.045,21.044-69.938,20.796
			c-10.895-0.247-32.308-2.6-31.441-14.606c0.866-12.008,5.198-25.253,5.198-25.253s-0.866,7.057,2.477,10.522
			c3.342,3.467,10.243,4.83,25.746,4.58c15.351-0.247,40.849-2.436,49.268-3.713C147.021,115.957,152.431,110.488,152.699,100.833z"
			/>
	</g>
	<g>
		<path d="M89.493,111.853L88.038,112c-0.416,0.042-0.599,0.312-0.548,0.808c0.012,0.117,0.079,0.169,0.203,0.156
			c0.036-0.003,0.091-0.015,0.163-0.033c0.071-0.019,0.126-0.029,0.162-0.033c0.271-0.027,0.427,0.174,0.471,0.604
			c0.023,0.234-0.02,0.431-0.128,0.589c-0.11,0.158-0.267,0.248-0.471,0.269c-0.103,0.01-0.331,0.008-0.687-0.009
			c-0.155-0.006-0.371,0.006-0.648,0.033c-0.3,0.031-0.532,0.065-0.697,0.104c-0.382,0.092-0.609,0.14-0.683,0.147
			c-0.226,0.022-0.417-0.027-0.573-0.152c-0.155-0.123-0.246-0.298-0.269-0.524c-0.052-0.511,0.115-0.786,0.502-0.825
			c0.044-0.004,0.113-0.007,0.21-0.004c0.096,0.001,0.165-0.001,0.209-0.006c0.139-0.014,0.244-0.102,0.316-0.264
			c0.018-0.046,0.055-0.187,0.112-0.421l1.073-4.454c0.126-0.507,0.292-0.833,0.498-0.979c0.152-0.096,0.502-0.173,1.049-0.229
			c0.613-0.062,1.004-0.062,1.172-0.002c0.169,0.06,0.321,0.26,0.459,0.6l1.874,4.521c0.147,0.361,0.294,0.533,0.439,0.519
			c0.044-0.004,0.119-0.022,0.227-0.056l0.121-0.012c0.408-0.042,0.637,0.177,0.686,0.659c0.024,0.241-0.028,0.442-0.16,0.603
			c-0.131,0.16-0.313,0.253-0.547,0.276c-0.102,0.011-0.238,0.014-0.407,0.009c-0.209-0.017-0.346-0.021-0.411-0.015
			c-0.162,0.002-0.37,0.016-0.626,0.042c-0.277,0.028-0.463,0.054-0.557,0.078c-0.366,0.097-0.597,0.149-0.691,0.159
			c-0.196,0.02-0.366-0.039-0.509-0.176c-0.144-0.135-0.226-0.317-0.249-0.544c-0.044-0.431,0.073-0.659,0.351-0.688
			c0.036-0.004,0.092-0.004,0.165,0c0.074,0.003,0.129,0.004,0.166,0c0.139-0.014,0.2-0.098,0.185-0.252
			c-0.02-0.197-0.077-0.356-0.17-0.479C89.727,111.896,89.617,111.84,89.493,111.853z M89.159,110.195l-0.752-2.19l-0.442,2.399
			c-0.005,0.023-0.007,0.049-0.004,0.078c0.01,0.087,0.105,0.122,0.288,0.104l0.678-0.069c0.19-0.02,0.279-0.079,0.27-0.182
			C89.196,110.343,89.185,110.295,89.159,110.195z"/>
		<path d="M95.306,108.332l0.095,0.931c0.064-0.383,0.157-0.668,0.277-0.857c0.281-0.434,0.709-0.679,1.285-0.737
			c0.401-0.041,0.752,0.054,1.052,0.284c0.301,0.231,0.47,0.538,0.508,0.917c0.03,0.299-0.032,0.554-0.188,0.765
			s-0.368,0.33-0.638,0.357c-0.205,0.021-0.385-0.026-0.54-0.145c-0.156-0.116-0.243-0.269-0.263-0.459
			c-0.011-0.103,0.022-0.249,0.099-0.441l-0.065,0.007c-0.488,0.05-0.791,0.343-0.906,0.877c-0.089,0.43-0.106,0.913-0.052,1.452
			l0.043,0.416c0.026,0.264,0.065,0.43,0.117,0.499c0.033,0.04,0.086,0.056,0.159,0.049c0.065-0.007,0.155-0.034,0.269-0.082
			c0.112-0.049,0.198-0.075,0.257-0.081c0.161-0.017,0.303,0.027,0.428,0.13c0.125,0.104,0.195,0.238,0.212,0.4
			c0.021,0.216-0.031,0.402-0.159,0.562c-0.127,0.159-0.293,0.249-0.497,0.27c-0.109,0.011-0.316,0.014-0.619,0.008
			c-0.185-0.004-0.415,0.008-0.692,0.036s-0.521,0.064-0.729,0.108c-0.347,0.071-0.561,0.111-0.641,0.12
			c-0.452,0.046-0.703-0.176-0.753-0.665c-0.041-0.408,0.113-0.63,0.464-0.665c0.058-0.007,0.124,0,0.2,0.018
			c0.076,0.019,0.131,0.024,0.168,0.021c0.124-0.013,0.166-0.222,0.124-0.63l-0.18-1.773c-0.042-0.416-0.125-0.618-0.249-0.605
			c-0.03,0.003-0.085,0.021-0.166,0.056s-0.145,0.054-0.188,0.059c-0.351,0.035-0.546-0.148-0.587-0.55
			c-0.022-0.219,0.019-0.403,0.12-0.554c0.103-0.149,0.246-0.235,0.429-0.254c0.072-0.007,0.176-0.003,0.311,0.013
			c0.134,0.017,0.26,0.019,0.377,0.007c0.087-0.009,0.213-0.037,0.378-0.083s0.287-0.073,0.368-0.082
			C95.158,108.005,95.283,108.106,95.306,108.332z"/>
		<path d="M102.048,109.063c-0.012-0.109,0.014-0.223,0.075-0.339c-0.18-0.101-0.372-0.139-0.576-0.118
			c-0.32,0.032-0.568,0.191-0.742,0.478c-0.173,0.287-0.237,0.652-0.191,1.098c0.046,0.46,0.189,0.817,0.429,1.073
			s0.535,0.366,0.885,0.331c0.357-0.036,0.601-0.257,0.729-0.66c0.077-0.252,0.149-0.413,0.216-0.486
			c0.094-0.098,0.25-0.158,0.469-0.18c0.248-0.025,0.456,0.029,0.624,0.163s0.265,0.317,0.289,0.551
			c0.05,0.496-0.147,0.951-0.592,1.364c-0.444,0.414-1.003,0.654-1.674,0.723c-0.861,0.087-1.573-0.107-2.138-0.584
			c-0.564-0.478-0.893-1.161-0.982-2.052c-0.091-0.897,0.1-1.635,0.571-2.212c0.473-0.58,1.153-0.914,2.043-1.004
			c0.643-0.065,1.188,0.031,1.639,0.291c0.45,0.262,0.699,0.625,0.746,1.091c0.03,0.293-0.041,0.538-0.213,0.736
			c-0.172,0.197-0.406,0.312-0.705,0.342c-0.249,0.025-0.456-0.019-0.622-0.131S102.068,109.269,102.048,109.063z"/>
		<path d="M106.755,105.336l0.203,2.002c0.286-0.302,0.53-0.509,0.732-0.622c0.203-0.111,0.461-0.184,0.774-0.216
			c0.679-0.068,1.182,0.095,1.509,0.488c0.22,0.267,0.36,0.711,0.423,1.332l0.191,1.887c0.037,0.365,0.129,0.541,0.274,0.526
			c0.059-0.006,0.108-0.023,0.149-0.053c0.041-0.03,0.099-0.049,0.172-0.056c0.32-0.033,0.501,0.14,0.539,0.519
			c0.053,0.518-0.137,0.8-0.566,0.844c-0.125,0.013-0.309,0.016-0.553,0.012c-0.243-0.006-0.427-0.002-0.551,0.011
			c-0.117,0.013-0.289,0.044-0.516,0.097s-0.398,0.085-0.516,0.097c-0.183,0.019-0.336-0.028-0.462-0.14
			c-0.126-0.114-0.198-0.272-0.22-0.477c-0.037-0.372,0.081-0.583,0.355-0.634c0.124-0.019,0.197-0.06,0.221-0.121
			c0.022-0.062,0.027-0.161,0.014-0.3l-0.17-1.674c-0.062-0.605-0.322-0.886-0.781-0.839c-0.628,0.063-0.897,0.529-0.81,1.397
			l0.131,1.291c0.016,0.154,0.042,0.249,0.079,0.286c0.037,0.036,0.129,0.059,0.277,0.064c0.229,0.015,0.361,0.186,0.395,0.515
			c0.049,0.48-0.127,0.742-0.528,0.782c-0.088,0.009-0.246,0.011-0.475,0.004c-0.229-0.006-0.439,0-0.629,0.02
			c-0.153,0.016-0.316,0.043-0.488,0.083c-0.289,0.066-0.473,0.104-0.554,0.111c-0.196,0.021-0.364-0.031-0.501-0.153
			c-0.139-0.122-0.218-0.289-0.239-0.5c-0.042-0.416,0.116-0.643,0.474-0.679c0.043-0.005,0.104,0.002,0.184,0.02
			s0.141,0.023,0.185,0.019c0.124-0.013,0.165-0.222,0.124-0.63l-0.37-3.645c-0.042-0.409-0.124-0.607-0.248-0.595
			c-0.051,0.006-0.115,0.026-0.193,0.064c-0.042,0.019-0.1,0.032-0.172,0.04c-0.351,0.035-0.546-0.147-0.586-0.549
			c-0.022-0.219,0.021-0.402,0.132-0.55c0.109-0.148,0.264-0.231,0.46-0.252c0.095-0.01,0.235-0.012,0.42-0.009
			c0.185,0.004,0.324,0,0.419-0.01c0.226-0.023,0.42-0.053,0.582-0.092c0.162-0.038,0.286-0.062,0.374-0.071
			C106.617,104.962,106.729,105.08,106.755,105.336z"/>
		<path d="M113.876,106.104c0.204-0.021,0.321,0.112,0.35,0.397l0.334,3.293c0.038,0.372,0.126,0.55,0.265,0.536
			c0.029-0.003,0.081-0.021,0.155-0.054c0.073-0.032,0.137-0.052,0.188-0.057c0.307-0.031,0.479,0.146,0.519,0.531
			c0.052,0.512-0.138,0.789-0.568,0.833c-0.072,0.007-0.279,0.01-0.618,0.008c-0.207-0.002-0.441,0.011-0.703,0.037
			c-0.132,0.014-0.324,0.048-0.576,0.104c-0.253,0.055-0.441,0.089-0.564,0.102c-0.197,0.02-0.364-0.031-0.502-0.153
			c-0.139-0.122-0.218-0.29-0.239-0.501c-0.042-0.416,0.112-0.642,0.462-0.677l0.291,0.036c0.03,0.004,0.057,0.004,0.078,0.002
			c0.131-0.014,0.176-0.223,0.135-0.631l-0.181-1.773c-0.042-0.416-0.125-0.618-0.249-0.605c-0.021,0.002-0.085,0.027-0.191,0.074
			c-0.071,0.022-0.129,0.036-0.173,0.041c-0.35,0.035-0.546-0.151-0.587-0.561c-0.022-0.219,0.021-0.401,0.132-0.549
			s0.268-0.232,0.473-0.253c0.08-0.009,0.197-0.01,0.354-0.003c0.258,0.012,0.465,0.008,0.618-0.007
			c0.123-0.013,0.283-0.044,0.477-0.093C113.746,106.133,113.854,106.107,113.876,106.104z M113.21,105.752
			c-0.271,0.027-0.514-0.046-0.73-0.224s-0.339-0.4-0.367-0.671c-0.027-0.276,0.045-0.521,0.219-0.734
			c0.174-0.214,0.398-0.334,0.677-0.362c0.277-0.028,0.522,0.045,0.735,0.219s0.333,0.399,0.361,0.676
			c0.028,0.278-0.045,0.523-0.219,0.736S113.487,105.724,113.21,105.752z"/>
		<path d="M118.256,107.54l1,2.331l0.565-2.49c0.016-0.06,0.037-0.143,0.062-0.25c0.014-0.081,0.02-0.141,0.016-0.178
			c-0.011-0.102-0.112-0.161-0.306-0.179c-0.283-0.03-0.443-0.221-0.479-0.571c-0.042-0.416,0.134-0.644,0.527-0.684
			c0.132-0.014,0.328-0.019,0.591-0.016c0.261,0.003,0.458-0.002,0.59-0.016c0.204-0.021,0.403-0.056,0.598-0.104
			c0.193-0.05,0.334-0.078,0.422-0.088c0.43-0.043,0.669,0.165,0.716,0.624c0.044,0.438-0.119,0.677-0.491,0.714
			c-0.016,0.002-0.033,0.004-0.055,0.006c-0.029,0.003-0.048,0.005-0.056,0.006c-0.053-0.018-0.102-0.023-0.145-0.02
			c-0.125,0.013-0.216,0.137-0.272,0.37c-0.021,0.084-0.075,0.281-0.161,0.592l-0.692,2.547c-0.165,0.621-0.461,0.938-0.888,0.953
			l-0.518,0.019l-0.511,0.086c-0.008,0.001-0.021,0.002-0.044,0.005c-0.343,0.034-0.617-0.159-0.821-0.578l-1.448-2.943
			c-0.11-0.208-0.186-0.335-0.227-0.377c-0.042-0.044-0.099-0.062-0.172-0.055c-0.007,0-0.025,0.002-0.055,0.005
			c-0.021,0.003-0.04,0.005-0.054,0.006c-0.06,0.006-0.121,0.013-0.187,0.019c-0.146,0.016-0.272-0.031-0.379-0.137
			c-0.106-0.106-0.169-0.25-0.188-0.431c-0.05-0.484,0.148-0.75,0.594-0.796c0.109-0.011,0.276-0.013,0.502-0.006
			s0.393,0.004,0.503-0.007c0.153-0.016,0.414-0.06,0.782-0.135c0.224-0.046,0.391-0.073,0.5-0.084
			c0.395-0.04,0.611,0.147,0.654,0.563c0.038,0.38-0.087,0.599-0.376,0.658c-0.18,0.04-0.264,0.122-0.251,0.245
			C118.109,107.183,118.159,107.313,118.256,107.54z"/>
		<path d="M128.271,106.967c0.03,0.306,0.014,0.513-0.053,0.624c-0.066,0.109-0.213,0.176-0.438,0.199l-2.671,0.271
			c-0.131,0.014-0.212,0.034-0.242,0.064c-0.03,0.028-0.04,0.094-0.029,0.196c0.03,0.306,0.155,0.552,0.373,0.735
			c0.218,0.185,0.476,0.262,0.775,0.231c0.307-0.031,0.603-0.23,0.89-0.6c0.195-0.256,0.424-0.396,0.687-0.423
			c0.219-0.022,0.402,0.021,0.55,0.132s0.231,0.261,0.251,0.45c0.043,0.423-0.153,0.806-0.586,1.147
			c-0.434,0.343-0.982,0.548-1.646,0.615c-0.869,0.088-1.589-0.104-2.16-0.577c-0.571-0.472-0.901-1.146-0.99-2.021
			c-0.089-0.883,0.096-1.622,0.555-2.218c0.459-0.597,1.104-0.936,1.937-1.02c0.772-0.079,1.414,0.081,1.923,0.479
			C127.902,105.651,128.194,106.223,128.271,106.967z M124.734,106.771c0.005,0.045,0.02,0.079,0.044,0.106
			c0.025,0.027,0.104,0.034,0.234,0.021l1.226-0.124c0.11-0.012,0.176-0.031,0.199-0.059c0.022-0.029,0.03-0.074,0.023-0.141
			c-0.019-0.189-0.12-0.348-0.302-0.473c-0.183-0.126-0.386-0.176-0.612-0.153c-0.292,0.03-0.518,0.166-0.677,0.411
			C124.768,106.518,124.723,106.654,124.734,106.771z"/>
	</g>
</g>
</svg>
