<?xml version="1.0" encoding="utf-8"?>
<!-- Generator: Adobe Illustrator 16.0.0, SVG Export Plug-In . SVG Version: 6.00 Build 0)  -->
<!DOCTYPE svg PUBLIC "-//W3C//DTD SVG 1.1//EN" "http://www.w3.org/Graphics/SVG/1.1/DTD/svg11.dtd">
<svg version="1.1" id="Layer_1" xmlns="http://www.w3.org/2000/svg" xmlns:xlink="http://www.w3.org/1999/xlink" x="0px" y="0px"
	 width="200px" height="200px" viewBox="0 0 200 200" enable-background="new 0 0 200 200" xml:space="preserve">
<path fill="#84ADD9" d="M51.625,51.038c0.622,0,1.243,0.091,1.842,0.262l68.861,19.894c3.533,1.022,5.576,4.726,4.556,8.258
	l-1.479,5.122l33.648-1.623c3.562,0,6.487,2.786,6.658,6.349l3.303,68.264c0.176,3.676-2.666,6.804-6.338,6.985l-71.919,3.471
	c-3.563,0-6.487-2.788-6.658-6.349l-0.81-16.732l-52.493-15.166c-3.532-1.02-5.575-4.725-4.555-8.256l18.97-65.661
	C46.03,53.019,48.667,51.038,51.625,51.038 M51.625,41.038c-7.384,0-13.973,4.951-16.022,12.041l-18.97,65.663
	c-1.235,4.274-0.73,8.775,1.421,12.676c2.152,3.901,5.692,6.729,9.968,7.963l45.623,13.182l0.464,9.593
	c0.427,8.895,7.739,15.865,16.646,15.865h0.241l0.241-0.012l71.92-3.471c9.18-0.454,16.282-8.282,15.844-17.451l-3.303-68.27
	c-0.427-8.895-7.738-15.865-16.646-15.865h-0.241l-0.24,0.012l-21.819,1.052c-1.28-5.762-5.586-10.674-11.645-12.427L56.243,41.693
	C54.709,41.255,53.167,41.038,51.625,41.038L51.625,41.038z"/>
<g>
	<g>
		<g>
			<g>
				<path fill="#F0FBFF" d="M167.35,157.646c0.132,2.747-2.008,5.104-4.753,5.238l-71.598,3.463
					c-2.745,0.133-5.103-2.009-5.234-4.756L82.46,93.325c-0.132-2.747,2.009-5.104,4.754-5.239l71.596-3.462
					c2.747-0.136,5.104,2.008,5.236,4.755L167.35,157.646z"/>
			</g>
			<g>
				<path fill="#292978" d="M90.756,168.02c-3.563,0-6.487-2.788-6.658-6.349l-3.303-68.266c-0.176-3.677,2.667-6.806,6.34-6.986
					l71.918-3.468c3.562,0,6.487,2.786,6.658,6.349l3.303,68.264c0.176,3.676-2.666,6.804-6.338,6.985L90.756,168.02z
					 M159.053,86.288l-71.759,3.466c-1.835,0.09-3.255,1.656-3.168,3.491l3.303,68.266c0.083,1.749,1.577,3.17,3.328,3.17
					l0.163-0.004l71.596-3.463c1.835-0.089,3.256-1.653,3.169-3.489l-3.303-68.264C162.298,87.711,160.803,86.288,159.053,86.288z"
					/>
			</g>
		</g>
		<g>
			<g>
				<path fill="#CEE5ED" d="M136.348,104.558c3.763-10.399,15.485,0.645,12.435,5.322
					C144.72,116.096,133.458,112.543,136.348,104.558z"/>
				<path fill="#292978" d="M142.746,114.294c-2.811,0-5.456-1.282-6.903-3.343c-1.336-1.902-1.573-4.324-0.671-6.817
					c1.62-4.479,4.531-5.145,6.124-5.145c3.417,0,6.74,2.835,8.258,5.637c1.197,2.209,1.296,4.372,0.276,5.938
					C148.279,112.934,145.698,114.294,142.746,114.294z M141.297,101.488c-1.664,0-2.933,1.175-3.772,3.494
					c-0.625,1.73-0.5,3.296,0.366,4.529c0.986,1.405,2.85,2.28,4.857,2.28c2.093,0,3.91-0.948,4.99-2.6
					c0.501-0.772,0.364-2.006-0.381-3.379C146.205,103.688,143.622,101.488,141.297,101.488z"/>
			</g>
			<g>
				<path fill="#CEE5ED" d="M119.95,122.961c3.761-10.397,15.489,0.645,12.436,5.318
					C128.325,134.498,117.061,130.944,119.95,122.961z"/>
				<path fill="#292978" d="M126.35,132.697c-2.812,0-5.457-1.282-6.905-3.346c-1.336-1.902-1.572-4.324-0.671-6.814
					c1.619-4.478,4.533-5.145,6.125-5.145c3.42,0,6.744,2.836,8.262,5.64c1.195,2.208,1.292,4.367,0.271,5.933
					C131.882,131.335,129.3,132.697,126.35,132.697z M124.898,119.891c-1.666,0-2.935,1.176-3.773,3.494
					c-0.624,1.73-0.498,3.294,0.366,4.527c0.988,1.41,2.85,2.279,4.858,2.279c2.092,0,3.909-0.944,4.989-2.599
					c0.503-0.773,0.366-2.005-0.378-3.375C129.81,122.094,127.226,119.891,124.898,119.891z"/>
			</g>
			<g>
				<path fill="#CEE5ED" d="M103.553,141.708c3.762-10.399,15.488,0.643,12.437,5.314
					C111.923,153.241,100.662,149.69,103.553,141.708z"/>
				<path fill="#292978" d="M109.949,151.44c-2.812,0-5.455-1.28-6.902-3.344c-1.334-1.899-1.573-4.324-0.669-6.815
					c1.618-4.477,4.532-5.146,6.124-5.146c3.419,0,6.746,2.838,8.263,5.642c1.193,2.205,1.294,4.364,0.272,5.926
					C115.486,150.08,112.902,151.44,109.949,151.44z M108.502,138.638c-1.665,0-2.936,1.175-3.773,3.492
					c-0.626,1.732-0.499,3.294,0.364,4.527c0.987,1.405,2.849,2.279,4.856,2.279c2.094,0,3.914-0.946,4.996-2.603
					c0.501-0.771,0.366-2-0.379-3.368C113.414,140.837,110.832,138.638,108.502,138.638z"/>
			</g>
		</g>
	</g>
	<g>
		<g>
			<g>
				<path fill="#F0FBFF" d="M106.313,144.646c-0.765,2.646-3.551,4.182-6.193,3.415l-68.862-19.892
					c-2.642-0.767-4.179-3.551-3.415-6.195l18.969-65.659c0.764-2.645,3.551-4.182,6.193-3.415l68.862,19.896
					c2.642,0.764,4.179,3.551,3.414,6.193L106.313,144.646z"/>
			</g>
			<g>
				<path fill="#292978" d="M101.499,149.928c-0.622,0-1.242-0.087-1.841-0.26l-68.862-19.896c-3.532-1.02-5.575-4.725-4.555-8.256
					l18.97-65.661c0.82-2.836,3.457-4.817,6.415-4.817c0.622,0,1.243,0.091,1.842,0.262l68.861,19.894
					c3.533,1.022,5.576,4.726,4.556,8.258l-18.969,65.659C107.095,147.947,104.457,149.928,101.499,149.928z M51.626,54.37
					c-1.481,0-2.804,0.99-3.211,2.409l-18.97,65.661c-0.511,1.767,0.511,3.618,2.277,4.126l68.861,19.896
					c1.733,0.503,3.636-0.564,4.129-2.278l18.969-65.659c0.513-1.766-0.512-3.618-2.275-4.128L52.543,54.501
					C52.243,54.415,51.937,54.37,51.626,54.37z"/>
			</g>
		</g>
		<g>
			<g>
				<path fill="#CEE5ED" d="M59.316,77.252c6.926-8.623,14.446,5.625,10.042,9.056C63.505,90.879,53.999,83.873,59.316,77.252z"/>
				<path fill="#292978" d="M65.1,89.023c-3.305,0-6.56-1.975-7.916-4.804c-1.204-2.508-0.782-5.333,1.157-7.749
					c2.125-2.642,4.23-3.197,5.621-3.197c3.541,0,6.258,3.292,7.379,6.558c1.09,3.17,0.623,6.03-1.215,7.464
					C68.679,88.425,66.94,89.023,65.1,89.023z M63.961,75.772c-1.229,0-2.464,0.762-3.67,2.265c-1.708,2.125-1.407,3.947-0.854,5.1
					c0.955,1.992,3.284,3.384,5.662,3.384c1.278,0,2.485-0.417,3.488-1.2c0.942-0.735,1.096-2.612,0.387-4.68
					C68.145,78.224,66.156,75.772,63.961,75.772z"/>
			</g>
			<g>
				<path fill="#CEE5ED" d="M91.278,85.013c6.925-8.624,14.444,5.621,10.044,9.058C95.467,98.636,85.961,91.632,91.278,85.013z"/>
				<path fill="#292978" d="M97.067,96.782c-3.308,0-6.565-1.975-7.921-4.805c-1.202-2.509-0.779-5.332,1.16-7.748
					c2.124-2.642,4.229-3.197,5.621-3.197c3.537,0,6.252,3.289,7.376,6.552c1.092,3.173,0.629,6.039-1.209,7.474
					C100.644,96.186,98.908,96.782,97.067,96.782z M95.925,83.531c-1.23,0-2.465,0.762-3.671,2.265
					c-1.707,2.123-1.406,3.943-0.855,5.098c0.957,1.994,3.287,3.386,5.667,3.386c1.278,0,2.484-0.416,3.488-1.196
					c0.939-0.737,1.096-2.618,0.382-4.688C100.104,85.979,98.114,83.531,95.925,83.531z"/>
			</g>
			<g>
				<path fill="#CEE5ED" d="M51.789,109.867c6.924-8.623,14.444,5.623,10.048,9.056C55.977,123.491,46.469,116.484,51.789,109.867z"
					/>
				<path fill="#292978" d="M57.575,121.636c-3.307,0-6.564-1.977-7.919-4.806c-1.202-2.508-0.779-5.332,1.16-7.744
					c2.124-2.645,4.227-3.197,5.621-3.197c3.538,0,6.254,3.289,7.378,6.555c1.09,3.172,0.627,6.032-1.207,7.466
					C61.156,121.038,59.418,121.636,57.575,121.636z M56.435,108.387c-1.23,0-2.464,0.761-3.671,2.263
					c-1.708,2.123-1.409,3.945-0.855,5.097c0.956,1.994,3.286,3.386,5.665,3.386c1.28,0,2.489-0.418,3.494-1.198
					c0.938-0.734,1.091-2.612,0.38-4.682C60.615,110.835,58.626,108.387,56.435,108.387z"/>
			</g>
			<g>
				<path fill="#CEE5ED" d="M82.083,117.624c6.925-8.622,14.446,5.625,10.046,9.058C86.271,131.249,76.764,124.243,82.083,117.624z"
					/>
				<path fill="#292978" d="M87.87,129.395c-3.308,0-6.563-1.975-7.921-4.804c-1.202-2.512-0.779-5.335,1.159-7.75
					c2.124-2.643,4.227-3.197,5.621-3.197c3.54,0,6.257,3.293,7.38,6.558c1.091,3.171,0.626,6.034-1.211,7.468
					C91.451,128.797,89.712,129.395,87.87,129.395z M86.729,116.142c-1.231,0-2.464,0.763-3.671,2.264
					c-1.708,2.124-1.407,3.946-0.854,5.1c0.956,1.995,3.286,3.388,5.665,3.388c1.278,0,2.485-0.418,3.491-1.2
					c0.938-0.734,1.093-2.614,0.381-4.684C90.912,118.594,88.921,116.142,86.729,116.142z"/>
			</g>
		</g>
	</g>
</g>
</svg>
