<?xml version="1.0" encoding="utf-8"?>
<!-- Generator: Adobe Illustrator 16.0.0, SVG Export Plug-In . SVG Version: 6.00 Build 0)  -->
<!DOCTYPE svg PUBLIC "-//W3C//DTD SVG 1.1//EN" "http://www.w3.org/Graphics/SVG/1.1/DTD/svg11.dtd">
<svg version="1.1" id="Layer_1" xmlns="http://www.w3.org/2000/svg" xmlns:xlink="http://www.w3.org/1999/xlink" x="0px" y="0px"
	 width="200px" height="200px" viewBox="0 0 200 200" enable-background="new 0 0 200 200" xml:space="preserve">
<g>
	<g>
		<g>
			<path d="M92.973,174.949c-22.02,0-51.188-3.045-65.104-17.555c-5.188-5.408-6.88-11.064-6.734-14.557
				c0.291-7.029,7.294-29.479,34.449-42.232c2.337-6.852,4.693-12.376,6.621-16.896c2.479-5.81,4.27-10.008,4.488-13.287
				c0.74-11.086,18.318-16.073,30.563-16.073c0.447,0,0.889,0.007,1.321,0.021c10.204,0.318,27.097,3.928,34.475,6.761
				c4.046,0.045,12.901,0.736,17.758,5.594c2.529,2.528,5.907,8.34,6.765,29.375c10.642,2.76,22.016,7.11,21.266,21.946
				C177.938,135.873,155.062,174.949,92.973,174.949z"/>
		</g>
		<g>
			<g>
				<path fill="#84ADD9" d="M97.256,59.35c0.394,0,0.783,0.006,1.164,0.018c10.562,0.329,27.894,4.292,33.669,6.767
					c0,0,0.18-0.005,0.504-0.005c2.173,0,10.803,0.251,14.681,4.131c4.456,4.455,5.239,22.088,5.426,29.778
					c11.424,2.786,21.776,5.306,21.147,17.755c-0.66,13.04-18.98,52.155-80.874,52.155c-61.893,0-67.008-22.943-66.843-26.902
					c0.164-3.962,5.445-26.573,33.504-38.787c5.612-17.164,11.553-26.077,12.048-33.504C72.159,63.596,86.743,59.35,97.256,59.35
					 M97.257,49.35C97.256,49.35,97.256,49.35,97.257,49.35c-6.692,0-14.236,1.383-20.183,3.701
					c-5.457,2.127-14.711,7.169-15.37,17.039c-0.163,2.432-1.986,6.708-4.099,11.659c-1.774,4.16-3.905,9.155-6.068,15.267
					c-11.688,5.883-21.164,14.251-27.57,24.393c-5.871,9.294-7.684,17.715-7.828,21.226c-0.092,2.191,0.224,9.99,8.121,18.223
					c12.152,12.67,35.271,19.094,68.713,19.094c36.592,0,58.356-12.958,70.17-23.828c14.536-13.375,20.231-28.733,20.691-37.822
					c0.466-9.23-3.207-16.634-10.622-21.41c-3.279-2.113-6.992-3.526-10.823-4.656c-1.152-19.474-4.666-25.666-8.045-29.044
					c-5.65-5.652-14.674-6.88-20.354-7.04c-8.273-2.973-24.808-6.45-35.259-6.776C98.25,49.358,97.756,49.35,97.257,49.35
					L97.257,49.35L97.257,49.35z"/>
			</g>
		</g>
	</g>
	<g>
		<path fill="#FFFFFF" d="M83.043,122.297c0,0-2.763-16.074-3.039-26.168c0,0,14.051-2.085,24.809-2.57
			c10.761-0.489,25.645-2.326,25.645-2.326c-0.259,15.403,1.928,21.683,2.476,38.229l-27.472-0.932L83.043,122.297z"/>
	</g>
	<g>
		<path fill="#B3CEEB" d="M152.699,100.835c0,0,3.362,12.378,1.753,24.51c-2.735,20.625-59.045,21.044-69.938,20.796
			c-10.895-0.247-32.308-2.6-31.441-14.606c0.866-12.008,5.198-25.253,5.198-25.253s-0.866,7.057,2.477,10.522
			c3.342,3.467,10.243,4.83,25.746,4.58c15.351-0.247,40.849-2.436,49.268-3.713C147.021,115.959,152.431,110.49,152.699,100.835z"
			/>
	</g>
	<g>
		<path d="M89.723,111.543l0.07,0.693l0.041,0.405c0.013,0.127,0.035,0.226,0.066,0.295c0.054,0.131,0.169,0.188,0.345,0.17
			c0.088-0.009,0.215-0.036,0.38-0.081c0.166-0.045,0.293-0.072,0.381-0.081c0.473-0.048,0.736,0.199,0.791,0.74
			c0.025,0.255-0.035,0.469-0.182,0.641c-0.147,0.172-0.357,0.271-0.628,0.298c-0.207,0.021-0.518,0.033-0.932,0.034
			c-0.413,0.002-0.724,0.014-0.931,0.035c-0.405,0.041-0.727,0.085-0.964,0.133c-0.543,0.112-0.847,0.171-0.91,0.178
			c-0.255,0.025-0.468-0.033-0.639-0.176c-0.172-0.144-0.271-0.347-0.298-0.61c-0.023-0.229,0.02-0.426,0.128-0.585
			c0.108-0.16,0.258-0.251,0.449-0.271c0.063-0.006,0.16-0.001,0.29,0.014c0.131,0.015,0.224,0.02,0.279,0.014
			c0.159-0.016,0.248-0.129,0.267-0.34c0.009-0.081-0.001-0.249-0.026-0.504l-0.336-3.307c-0.025-0.255-0.05-0.417-0.073-0.488
			c-0.062-0.203-0.171-0.295-0.33-0.279c-0.063,0.007-0.156,0.03-0.276,0.07c-0.121,0.041-0.217,0.063-0.288,0.071
			c-0.184,0.019-0.344-0.042-0.482-0.182c-0.14-0.141-0.22-0.322-0.243-0.546c-0.06-0.585,0.206-0.909,0.796-0.969
			c0.183-0.019,0.48-0.028,0.891-0.029c0.619-0.015,1.124-0.041,1.515-0.081c0.271-0.027,0.572-0.062,0.907-0.104
			c0.223-0.03,0.667-0.084,1.336-0.159c0.271-0.028,0.602-0.069,0.99-0.126l0.712-0.132c0.094-0.018,0.133-0.026,0.118-0.025
			c0.397-0.04,0.615,0.114,0.65,0.464c0.015,0.143,0.013,0.304-0.004,0.481c-0.026,0.268-0.03,0.484-0.014,0.651
			c0.013,0.126,0.054,0.311,0.122,0.552c0.068,0.242,0.11,0.426,0.123,0.553c0.028,0.277-0.032,0.513-0.183,0.703
			c-0.148,0.192-0.358,0.303-0.629,0.33s-0.493-0.039-0.665-0.197c-0.174-0.158-0.274-0.385-0.305-0.677
			c-0.009-0.088-0.009-0.239,0.002-0.457c0.008-0.159,0.008-0.284-0.001-0.37c-0.027-0.27-0.24-0.385-0.639-0.344l-1.301,0.132
			c-0.311,0.031-0.504,0.09-0.58,0.174c-0.075,0.084-0.096,0.293-0.062,0.627l0.058,0.562c0.024,0.246,0.142,0.359,0.35,0.339
			c0.325-0.033,0.476-0.166,0.452-0.396c-0.003-0.023-0.011-0.1-0.023-0.227c-0.002-0.023-0.006-0.056-0.01-0.096
			s-0.007-0.068-0.009-0.083c-0.031-0.312,0.139-0.484,0.509-0.522c0.434-0.044,0.672,0.142,0.714,0.556
			c0.008,0.079,0.013,0.208,0.015,0.384c0.001,0.177,0.017,0.405,0.045,0.683c0.016,0.159,0.057,0.398,0.121,0.718
			s0.105,0.558,0.121,0.717c0.05,0.486-0.134,0.75-0.547,0.792c-0.422,0.043-0.655-0.159-0.701-0.604
			c-0.001-0.017-0.004-0.04-0.007-0.071c-0.003-0.024-0.005-0.044-0.006-0.061l-0.014-0.131c-0.021-0.198-0.18-0.283-0.478-0.253
			c-0.148,0.015-0.242,0.045-0.281,0.089C89.721,111.319,89.709,111.408,89.723,111.543z"/>
		<path d="M97.867,114.07c-0.987,0.1-1.777-0.102-2.371-0.604s-0.941-1.26-1.044-2.27c-0.103-1.003,0.085-1.812,0.562-2.428
			c0.476-0.614,1.195-0.971,2.158-1.068c0.947-0.097,1.722,0.106,2.323,0.607c0.603,0.502,0.952,1.238,1.051,2.21
			c0.104,1.019-0.081,1.841-0.551,2.468C99.523,113.612,98.813,113.974,97.867,114.07z M97.321,109.169
			c-0.351,0.035-0.611,0.216-0.783,0.543c-0.171,0.327-0.23,0.758-0.176,1.291c0.055,0.541,0.199,0.952,0.433,1.234
			c0.233,0.281,0.533,0.403,0.899,0.366c0.74-0.075,1.052-0.685,0.936-1.831S98.077,109.092,97.321,109.169z"/>
		<path d="M103.387,107.611l0.104,1.015c0.069-0.416,0.17-0.729,0.303-0.936c0.306-0.473,0.772-0.741,1.401-0.805
			c0.438-0.045,0.821,0.06,1.147,0.311c0.327,0.253,0.512,0.587,0.554,1.001c0.033,0.326-0.035,0.604-0.204,0.834
			c-0.17,0.229-0.401,0.36-0.696,0.391c-0.223,0.022-0.419-0.03-0.589-0.158c-0.17-0.127-0.266-0.294-0.286-0.501
			c-0.012-0.112,0.024-0.272,0.107-0.481l-0.071,0.007c-0.533,0.055-0.862,0.373-0.988,0.957c-0.098,0.468-0.116,0.998-0.057,1.586
			l0.047,0.453c0.028,0.287,0.071,0.468,0.127,0.542c0.037,0.045,0.095,0.063,0.174,0.056c0.072-0.008,0.169-0.038,0.293-0.091
			c0.123-0.054,0.217-0.081,0.28-0.088c0.175-0.018,0.331,0.028,0.467,0.142s0.213,0.259,0.231,0.437
			c0.023,0.234-0.034,0.438-0.173,0.612c-0.14,0.174-0.32,0.271-0.544,0.294c-0.119,0.013-0.344,0.016-0.674,0.009
			c-0.202-0.004-0.454,0.01-0.756,0.04c-0.303,0.03-0.568,0.069-0.797,0.117c-0.378,0.079-0.61,0.122-0.698,0.131
			c-0.493,0.051-0.767-0.191-0.82-0.725c-0.046-0.446,0.122-0.688,0.504-0.726c0.064-0.007,0.138-0.001,0.22,0.019
			c0.082,0.021,0.144,0.028,0.183,0.024c0.136-0.014,0.181-0.244,0.136-0.688l-0.196-1.935c-0.046-0.454-0.137-0.674-0.272-0.66
			c-0.031,0.003-0.092,0.022-0.181,0.061c-0.089,0.036-0.156,0.059-0.205,0.063c-0.382,0.038-0.594-0.162-0.639-0.6
			c-0.024-0.238,0.02-0.439,0.131-0.604c0.112-0.164,0.268-0.256,0.467-0.275c0.08-0.009,0.192-0.003,0.34,0.013
			c0.146,0.018,0.283,0.02,0.41,0.007c0.096-0.01,0.232-0.04,0.413-0.091c0.18-0.049,0.313-0.079,0.401-0.088
			C103.226,107.254,103.362,107.364,103.387,107.611z"/>
		<path d="M112.473,112.045l-0.047-0.466c-0.458,0.723-1.12,1.127-1.987,1.215c-0.366,0.037-0.709-0.009-1.027-0.138
			c-0.318-0.128-0.558-0.319-0.716-0.571c-0.158-0.254-0.274-0.738-0.347-1.455l-0.188-1.85c-0.028-0.279-0.062-0.441-0.104-0.484
			c-0.041-0.044-0.101-0.062-0.181-0.055l-0.119,0.012c-0.023,0.003-0.063,0.007-0.119,0.013c-0.358,0.036-0.56-0.162-0.604-0.597
			c-0.054-0.529,0.162-0.818,0.647-0.867c0.096-0.01,0.245-0.008,0.447,0.002c0.202,0.012,0.351,0.013,0.446,0.003
			s0.236-0.04,0.425-0.091c0.188-0.05,0.33-0.081,0.425-0.091c0.239-0.024,0.376,0.131,0.409,0.465l0.322,3.176
			c0.087,0.618,0.369,0.902,0.845,0.854c0.726-0.074,1.038-0.607,0.938-1.603l-0.113-1.109c-0.041-0.406-0.153-0.601-0.336-0.582
			c-0.048,0.005-0.108,0.019-0.183,0.042c-0.074,0.024-0.136,0.039-0.183,0.044c-0.295,0.029-0.463-0.165-0.506-0.584
			c-0.056-0.545,0.14-0.839,0.586-0.884c0.111-0.012,0.275-0.012,0.494-0.003c0.218,0.011,0.379,0.01,0.482-0.001
			c0.032-0.003,0.201-0.04,0.507-0.111c0.181-0.042,0.312-0.067,0.391-0.075c0.255-0.025,0.396,0.104,0.426,0.391l0.368,3.629
			c0.04,0.398,0.137,0.59,0.288,0.574c0.063-0.007,0.118-0.021,0.164-0.04c0.047-0.021,0.113-0.036,0.201-0.046
			c0.342-0.034,0.534,0.155,0.576,0.569c0.056,0.55-0.151,0.848-0.621,0.896c-0.096,0.01-0.238,0.009-0.429-0.005
			c-0.189-0.013-0.333-0.015-0.429-0.005c-0.088,0.009-0.215,0.038-0.383,0.088s-0.296,0.078-0.384,0.087
			C112.627,112.415,112.499,112.299,112.473,112.045z"/>
		<path d="M117.4,106.178l0.056,0.549c0.525-0.776,1.153-1.202,1.886-1.276c0.612-0.062,1.147,0.184,1.606,0.741
			c0.363-0.382,0.68-0.652,0.949-0.808c0.27-0.156,0.592-0.254,0.966-0.291c0.756-0.077,1.347,0.115,1.771,0.579
			c0.29,0.317,0.473,0.854,0.55,1.609l0.186,1.826c0.041,0.406,0.137,0.602,0.288,0.586c0.048-0.005,0.11-0.028,0.187-0.07
			c0.037-0.026,0.096-0.042,0.175-0.05c0.351-0.036,0.547,0.155,0.59,0.576c0.025,0.252-0.018,0.461-0.13,0.627
			c-0.111,0.166-0.271,0.26-0.478,0.281c-0.024,0.002-0.141,0.002-0.35-0.001l-0.267-0.01c-0.129-0.003-0.297,0.007-0.504,0.027
			c-0.255,0.026-0.499,0.066-0.735,0.123c-0.235,0.057-0.401,0.089-0.497,0.099c-0.19,0.02-0.355-0.037-0.494-0.173
			c-0.138-0.135-0.219-0.312-0.241-0.536c-0.037-0.365,0.089-0.592,0.378-0.678c0.148-0.039,0.233-0.091,0.256-0.158
			c0.021-0.066,0.017-0.244-0.012-0.53l-0.125-1.229c-0.052-0.509-0.141-0.852-0.268-1.028c-0.126-0.176-0.341-0.248-0.643-0.218
			c-0.677,0.068-0.967,0.585-0.869,1.548l0.113,1.11c0.027,0.271,0.057,0.439,0.088,0.51c0.031,0.068,0.1,0.11,0.205,0.123
			c0.253,0.031,0.396,0.217,0.431,0.561c0.056,0.541-0.141,0.834-0.586,0.879c-0.088,0.009-0.212,0.01-0.373,0.001
			c-0.268-0.013-0.444-0.015-0.531-0.006c-0.096,0.01-0.235,0.04-0.42,0.091c-0.184,0.052-0.323,0.081-0.419,0.091
			c-0.39,0.04-0.61-0.191-0.661-0.692c-0.036-0.358,0.065-0.582,0.306-0.67c0.133-0.047,0.194-0.148,0.187-0.309
			c-0.015-0.216-0.023-0.349-0.028-0.396l-0.138-1.349c-0.046-0.454-0.131-0.764-0.257-0.927c-0.125-0.164-0.326-0.232-0.605-0.204
			c-0.699,0.071-1.001,0.588-0.903,1.551l0.146,1.444c0.013,0.128,0.037,0.207,0.072,0.24c0.035,0.032,0.118,0.055,0.248,0.064
			c0.316,0.025,0.492,0.217,0.528,0.574c0.053,0.518-0.14,0.799-0.578,0.843c-0.135,0.014-0.337,0.019-0.607,0.014
			c-0.27-0.006-0.473-0.001-0.607,0.013c-0.184,0.019-0.369,0.05-0.558,0.094c-0.314,0.072-0.516,0.112-0.603,0.121
			c-0.223,0.022-0.408-0.032-0.554-0.167c-0.146-0.134-0.231-0.315-0.255-0.547c-0.046-0.454,0.122-0.699,0.504-0.738
			c0.063-0.006,0.137-0.001,0.22,0.02c0.082,0.021,0.143,0.027,0.183,0.023c0.136-0.014,0.181-0.244,0.136-0.688l-0.196-1.935
			c-0.046-0.454-0.137-0.674-0.272-0.66c-0.031,0.004-0.092,0.023-0.181,0.061s-0.157,0.059-0.205,0.063
			c-0.382,0.039-0.595-0.165-0.641-0.611c-0.023-0.229,0.022-0.428,0.139-0.593c0.116-0.164,0.282-0.257,0.496-0.279
			c0.049-0.005,0.182,0.003,0.4,0.02c0.13,0.011,0.251,0.011,0.361-0.001c0.096-0.01,0.235-0.04,0.42-0.091
			c0.184-0.049,0.323-0.08,0.419-0.09C117.261,105.83,117.377,105.938,117.4,106.178z"/>
	</g>
</g>
</svg>
