<?xml version="1.0" encoding="utf-8"?>
<!-- Generator: Adobe Illustrator 16.0.0, SVG Export Plug-In . SVG Version: 6.00 Build 0)  -->
<!DOCTYPE svg PUBLIC "-//W3C//DTD SVG 1.1//EN" "http://www.w3.org/Graphics/SVG/1.1/DTD/svg11.dtd">
<svg version="1.1" id="Layer_1" xmlns="http://www.w3.org/2000/svg" xmlns:xlink="http://www.w3.org/1999/xlink" x="0px" y="0px"
	 width="200px" height="200px" viewBox="0 0 200 200" enable-background="new 0 0 200 200" xml:space="preserve">
<g>
	<g>
		<g>
			<path d="M92.971,174.943c-22.019,0-51.188-3.045-65.104-17.555c-5.187-5.406-6.879-11.063-6.734-14.556
				c0.291-7.03,7.294-29.479,34.449-42.233c2.337-6.852,4.693-12.375,6.622-16.896c2.479-5.81,4.27-10.008,4.488-13.287
				c0.74-11.086,18.318-16.073,30.563-16.073c0.447,0,0.888,0.007,1.321,0.021c10.205,0.318,27.098,3.928,34.475,6.761
				c4.047,0.045,12.9,0.736,17.758,5.594c2.529,2.528,5.908,8.34,6.766,29.375c10.643,2.76,22.016,7.11,21.266,21.945
				C177.936,135.868,155.062,174.943,92.971,174.943z"/>
		</g>
		<g>
			<path fill="#FFB8CA" d="M97.255,59.345c0.394,0,0.783,0.006,1.164,0.018c10.562,0.329,27.894,4.292,33.669,6.767
				c0,0,0.18-0.005,0.504-0.005c2.174,0,10.803,0.251,14.682,4.131c4.455,4.455,5.238,22.088,5.426,29.778
				c11.424,2.786,21.775,5.306,21.146,17.755c-0.66,13.04-18.98,52.154-80.874,52.154c-61.893,0-67.008-22.942-66.843-26.901
				c0.164-3.962,5.445-26.573,33.504-38.787c5.612-17.164,11.553-26.077,12.048-33.504C72.158,63.591,86.742,59.345,97.255,59.345
				 M97.256,49.345C97.255,49.345,97.255,49.345,97.256,49.345c-6.692,0-14.236,1.383-20.182,3.701
				c-5.458,2.127-14.711,7.169-15.371,17.039c-0.163,2.432-1.986,6.708-4.099,11.659c-1.774,4.16-3.905,9.155-6.068,15.267
				c-11.688,5.884-21.164,14.251-27.57,24.394c-5.871,9.294-7.683,17.715-7.828,21.226c-0.092,2.19,0.224,9.989,8.121,18.224
				c12.152,12.67,35.271,19.094,68.713,19.094c36.593,0,58.356-12.959,70.171-23.829c14.535-13.374,20.23-28.732,20.691-37.82
				c0.465-9.231-3.207-16.635-10.621-21.411c-3.281-2.113-6.994-3.526-10.824-4.656c-1.152-19.474-4.666-25.666-8.045-29.044
				c-5.65-5.652-14.674-6.88-20.355-7.04c-8.271-2.973-24.808-6.45-35.258-6.776C98.249,49.353,97.755,49.345,97.256,49.345
				L97.256,49.345L97.256,49.345z"/>
		</g>
	</g>
	<g>
		<path fill="#FFFFFF" d="M83.042,122.292c0,0-2.763-16.074-3.039-26.168c0,0,14.051-2.085,24.81-2.57
			c10.76-0.489,25.645-2.326,25.645-2.326c-0.26,15.403,1.928,21.683,2.477,38.229l-27.473-0.932L83.042,122.292z"/>
	</g>
	<g>
		<path fill="#FFE6EC" d="M152.697,100.83c0,0,3.363,12.378,1.754,24.51c-2.734,20.625-59.045,21.044-69.938,20.796
			c-10.895-0.247-32.308-2.6-31.441-14.606c0.866-12.008,5.198-25.252,5.198-25.252s-0.866,7.057,2.477,10.521
			c3.342,3.467,10.243,4.83,25.746,4.58c15.351-0.247,40.849-2.436,49.269-3.713C147.02,115.954,152.43,110.484,152.697,100.83z"/>
	</g>
	<g>
		<path d="M91.387,105.062l3.245,6.063l-0.444-4.376c-0.067-0.661-0.229-0.979-0.485-0.952c-0.069,0.007-0.168,0.035-0.298,0.082
			c-0.129,0.05-0.229,0.075-0.298,0.082c-0.207,0.021-0.391-0.054-0.553-0.228c-0.162-0.172-0.257-0.396-0.286-0.672
			c-0.033-0.326,0.034-0.597,0.202-0.812c0.167-0.216,0.404-0.341,0.71-0.371c0.157-0.018,0.431-0.02,0.82-0.009
			c0.389,0.011,0.732,0.001,1.028-0.029c0.266-0.026,0.574-0.077,0.925-0.153c0.526-0.113,0.854-0.177,0.982-0.189
			c0.315-0.031,0.582,0.042,0.799,0.218c0.217,0.179,0.343,0.429,0.375,0.755c0.028,0.275-0.027,0.516-0.167,0.719
			c-0.138,0.203-0.321,0.315-0.548,0.338c-0.088,0.011-0.208,0.007-0.36-0.014c-0.151-0.02-0.267-0.025-0.345-0.018
			c-0.197,0.02-0.313,0.154-0.348,0.408c-0.009,0.102,0.002,0.309,0.034,0.625l0.61,6.018c0.066,0.65-0.167,1.002-0.7,1.057
			c-0.099,0.011-0.25,0.019-0.453,0.022c-0.204,0.006-0.355,0.015-0.454,0.024c-0.01,0-0.25,0.039-0.72,0.117l-0.326,0.032
			c-0.286,0.029-0.505-0.019-0.657-0.143c-0.087-0.071-0.221-0.271-0.405-0.603l-3.515-6.229l0.453,4.465
			c0.068,0.671,0.23,0.993,0.486,0.967c0.069-0.007,0.173-0.034,0.312-0.084c0.139-0.049,0.244-0.075,0.313-0.084
			c0.207-0.021,0.392,0.056,0.553,0.229c0.162,0.173,0.257,0.396,0.285,0.672c0.073,0.721-0.236,1.115-0.925,1.186
			c-0.197,0.021-0.526,0.023-0.985,0.012c-0.31-0.011-0.617,0.002-0.922,0.032c-0.257,0.026-0.599,0.085-1.028,0.179
			c-0.429,0.095-0.702,0.146-0.82,0.158c-0.72,0.073-1.116-0.248-1.189-0.97c-0.028-0.274,0.025-0.515,0.159-0.718
			c0.134-0.203,0.314-0.316,0.541-0.34c0.088-0.01,0.21-0.004,0.367,0.016c0.157,0.02,0.274,0.023,0.354,0.018
			c0.266-0.027,0.365-0.377,0.297-1.047l-0.416-4.096c-0.067-0.661-0.234-0.979-0.5-0.95c-0.079,0.009-0.193,0.037-0.343,0.087
			c-0.149,0.051-0.268,0.078-0.356,0.088c-0.227,0.022-0.426-0.051-0.598-0.223c-0.172-0.171-0.271-0.396-0.3-0.671
			c-0.033-0.326,0.039-0.597,0.216-0.813c0.176-0.218,0.423-0.343,0.738-0.375c0.208-0.021,0.51-0.026,0.91-0.018
			c0.4,0.01,0.712,0.003,0.939-0.021c0.187-0.019,0.506-0.069,0.955-0.155c0.206-0.031,0.44-0.075,0.704-0.132
			c0.117-0.032,0.244-0.055,0.382-0.068c0.267-0.027,0.483,0.057,0.652,0.248C91.06,104.488,91.191,104.704,91.387,105.062z"/>
		<path d="M105.679,108.259c0.041,0.414,0.019,0.694-0.071,0.843c-0.09,0.149-0.287,0.238-0.593,0.271l-3.607,0.364
			c-0.177,0.02-0.286,0.048-0.327,0.087c-0.041,0.04-0.055,0.128-0.041,0.267c0.043,0.414,0.211,0.745,0.504,0.993
			c0.295,0.25,0.646,0.354,1.049,0.312c0.414-0.041,0.814-0.312,1.202-0.809c0.266-0.346,0.573-0.537,0.929-0.572
			c0.296-0.029,0.542,0.029,0.742,0.18c0.199,0.148,0.312,0.352,0.338,0.606c0.059,0.572-0.206,1.089-0.791,1.552
			c-0.586,0.463-1.325,0.74-2.225,0.832c-1.172,0.118-2.145-0.142-2.917-0.781c-0.772-0.639-1.218-1.549-1.338-2.731
			c-0.121-1.19,0.129-2.19,0.749-2.996c0.621-0.805,1.493-1.265,2.617-1.378c1.045-0.105,1.91,0.109,2.599,0.646
			C105.182,106.48,105.577,107.253,105.679,108.259z M100.902,107.996c0.006,0.059,0.024,0.107,0.059,0.145
			c0.034,0.036,0.139,0.045,0.316,0.026l1.655-0.168c0.148-0.015,0.238-0.042,0.269-0.079c0.031-0.039,0.043-0.104,0.034-0.191
			c-0.026-0.256-0.163-0.469-0.409-0.638c-0.246-0.17-0.521-0.237-0.827-0.207c-0.395,0.04-0.699,0.226-0.915,0.558
			C100.947,107.652,100.885,107.839,100.902,107.996z"/>
		<path d="M109.543,107.029l0.957,3.1l0.504-4.457c0.053-0.443,0.17-0.748,0.349-0.91c0.178-0.162,0.522-0.27,1.034-0.32
			c0.582-0.061,0.972-0.026,1.168,0.098c0.197,0.124,0.377,0.456,0.543,0.998l1.268,4.099l0.447-3.392
			c0.012-0.081,0.014-0.15,0.008-0.21c-0.015-0.147-0.141-0.21-0.377-0.187c-0.483,0.039-0.754-0.212-0.809-0.754
			c-0.059-0.582,0.191-0.9,0.754-0.958c0.168-0.018,0.416-0.021,0.746-0.016c0.328,0.006,0.576,0.001,0.744-0.017
			c0.158-0.016,0.393-0.061,0.705-0.131c0.311-0.072,0.545-0.115,0.703-0.133c0.256-0.025,0.472,0.039,0.646,0.193
			c0.174,0.152,0.276,0.371,0.305,0.65c0.026,0.262-0.017,0.48-0.127,0.659c-0.111,0.179-0.267,0.277-0.463,0.298
			c-0.068,0.008-0.119,0.004-0.15-0.011c-0.141-0.019-0.217-0.026-0.227-0.026c-0.129,0.015-0.224,0.201-0.285,0.567
			c0,0.011-0.029,0.151-0.092,0.427l-0.838,3.971c-0.134,0.649-0.361,0.992-0.688,1.025c-0.098,0.01-0.248,0.01-0.447,0
			c-0.201-0.01-0.35-0.01-0.448,0c-0.098,0.01-0.239,0.04-0.425,0.088c-0.184,0.049-0.32,0.078-0.408,0.088
			c-0.365,0.037-0.66-0.321-0.887-1.076l-1.119-3.814l-0.475,3.857c-0.071,0.574-0.143,0.938-0.211,1.09
			c-0.069,0.15-0.207,0.238-0.414,0.259c-0.109,0.011-0.259,0.011-0.449,0c-0.188-0.01-0.354-0.009-0.491,0.005
			c-0.107,0.012-0.265,0.043-0.469,0.094s-0.36,0.082-0.47,0.092c-0.305,0.031-0.553-0.197-0.74-0.688l-1.641-4.375
			c-0.101-0.298-0.248-0.438-0.445-0.417c-0.039,0.004-0.1,0.019-0.183,0.041c-0.082,0.022-0.145,0.037-0.184,0.041
			c-0.414,0.042-0.648-0.224-0.707-0.795c-0.064-0.64,0.192-0.99,0.773-1.05c0.158-0.016,0.395-0.021,0.709-0.012
			c0.313,0.008,0.551,0.004,0.709-0.013c0.167-0.017,0.421-0.063,0.762-0.138c0.342-0.075,0.596-0.12,0.764-0.139
			c0.531-0.053,0.828,0.216,0.89,0.808c0.051,0.502-0.115,0.787-0.496,0.856c-0.187,0.039-0.299,0.072-0.34,0.102
			c-0.043,0.029-0.06,0.094-0.049,0.191l0.014,0.134C109.496,106.864,109.512,106.934,109.543,107.029z"/>
		<path d="M122.332,103.223c0.76-0.078,1.422,0.068,1.986,0.439c-0.004-0.428,0.24-0.667,0.734-0.717
			c0.502-0.051,0.77,0.101,0.809,0.455c0.012,0.119,0.004,0.254-0.02,0.406c-0.012,0.18-0.01,0.35,0.006,0.506
			c0.004,0.029,0.018,0.108,0.041,0.235c0.012,0.128,0.021,0.241,0.033,0.341l0.006,0.059c0.053,0.523-0.184,0.811-0.703,0.863
			c-0.375,0.037-0.719-0.113-1.033-0.455c-0.381-0.414-0.812-0.598-1.295-0.549c-0.572,0.06-0.838,0.284-0.797,0.68
			c0.02,0.207,0.129,0.344,0.324,0.406c0.193,0.065,0.697,0.127,1.512,0.184c0.664,0.053,1.158,0.137,1.482,0.253
			s0.602,0.303,0.824,0.558c0.283,0.331,0.449,0.732,0.496,1.206c0.076,0.749-0.146,1.403-0.674,1.966
			c-0.525,0.562-1.223,0.887-2.09,0.975s-1.684-0.108-2.449-0.59c0.049,0.484-0.174,0.75-0.666,0.801
			c-0.533,0.054-0.819-0.137-0.865-0.568c-0.01-0.1-0.016-0.253-0.016-0.462c-0.002-0.209-0.008-0.362-0.018-0.462
			c-0.01-0.088-0.031-0.22-0.062-0.396c-0.033-0.176-0.055-0.31-0.062-0.396c-0.045-0.443,0.208-0.693,0.762-0.75
			c0.266-0.025,0.471-0.007,0.619,0.059c0.145,0.063,0.309,0.203,0.488,0.412c0.281,0.34,0.533,0.557,0.754,0.647
			c0.219,0.094,0.527,0.118,0.934,0.077c0.709-0.072,1.043-0.328,0.998-0.773c-0.031-0.305-0.34-0.488-0.924-0.548l-0.875-0.091
			c-0.715-0.076-1.227-0.174-1.531-0.292c-0.305-0.12-0.559-0.33-0.759-0.634c-0.2-0.303-0.321-0.662-0.362-1.075
			c-0.076-0.739,0.106-1.366,0.549-1.878C120.928,103.598,121.543,103.302,122.332,103.223z"/>
	</g>
</g>
</svg>
