<?xml version="1.0" encoding="utf-8"?>
<!-- Generator: Adobe Illustrator 16.0.0, SVG Export Plug-In . SVG Version: 6.00 Build 0)  -->
<!DOCTYPE svg PUBLIC "-//W3C//DTD SVG 1.1//EN" "http://www.w3.org/Graphics/SVG/1.1/DTD/svg11.dtd">
<svg version="1.1" id="Layer_1" xmlns="http://www.w3.org/2000/svg" xmlns:xlink="http://www.w3.org/1999/xlink" x="0px" y="0px"
	 width="160px" height="200px" viewBox="0 0 160 200" enable-background="new 0 0 160 200" xml:space="preserve">
<g>
	<path d="M93.131,187.692c-0.405,0-0.828-0.007-1.268-0.021c-4.375-0.143-9.358-0.305-12.787-2.191
		c-0.811,0.377-1.708,0.614-2.665,0.697c-1.854,0.158-3.621,0.237-5.26,0.237c-4.768,0-8.419-0.64-11.164-1.957
		c-5.347-2.552-7.581-5.955-7.459-11.378c0.002-0.119,0.021-0.406,0.055-0.832c-3.18,2.095-7.119,3.322-11.411,3.322
		c-9.655,0-18.32-6.024-23.772-16.527c-8.958-17.266-4.925-31.609-1.804-38.516c-0.858-1.323-1.355-2.964-1.387-4.812
		c-0.13-7.562,7.253-18.479,21.069-21.736c-4.143-4.523-7.866-10.191-8.497-11.166c-4.053-6.262-10.839-18.435-10.748-29.597
		l0.02-2.435l1.93-1.486c0.662-0.509,6.739-4.978,16.217-4.978l0.494,0.004c5.729,0.097,12.103,1.472,18.134,3.831
		c-0.188-2.529-0.317-5.072-0.263-6.859l0.021-0.746c0.14-5.377,0.47-17.97,7.126-26.6l1.69-2.191l2.753,0.268
		c0.865,0.084,19.251,2.18,25.635,26.708c5.131-3.673,12.909-7.497,23.15-7.618l0.43-0.003c20.15,0,29.276,16.574,29.276,21.606
		c0,1.934-0.672,3.649-1.807,4.938l0.615,0.555c0.448,0.539,0.771,1.789,1.003,1.789h2.811l1.238,3.423
		c0.489,1.295,0.295,3.108-0.229,4.793l0.833,1.752c1.17,2.488,0.23,4.343-1.449,6.497c0.065,2.624,0.068,7.073-0.466,10.808
		c0.073,0.097,0.146,0.202,0.217,0.305c0.907,1.322,1.818,3.588,1.01,6.867c-0.041,0.166-0.081,0.356-0.128,0.567
		c-2.715,12.369-12.242,19.298-29.074,21.101c0.155,1.1,0.432,2.499,0.906,4.233c2.384,8.693,0.41,21.305-7.726,29.596
		c-0.055,1.791,0.013,5.138,0.81,9.906c0.716,4.309,1.973,7.253,2.982,9.618c0.987,2.312,1.841,4.311,1.65,6.593
		c-0.526,6.278-6.701,7.945-11.484,8.283C102.524,186.123,99.188,187.692,93.131,187.692z M57.209,144.177
		c0.37,0.617,0.725,1.297,1.056,2.044c0.43-0.551,1.007-1.2,1.737-1.793c-0.333-1.626-0.663-3.587-0.897-5.808
		C59.031,140.926,58.295,142.759,57.209,144.177z M54.499,129.347c0.266,0.533,1.002,1.452,1.468,2.033
		c1.125,1.405,2.472,3.085,2.958,5.21c-0.188-2.603-0.228-5.488-0.001-8.555c0.015-0.193,0.031-0.378,0.048-0.556
		c-0.337-0.163-0.705-0.276-1.068-0.276c-0.549,0-1.187,0.26-1.896,0.772C55.095,128.638,54.677,129.105,54.499,129.347z
		 M61.342,99.416c3.967,3.281,6.83,7.382,8.728,11.198c1.709-0.749,3.541-1.233,5.448-1.431c0.287-2.181,0.834-4.934,1.853-8.167
		c1.22-3.873,1.119-7.848,0.891-10.194c-0.063-0.03-0.126-0.059-0.189-0.088c-2.836,2.718-7.476,6.034-14.504,8.068
		C62.802,99.025,62.06,99.229,61.342,99.416z"/>
	<g>
		<path fill="#C5E894" d="M63.671,17.002c0,0,19.557,1.903,22.813,31.506c0,0,9.302-12.188,26.516-12.393
			c0.125-0.001,0.246-0.002,0.37-0.002c16.948,0.002,24.276,13.874,24.276,16.606c0,1.685-1.224,2.376-2.382,2.376
			c-0.732,0-1.439-0.276-1.794-0.752c0,0,3.562,5.501,2.953,11.308c0,0,0.884-1.146,0.992-3.332
			c0.027-0.534,0.084-0.761,0.152-0.761c0.256,0,0.67,3.214,0.247,5.486c-0.238,1.281,0.206,1.873,0.874,1.873
			c0.833,0,2.013-0.922,2.648-2.578c0.271-0.704,0.421-0.987,0.475-0.987c0.197,0-0.872,3.762-1.993,4.75
			c-0.915,0.803-0.585,2.904,0.593,2.904c0.2,0,0.426-0.061,0.673-0.2c0.788-0.441,1.267-0.695,1.437-0.695
			c0.298,0-0.345,0.775-1.924,2.681c0,0,0.509,10.365-0.966,14.592c0,0,2.803,0.355,1.937,3.869
			c-0.868,3.512-2.191,16.904-29.285,18.23c0,0-1.014,2.749,1.021,10.185c2.039,7.435,0.103,19.15-7.741,25.97
			c0,0-0.713,4.483,0.717,13.037c1.422,8.557,4.785,12.527,4.582,14.973c-0.198,2.361-2.863,3.771-8.64,3.771
			c-0.206,0-0.415-0.001-0.629-0.005c0,0-0.091,3.28-8.462,3.28c-0.354,0-0.724-0.006-1.108-0.019
			c-9.472-0.309-12.224-1.123-12.123-4.992c0,0-0.312,0.033-0.722,0.033c-0.312,0-0.681-0.02-1.011-0.088
			c0,0,0.765,3.312-2.187,3.568c-1.149,0.098-2.893,0.219-4.829,0.219c-3.049,0-6.574-0.3-9-1.465
			c-3.979-1.898-4.692-3.703-4.624-6.758c0.071-3.054,2.14-20.211,4.179-23.197c1.305-1.914,2.248-2.331,3.059-2.331
			c0.455,0,0.869,0.131,1.283,0.202c0,0-2.951-8.458-2.137-19.461c0.077-1.014,0.208-1.747,0.4-2.968c0,0-2.56-3.233-6.406-3.233
			c-1.449,0-3.081,0.459-4.826,1.722c-8.785,6.36,1.033,10.603,1.033,14.308c0,4.615-4.834,4.924-4.834,4.924
			s6.379,2.445,6.104,15.348c-0.145,6.909-6.565,12.065-14.209,12.065c-6.623,0-14.165-3.873-19.335-13.831
			c-11.134-21.459,0.259-37.754,0.259-37.754c-7.332-0.135-0.7-19.828,19.807-20.91c0.509-0.027,1.008-0.04,1.499-0.04
			c19.263,0.001,24.277,20.325,24.277,20.325c2.62-2.863,6.11-4.277,9.823-4.277c0.91,0,1.833,0.085,2.761,0.254
			c0,0-0.463-4.383,1.879-11.817c2.341-7.434,0.714-14.868,0.714-14.868s-3.63-2.336-6.346-2.592
			c-1.7,2.142-6.02,6.536-14.329,8.941c-5.203,1.504-8.642,1.996-11.223,1.996c-3.011,0-4.855-0.669-6.973-1.181
			c-3.94-0.949-23.091-24.445-22.951-41.557c0,0,5.117-3.94,13.167-3.94c0.136,0,0.273,0.001,0.411,0.003
			c8.285,0.14,17.385,3.258,24.037,7.196c0,0-1.221-10.589-1.085-15.072C57.697,36.967,57.697,24.746,63.671,17.002 M59.132,6.513
			l-3.379,4.381c-7.654,9.922-8.013,23.658-8.166,29.523l-0.02,0.728c0,0.016-0.001,0.031-0.001,0.047
			c-4.354-1.148-8.715-1.8-12.787-1.869c-0.196-0.003-0.388-0.005-0.579-0.005c-11.131,0-18.467,5.4-19.267,6.017l-3.859,2.971
			l-0.04,4.871c-0.097,11.841,6.228,24.13,11.55,32.354c1.36,2.101,2.813,4.172,4.289,6.121c-3.842,1.824-6.787,4.072-8.928,6.095
			c-5.573,5.266-8.839,12.016-8.735,18.055c0.03,1.768,0.35,3.427,0.916,4.932c-3.259,8.45-6.153,23.287,2.836,40.611
			c3.227,6.216,7.432,11.059,12.498,14.396c4.797,3.16,10.231,4.83,15.713,4.83c2.567,0,5.033-0.356,7.345-1.02
			c1.464,4.036,4.553,7.146,9.327,9.425c3.415,1.639,7.774,2.439,13.307,2.439c1.78,0,3.69-0.086,5.677-0.255
			c0.669-0.058,1.322-0.163,1.954-0.312c3.305,1.279,7.242,1.637,12.915,1.822c0.502,0.016,0.978,0.023,1.434,0.023
			c6.312,0,10.467-1.503,13.2-3.492c2.48-0.283,4.618-0.844,6.469-1.691c4.693-2.151,7.619-6.17,8.026-11.026
			c0.293-3.526-0.943-6.423-2.034-8.978c-0.952-2.23-2.031-4.758-2.648-8.471c-0.515-3.082-0.695-5.479-0.742-7.153
			c7.901-9.218,9.999-22.138,7.854-31.625c8.276-1.599,14.854-4.636,19.628-9.074c6.259-5.818,7.686-12.319,8.295-15.095
			c0.036-0.163,0.066-0.309,0.098-0.435c0.833-3.382,0.508-6.69-0.907-9.488c0.287-2.787,0.35-5.669,0.327-8.049
			c2.903-4.402,1.867-8.257,0.94-10.229c-0.018-0.036-0.035-0.072-0.052-0.108c0.375-1.866,0.392-3.839-0.396-5.934l-2.432-6.459
			l-1.385-0.007c0.18-0.854,0.274-1.743,0.274-2.658c0-5.904-4.763-12.592-8.841-16.525c-4.769-4.598-13.051-10.08-25.435-10.081
			c-0.172,0-0.329,0-0.491,0.002c-8.159,0.097-14.946,2.309-20.273,5.077C84.009,9.228,65.576,7.14,64.64,7.049L59.132,6.513
			L59.132,6.513z M70.348,101.671c0.644-0.28,1.265-0.568,1.863-0.865c-0.253,0.871-0.475,1.709-0.669,2.513
			C71.162,102.767,70.764,102.216,70.348,101.671L70.348,101.671z"/>
	</g>
</g>
</svg>
