<?xml version="1.0" encoding="utf-8"?>
<!-- Generator: Adobe Illustrator 16.0.0, SVG Export Plug-In . SVG Version: 6.00 Build 0)  -->
<!DOCTYPE svg PUBLIC "-//W3C//DTD SVG 1.1//EN" "http://www.w3.org/Graphics/SVG/1.1/DTD/svg11.dtd">
<svg version="1.1" id="Layer_1" xmlns="http://www.w3.org/2000/svg" xmlns:xlink="http://www.w3.org/1999/xlink" x="0px" y="0px"
	 width="210px" height="200px" viewBox="0 0 210 200" enable-background="new 0 0 210 200" xml:space="preserve">
<g>
	<g>
		<path d="M110.514,162.061c-7.548,0-14.911-2.666-24.622-8.912c-0.265-0.171-0.531-0.348-0.807-0.537
			c-1.49,0.197-3.005,0.297-4.521,0.297c-12.651,0-25.473-6.916-31.905-17.207c-5.992-9.588-7.305-30.757-7.545-42.789
			c-0.648,0.04-1.283,0.06-1.904,0.06c-3.386,0-6.456-0.591-9.123-1.758c-1.444-0.632-2.334-2.104-2.223-3.677l0.778-10.898
			c0.133-1.882,1.658-3.368,3.544-3.455c4.468-0.207,17.302-1.609,22.944-5.558c0.631-0.442,1.378-0.673,2.136-0.673
			c0.272,0,0.545,0.03,0.815,0.09c1.021,0.229,1.899,0.877,2.419,1.787l6.227,10.898c1.006,1.76,0.419,4-1.319,5.042
			c-0.125,0.075-2.638,1.571-6.425,3.265c0.656,7.932,2.716,22.521,9.142,31.914c0.58,0.846,1.192,1.609,1.837,2.291
			c0.14-7.524,2.357-14.972,6.302-20.598c2.948-4.205,8.676-8.827,17.055-13.765c-1.879-2.788-3.913-5.258-5.687-7.228
			c-2.732,0.832-5.342,1.252-7.788,1.252c-1.302,0-2.58-0.119-3.798-0.355c-1.548-0.3-2.739-1.542-2.974-3.101l-1.63-10.803
			c-0.282-1.867,0.879-3.648,2.7-4.148c4.314-1.181,16.528-5.361,21.167-10.453c0.706-0.774,1.704-1.215,2.75-1.216
			c0.001,0,0.002,0,0.002,0c1.046,0,2.044,0.44,2.75,1.212l8.464,9.268c1.367,1.497,1.286,3.812-0.184,5.21
			c-0.101,0.097-1.842,1.745-4.625,3.89c2.048,1.891,4.262,4.338,6.357,7.458c0.66-0.303,1.295-0.589,1.894-0.858
			c-1.859-3.74-2.777-7.364-2.737-10.818c0.019-1.577,1.027-2.97,2.519-3.48l10.339-3.534c0.397-0.136,0.803-0.201,1.203-0.201
			c1.398,0,2.727,0.793,3.36,2.116c1.933,4.034,8.229,15.305,14.065,18.958c0.888,0.556,1.5,1.459,1.688,2.489
			c0.188,1.03-0.066,2.092-0.702,2.924l-7.604,9.986c-0.732,0.961-1.842,1.467-2.966,1.467c-0.762,0-1.531-0.232-2.193-0.717
			c-0.118-0.087-2.475-1.815-5.512-4.644c-1.757,0.923-3.844,2.078-6.094,3.444c0.16,0.668,0.303,1.319,0.433,1.971
			c3.589,17.936,1.845,29.101-6.564,38.692c2.209,0.483,4.531,0.744,6.895,0.767h0.14c11.513,0,19.522-13.584,23.165-21.374
			c-2.806-3.355-4.601-6.817-5.344-10.315c-0.328-1.543,0.353-3.124,1.694-3.948l9.312-5.716c0.604-0.371,1.278-0.551,1.945-0.551
			c1.107,0,2.197,0.494,2.928,1.419c2.771,3.511,11.385,13.127,17.881,15.414c0.987,0.347,1.783,1.096,2.192,2.059
			c0.408,0.963,0.393,2.056-0.045,3.007l-5.23,11.407c-0.626,1.365-1.974,2.174-3.387,2.174c-0.496,0-0.998-0.1-1.48-0.309
			c-0.131-0.057-2.327-1.017-5.39-2.743c-2.352,6.544-7.539,15.508-18.976,23.299C127.281,158.726,118.727,162.061,110.514,162.061z
			"/>
	</g>
	<g>
		<path fill="#FFB8CA" d="M98.061,55.55l8.466,9.268c0,0-3.332,3.168-8.204,6.42c3.035,2.095,7.414,5.948,11.075,12.398
			c3.486-1.654,6.522-2.989,8.616-3.882c-2.522-3.866-4.363-8.182-4.312-12.522l10.338-3.534c0,0,7.396,15.465,15.45,20.507
			l-7.605,9.986c0,0-3.269-2.385-7.032-6.159c-2.751,1.359-6.767,3.495-11.067,6.263c0.398,1.403,0.77,2.855,1.078,4.406
			c3.927,19.623,1.251,29.901-9.863,39.611c3.999,1.759,8.703,2.792,13.808,2.841c0.06,0.002,0.117,0.002,0.176,0.002
			c14.714,0,23.949-17.379,27.555-25.784c-2.916-3.03-5.268-6.535-6.09-10.405l9.312-5.716c0,0,10.606,13.468,19.569,16.622
			l-5.231,11.408c0,0-4.216-1.829-9.11-5.048c-1.204,5.836-5.248,16.688-18.833,25.943c-10.14,6.908-18.01,10.164-25.644,10.164
			c-7.184,0-14.157-2.886-22.607-8.321c-0.656-0.422-1.278-0.868-1.884-1.32c-1.825,0.331-3.648,0.487-5.457,0.487
			c-12.106,0-23.47-7.013-28.747-15.457c-6.356-10.171-7.003-35.911-7.027-45.011c-1.856,0.333-3.735,0.531-5.581,0.531
			c-2.674,0-5.277-0.416-7.63-1.446l0.777-10.897c0,0,17.126-0.779,24.909-6.227l6.227,10.897c0,0-3.471,2.08-8.413,4.074
			c0.456,7.836,2.324,25.23,9.971,36.404c2.605,3.808,5.778,6.159,9.186,7.264c-1.687-9.321,0.517-19.03,5.076-25.534
			c3.504-4.999,11.298-10.207,19.212-14.587c-3.072-5.372-7.029-9.951-9.813-12.852c-2.901,1.11-5.92,1.835-8.867,1.835
			c-1.042,0-2.074-0.091-3.089-0.287l-1.63-10.803C75.123,67.086,91.661,62.573,98.061,55.55 M92.411,124.628
			c3.687-3.104,6.929-7.423,9.222-12.697c1.359-3.125,1.736-6.346,1.449-9.531c-3.016,2.736-5.769,5.75-7.859,9.012
			C92.278,116.003,91.514,120.534,92.411,124.628 M98.061,48.102c-0.001,0-0.002,0-0.003,0c-2.094,0.001-4.091,0.883-5.5,2.431
			c-3.736,4.098-14.68,8.081-19.395,9.368c-3.645,0.995-5.968,4.562-5.404,8.298l1.196,7.922l-5.221-9.138
			c-1.04-1.819-2.795-3.116-4.838-3.573c-0.54-0.121-1.085-0.18-1.629-0.18c-1.515,0-3.008,0.462-4.271,1.346
			c-4.121,2.885-14.75,4.595-20.982,4.888c-3.77,0.177-6.817,3.146-7.085,6.91L24.15,87.271c-0.225,3.145,1.556,6.091,4.445,7.354
			c2.672,1.168,5.655,1.847,8.89,2.023c0.46,13.62,2.225,31.757,8.018,41.025c7.087,11.339,21.178,18.956,35.063,18.956
			c1.203,0,2.405-0.058,3.598-0.169c10.085,6.443,18.224,9.321,26.352,9.321c9.007,0,18.208-3.533,29.838-11.456
			c10.098-6.881,15.669-14.674,18.744-21.179c1.209,0.597,1.963,0.927,2.04,0.96c0.964,0.419,1.971,0.617,2.961,0.617
			c2.826,0,5.523-1.616,6.773-4.345l5.232-11.408c0.872-1.904,0.904-4.086,0.086-6.014c-0.817-1.928-2.408-3.423-4.385-4.117
			c-4.744-1.671-12.324-9.314-16.193-14.21c-1.46-1.848-3.641-2.833-5.855-2.834c-1.335,0-2.681,0.358-3.889,1.1l-6.828,4.191
			l6.379-8.372c1.268-1.666,1.777-3.789,1.401-5.849c-0.375-2.059-1.6-3.866-3.375-4.978c-4.264-2.669-9.984-11.789-12.685-17.412
			c-1.271-2.646-3.925-4.229-6.722-4.229c-0.801,0-1.61,0.129-2.405,0.401L112.12,59.9c-0.029-0.035-0.062-0.071-0.094-0.105
			l-8.465-9.268C102.149,48.981,100.153,48.102,98.061,48.102L98.061,48.102z M62.921,90.301c2.632-1.285,4.294-2.275,4.399-2.338
			c2.047-1.227,3.294-3.284,3.565-5.487c1.083,1.383,2.646,2.375,4.452,2.725c1.45,0.282,2.966,0.424,4.506,0.424
			c2.088,0,4.263-0.261,6.506-0.779c0.521,0.618,1.051,1.271,1.584,1.954c-7.026,4.456-11.873,8.644-14.721,12.707
			c-2.412,3.44-4.242,7.489-5.42,11.82C65.904,106.733,63.908,99.908,62.921,90.301L62.921,90.301z M122.287,97.839
			c0.462-0.265,0.912-0.52,1.352-0.763c2.202,1.916,3.755,3.056,3.854,3.127c1.323,0.967,2.861,1.433,4.387,1.433
			c0.695,0,1.39-0.096,2.058-0.289c-0.852,1.537-1.153,3.361-0.771,5.161c0.727,3.421,2.279,6.774,4.633,10.016
			c-7.944,15.862-16.297,17.178-18.812,17.178h-0.107c-0.044,0-0.087-0.002-0.131-0.002
			C124.373,124.458,125.32,113.392,122.287,97.839L122.287,97.839z"/>
	</g>
</g>
</svg>
