<?xml version="1.0" encoding="utf-8"?>
<!-- Generator: Adobe Illustrator 16.0.0, SVG Export Plug-In . SVG Version: 6.00 Build 0)  -->
<!DOCTYPE svg PUBLIC "-//W3C//DTD SVG 1.1//EN" "http://www.w3.org/Graphics/SVG/1.1/DTD/svg11.dtd">
<svg version="1.1" id="Layer_2_1_" xmlns="http://www.w3.org/2000/svg" xmlns:xlink="http://www.w3.org/1999/xlink" x="0px" y="0px"
	 width="210px" height="200px" viewBox="0 0 210 200" enable-background="new 0 0 210 200" xml:space="preserve">
<g>
	<polygon fill="#FFD9A8" points="60.165,101.063 102.19,79.938 130.664,90.501 130.664,146.988 95.415,176.155 51.213,159.389 
		42.946,118.056 	"/>
	<g>
		<g>
			<path d="M95.424,156.007c-0.531,0-1.063-0.114-1.559-0.348c-1.15-0.538-1.94-1.633-2.089-2.894l-0.003-0.034
				c-0.196-1.661,0.752-3.245,2.309-3.854c0.044-0.018,0.121-0.046,0.182-0.066c0.421-0.156,0.854-0.231,1.282-0.231
				c1.328,0,2.601,0.723,3.253,1.965c0.884,1.681,0.341,3.757-1.251,4.791l-0.121,0.079
				C96.82,155.808,96.123,156.007,95.424,156.007z"/>
			<path fill="#C5E894" d="M95.545,152.254h0.005 M95.545,152.254l-0.121,0.079l-0.004-0.034
				C95.461,152.282,95.503,152.271,95.545,152.254 M95.542,144.906c-0.414,0-0.831,0.033-1.247,0.105
				c-0.478,0.082-0.938,0.211-1.38,0.379c-0.058,0.021-0.116,0.043-0.172,0.065c-3.115,1.219-5.013,4.387-4.62,7.709
				c0.3,2.521,1.88,4.727,4.18,5.804c0.999,0.47,2.075,0.703,3.145,0.703c1.392,0,2.775-0.395,3.979-1.175l0.003-0.004
				c0.354-0.22,0.687-0.47,0.997-0.744c0.322-0.287,0.615-0.596,0.877-0.927c0.998-1.254,1.594-2.843,1.594-4.568
				c0-3.834-2.932-6.981-6.678-7.319C95.995,144.915,95.769,144.906,95.542,144.906L95.542,144.906z"/>
		</g>
		<g>
			<path d="M100.041,187.658c-6.992-0.437-34.904-10.699-38.062-11.867c-1.527-0.565-2.499-2.066-2.392-3.691
				c0.036-0.531,0.051-0.99,0.053-1.383c-0.244,0.231-0.479,0.475-0.685,0.708c-0.716,0.822-1.741,1.265-2.782,1.265
				c-0.53,0-1.065-0.115-1.565-0.352c-17.48-8.281-19.476-26.316-19.552-27.079c-0.003-0.041-3.337-50.031-3.337-50.031
				c-0.078-1.18,0.415-2.324,1.325-3.077c0.666-0.55,1.495-0.842,2.34-0.842c0.311,0,0.624,0.04,0.931,0.119
				c2.411,0.632,4.667,0.952,6.708,0.952c11.184,0,12.791-9.608,12.854-10.017c1.083-7.039,6.964-16.952,16.651-16.952
				c0.677,0,1.37,0.049,2.057,0.147c4.921,0.704,8.59,3.703,11.154,6.837c1.682-3.64,4.439-7.367,8.941-9.282
				c1.772-0.754,3.612-1.136,5.471-1.136c8.387,0,14.721,7.511,16.933,12.558c1.131,2.582,4.689,6.951,10.851,6.951
				c3.125,0,6.619-1.085,10.387-3.224c0.56-0.318,1.187-0.479,1.813-0.479c0.522,0,1.046,0.111,1.534,0.335
				c1.072,0.494,1.844,1.473,2.072,2.631c0,0,9.645,49.165,9.649,49.206c0.124,0.757,2.838,18.696-11.922,31.197
				c-0.681,0.577-1.526,0.87-2.375,0.87c-0.719,0-1.441-0.211-2.067-0.637c-0.257-0.173-0.545-0.347-0.838-0.506
				c0.104,0.38,0.236,0.819,0.408,1.325c0.524,1.548-0.037,3.258-1.378,4.191c-2.76,1.926-27.149,18.858-33.783,21.075
				c-0.376,0.126-0.77,0.19-1.166,0.19C100.193,187.665,100.117,187.662,100.041,187.658z M72.081,159.353
				c0.596,0.165,1.199,0.259,1.795,0.259c1.314,0,2.546-0.46,3.768-1.403c2.503-1.934,3.992-3.884,4.085-5.348
				c0.045-0.699-0.274-1.205-0.277-1.208c-0.592-0.592-0.962-1.365-1.054-2.197c-0.043-0.398-0.074-0.915-0.039-1.485
				c-1.001,0.817-1.792,2.115-2.39,3.909C76.792,155.409,74.768,157.948,72.081,159.353z M88.756,145.412
				c0.086,0.194,0.156,0.397,0.208,0.606c0.224,0.902,0.94,2.039,1.963,3.119c0.284,0.301,0.512,0.642,0.677,1.007
				c0.452-0.362,0.983-0.614,1.55-0.732c0.498-0.103,1.049-0.274,1.639-0.509c0.438-0.173,0.897-0.259,1.356-0.259
				c0.463,0,0.925,0.088,1.359,0.261c0.257-0.509,0.555-1.034,0.893-1.577c0.25-0.4,0.575-0.75,0.958-1.028
				c1.949-1.415,3.292-2.747,3.306-2.76c0.163-0.163,0.344-0.312,0.534-0.44c0.944-0.639,1.748-1.324,2.389-2.04
				c0.329-0.368,0.728-0.662,1.167-0.868c0.002-0.461,0.092-0.927,0.276-1.374c0.295-0.718,0.456-1.457,0.493-2.257
				c0.028-0.612,0.207-1.196,0.51-1.705c-0.452-0.425-0.796-0.963-0.99-1.572c-1.104-3.486-3.611-6.234-3.636-6.261
				c-0.956-1.023-1.247-2.501-0.751-3.81c0.497-1.31,1.694-2.225,3.088-2.356c1.702-0.161,2.881-0.415,3.685-0.663
				c-1.447-2.343-2.151-4.906-2.325-5.603c-0.318-1.272,0.067-2.619,1.011-3.531c0.695-0.672,1.614-1.033,2.555-1.033
				c0.336,0,0.676,0.048,1.008,0.142c1.363,0.39,2.552,0.587,3.529,0.587c0.689,0,1.604-0.102,2.049-0.589
				c0.139-0.153,0.246-0.347,0.326-0.553c-0.178,0.099-0.336,0.2-0.427,0.276c-0.669,0.548-1.495,0.829-2.328,0.829
				c-0.571,0-1.146-0.133-1.676-0.404c-1.3-0.667-2.081-2.04-1.99-3.499c0.258-4.112-4.169-6.444-4.215-6.468
				c-1.524-0.762-2.324-2.471-1.933-4.13c0.392-1.659,1.872-2.83,3.577-2.83c1.545,0,2.898-0.368,3.948-0.832
				c-0.44-0.031-0.905-0.046-1.392-0.046c-3.062,0-5.848,0.635-5.875,0.642c-0.282,0.066-0.565,0.099-0.843,0.099
				c-1.466,0-2.83-0.883-3.402-2.292c-0.055-0.134-0.1-0.27-0.139-0.407c-0.245,0.043-0.502,0.09-0.771,0.141
				c-10.735,2.012-13.68,16.495-13.708,16.64c-0.33,1.689-1.788,2.925-3.509,2.969c-0.032,0.002-0.064,0.002-0.097,0.002
				c-0.098,0-0.195-0.005-0.291-0.013c0.413,0.419,0.709,0.921,0.881,1.461c0.217-0.04,0.438-0.06,0.659-0.06
				c0.451,0,0.905,0.083,1.341,0.254c1.405,0.554,2.332,1.906,2.332,3.416c0,2.929,3.269,7.153,8.531,11.026
				c1.067,0.786,1.602,2.06,1.479,3.32c0.673,0.287,1.25,0.773,1.651,1.398c0.525,0.822,0.703,1.82,0.491,2.774
				c-0.985,4.443-5.543,7.379-6.447,7.922c-0.152,0.092-0.31,0.172-0.472,0.239c-3.008,1.263-3.765,2.432-3.951,2.877
				C88.935,145.093,88.851,145.256,88.756,145.412z M60.941,142.527c0.804,0.069,1.654,0.112,2.533,0.112
				c5.077,0,9.026-1.376,11.738-4.086c2.537-2.537,5.013-4.392,7.314-5.746c-0.598,0.206-1.165,0.455-1.698,0.749
				c-4.214,2.316-6.995,3.574-9.621,3.574c-1.657,0-2.946-0.476-4.207-1.065L60.941,142.527z"/>
			<path fill="#FFD9A8" d="M100.152,65.653c6.408,0,11.743,6.196,13.567,10.358c1.539,3.509,6.177,9.15,14.215,9.15
				c3.438,0,7.497-1.033,12.201-3.703l9.628,49.084c0,0,2.676,16.505-10.67,27.806c0,0-2.858-1.946-4.902-1.946
				c-1.778,0-2.943,1.474-1.075,6.983c0,0-26.522,18.49-32.847,20.605c-6.655-0.416-37.017-11.646-37.017-11.646
				c0.336-5.06-0.762-6.563-2.186-6.563c-2.091,0-4.885,3.235-4.885,3.235c-15.805-7.487-17.468-24.124-17.468-24.124l-3.328-49.911
				c2.845,0.746,5.382,1.071,7.639,1.071c11.595,0,15.788-8.607,16.485-13.133c0.781-5.082,5.236-13.836,13.02-13.836
				c0.498,0,1.011,0.037,1.537,0.11c8.186,1.17,12.353,11.105,12.843,12.35c0.25-1.925,1.882-11.935,9.209-15.051
				C97.495,65.911,98.846,65.653,100.152,65.653 M82.801,106.63c0,0-0.798-3.195-3.247-3.195c-0.613,0-1.329,0.201-2.161,0.699
				c-4.159,2.496,2.496,8.735,2.496,8.735H75.73c-5.822,2.911-3.328,6.239,0,7.07c0.238,0.059,0.483,0.088,0.736,0.088
				c3.278,0,7.583-4.663,7.583-4.663c0,5.843,6.589,11.455,10.027,13.985c-1.901-0.501-4.302-0.943-6.851-0.943
				c-2.693,0-5.553,0.494-8.167,1.933c-4.159,2.287-6.239,3.119-7.851,3.119c-1.612,0-2.755-0.832-5.044-1.872l-12.477,13.31
				c0,0,4.377,1.42,9.788,1.42c4.734,0,10.26-1.089,14.336-5.163c6.278-6.278,12.552-8.257,16.513-8.257
				c0.741,0,1.402,0.069,1.965,0.193c-0.692,3.127-4.753,5.567-4.753,5.567c-3.467,1.454-5.209,3.149-5.92,4.849
				c-0.479-0.113-1.262-0.253-2.211-0.253c-2.729,0-6.821,1.162-8.922,7.467c-1.664,4.992-4.991,6.239-7.903,6.239
				c-2.911,0-5.408-1.248-5.408-1.248s5.809,7.577,12.704,7.577c1.953,0,3.994-0.608,6.013-2.169
				c9.15-7.072,4.159-12.062,4.159-12.062s-0.251-2.284,0.835-2.284c0.146,0,0.317,0.041,0.516,0.136
				c0.487,1.959,1.847,3.689,2.861,4.759c-2.386,0.695-1.605,4.718-0.468,7.371c1.247,2.911,2.08,8.734,2.08,8.734
				c0.277,0.094,0.591,0.135,0.928,0.135c2.703,0,6.975-2.63,6.975-2.63s-2.496-4.158-4.575-6.653
				c-2.08-2.498-2.496-3.745-2.496-3.745c1.338-0.502,2.403-1.205,3.202-1.867c0.753-0.156,1.504-0.397,2.244-0.69l0.004,0.034
				l-0.044,0.027c-4.575,2.496-2.08,3.328-2.08,3.328l3.071,3.923l4.416,5.645l7.072-4.993c0,0-7.071-4.992-8.319-6.24
				c-0.946-0.945,0.496-3.561,1.251-4.771c2.233-1.625,3.74-3.13,3.74-3.13c1.243-0.842,2.25-1.723,3.062-2.627
				c0.136-0.008,0.271-0.013,0.406-0.013c5.146,0.001,9.011,5.968,9.011,5.968c0.831-2.496,3.743-7.903,3.743-7.903
				c-2.288-2.079-4.887-2.6-6.915-2.6c-2.027,0-3.483,0.521-3.483,0.521l-0.654,0.729c0.479-1.165,0.712-2.335,0.766-3.487
				c3.812-2.428,9.51-2.661,11.578-2.661c0.499,0,0.787,0.013,0.787,0.013c-0.832-1.247-0.832-8.318-0.832-8.318
				c-4.062,0-10.732,5.234-12.182,6.412c-1.386-4.376-4.455-7.661-4.455-7.661c8.734-0.831,8.318-4.157,8.318-4.157
				c-2.495-1.664-3.742-6.655-3.742-6.655c1.791,0.514,3.286,0.729,4.536,0.729c6.872,0,6.277-6.552,6.277-6.552
				c-0.79-1.736-1.937-2.274-3.058-2.274c-1.835,0-3.598,1.442-3.598,1.442c0.417-6.655-6.237-9.982-6.237-9.982
				c7.07,0,12.894-5.822,7.902-7.486c-1.664-0.555-3.558-0.739-5.345-0.739c-3.575,0-6.717,0.739-6.717,0.739
				s5.323-3.194,0.639-3.194c-1.171,0-2.968,0.199-5.629,0.699C86.128,89.577,82.801,106.63,82.801,106.63 M100.153,58.305
				c-2.356,0-4.68,0.48-6.909,1.429c-3.616,1.539-6.288,3.99-8.26,6.704c-2.634-2.19-5.905-3.947-9.877-4.515
				c-0.859-0.123-1.725-0.186-2.576-0.186c-5.717,0-11.025,2.793-14.948,7.864c-2.703,3.494-4.698,8.057-5.335,12.204
				c-0.108,0.706-1.291,6.902-9.223,6.902c-1.727,0-3.671-0.279-5.777-0.832c-0.614-0.161-1.24-0.24-1.861-0.24
				c-1.69,0-3.349,0.583-4.682,1.684c-1.821,1.506-2.808,3.795-2.651,6.153l3.328,49.91c0.006,0.081,0.012,0.162,0.02,0.242
				c0.085,0.849,2.299,20.876,21.635,30.033c1.03,0.488,2.121,0.727,3.196,0.727c0.285,0,0.568-0.018,0.85-0.05
				c0.841,1.3,2.092,2.337,3.622,2.902c7.36,2.722,31.933,11.64,39.108,12.088c0.152,0.009,0.305,0.014,0.458,0.014
				c0.791,0,1.578-0.127,2.331-0.38c6.799-2.272,28.293-17.066,34.718-21.546c1.358-0.945,2.315-2.289,2.796-3.785
				c1.342-0.188,2.638-0.748,3.728-1.67c16.327-13.826,13.312-33.748,13.176-34.59c-0.013-0.079-0.026-0.158-0.043-0.238
				l-9.628-49.084c-0.455-2.319-1.998-4.278-4.146-5.264c-0.976-0.447-2.022-0.669-3.066-0.669c-1.254,0-2.506,0.321-3.627,0.958
				c-3.208,1.82-6.091,2.744-8.572,2.744c-5.341,0-7.4-4.558-7.485-4.751c-1.458-3.33-3.992-6.726-6.952-9.318
				C109.434,60.186,104.82,58.305,100.153,58.305L100.153,58.305z M90.007,108.069c0.052-0.245,2.419-10.656,9.194-13.309
				c0.577,0.578,1.242,1.053,1.968,1.409c-0.373,3.104,1.189,6.089,4.069,7.435c0.327,0.199,2.35,1.487,2.256,2.983
				c-0.011,0.164-0.016,0.329-0.017,0.493c-0.697,0.336-1.346,0.784-1.918,1.338c-1.887,1.824-2.657,4.518-2.021,7.063
				c0.109,0.436,0.297,1.119,0.581,1.948c-2.255,0.616-4.127,2.256-4.957,4.49c-0.212,0.575-0.352,1.165-0.418,1.753
				c-0.102-0.084-0.206-0.165-0.313-0.244c-5.315-3.913-7.035-7.124-7.035-8.067c0-1.987-0.8-3.842-2.147-5.19
				C89.6,109.523,89.857,108.816,90.007,108.069L90.007,108.069z M100.402,140.63c1.339-1.596,2.537-3.589,3.062-5.953
				c0.024-0.109,0.046-0.219,0.065-0.328c0.004,0.015,0.01,0.03,0.014,0.045c0.114,0.36,0.255,0.708,0.42,1.041
				c-0.057,0.314-0.093,0.634-0.107,0.958c-0.018,0.371-0.089,0.708-0.222,1.028c-0.086,0.209-0.162,0.42-0.228,0.632
				c-0.193,0.174-0.377,0.359-0.552,0.554c-0.443,0.492-1.02,0.98-1.716,1.453C100.881,140.234,100.635,140.425,100.402,140.63
				L100.402,140.63z M95.177,145.039c0.049-0.028,0.096-0.058,0.144-0.087c0.137-0.08,0.301-0.183,0.487-0.303
				c-0.092,0.114-0.181,0.23-0.267,0.351C95.42,145.01,95.298,145.022,95.177,145.039L95.177,145.039z"/>
		</g>
	</g>
</g>
</svg>
